<?xml version="1.0" encoding="UTF-8"?>
<svg version="1.1" xmlns="http://www.w3.org/2000/svg" width="556" height="202">
<path d="M0 0 C183.48 0 366.96 0 556 0 C556 66.66 556 133.32 556 202 C372.52 202 189.04 202 0 202 C0 135.34 0 68.68 0 0 Z " fill="#FDFDFD" transform="translate(0,0)"/>
<path d="M0 0 C3.96 0 7.92 0 12 0 C16.62 10.56 21.24 21.12 26 32 C29.95934777 24.1702633 29.95934777 24.1702633 33.45703125 16.2109375 C33.84697266 15.25058594 34.23691406 14.29023437 34.63867188 13.30078125 C35.02603516 12.33527344 35.41339844 11.36976562 35.8125 10.375 C36.21919922 9.37082031 36.62589844 8.36664063 37.04492188 7.33203125 C38.03357175 4.8894845 39.01730973 2.44495052 40 0 C43.96 0 47.92 0 52 0 C52 15.84 52 31.68 52 48 C48.7 48 45.4 48 42 48 C41.505 35.13 41.505 35.13 41 22 C37.7 30.58 34.4 39.16 31 48 C28.03 48 25.06 48 22 48 C20.51886083 44.56334658 19.04042896 41.12553505 17.5625 37.6875 C16.93118164 36.22280273 16.93118164 36.22280273 16.28710938 34.72851562 C15.88427734 33.79072266 15.48144531 32.85292969 15.06640625 31.88671875 C14.69459229 31.02264404 14.32277832 30.15856934 13.93969727 29.26831055 C13.22347698 27.53944521 12.59177249 25.77531748 12 24 C11.67 31.92 11.34 39.84 11 48 C7.37 48 3.74 48 0 48 C0 32.16 0 16.32 0 0 Z " fill="#060606" transform="translate(26,67)"/>
<path d="M0 0 C0.33 3.63 0.66 7.26 1 11 C-0.505625 11.928125 -2.01125 12.85625 -3.5625 13.8125 C-9.69571216 18.08135506 -14.12280446 23.76593716 -16.6640625 30.8515625 C-18.32047295 41.44488511 -17.82147488 51.35257052 -11.421875 60.17578125 C-6.46466956 66.28296903 -0.76516533 70.20803877 7 72 C16.80466965 72.88428191 26.23155424 71.38738874 34 65 C38.15323605 60.82042208 40.78076807 57.54807983 43 52 C46.96 52 50.92 52 55 52 C49.39981494 66.76412426 42.70658148 75.25279706 28.125 81.875 C18.22596363 85.43865309 7.23200937 85.32314269 -2.47265625 81.26171875 C-13.21956466 75.89656973 -20.80580664 68.84501911 -26 58 C-26.598125 56.824375 -27.19625 55.64875 -27.8125 54.4375 C-31.47301785 43.87669563 -29.40959787 30.93140885 -25 21 C-20.63746346 12.86508438 -10.31217474 0 0 0 Z " fill="#090909" transform="translate(116,43)"/>
<path d="M0 0 C25.94117647 0 25.94117647 0 32.875 5.125 C35.76462115 9.03448744 36.26441815 12.19239734 36 17 C35.31058609 20.72940094 34.3290652 23.80249201 31.4609375 26.38671875 C29.8125 27.5 29.8125 27.5 27 29 C30.47799998 36.09477013 30.47799998 36.09477013 34.3125 43 C36 46 36 46 36 48 C32.04 48 28.08 48 24 48 C22.49480613 45.37785672 20.99568681 42.75255792 19.5 40.125 C19.07074219 39.37863281 18.64148438 38.63226563 18.19921875 37.86328125 C17.79316406 37.14785156 17.38710938 36.43242188 16.96875 35.6953125 C16.59169922 35.03547363 16.21464844 34.37563477 15.82617188 33.69580078 C15 32 15 32 15 30 C13.68 30 12.36 30 11 30 C11 35.94 11 41.88 11 48 C7.37 48 3.74 48 0 48 C0 32.16 0 16.32 0 0 Z " fill="#090909" transform="translate(280,67)"/>
<path d="M0 0 C22 0 22 0 30 3 C33.70871307 6.80380827 35.13959468 10.04343779 35.3125 15.3125 C35.25237316 19.94226662 34.06591027 22.4369151 31 26 C29.34938941 27.35315935 27.68477344 28.68962066 26 30 C26.45439453 30.7113208 26.45439453 30.7113208 26.91796875 31.43701172 C28.28331246 33.58007621 29.64172139 35.72745138 31 37.875 C31.47695313 38.62136719 31.95390625 39.36773437 32.4453125 40.13671875 C32.89648438 40.85214844 33.34765625 41.56757812 33.8125 42.3046875 C34.23144531 42.96452637 34.65039062 43.62436523 35.08203125 44.30419922 C36 46 36 46 36 48 C31.69735822 48.98283695 28.25715398 49.28834923 24 48 C19.87536835 43.86274192 17.46775657 38.21687256 15 33 C14.67 32.34 14.34 31.68 14 31 C12.68 30.67 11.36 30.34 10 30 C10 35.94 10 41.88 10 48 C6.7 48 3.4 48 0 48 C0 32.16 0 16.32 0 0 Z " fill="#050505" transform="translate(490,67)"/>
<path d="M0 0 C10 0 10 0 12.375 1.84375 C12.91125 2.7203125 13.4475 3.596875 14 4.5 C14.63035156 5.48742187 15.26070313 6.47484375 15.91015625 7.4921875 C16.23902832 8.04487305 16.56790039 8.59755859 16.90673828 9.16699219 C18.1312828 11.22011418 19.40388085 13.23863966 20.68359375 15.2578125 C22.4746282 18.08961733 24.24452194 20.93269579 25.99609375 23.7890625 C27.67873144 26.75389778 27.67873144 26.75389778 29 28 C29.33 18.76 29.66 9.52 30 0 C33.63 0 37.26 0 41 0 C41 15.84 41 31.68 41 48 C30 48 30 48 27.33007812 45.8762207 C26.73646484 44.90257568 26.14285156 43.92893066 25.53125 42.92578125 C24.85835938 41.86552734 24.18546875 40.80527344 23.4921875 39.71289062 C22.83476562 38.59076172 22.17734375 37.46863281 21.5 36.3125 C20.46746094 34.65831055 20.46746094 34.65831055 19.4140625 32.97070312 C17.56997653 30.00186823 15.7758958 27.00995243 14 24 C13.01 22.35 12.02 20.7 11 19 C10.67 28.57 10.34 38.14 10 48 C6.7 48 3.4 48 0 48 C0 32.16 0 16.32 0 0 Z " fill="#060606" transform="translate(359,67)"/>
<path d="M0 0 C10 0 10 0 12.84765625 2.5703125 C13.62152208 3.73228023 14.35864198 4.91933784 15.0625 6.125 C15.46388184 6.74648926 15.86526367 7.36797852 16.27880859 8.00830078 C17.11887763 9.31686354 17.94357639 10.63540838 18.75341797 11.96289062 C20.38067177 14.62207701 22.08945511 17.22436115 23.79907227 19.83105469 C25.55585175 22.53916697 27.27416311 25.27206427 29 28 C29.33 18.76 29.66 9.52 30 0 C33.63 0 37.26 0 41 0 C41 15.84 41 31.68 41 48 C30 48 30 48 27.33007812 45.8762207 C26.73646484 44.90257568 26.14285156 43.92893066 25.53125 42.92578125 C24.85835937 41.86552734 24.18546875 40.80527344 23.4921875 39.71289062 C22.83476562 38.59076172 22.17734375 37.46863281 21.5 36.3125 C20.46746094 34.65831055 20.46746094 34.65831055 19.4140625 32.97070312 C17.56997653 30.00186823 15.7758958 27.00995243 14 24 C13.01 22.35 12.02 20.7 11 19 C10.67 28.57 10.34 38.14 10 48 C6.7 48 3.4 48 0 48 C0 32.16 0 16.32 0 0 Z " fill="#060606" transform="translate(191,67)"/>
<path d="M0 0 C110.55 0 221.1 0 335 0 C335 1.32 335 2.64 335 4 C224.45 4 113.9 4 0 4 C0 2.68 0 1.36 0 0 Z " fill="#FCD223" transform="translate(190,125)"/>
<path d="M0 0 C5.6159843 5.02358089 8.06534083 9.71543479 8.8125 17.0625 C8.74423869 22.27961464 6.44344819 26.22236857 3.4375 30.375 C0.8125 32.8125 0.8125 32.8125 -1.5625 34.375 C-2.5525 35.035 -3.5425 35.695 -4.5625 36.375 C-7.5234375 36.640625 -7.5234375 36.640625 -10.9375 36.625 C-12.61972656 36.63273437 -12.61972656 36.63273437 -14.3359375 36.640625 C-20.42964645 36.13896373 -23.5925511 33.95571027 -27.5625 29.375 C-31.50509298 24.15372822 -32.29923217 19.92502082 -32.0859375 13.38671875 C-31.09175244 7.66644502 -27.94925953 3.43238671 -23.609375 -0.30859375 C-17.09907888 -4.495559 -6.2328712 -4.4956491 0 0 Z " fill="#FCCE10" transform="translate(187.5625,28.625)"/>
<path d="M0 0 C25.55 0 25.55 0 31.875 5.5 C34.99548428 9.17115797 35.28383197 12.1832725 35.22265625 16.9375 C34.80432176 20.81259841 32.98170882 23.69105491 30.6875 26.75 C26.29244898 30.00559335 21.41727761 30.23300567 16.125 30.125 C13.093125 30.063125 13.093125 30.063125 10 30 C10 35.94 10 41.88 10 48 C6.7 48 3.4 48 0 48 C0 32.16 0 16.32 0 0 Z " fill="#040404" transform="translate(240,67)"/>
<path d="M0 0 C3.63 0 7.26 0 11 0 C11.01458252 1.00901367 11.02916504 2.01802734 11.04418945 3.05761719 C11.10224114 6.80764891 11.17947292 10.55708446 11.26245117 14.30664062 C11.29566835 15.92828686 11.32371035 17.55004781 11.34643555 19.171875 C11.38004155 21.50570477 11.4323576 23.83848635 11.48828125 26.171875 C11.49467117 26.89493835 11.5010611 27.61800171 11.50764465 28.36297607 C11.62729102 32.47569437 11.97617804 35.08718202 15 38 C17.16547803 38.62963937 17.16547803 38.62963937 19.5 38.5 C20.2734375 38.5103125 21.046875 38.520625 21.84375 38.53125 C24.0935783 38.1680467 24.0935783 38.1680467 25.6027832 36.45605469 C27.51851398 33.08854611 27.47835097 29.94766656 27.51171875 26.171875 C27.52966995 25.42286926 27.54762115 24.67386353 27.56611633 23.90216064 C27.62014543 21.51816376 27.65409003 19.1343662 27.6875 16.75 C27.72067975 15.13018064 27.75517003 13.51038756 27.79101562 11.890625 C27.87586716 7.92722734 27.94271289 3.96388803 28 0 C31.63 0 35.26 0 39 0 C39.09951569 4.83799361 39.17177037 9.67538025 39.21972656 14.51416016 C39.23973571 16.1571695 39.26695213 17.80010859 39.30175781 19.44287109 C39.35075305 21.81625788 39.37307504 24.18869649 39.390625 26.5625 C39.41127014 27.28679199 39.43191528 28.01108398 39.45318604 28.75732422 C39.4555577 34.25325645 37.99571657 38.38483964 35 43 C32.96484375 44.83984375 32.96484375 44.83984375 30.9375 45.9375 C29.93009766 46.50791016 29.93009766 46.50791016 28.90234375 47.08984375 C23.33796512 49.75206186 17.39488016 50.09598493 11.51953125 48.19921875 C6.50423563 45.75457717 3.59997765 42.98273647 0.98803711 38.02954102 C-1.21674372 31.26919378 -0.49964809 23.9664998 -0.3125 16.9375 C-0.28737952 15.29235169 -0.26457298 13.64716634 -0.24414062 12.00195312 C-0.18945494 8.00037607 -0.1033953 4.00060269 0 0 Z " fill="#0B0B0B" transform="translate(443,67)"/>
<path d="M0 0 C9.57 0 19.14 0 29 0 C29 2.97 29 5.94 29 9 C23.06 9 17.12 9 11 9 C11 12.3 11 15.6 11 19 C16.28 19 21.56 19 27 19 C27 21.97 27 24.94 27 28 C21.72 28 16.44 28 11 28 C11 31.96 11 35.92 11 40 C16.61 40 22.22 40 28 40 C28 42.64 28 45.28 28 48 C18.76 48 9.52 48 0 48 C0 32.16 0 16.32 0 0 Z " fill="#060606" transform="translate(323,67)"/>
<path d="M0 0 C9.24 0 18.48 0 28 0 C28 2.97 28 5.94 28 9 C22.06 9 16.12 9 10 9 C10 12.3 10 15.6 10 19 C15.28 19 20.56 19 26 19 C26 21.97 26 24.94 26 28 C20.72 28 15.44 28 10 28 C10 31.96 10 35.92 10 40 C15.94 40 21.88 40 28 40 C28 42.64 28 45.28 28 48 C18.76 48 9.52 48 0 48 C0 32.16 0 16.32 0 0 Z " fill="#050505" transform="translate(408,67)"/>
<path d="M0 0 C0.87527344 -0.01417969 1.75054687 -0.02835938 2.65234375 -0.04296875 C5.0625 0.1875 5.0625 0.1875 8.0625 2.1875 C9.94806852 2.53947279 11.84678676 2.82368451 13.75 3.0625 C19.26685704 3.8937154 23.24858409 5.41024082 28.0625 8.1875 C27.01148517 11.14828569 26.16190473 12.12529764 23.453125 13.8203125 C22.41671875 14.31273437 21.3803125 14.80515625 20.3125 15.3125 C18.77335937 16.05886719 18.77335937 16.05886719 17.203125 16.8203125 C14.19392184 18.130289 11.17609989 19.15814047 8.0625 20.1875 C7.37671875 20.55617188 6.6909375 20.92484375 5.984375 21.3046875 C3.62764033 22.38725261 1.89179241 22.38836154 -0.6875 22.3125 C-1.48671875 22.29445313 -2.2859375 22.27640625 -3.109375 22.2578125 C-3.71265625 22.23460938 -4.3159375 22.21140625 -4.9375 22.1875 C-4.62167969 21.57261719 -4.30585937 20.95773438 -3.98046875 20.32421875 C-2.97238441 18.25896732 -2.32741198 16.44898951 -1.9375 14.1875 C-2.2675 13.8575 -2.5975 13.5275 -2.9375 13.1875 C-2.875625 12.115 -2.81375 11.0425 -2.75 9.9375 C-2.96670408 5.60341838 -3.97658588 4.24094268 -6.9375 1.1875 C-4.47380468 -0.04434766 -2.7480499 0.02017658 0 0 Z " fill="#272424" transform="translate(122.9375,36.8125)"/>
<path d="M0 0 C1.485 0.37125 1.485 0.37125 3 0.75 C4.67601759 0.46741564 6.34594972 0.14116054 8 -0.25 C8.05401695 2.66691525 8.09368066 5.58282724 8.125 8.5 C8.15013672 9.7375 8.15013672 9.7375 8.17578125 11 C8.18222656 11.79921875 8.18867188 12.5984375 8.1953125 13.421875 C8.20578613 14.1550293 8.21625977 14.88818359 8.22705078 15.64355469 C7.96335992 18.08992539 7.29409777 19.66604264 6 21.75 C2.82417369 23.33791315 -0.54161153 23.16019741 -4 22.75 C-6 21.375 -6 21.375 -7 19.75 C-7 19.09 -7 18.43 -7 17.75 C-4.03 18.08 -1.06 18.41 2 18.75 C2 17.76 2 16.77 2 15.75 C1.071875 15.811875 0.14375 15.87375 -0.8125 15.9375 C-4 15.75 -4 15.75 -5.8125 14.375 C-8.20737194 11.09780682 -8.47543077 8.79116151 -8 4.75 C-4.30434783 -0.35869565 -4.30434783 -0.35869565 0 0 Z " fill="#101010" transform="translate(236,143.25)"/>
<path d="M0 0 C2.49664238 2.24697814 2.94239068 3.61319458 3.4375 6.9375 C2.88481128 10.80632104 1.90672632 12.39924487 -1 15 C-4.1875 15.375 -4.1875 15.375 -7 15 C-7.33 14.67 -7.66 14.34 -8 14 C-8.33 16.64 -8.66 19.28 -9 22 C-10.32 22 -11.64 22 -13 22 C-13 14.74 -13 7.48 -13 0 C-4.23703704 -1.25185185 -4.23703704 -1.25185185 0 0 Z " fill="#0A0A0A" transform="translate(143,144)"/>
<path d="M0 0 C1.485 0.37125 1.485 0.37125 3 0.75 C4.65 0.42 6.3 0.09 8 -0.25 C8 5.03 8 10.31 8 15.75 C6.35 15.42 4.7 15.09 3 14.75 C2.67 15.08 2.34 15.41 2 15.75 C-0.8125 16.125 -0.8125 16.125 -4 15.75 C-6.85812053 13.19273427 -7.85567742 11.51972041 -8.5625 7.75 C-7.64299146 2.84595446 -5.2395076 -0.43662563 0 0 Z " fill="#0E0E0E" transform="translate(464,143.25)"/>
<path d="M0 0 C5 1 5 1 7.01953125 3.50390625 C7.61121094 4.51324219 8.20289063 5.52257812 8.8125 6.5625 C9.41707031 7.57441406 10.02164062 8.58632812 10.64453125 9.62890625 C11.09183594 10.41136719 11.53914063 11.19382813 12 12 C12.33 8.04 12.66 4.08 13 0 C14.32 0 15.64 0 17 0 C17 6.6 17 13.2 17 20 C12 19 12 19 9.98046875 16.71484375 C9.38878906 15.79832031 8.79710937 14.88179687 8.1875 13.9375 C7.58292969 13.01839844 6.97835938 12.09929687 6.35546875 11.15234375 C5.90816406 10.44207031 5.46085937 9.73179687 5 9 C4.67 12.63 4.34 16.26 4 20 C2.68 20 1.36 20 0 20 C0 13.4 0 6.8 0 0 Z " fill="#131313" transform="translate(305,139)"/>
<path d="M0 0 C2.8125 1.25 2.8125 1.25 5 3 C5.8125 5.1875 5.8125 5.1875 6 7 C1.125 6.125 1.125 6.125 0 5 C-2.45809998 4.7499227 -2.45809998 4.7499227 -5 5 C-7.3721969 6.94458314 -7.3721969 6.94458314 -7.3125 10.5 C-7.209375 11.655 -7.10625 12.81 -7 14 C-4.24301816 16.28138945 -4.24301816 16.28138945 -1.4375 15.8125 C1.33255117 15.16627558 1.33255117 15.16627558 3 12 C1.02 12 -0.96 12 -3 12 C-3 11.01 -3 10.02 -3 9 C0.3 9 3.6 9 7 9 C6.38976378 15.46850394 6.38976378 15.46850394 4.625 17.875 C0.94183796 20.42488141 -2.6729826 20.52222624 -7 20 C-10.01066181 17.43773463 -11.59121046 15.83955295 -12.4453125 11.99609375 C-12.65541713 8.30525566 -12.10705321 6.16771669 -10.125 3.0625 C-6.7586549 -0.20483495 -4.63724366 -0.36370538 0 0 Z " fill="#141414" transform="translate(385,139)"/>
<path d="M0 0 C2.562964 2.23225897 2.93752331 3.58051369 3.4375 6.9375 C2.88008526 10.83940315 1.97118368 12.40973731 -1 15 C-4.63450273 15.51921468 -7.01506272 15.37882203 -10.4375 14.0625 C-12.64536872 11.14811329 -12.62106803 8.7592401 -12.4453125 5.16796875 C-12 3 -12 3 -9.9375 0.375 C-6.09003735 -1.42593997 -4.04405144 -1.19823746 0 0 Z " fill="#111111" transform="translate(505,144)"/>
<path d="M0 0 C2.81972931 2.36493426 2.97850831 3.8280665 3.4375 7.5 C3 11 3 11 1.4375 13.4375 C-1.94217804 15.60396028 -4.05983987 15.56288002 -8 15 C-10.4375 13.5 -10.4375 13.5 -12 11 C-12.61014545 8.1910285 -12.65360928 5.80363979 -12 3 C-8.38525112 -1.49105164 -5.37641793 -1.59301272 0 0 Z " fill="#111111" transform="translate(171,144)"/>
<path d="M0 0 C4.99268902 1.47931526 4.99268902 1.47931526 6.375 4 C7.12971698 10.79245283 7.12971698 10.79245283 4.8125 14.5 C1.39967068 16.60020266 -0.69188873 16.63210717 -4.625 16 C-7.5486459 13.4511805 -8.47409176 11.80484394 -9.1875 8 C-8.16441035 2.54352187 -5.57571613 0 0 0 Z " fill="#111111" transform="translate(184.625,143)"/>
<path d="M0 0 C3.64443151 0.69786986 4.84639337 1.50626723 6.9375 4.5625 C7.1875 7.8125 7.1875 7.8125 6.9375 10.5625 C3.6375 10.5625 0.3375 10.5625 -3.0625 10.5625 C-2.7325 11.2225 -2.4025 11.8825 -2.0625 12.5625 C2.3925 12.0675 2.3925 12.0675 6.9375 11.5625 C4.9375 15.5625 4.9375 15.5625 2.9375 16.5625 C-0.4375 16.9375 -0.4375 16.9375 -4.0625 16.5625 C-6.9861459 14.0136805 -7.91159176 12.36734394 -8.625 8.5625 C-7.67612012 3.50180729 -5.05437938 0.9283554 0 0 Z " fill="#303030" transform="translate(332.0625,142.4375)"/>
<path d="M0 0 C2.875 2.1875 2.875 2.1875 5 5 C5 6.65 5 8.3 5 10 C1.37 10 -2.26 10 -6 10 C-5.67 10.66 -5.34 11.32 -5 12 C-0.545 11.505 -0.545 11.505 4 11 C2 15 2 15 1 16 C-2.4626275 16.26133038 -5.17459723 16.3174626 -8.4375 15.0625 C-10.64720117 12.14569446 -10.55817522 9.75315273 -10.3828125 6.1640625 C-10 4 -10 4 -8.375 1.4375 C-5.23101795 -0.46543651 -3.61853729 -0.6646293 0 0 Z " fill="#1D1D1D" transform="translate(107,143)"/>
<path d="M0 0 C2.375 1.625 2.375 1.625 4 4 C4.25 7.25 4.25 7.25 4 10 C0.7 10 -2.6 10 -6 10 C-5.67 10.66 -5.34 11.32 -5 12 C-0.545 11.505 -0.545 11.505 4 11 C2 15 2 15 0 16 C-4.03191305 16.53758841 -5.5619036 16.3075996 -8.9375 13.9375 C-11 11 -11 11 -11.0625 7.4375 C-9.18413098 1.36042377 -6.48799428 -1.08133238 0 0 Z " fill="#2F2F2F" transform="translate(439,143)"/>
<path d="M0 0 C2.8125 2.1875 2.8125 2.1875 5 5 C5 6.65 5 8.3 5 10 C1.37 10 -2.26 10 -6 10 C-5.67 10.66 -5.34 11.32 -5 12 C-0.545 11.505 -0.545 11.505 4 11 C2 15 2 15 1 16 C-2.78299385 16.35688621 -5.15412807 16.52053657 -8.4375 14.5 C-10.33241656 11.46813351 -10.63766746 9.43891992 -10.453125 5.90625 C-10 4 -10 4 -7.8125 1.5 C-4.72015 -0.14925334 -3.4172248 -0.76887558 0 0 Z " fill="#191919" transform="translate(404,143)"/>
<path d="M0 0 C10.47822996 -0.36981988 10.47822996 -0.36981988 12.82421875 1.29296875 C14.83647919 4.21442328 14.4868833 6.59181689 14 10 C10.99451666 13.00548334 8.25631312 13.16182925 4.1875 13.1875 C2.1146875 13.0946875 2.1146875 13.0946875 0 13 C0 8.71 0 4.42 0 0 Z " fill="#ECECEC" transform="translate(500,76)"/>
<path d="M0 0 C10.47822996 -0.36981988 10.47822996 -0.36981988 12.82421875 1.29296875 C14.83647919 4.21442328 14.4868833 6.59181689 14 10 C10.99451666 13.00548334 8.25631312 13.16182925 4.1875 13.1875 C2.1146875 13.0946875 2.1146875 13.0946875 0 13 C0 8.71 0 4.42 0 0 Z " fill="#F2F2F2" transform="translate(291,76)"/>
<path d="M0 0 C4.81209677 1.42580645 4.81209677 1.42580645 6.375 4 C6.375 5.65 6.375 7.3 6.375 9 C2.745 9 -0.885 9 -4.625 9 C-3.635 10.485 -3.635 10.485 -2.625 12 C1.83 11.505 1.83 11.505 6.375 11 C4.375 15 4.375 15 2.375 16 C-1 16.375 -1 16.375 -4.625 16 C-7.5486459 13.4511805 -8.47409176 11.80484394 -9.1875 8 C-8.16441035 2.54352187 -5.57571613 0 0 0 Z " fill="#131313" transform="translate(289.625,143)"/>
<path d="M0 0 C10.48788962 -0.37016081 10.48788962 -0.37016081 12.83203125 1.32421875 C14.64548905 3.92613646 14.38474673 5.92202612 14 9 C12.14657225 11.55949546 11.06243607 11.97918798 8 13 C6.60560336 13.06665376 5.20830125 13.08538199 3.8125 13.0625 C1.9253125 13.0315625 1.9253125 13.0315625 0 13 C0 8.71 0 4.42 0 0 Z " fill="#F0F0F0" transform="translate(250,76)"/>
<path d="M0 0 C1.32 0 2.64 0 4 0 C4.33 1.98 4.66 3.96 5 6 C6.36125 5.62875 6.36125 5.62875 7.75 5.25 C11 5 11 5 13.1875 6.59375 C15.51539507 9.68423139 15.4161863 11.42771501 15.25 15.25 C15.21390625 16.32765625 15.1778125 17.4053125 15.140625 18.515625 C15.07101562 19.74539062 15.07101562 19.74539062 15 21 C13.68 21 12.36 21 11 21 C10.67 17.37 10.34 13.74 10 10 C8.35 10 6.7 10 5 10 C4.67 13.63 4.34 17.26 4 21 C2.68 21 1.36 21 0 21 C0 14.07 0 7.14 0 0 Z " fill="#101010" transform="translate(264,138)"/>
<path d="M0 0 C2.475 0.495 2.475 0.495 5 1 C6.5159375 0.6596875 6.5159375 0.6596875 8.0625 0.3125 C11 0 11 0 13.16796875 1.58984375 C15.51907323 4.68287459 15.41682716 6.41297529 15.25 10.25 C15.21390625 11.32765625 15.1778125 12.4053125 15.140625 13.515625 C15.07101562 14.74539062 15.07101562 14.74539062 15 16 C13.68 16 12.36 16 11 16 C10.67 12.37 10.34 8.74 10 5 C8.35 5.33 6.7 5.66 5 6 C4.67 9.3 4.34 12.6 4 16 C2.68 16 1.36 16 0 16 C0 10.72 0 5.44 0 0 Z " fill="#0F0F0F" transform="translate(411,143)"/>
<path d="M0 0 C1.32 0 2.64 0 4 0 C4.33 3.63 4.66 7.26 5 11 C7.475 11.99 7.475 11.99 10 13 C10.33 8.71 10.66 4.42 11 0 C12.32 0 13.64 0 15 0 C15 5.28 15 10.56 15 16 C13.081875 16.0825 11.16375 16.165 9.1875 16.25 C7.56908203 16.31960937 7.56908203 16.31960937 5.91796875 16.390625 C3 16 3 16 1.125 14.375 C-0.31383902 11.33745096 -0.29665529 9.09742891 -0.1875 5.75 C-0.14689453 4.13351563 -0.14689453 4.13351563 -0.10546875 2.484375 C-0.07066406 1.66453125 -0.03585938 0.8446875 0 0 Z " fill="#141414" transform="translate(68,143)"/>
<path d="M0 0 C5.5952381 0.5952381 5.5952381 0.5952381 8 3 C8.1953125 6.0390625 8.1953125 6.0390625 8.125 9.625 C8.10695313 10.81351563 8.08890625 12.00203125 8.0703125 13.2265625 C8.04710937 14.14179688 8.02390625 15.05703125 8 16 C6.68 16 5.36 16 4 16 C3.67 12.37 3.34 8.74 3 5 C1.68 5 0.36 5 -1 5 C-1.33 8.63 -1.66 12.26 -2 16 C-3.32 16 -4.64 16 -6 16 C-6 11.05 -6 6.1 -6 1 C-4.35 1 -2.7 1 -1 1 C-0.67 0.67 -0.34 0.34 0 0 Z " fill="#1A1A1A" transform="translate(517,143)"/>
<path d="M0 0 C2.475 0.495 2.475 0.495 5 1 C5.33 0.67 5.66 0.34 6 0 C8.69130204 -0.28329495 10.35917139 -0.42570411 12.65234375 1.09765625 C14.66046464 3.93230805 14.28915145 6.26523449 14.1875 9.6875 C14.16042969 10.86699219 14.13335937 12.04648438 14.10546875 13.26171875 C14.07066406 14.16535156 14.03585938 15.06898438 14 16 C13.01 16 12.02 16 11 16 C10.67 12.7 10.34 9.4 10 6 C8.35 5.67 6.7 5.34 5 5 C4.67 8.63 4.34 12.26 4 16 C2.68 16 1.36 16 0 16 C0 10.72 0 5.44 0 0 Z " fill="#191919" transform="translate(211,143)"/>
<path d="M0 0 C1.32 0 2.64 0 4 0 C4.33 3.96 4.66 7.92 5 12 C6.65 11.67 8.3 11.34 10 11 C10.33 7.7 10.66 4.4 11 1 C11.99 1 12.98 1 14 1 C14 5.95 14 10.9 14 16 C12.68 15.67 11.36 15.34 10 15 C8.2365625 15.309375 8.2365625 15.309375 6.4375 15.625 C3 16 3 16 1.296875 14.94140625 C-0.62228923 12.06844052 -0.28879521 9.72277223 -0.1875 6.3125 C-0.16042969 5.13300781 -0.13335937 3.95351562 -0.10546875 2.73828125 C-0.07066406 1.83464844 -0.03585938 0.93101562 0 0 Z " fill="#121212" transform="translate(40,143)"/>
<path d="M0 0 C3.63 0 7.26 0 11 0 C11 0.99 11 1.98 11 3 C8.69 3 6.38 3 4 3 C4 4.32 4 5.64 4 7 C5.98 7 7.96 7 10 7 C10 8.32 10 9.64 10 11 C8.02 11 6.04 11 4 11 C4 13.64 4 16.28 4 19 C2.68 19 1.36 19 0 19 C0 12.73 0 6.46 0 0 Z " fill="#212121" transform="translate(26,140)"/>
<path d="M0 0 C1.32 0 2.64 0 4 0 C4.66 0.99 5.32 1.98 6 3 C6.66 3 7.32 3 8 3 C8.33 2.34 8.66 1.68 9 1 C10.32 1 11.64 1 13 1 C12.690625 1.763125 12.38125 2.52625 12.0625 3.3125 C10.27154063 7.02692609 10.27154063 7.02692609 10.77734375 10.82421875 C11.16019531 11.43910156 11.54304688 12.05398437 11.9375 12.6875 C12.618125 13.780625 13.29875 14.87375 14 16 C9.44615385 16.36923077 9.44615385 16.36923077 7.1875 14.5 C6.795625 14.005 6.40375 13.51 6 13 C5.01 14.485 5.01 14.485 4 16 C2.68 16 1.36 16 0 16 C0.309375 15.2575 0.61875 14.515 0.9375 13.75 C1.288125 12.8425 1.63875 11.935 2 11 C2.268125 10.34 2.53625 9.68 2.8125 9 C3.09137448 6.02533884 1.60012564 4.43219097 0 2 C0 1.34 0 0.68 0 0 Z " fill="#141414" transform="translate(341,143)"/>
<path d="M0 0 C1.32 0 2.64 0 4 0 C4 0.99 4 1.98 4 3 C5.32 3 6.64 3 8 3 C8 4.32 8 5.64 8 7 C6.68 7 5.36 7 4 7 C4.33 9.64 4.66 12.28 5 15 C5.99 15.33 6.98 15.66 8 16 C8 16.99 8 17.98 8 19 C5.125 19.1875 5.125 19.1875 2 19 C-0.13586678 15.79619983 -0.23132175 14.98060033 -0.125 11.3125 C-0.10695312 10.50425781 -0.08890625 9.69601563 -0.0703125 8.86328125 C-0.04710937 8.24839844 -0.02390625 7.63351563 0 7 C-0.66 7 -1.32 7 -2 7 C-2 5.68 -2 4.36 -2 3 C-1.34 3 -0.68 3 0 3 C0 2.01 0 1.02 0 0 Z " fill="#1F1F1F" transform="translate(254,140)"/>
<path d="M0 0 C0 1.32 0 2.64 0 4 C-0.66 4 -1.32 4 -2 4 C-2 4.66 -2 5.32 -2 6 C-1.34 6 -0.68 6 0 6 C0 7.32 0 8.64 0 10 C-0.66 10 -1.32 10 -2 10 C-2 13.96 -2 17.92 -2 22 C-3.32 22 -4.64 22 -6 22 C-6 18.04 -6 14.08 -6 10 C-6.66 10 -7.32 10 -8 10 C-8 9.01 -8 8.02 -8 7 C-7.34 7 -6.68 7 -6 7 C-6.061875 6.21625 -6.12375 5.4325 -6.1875 4.625 C-6.125625 3.75875 -6.06375 2.8925 -6 2 C-3 0 -3 0 0 0 Z " fill="#191919" transform="translate(201,137)"/>
<path d="M0 0 C1.32 0 2.64 0 4 0 C4 0.99 4 1.98 4 3 C5.32 3.33 6.64 3.66 8 4 C8 4.99 8 5.98 8 7 C6.68 7 5.36 7 4 7 C4.12375 8.299375 4.2475 9.59875 4.375 10.9375 C4.44460938 11.66839844 4.51421875 12.39929688 4.5859375 13.15234375 C4.72257812 13.76207031 4.85921875 14.37179688 5 15 C5.66 15.33 6.32 15.66 7 16 C7 16.99 7 17.98 7 19 C4.625 19.1875 4.625 19.1875 2 19 C-0.13586678 15.79619983 -0.23132175 14.98060033 -0.125 11.3125 C-0.10695313 10.50425781 -0.08890625 9.69601563 -0.0703125 8.86328125 C-0.04710937 8.24839844 -0.02390625 7.63351563 0 7 C-0.66 7 -1.32 7 -2 7 C-2 5.68 -2 4.36 -2 3 C-1.34 3 -0.68 3 0 3 C0 2.01 0 1.02 0 0 Z " fill="#171717" transform="translate(476,140)"/>
<path d="M0 0 C1.65 0 3.3 0 5 0 C5 0.99 5 1.98 5 3 C5.99 3 6.98 3 8 3 C8 4.32 8 5.64 8 7 C7.01 7 6.02 7 5 7 C5 9.97 5 12.94 5 16 C5.99 16 6.98 16 8 16 C8 16.99 8 17.98 8 19 C5.625 19.125 5.625 19.125 3 19 C1 17 1 17 0.8046875 14.6171875 C0.82789063 13.71226562 0.85109375 12.80734375 0.875 11.875 C0.89304688 10.96492187 0.91109375 10.05484375 0.9296875 9.1171875 C0.95289063 8.41851562 0.97609375 7.71984375 1 7 C0.34 7 -0.32 7 -1 7 C-0.67 4.69 -0.34 2.38 0 0 Z " fill="#1C1C1C" transform="translate(58,140)"/>
<path d="M0 0 C1.32 0 2.64 0 4 0 C4 1.32 4 2.64 4 4 C5.32 4 6.64 4 8 4 C8 4.99 8 5.98 8 7 C6.68 7 5.36 7 4 7 C4.33 9.64 4.66 12.28 5 15 C5.99 15.33 6.98 15.66 8 16 C8 16.99 8 17.98 8 19 C5.6568787 18.74438677 3.32156597 18.40729228 1 18 C-0.3176312 15.36473759 -0.37393251 13.05890299 -0.625 10.125 C-0.72039062 9.07570312 -0.81578125 8.02640625 -0.9140625 6.9453125 C-0.99015863 4.33729071 -0.7960989 2.45958914 0 0 Z " fill="#161616" transform="translate(357,140)"/>
<path d="M0 0 C2.475 0.495 2.475 0.495 5 1 C7.23167185 0.63143136 7.23167185 0.63143136 9 0 C9 1.65 9 3.3 9 5 C7.68 5.33 6.36 5.66 5 6 C4.67 9.3 4.34 12.6 4 16 C2.68 16 1.36 16 0 16 C0 10.72 0 5.44 0 0 Z " fill="#181818" transform="translate(446,143)"/>
<path d="M0 0 C1.32 0 2.64 0 4 0 C4.33 0.66 4.66 1.32 5 2 C6.32 1.34 7.64 0.68 9 0 C9 1.65 9 3.3 9 5 C7.68 5.33 6.36 5.66 5 6 C4.67 9.3 4.34 12.6 4 16 C2.68 16 1.36 16 0 16 C0 10.72 0 5.44 0 0 Z " fill="#222222" transform="translate(86,143)"/>
<path d="M0 0 C0.99 0 1.98 0 3 0 C3.33 0.66 3.66 1.32 4 2 C5.32 1.34 6.64 0.68 8 0 C8 1.65 8 3.3 8 5 C6.68 5.33 5.36 5.66 4 6 C3.67 9.3 3.34 12.6 3 16 C1.68 16 0.36 16 -1 16 C-1.02685095 13.52076199 -1.04676547 11.0418116 -1.0625 8.5625 C-1.07506836 7.50192383 -1.07506836 7.50192383 -1.08789062 6.41992188 C-1.09653588 4.61306441 -1.05220011 2.80612397 -1 1 C-0.67 0.67 -0.34 0.34 0 0 Z " fill="#222222" transform="translate(149,143)"/>
<path d="M0 0 C2.31 0.33 4.62 0.66 7 1 C6.5359375 1.928125 6.5359375 1.928125 6.0625 2.875 C4.5960722 7.18802294 4.33380974 11.4759996 4 16 C2.68 16 1.36 16 0 16 C0 10.72 0 5.44 0 0 Z " fill="#1D1D1D" transform="translate(411,143)"/>
<path d="M0 0 C1.32 0 2.64 0 4 0 C4 5.28 4 10.56 4 16 C2.68 16 1.36 16 0 16 C0 10.72 0 5.44 0 0 Z " fill="#101010" transform="translate(486,143)"/>
<path d="M0 0 C1.32 0 2.64 0 4 0 C4 5.28 4 10.56 4 16 C2.68 16 1.36 16 0 16 C0 10.72 0 5.44 0 0 Z " fill="#232323" transform="translate(203,143)"/>
<path d="M0 0 C4.55555556 0.55555556 4.55555556 0.55555556 6 2 C6.1875 4.4375 6.1875 4.4375 6 7 C5.34 7.66 4.68 8.32 4 9 C-0.55555556 8.44444444 -0.55555556 8.44444444 -2 7 C-2.1875 4.5625 -2.1875 4.5625 -2 2 C-1.34 1.34 -0.68 0.68 0 0 Z " fill="#EFEFEF" transform="translate(136,147)"/>
<path d="M0 0 C2.475 0.495 2.475 0.495 5 1 C4.67 5.62 4.34 10.24 4 15 C2.68 15 1.36 15 0 15 C0 10.05 0 5.1 0 0 Z " fill="#0E0E0E" transform="translate(511,144)"/>
<path d="M0 0 C4.55555556 0.55555556 4.55555556 0.55555556 6 2 C6.1875 4.4375 6.1875 4.4375 6 7 C5.34 7.66 4.68 8.32 4 9 C1.375 8.625 1.375 8.625 -1 8 C-1.625 5.125 -1.625 5.125 -2 2 C-1.34 1.34 -0.68 0.68 0 0 Z " fill="#F1F1F1" transform="translate(462,147)"/>
<path d="M0 0 C2.625 0.375 2.625 0.375 5 1 C5.625 3.3125 5.625 3.3125 6 6 C5.01 7.485 5.01 7.485 4 9 C-0.875 8.125 -0.875 8.125 -2 7 C-2.1875 4.5625 -2.1875 4.5625 -2 2 C-1.34 1.34 -0.68 0.68 0 0 Z " fill="#F1F1F1" transform="translate(234,147)"/>
<path d="M0 0 C2.5625 0.1875 2.5625 0.1875 4.5625 2.1875 C4.7578125 5.2265625 4.7578125 5.2265625 4.6875 8.8125 C4.66945312 10.00101563 4.65140625 11.18953125 4.6328125 12.4140625 C4.60960937 13.32929688 4.58640625 14.24453125 4.5625 15.1875 C3.5725 15.1875 2.5825 15.1875 1.5625 15.1875 C1.52382812 14.17429688 1.52382812 14.17429688 1.484375 13.140625 C1.21928272 7.42986068 1.21928272 7.42986068 -1.5 2.5625 C-2.139375 2.10875 -2.77875 1.655 -3.4375 1.1875 C-2.4375 0.1875 -2.4375 0.1875 0 0 Z " fill="#030303" transform="translate(220.4375,143.8125)"/>
<path d="M0 0 C0.33 0 0.66 0 1 0 C1 3.3 1 6.6 1 10 C6.28 10 11.56 10 17 10 C17 12.97 17 15.94 17 19 C16.34 18.67 15.68 18.34 15 18 C15 16.02 15 14.04 15 12 C10.05 12 5.1 12 0 12 C0 8.04 0 4.08 0 0 Z " fill="#454545" transform="translate(333,76)"/>
<path d="M0 0 C4.70588235 0.70588235 4.70588235 0.70588235 6 2 C6.1875 4.4375 6.1875 4.4375 6 7 C5.34 7.66 4.68 8.32 4 9 C1.375 8.625 1.375 8.625 -1 8 C-1.04241723 5.66705225 -1.04092937 3.33297433 -1 1 C-0.67 0.67 -0.34 0.34 0 0 Z " fill="#F3F3F3" transform="translate(498,147)"/>
<path d="M0 0 C4.70588235 0.70588235 4.70588235 0.70588235 6 2 C6.1875 4.4375 6.1875 4.4375 6 7 C5.34 7.66 4.68 8.32 4 9 C1.375 8.625 1.375 8.625 -1 8 C-1.04241723 5.66705225 -1.04092937 3.33297433 -1 1 C-0.67 0.67 -0.34 0.34 0 0 Z " fill="#F3F3F3" transform="translate(164,147)"/>
<path d="M0 0 C2.625 0.375 2.625 0.375 5 1 C5 3.31 5 5.62 5 8 C2.625 8.625 2.625 8.625 0 9 C-2 7 -2 7 -2.25 4.5 C-2 2 -2 2 0 0 Z " fill="#F5F5F5" transform="translate(182,147)"/>
<path d="M0 0 C0.99 0 1.98 0 3 0 C3 4.95 3 9.9 3 15 C2.01 15 1.02 15 0 15 C0 14.34 0 13.68 0 13 C-0.66 13 -1.32 13 -2 13 C-1.34 8.71 -0.68 4.42 0 0 Z " fill="#000000" transform="translate(51,144)"/>
<path d="M0 0 C3.96 0 7.92 0 12 0 C12 1.32 12 2.64 12 4 C8.04 4 4.08 4 0 4 C0 2.68 0 1.36 0 0 Z " fill="#303030" transform="translate(114,147)"/>
<path d="M0 0 C-0.25 1.875 -0.25 1.875 -1 4 C-2.9375 5.0625 -2.9375 5.0625 -5 6 C-5.99 7.485 -5.99 7.485 -7 9 C-7 7.68 -7 6.36 -7 5 C-7.66 5 -8.32 5 -9 5 C-9 4.34 -9 3.68 -9 3 C-8.34 3 -7.68 3 -7 3 C-6.67 2.01 -6.34 1.02 -6 0 C-3.50907189 -1.24546405 -2.58919267 -0.7767578 0 0 Z " fill="#F5F5F5" transform="translate(208,138)"/>
<path d="M0 0 C3.63 0 7.26 0 11 0 C7.37542083 2.71843438 6.19115285 3.41789544 2 4 C1.34 2.68 0.68 1.36 0 0 Z " fill="#BEBEBE" transform="translate(285,152)"/>
<path d="M0 0 C0.625 1.875 0.625 1.875 1 4 C0.34 4.66 -0.32 5.32 -1 6 C-3.625 5.625 -3.625 5.625 -6 5 C-5.67 4.01 -5.34 3.02 -5 2 C-2.4375 0.8125 -2.4375 0.8125 0 0 Z " fill="#EFEFEF" transform="translate(239,157)"/>
<path d="M0 0 C1.98 0.495 1.98 0.495 4 1 C3.67 2.32 3.34 3.64 3 5 C1.68 4.67 0.36 4.34 -1 4 C-0.67 2.68 -0.34 1.36 0 0 Z " fill="#383838" transform="translate(204,137)"/>
<path d="M0 0 C3.3 0 6.6 0 10 0 C6.71299843 1.64350079 4.52069985 2.41321669 1 3 C0.67 2.01 0.34 1.02 0 0 Z " fill="#F3F3F3" transform="translate(433,153)"/>
<path d="M0 0 C3.3 0 6.6 0 10 0 C6.71299843 1.64350079 4.52069985 2.41321669 1 3 C0.67 2.01 0.34 1.02 0 0 Z " fill="#F2F2F2" transform="translate(398,153)"/>
<path d="M0 0 C3.3 0 6.6 0 10 0 C6.71299843 1.64350079 4.52069985 2.41321669 1 3 C0.67 2.01 0.34 1.02 0 0 Z " fill="#F3F3F3" transform="translate(329,153)"/>
<path d="M0 0 C3.3 0 6.6 0 10 0 C6.71299843 1.64350079 4.52069985 2.41321669 1 3 C0.67 2.01 0.34 1.02 0 0 Z " fill="#F3F3F3" transform="translate(101,153)"/>
<path d="M0 0 C1.65 0 3.3 0 5 0 C5.33 0.99 5.66 1.98 6 3 C3.69 3 1.38 3 -1 3 C-0.67 2.01 -0.34 1.02 0 0 Z " fill="#D5D5D5" transform="translate(399,147)"/>
<path d="M0 0 C1.65 0 3.3 0 5 0 C5.33 0.99 5.66 1.98 6 3 C3.69 3 1.38 3 -1 3 C-0.67 2.01 -0.34 1.02 0 0 Z " fill="#D6D6D6" transform="translate(286,147)"/>
<path d="M0 0 C1.65 0.33 3.3 0.66 5 1 C5 1.66 5 2.32 5 3 C2.69 3 0.38 3 -2 3 C-1.34 2.01 -0.68 1.02 0 0 Z " fill="#DEDEDE" transform="translate(102,147)"/>
</svg>
