<?xml version="1.0" encoding="UTF-8"?>
<svg version="1.1" viewBox="0 0 2048 932" width="740" height="337" xmlns="http://www.w3.org/2000/svg">
<path transform="translate(413,25)" d="m0 0h1578l10 1 8 6 5 6 3 7v846l-5 10-8 7-5 2-19 1h-1565l-11-4-5-4-5-8-1-3-1-18v-103l-2 1h-50v15l-3 5-4 2h-87l-1 57-3 6-5 5-6 2h-51l-8-4-4-5-1-3-1-338-29 6h-5v5l-7 6-17 3-14 2h-9l-6-7h-12l-7-4-3-6-10 1-7-2-3-5 1-7 4-3 10-1 5 1 8-7 2-1 13-1 6-7 35 5 7 3 3 3 1 5 30-6 3-1 1-3v-64l-13 3-20 3-2 6-5 4-35 6-7-1-5-5-13-1-6-4-2-7h-16l-4-3-1-7 3-5 4-2h14l5-5 3-1 14-1 4-5 7-1 33 5 6 4 2 3v3l24-4 10-2 1-341 5-8 6-4h55l5 2 4 5 3 6v62l35-1 1-15 3-5 1-1h107v-59l2-13 9-10 6-4zm854 291-6 4-4 6v9l4 6 7 5 50 16 33 11 10 4 35 11 9 3 1 2-9 3-13 3-8 4-14 4-8 3-26 8-51 17-13 5-5 5-2 3v10l4 6 5 4 2 1 9-1 13-5 25-8 7-3 25-8 20-7 19-7 35-12 16-5 14-5 8-6 3-6v-9l-7-8-8-4-14-6-16-5-35-12-27-9-13-5-36-12-28-9-4-1zm-1022 72v106l88 1 5 4 1 4 1 15 2 1h50v-109h-106l-3-3-1-3-1-15-1-1zm1064 111-10 2-12 5-9 7-9 8-6 10-5 12-2 14 1 15 5 14 5 9 6 7 10 8 12 6 10 3 21 1 13-1 17-6 14-10 9-11 6-13 2-10v-19l-3-12-5-10 16 4 16 5 9 6 8 9 4 9 1 7v33l5 6 6 2 7-1 7-6 3-6 1-4v-29l-4-14-5-12-8-12-8-8-11-7-11-5-20-5-11-1z" fill="#353535"/>
<path transform="translate(413,25)" d="m0 0h101l361 1v884h1105v1h-1565l-11-4-5-4-5-8-1-3-1-18v-103l-2 1h-50v15l-3 5-4 2h-87l-1 57-3 6-5 5-6 2h-51l-8-4-4-5-1-3-1-338-29 6h-5v5l-7 6-17 3-14 2h-9l-6-7h-12l-7-4-3-6-10 1-7-2-3-5 1-7 4-3 10-1 5 1 8-7 2-1 13-1 6-7 35 5 7 3 3 3 1 5 30-6 3-1 1-3v-64l-13 3-20 3-2 6-5 4-35 6-7-1-5-5-13-1-6-4-2-7h-16l-4-3-1-7 3-5 4-2h14l5-5 3-1 14-1 4-5 7-1 33 5 6 4 2 3v3l24-4 10-2 1-341 5-8 6-4h55l5 2 4 5 3 6v62l35-1 1-15 3-5 1-1h107v-59l2-13 9-10 6-4zm-168 363v106l88 1 5 4 1 4 1 15 2 1h50v-109h-106l-3-3-1-3-1-15-1-1z" fill="#D88C59"/>
<path transform="translate(178,59)" d="m0 0h55l5 2 4 5 3 6 1 63v659l-1 57-3 6-5 5-6 2h-51l-8-4-4-5-1-3-1-338-29 6h-5v5l-7 6-17 3-14 2h-9l-6-7h-12l-7-4-3-6-10 1-7-2-3-5 1-7 4-3 10-1 5 1 8-7 2-1 13-1 6-7 35 5 7 3 3 3 1 5 30-6 3-1 1-3v-64l-13 3-20 3-2 6-5 4-35 6-7-1-5-5-13-1-6-4-2-7h-16l-4-3-1-7 3-5 4-2h14l5-5 3-1 14-1 4-5 7-1 33 5 6 4 2 3v3l24-4 10-2 1-341 5-8z" fill="#353535"/>
<path transform="translate(285,112)" d="m0 0h107v298l-3 1h-103l-4-4-1-3-1-15-35-1v-254l35-1 1-15 3-5z" fill="#BABBBA"/>
<path transform="translate(245,494)" d="m0 0h88l6 5 1 4v15l52 1v252l-2 1h-50v15l-3 5-4 2h-85l-2-1z" fill="#8B8C8C"/>
<path transform="translate(340,518)" d="m0 0 52 1v252l-2 1h-50z" fill="#BABBBA"/>
<path transform="translate(245,134)" d="m0 0h34l1 1v253h-35z" fill="#8B8C8C"/>
<path transform="translate(462,597)" d="m0 0h22l13 5 9 7 8 8 6 10 3 8 1 14-2 13-7 14-9 10-5 4-12 6-14 3-12-1-12-4-10-6-9-9-8-13-3-12v-9l3-14 6-12 8-10 12-8z" fill="#D88C59"/>
<path transform="translate(467,212)" d="m0 0h13l12 3 10 6 10 9 7 11 4 11 1 14-3 14-6 12-9 10-11 7-9 4-4 1h-17l-13-4-10-6-10-9-7-12-3-9v-20l3-10 6-11 7-8 10-7 9-4z" fill="#D88C59"/>
<path transform="translate(1309,528)" d="m0 0h25l8 3 10 7 6 10 2 5v13l-4 10-7 8-14 7h-26l-7-3-9-6-6-8-3-8v-11l4-12 8-9z" fill="#363636"/>
<path transform="translate(86,487)" d="m0 0 35 5 7 3 3 3 1 5 30-6 4-1 1 1v15l-1 2-29 6h-5v5l-7 6-17 3-14 2h-9l-6-7h-12l-7-4-3-6-10 1-7-2-3-5 1-7 4-3 10-1 5 1 8-7 2-1 13-1z" fill="#9E1E2D"/>
<path transform="translate(876,27)" d="m0 0h1084v1l-55 1-31 1h-960l-35-2-1 3h-2z" fill="#282728"/>
<path transform="translate(470,612)" d="m0 0h6l2 4v26h23l7 2 1 3-3 5h-28v23l-2 7-6 1-3-5v-23l1-2h-15l-13-1-3-3v-5l4-2h26v-16l1-12z" fill="#343434"/>
<path transform="translate(470,227)" d="m0 0h5l3 4v54l-1 12-3 2-5-1-2-3v-50l1-16z" fill="#2A292A"/>
<path transform="translate(469,210)" d="m0 0 16 1 13 5 9 7 5 5 6 7 5 10 2 7v21l-4 12-6 10-8 9-11 7-11 4-6 1h-13l-13-4-10-5-10-9-6-7-5-11-2-6v-19l4-13 7-12 9-9 9-6 11-4zm-2 2-13 3-11 6-9 8-7 11-4 9-1 5v20l5 13 7 10 9 8 14 7 8 2h17l11-4 10-6 8-7 7-10 4-10 2-11-1-14-4-11-7-11-11-10-12-6-9-2z" fill="#353535"/>
<path transform="translate(463,595)" d="m0 0h19l13 4 10 6 9 9 8 13 3 9v21l-4 12-7 12-8 8-12 7-14 4h-16l-12-4-10-5-11-10-7-11-4-10v-21l5-15 7-11 8-8 12-7zm-1 2-14 5-12 9-9 13-4 10-2 11v9l3 12 6 10 9 10 8 6 12 5 10 2 13-1 12-4 10-6 9-9 7-12 3-9 1-12-1-11-4-10-7-10-9-9-10-6-9-3z" fill="#353535"/>
<path transform="translate(59,501)" d="m0 0h1l1 24-3-3-1-3-10 1-7-2-3-5 1-7 4-3 10-1 5 1z" fill="#929290"/>
<path transform="translate(63,411)" d="m0 0 2 1-5 5v21l-2-3v-2h-16l-4-3-1-7 3-5 4-2h14z" fill="#8F908F"/>
<path transform="translate(468,652)" d="m0 0h9v29l-3 2-5-1-2-4v-23z" fill="#292829"/>
<path transform="translate(421,255)" d="m0 0h1l1 19 5 13 7 10 10 8 12 6 8 2h17l11-4 10-6 7-6 4-4v3l-7 8-11 7-11 4-6 1h-13l-13-4-10-5-10-9-6-7-5-11-2-6v-18z" fill="#353535"/>
<path transform="translate(439,643)" d="m0 0h29v1h-8l5 5 3 2v2h-15l-13-1-3-3v-5z" fill="#2A292A"/>
<path transform="translate(488,597)" d="m0 0 9 3 9 6 8 8 8 13 3 9v21l-4 12-7 12-4 2 2-4 7-12 3-9 1-12-1-11-4-10-7-10-8-8-10-6-5-2z" fill="#353535"/>
<path transform="translate(470,612)" d="m0 0h6l1 1v29h-1l-1-11-2-4v-4h-3v6l-2-1v-14z" fill="#282728"/>
<path transform="translate(477,643)" d="m0 0h29l3 3-2 5-1 1h-20l4-3 2-2h7l1-1-2-1-21-1z" fill="#282728"/>
<path transform="translate(460,211)" d="m0 0h7v2l-13 3-11 6-8 7-7 11-4 9-2 6h-1l1-8 7-14 9-10 11-8z" fill="#3C3234"/>
<path transform="translate(522,245)" d="m0 0 2 3 1 4v21l-4 12-5 9h-2l2-5 5-12 2-11-1-14-1-6z" fill="#353535"/>
<path transform="translate(488,597)" d="m0 0 9 3 9 6 8 8 5 8v2h-2l-6-9-8-8-10-6-5-2z" fill="#333"/>
<path transform="translate(444,644)" d="m0 0h15v2h-3v3l-11 1-2-5z" fill="#353535"/>
<path transform="translate(505,223)" d="m0 0 4 2 5 5 7 10 1 6-3-3-6-10-8-9z" fill="#313131"/>
<path transform="translate(521,664)" d="m0 0 1 3-6 11-4 5h-2l2-4z" fill="#343434"/>
<path transform="translate(492,214)" d="m0 0 6 2 8 6-2 2-8-6-4-2z" fill="#343434"/>
<path transform="translate(521,280)" d="m0 0 1 3-6 11h-2l2-5z" fill="#343434"/>
</svg>
