<?xml version="1.0" encoding="UTF-8"?>
<svg version="1.1" xmlns="http://www.w3.org/2000/svg" width="140" height="219">
<path d="M0 0 C1.36540169 1.19344321 2.70064041 2.42247308 4 3.6875 C4.63421875 4.29464844 5.2684375 4.90179688 5.921875 5.52734375 C13.92503276 13.88961756 17.09011742 23.69018679 17.15771484 35.10424805 C17.16797699 36.35541916 17.17823914 37.60659027 17.18881226 38.89567566 C17.19225018 39.55628683 17.1956881 40.216898 17.19923019 40.89752769 C17.21110305 42.9782317 17.23057153 45.05873587 17.25234985 47.13935852 C17.31372067 53.05092768 17.36813318 58.96246747 17.40136719 64.87426758 C17.42228813 68.49938843 17.45755392 72.12412912 17.50212479 75.74903297 C17.51628813 77.12809602 17.525008 78.50722613 17.52817917 79.88635826 C17.53307698 81.8106328 17.55782538 83.73482601 17.58349609 85.65893555 C17.59158295 86.75336472 17.5996698 87.84779388 17.60800171 88.97538757 C18.05240458 92.05007075 18.70612073 92.73002869 21 94.6875 C21.82471866 99.48721398 21.71670484 104.1175751 19.6875 108.5625 C14.77206534 112.44912275 8.91408727 114.71613758 3 116.6875 C1.77882806 120.35101581 1.81593646 123.74802972 1.8125 127.5625 C1.80025391 128.27019531 1.78800781 128.97789062 1.77539062 129.70703125 C1.75655476 136.45027245 3.34053608 140.18268162 7.5625 145.3125 C12.85185881 151.75650054 12.24728744 157.55168486 12.3125 165.625 C12.35600586 167.41454102 12.35600586 167.41454102 12.40039062 169.24023438 C12.40876953 170.38685547 12.41714844 171.53347656 12.42578125 172.71484375 C12.44036377 173.76406006 12.45494629 174.81327637 12.4699707 175.89428711 C11.87907902 179.40617893 10.85279724 180.60571199 8 182.6875 C4.25 182.4375 4.25 182.4375 1 181.6875 C-1.06834793 177.45385033 -1.15389377 174.11202315 -1 169.4375 C-0.52074966 159.48388242 -0.52074966 159.48388242 -4.62109375 150.8359375 C-6.45018623 149.0614469 -6.45018623 149.0614469 -8.34375 147.5859375 C-12.99001544 142.26026532 -12.24922247 134.88634674 -12.125 128.25 C-12.11597656 127.32767578 -12.10695312 126.40535156 -12.09765625 125.45507812 C-12.0742766 123.19894191 -12.04150916 120.94336316 -12 118.6875 C-13.6396875 118.93306641 -13.6396875 118.93306641 -15.3125 119.18359375 C-20.54454258 119.83759907 -25.73493662 119.79720402 -31 119.75 C-31.96550781 119.74548828 -32.93101563 119.74097656 -33.92578125 119.73632812 C-36.28392089 119.72465417 -38.64192602 119.70828021 -41 119.6875 C-40.99333817 120.41777405 -40.98667633 121.1480481 -40.97981262 121.90045166 C-40.91967397 128.78631101 -40.87401158 135.67213106 -40.84456348 142.55818558 C-40.8289148 146.09831201 -40.80769164 149.63822123 -40.77368164 153.17822266 C-40.73481712 157.24904452 -40.72028426 161.31963861 -40.70703125 165.390625 C-40.69154739 166.66053284 -40.67606354 167.93044067 -40.66011047 169.23883057 C-40.65988388 170.41975281 -40.65965729 171.60067505 -40.65942383 172.81738281 C-40.65276199 173.85662903 -40.64610016 174.89587524 -40.63923645 175.96661377 C-41.05575405 179.10799824 -41.74395053 180.48062955 -44 182.6875 C-49.90529824 183.42566228 -49.90529824 183.42566228 -52.69746399 181.54289246 C-54.58270751 178.85746451 -54.36010441 176.82493646 -54.34057617 173.5637207 C-54.34034958 172.30263992 -54.34012299 171.04155914 -54.33988953 169.74226379 C-54.32456963 168.36593268 -54.30892164 166.98960518 -54.29296875 165.61328125 C-54.2873726 164.20509798 -54.28310259 162.79690886 -54.28010559 161.38871765 C-54.26865818 157.68468056 -54.23919235 153.9809971 -54.20599365 150.27709961 C-54.17529026 146.49663069 -54.16159971 142.71610457 -54.14648438 138.93554688 C-54.11432216 131.51937014 -54.06312755 124.10348464 -54 116.6875 C-55.40245972 116.47250854 -55.40245972 116.47250854 -56.83325195 116.25317383 C-59.99707483 115.68802252 -62.3253958 114.80827079 -65.1875 113.375 C-66.44626953 112.76205078 -66.44626953 112.76205078 -67.73046875 112.13671875 C-70.8892002 110.11969746 -72.57710822 108.15959163 -73.6171875 104.5390625 C-74.21869019 99.34426652 -73.95755751 96.23758848 -71 91.6875 C-70.505 91.1925 -70.505 91.1925 -70 90.6875 C-69.89728975 88.72102551 -69.86427549 86.75088374 -69.8581543 84.78173828 C-69.85111984 83.51596954 -69.84408539 82.25020081 -69.83683777 80.94607544 C-69.83502188 80.26435398 -69.83320599 79.58263252 -69.83133507 78.88025284 C-69.82416955 76.74313802 -69.80849688 74.60625284 -69.78999329 72.46920776 C-69.73756908 66.39063929 -69.68967599 60.31218743 -69.67407227 54.23339844 C-69.66390607 50.51668302 -69.63435319 46.80053239 -69.59275246 43.0840416 C-69.58054469 41.67530496 -69.57530225 40.26648808 -69.57755089 38.85770035 C-69.59395953 25.2048646 -66.68469957 13.90217885 -57.1875 3.75 C-41.48592604 -10.93856919 -17.51652541 -12.98844401 0 0 Z " fill="#113B80" transform="translate(95,22.3125)"/>
<path d="M0 0 C0.33 0 0.66 0 1 0 C1.6093647 9.66520114 1.6093647 9.66520114 -0.3125 13.875 C-5.22793466 17.76162275 -11.08591273 20.02863758 -17 22 C-18.22117194 25.66351581 -18.18406354 29.06052972 -18.1875 32.875 C-18.20586914 33.93654297 -18.20586914 33.93654297 -18.22460938 35.01953125 C-18.24344524 41.76277245 -16.65946392 45.49518162 -12.4375 50.625 C-7.14814119 57.06900054 -7.75271256 62.86418486 -7.6875 70.9375 C-7.64399414 72.72704102 -7.64399414 72.72704102 -7.59960938 74.55273438 C-7.59123047 75.69935547 -7.58285156 76.84597656 -7.57421875 78.02734375 C-7.55963623 79.07656006 -7.54505371 80.12577637 -7.5300293 81.20678711 C-8.12092098 84.71867893 -9.14720276 85.91821199 -12 88 C-15.75 87.75 -15.75 87.75 -19 87 C-21.06834793 82.76635033 -21.15389377 79.42452315 -21 74.75 C-20.52074966 64.79638242 -20.52074966 64.79638242 -24.62109375 56.1484375 C-26.45018623 54.3739469 -26.45018623 54.3739469 -28.34375 52.8984375 C-32.99001544 47.57276532 -32.24922247 40.19884674 -32.125 33.5625 C-32.11597656 32.64017578 -32.10695312 31.71785156 -32.09765625 30.76757812 C-32.0742766 28.51144191 -32.04150916 26.25586316 -32 24 C-33.6396875 24.24556641 -33.6396875 24.24556641 -35.3125 24.49609375 C-40.54454258 25.15009907 -45.73493662 25.10970402 -51 25.0625 C-51.96550781 25.05798828 -52.93101563 25.05347656 -53.92578125 25.04882812 C-56.28392089 25.03715417 -58.64192602 25.02078021 -61 25 C-60.99333817 25.73027405 -60.98667633 26.4605481 -60.97981262 27.21295166 C-60.91967397 34.09881101 -60.87401158 40.98463106 -60.84456348 47.87068558 C-60.8289148 51.41081201 -60.80769164 54.95072123 -60.77368164 58.49072266 C-60.73481712 62.56154452 -60.72028426 66.63213861 -60.70703125 70.703125 C-60.69154739 71.97303284 -60.67606354 73.24294067 -60.66011047 74.55133057 C-60.65988388 75.73225281 -60.65965729 76.91317505 -60.65942383 78.12988281 C-60.65276199 79.16912903 -60.64610016 80.20837524 -60.63923645 81.27911377 C-61.05575405 84.42049824 -61.74395053 85.79312955 -64 88 C-69.90529824 88.73816228 -69.90529824 88.73816228 -72.69746399 86.85539246 C-74.58270751 84.16996451 -74.36010441 82.13743646 -74.34057617 78.8762207 C-74.34034958 77.61513992 -74.34012299 76.35405914 -74.33988953 75.05476379 C-74.32456963 73.67843268 -74.30892164 72.30210518 -74.29296875 70.92578125 C-74.2873726 69.51759798 -74.28310259 68.10940886 -74.28010559 66.70121765 C-74.26865818 62.99718056 -74.23919235 59.2934971 -74.20599365 55.58959961 C-74.17529026 51.80913069 -74.16159971 48.02860457 -74.14648438 44.24804688 C-74.11432216 36.83187014 -74.06312755 29.41598464 -74 22 C-74.99 21.67 -75.98 21.34 -77 21 C-76.37230713 21.07001221 -75.74461426 21.14002441 -75.09790039 21.2121582 C-65.78929242 22.12597086 -56.51351726 22.18614657 -47.16967773 22.18530273 C-44.41179657 22.18752067 -41.65429675 22.20582884 -38.89648438 22.22460938 C-37.13802219 22.22753843 -35.37955812 22.22952648 -33.62109375 22.23046875 C-32.38835976 22.24124702 -32.38835976 22.24124702 -31.13072205 22.25224304 C-27.23243015 22.23650075 -25.31833415 22.21222277 -22 20 C-18.53453968 18.97542912 -15.04440675 18.08849818 -11.54296875 17.1953125 C-7.35853901 15.78358648 -3.05989191 14.11978383 -1 10 C-0.77377919 8.29636178 -0.59111527 6.58671299 -0.4375 4.875 C-0.31181641 3.50988281 -0.31181641 3.50988281 -0.18359375 2.1171875 C-0.12300781 1.41851562 -0.06242187 0.71984375 0 0 Z " fill="#232426" transform="translate(115,117)"/>
<path d="M0 0 C1.125 3.75 1.125 3.75 0 6 C-0.12128293 8.33786335 -0.17754956 10.6791771 -0.20532227 13.02001953 C-0.21522186 13.74207581 -0.22512146 14.46413208 -0.23532104 15.20806885 C-0.26696031 17.59961648 -0.29170299 19.99118399 -0.31640625 22.3828125 C-0.33697369 24.03905764 -0.3579701 25.69529751 -0.37937927 27.35153198 C-0.43462167 31.71461724 -0.48402137 36.07775004 -0.53222656 40.44091797 C-0.58242577 44.89164469 -0.63812007 49.34230223 -0.69335938 53.79296875 C-0.80096747 62.52858736 -0.90240653 71.26426379 -1 80 C-0.28972656 80.20496094 0.42054687 80.40992187 1.15234375 80.62109375 C2.07144531 80.89050781 2.99054687 81.15992187 3.9375 81.4375 C4.85402344 81.70433594 5.77054688 81.97117187 6.71484375 82.24609375 C9 83 9 83 10 84 C18.87653939 86.12194466 27.73106801 86.31510194 36.8125 86.25 C38.12951904 86.24540771 39.44653809 86.24081543 40.8034668 86.23608398 C55.06357567 87.02042781 55.06357567 87.02042781 68 83 C69.66617115 82.95936168 71.33388095 82.957279 73 83 C73 82.34 73 81.68 73 81 C75.31 80.01 77.62 79.02 80 78 C80.02319943 68.84637816 80.04095382 59.69276649 80.05181217 50.53912163 C80.05702437 46.28844029 80.06409179 42.03777911 80.07543945 37.78710938 C80.08632746 33.68279956 80.09228936 29.57850909 80.09487724 25.47418594 C80.09672084 23.91055115 80.1003209 22.34691739 80.10573006 20.78329086 C80.11301901 18.58841435 80.11398764 16.3936172 80.11352539 14.19873047 C80.115746 12.95074677 80.11796661 11.70276306 80.12025452 10.41696167 C80.00656547 7.18655395 79.61271396 4.16992174 79 1 C84.53385881 6.53385881 83.30709658 17.29539738 83.33552551 24.55778313 C83.34391309 26.63013799 83.36449823 28.70207256 83.38806152 30.77430725 C83.44405711 35.91040066 83.47980421 41.04659484 83.51568604 46.18286133 C83.54689857 50.54644508 83.58601047 54.90981478 83.63594055 59.27322578 C83.65600732 61.31514956 83.66432178 63.35690875 83.67224121 65.39891052 C83.68565552 66.63101761 83.69906982 67.86312469 83.71289062 69.13256836 C83.72382751 70.76397011 83.72382751 70.76397011 83.73498535 72.42832947 C83.74364376 75.16424192 83.74364376 75.16424192 86 77 C86.8052216 82.26360644 87.00023796 86.62824509 83.8125 91 C78.87930414 94.50805039 74.63812995 96.56058054 68.75 98.125 C64.56006393 98.93956283 64.56006393 98.93956283 61 101 C58.218224 101.11391306 55.4623426 101.16420495 52.6796875 101.16796875 C51.40340988 101.17296135 51.40340988 101.17296135 50.10134888 101.17805481 C48.28713522 101.18313493 46.47291216 101.1854628 44.65869141 101.18530273 C41.93505343 101.1874526 39.21184541 101.20549229 36.48828125 101.22460938 C6.11905065 101.32619267 6.11905065 101.32619267 -4 94 C-7.56369674 90.06203373 -8.18025069 86.20924508 -8 81 C-6.05882353 76.05882353 -6.05882353 76.05882353 -4 74 C-3.89203049 72.02308142 -3.85371299 70.04233178 -3.84228516 68.0625 C-3.83202301 66.79027588 -3.82176086 65.51805176 -3.81118774 64.20727539 C-3.80774982 63.52230988 -3.8043119 62.83734436 -3.80076981 62.13162231 C-3.78898924 59.98666111 -3.76953352 57.84190203 -3.74765015 55.69702148 C-3.68604376 49.5964238 -3.63220103 43.49584077 -3.59863281 37.39501953 C-3.57755806 33.66542037 -3.54214141 29.93617986 -3.49787521 26.20678711 C-3.48380144 24.79081479 -3.47501244 23.3747789 -3.47182083 21.95874023 C-3.45201852 14.00591973 -3.05204475 7.38734711 0 0 Z " fill="#0E2B5C" transform="translate(29,39)"/>
<path d="M0 0 C7.75 -0.125 7.75 -0.125 10 1 C10.02312737 9.06652174 10.04091709 17.13302972 10.05181217 25.19957638 C10.05704014 28.94483037 10.06413622 32.69006176 10.07543945 36.43530273 C10.08627141 40.04681687 10.09227749 43.65830921 10.09487724 47.26983833 C10.09673094 48.65060329 10.10035049 50.031367 10.10573006 51.41212273 C10.11294447 53.33975952 10.11340809 55.26741807 10.11352539 57.19506836 C10.115746 58.29427109 10.11796661 59.39347382 10.12025452 60.52598572 C10 63 10 63 9 64 C5.5625 64.1875 5.5625 64.1875 2 64 C0 62 0 62 -0.24050903 59.4057312 C-0.23606781 58.30874908 -0.23162659 57.21176697 -0.22705078 56.08154297 C-0.22689972 54.84040741 -0.22674866 53.59927185 -0.22659302 52.32052612 C-0.216379 50.9610783 -0.205947 49.6016321 -0.1953125 48.2421875 C-0.19158284 46.85499271 -0.18873565 45.46779529 -0.18673706 44.08059692 C-0.17909684 40.42759949 -0.15944516 36.77476083 -0.1373291 33.12182617 C-0.11687896 29.39504138 -0.10773713 25.66823096 -0.09765625 21.94140625 C-0.07619951 14.62753175 -0.04205903 7.31378811 0 0 Z " fill="#2F2F31" transform="translate(42,139)"/>
<path d="M0 0 C0.33 0 0.66 0 1 0 C1.6093647 9.66520114 1.6093647 9.66520114 -0.3125 13.875 C-5.22793466 17.76162275 -11.08591273 20.02863758 -17 22 C-17.96088383 24.88265149 -18.11670941 26.67662271 -18.09765625 29.66796875 C-18.09443359 30.56064453 -18.09121094 31.45332031 -18.08789062 32.37304688 C-18.07951172 33.30181641 -18.07113281 34.23058594 -18.0625 35.1875 C-18.05798828 36.12787109 -18.05347656 37.06824219 -18.04882812 38.03710938 C-18.03704626 40.35813712 -18.02059558 42.67903644 -18 45 C-20.13604308 41.79593538 -20.24208908 41.00399253 -20.1953125 37.33203125 C-20.18886719 36.43935547 -20.18242188 35.54667969 -20.17578125 34.62695312 C-20.15902344 33.69818359 -20.14226562 32.76941406 -20.125 31.8125 C-20.11597656 30.87212891 -20.10695313 29.93175781 -20.09765625 28.96289062 C-20.07409056 26.64167032 -20.04119116 24.32096356 -20 22 C-21.32 21.67 -22.64 21.34 -24 21 C-22.91460937 20.68546875 -21.82921875 20.3709375 -20.7109375 20.046875 C-19.26546723 19.61511115 -17.82016343 19.18278975 -16.375 18.75 C-15.66214844 18.54503906 -14.94929688 18.34007812 -14.21484375 18.12890625 C-9.51989267 16.70749904 -5.89925505 14.99942696 -2 12 C-0.78306124 9.56612247 -0.68040104 7.58161154 -0.4375 4.875 C-0.35371094 3.96492188 -0.26992187 3.05484375 -0.18359375 2.1171875 C-0.09271484 1.06917969 -0.09271484 1.06917969 0 0 Z " fill="#0D131E" transform="translate(115,117)"/>
<path d="M0 0 C0.66 0.33 1.32 0.66 2 1 C1.319375 1.680625 0.63875 2.36125 -0.0625 3.0625 C-0.51753906 3.52011719 -0.97257812 3.97773438 -1.44140625 4.44921875 C-2.52231552 5.52470993 -3.6143141 6.58912583 -4.71484375 7.64453125 C-7.74234962 10.57929077 -10.42565439 13.45228296 -12.8125 16.9375 C-13.534375 17.948125 -14.25625 18.95875 -15 20 C-15.66 20 -16.32 20 -17 20 C-14.84406323 12.13312435 -9.19125481 5.88824904 -2.4375 1.375 C-1.633125 0.92125 -0.82875 0.4675 0 0 Z " fill="#102951" transform="translate(47,19)"/>
<path d="M0 0 C0.33 0 0.66 0 1 0 C1.09796875 0.74765625 1.1959375 1.4953125 1.296875 2.265625 C2.26809216 9.59208447 2.26809216 9.59208447 7 15 C7 15.66 7 16.32 7 17 C8.32 17.33 9.64 17.66 11 18 C10.34 18.33 9.68 18.66 9 19 C4.95909336 17.16322425 2.6536463 15.87833722 0 12.3125 C-1.31568867 7.95428128 -0.81555661 4.42169246 0 0 Z " fill="#0B182C" transform="translate(22,117)"/>
<path d="M0 0 C3.82669043 3.42388092 5.72278474 6.00724943 7 11 C6.34 11 5.68 11 5 11 C2.25221116 7.41954788 0.53031138 4.5076467 0 0 Z " fill="#0F2444" transform="translate(101,29)"/>
</svg>
