<?xml version="1.0" encoding="UTF-8"?>
<svg version="1.1" xmlns="http://www.w3.org/2000/svg" width="140" height="219">
<path d="M0 0 C7.13117516 6.45842278 11.73957041 14.93154197 12.52420044 24.548172 C12.60755192 27.83316868 12.6451903 31.10880378 12.63012505 34.39437103 C12.62091499 36.58948044 12.63134624 38.7837538 12.64674377 40.9788208 C12.68659185 47.21226957 12.68803937 53.4456441 12.68579102 59.67919922 C12.68573988 63.50878314 12.70491286 67.33790801 12.73512459 71.16736603 C12.74591724 73.32410187 12.73384646 75.47995087 12.72129822 77.63665771 C12.73133377 78.94862122 12.74136932 80.26058472 12.75170898 81.61230469 C12.75154282 82.76430359 12.75137665 83.91630249 12.75120544 85.10321045 C13.35277679 88.82301892 14.76374711 90.42434266 17.25 93.1875 C17.99644206 96.58444396 17.69072053 99.94782621 16.51953125 103.2421875 C14.88181661 105.75167024 13.15373362 106.76192556 10.5625 108.25 C9.73363281 108.73597656 8.90476562 109.22195312 8.05078125 109.72265625 C4.84271791 111.40051365 1.59270449 112.79848469 -1.75 114.1875 C-1.8375127 117.41649426 -1.89056146 120.64518116 -1.9375 123.875 C-1.96263672 124.78701172 -1.98777344 125.69902344 -2.01367188 126.63867188 C-2.09020193 133.65392675 -0.7741917 136.8177146 3.8125 142.1875 C9.05185904 148.6359419 8.58522022 154.76611402 8.5625 162.75 C8.57861328 163.88630859 8.59472656 165.02261719 8.61132812 166.19335938 C8.61197266 167.28583984 8.61261719 168.37832031 8.61328125 169.50390625 C8.61626221 170.49849854 8.61924316 171.49309082 8.62231445 172.51782227 C8.19100575 175.6105178 7.44174306 176.98611443 5.25 179.1875 C2.13032137 179.64245313 0.19853511 179.87549447 -2.41210938 177.98193359 C-4.20225059 175.58092303 -4.13320667 174.01636589 -4.15625 171.0390625 C-4.17816406 170.03359375 -4.20007813 169.028125 -4.22265625 167.9921875 C-4.23167969 166.94289062 -4.24070312 165.89359375 -4.25 164.8125 C-4.32375792 156.29872843 -4.67137607 151.79174264 -10.3125 145.1875 C-13.83783606 140.84862484 -15.01037878 137.44988537 -14.9453125 131.88671875 C-14.93886719 130.91025391 -14.93242188 129.93378906 -14.92578125 128.92773438 C-14.90902344 127.92033203 -14.89226562 126.91292969 -14.875 125.875 C-14.86597656 124.84826172 -14.85695312 123.82152344 -14.84765625 122.76367188 C-14.82416201 120.23804101 -14.79131131 117.7128919 -14.75 115.1875 C-15.30034912 115.34976074 -15.85069824 115.51202148 -16.41772461 115.67919922 C-19.0304577 116.24862351 -21.39261904 116.31704695 -24.06640625 116.3203125 C-25.07767578 116.32160156 -26.08894531 116.32289063 -27.13085938 116.32421875 C-28.18080078 116.32035156 -29.23074219 116.31648437 -30.3125 116.3125 C-31.89321289 116.31830078 -31.89321289 116.31830078 -33.50585938 116.32421875 C-35.02083008 116.32228516 -35.02083008 116.32228516 -36.56640625 116.3203125 C-37.48881104 116.31918457 -38.41121582 116.31805664 -39.36157227 116.31689453 C-41.75 116.1875 -41.75 116.1875 -44.75 115.1875 C-44.74333817 115.93030212 -44.73667633 116.67310425 -44.72981262 117.43841553 C-44.66967671 124.44202398 -44.6240131 131.44554285 -44.59456348 138.44933701 C-44.57891404 142.04999566 -44.55768942 145.65044079 -44.52368164 149.25097656 C-44.49106172 152.72636257 -44.47314156 156.20154333 -44.46536827 159.67707062 C-44.45713561 161.64690424 -44.43372027 163.61665541 -44.41011047 165.58636475 C-44.40988388 166.78730774 -44.40965729 167.98825073 -44.40942383 169.22558594 C-44.40276199 170.28259705 -44.39610016 171.33960815 -44.38923645 172.4286499 C-44.80327745 175.5949261 -45.47005559 176.97006435 -47.75 179.1875 C-51.3125 179.625 -51.3125 179.625 -54.75 179.1875 C-57.07223604 175.70414594 -57.01872357 174.27404631 -57.06884766 170.15551758 C-57.08871735 168.91445755 -57.10858704 167.67339752 -57.12905884 166.39472961 C-57.14093518 165.04049864 -57.15259804 163.68626578 -57.1640625 162.33203125 C-57.18277317 160.94625188 -57.20234652 159.56048391 -57.2227478 158.17472839 C-57.27408594 154.53010784 -57.31370244 150.88545035 -57.35089111 147.24066162 C-57.39092036 143.52037403 -57.44201759 139.80024034 -57.4921875 136.08007812 C-57.58896662 128.78265765 -57.67336483 121.48516276 -57.75 114.1875 C-58.64420654 113.86354248 -59.53841309 113.53958496 -60.4597168 113.20581055 C-61.63187744 112.77051025 -62.80403809 112.33520996 -64.01171875 111.88671875 C-65.17405029 111.45963623 -66.33638184 111.03255371 -67.53393555 110.5925293 C-71.88150626 108.69316928 -74.8312981 106.5912167 -76.75 102.1875 C-77.56944783 97.15593714 -77.61159033 93.47988549 -74.75 89.1875 C-74.09 89.1875 -73.43 89.1875 -72.75 89.1875 C-72.75444122 88.44993469 -72.75888245 87.71236938 -72.76345825 86.95245361 C-72.80377821 79.95131965 -72.83410676 72.9502269 -72.85362434 65.94900894 C-72.86399631 62.35088335 -72.87803271 58.75285488 -72.90087891 55.15478516 C-72.92284536 51.67289038 -72.93461793 48.19108814 -72.93975449 44.70912933 C-72.94516818 42.75521285 -72.96074155 40.80133283 -72.97659302 38.84747314 C-72.97862765 22.41065618 -70.42949959 11.53988367 -59.078125 -0.58203125 C-41.81365365 -17.12232176 -17.66788487 -13.91780865 0 0 Z " fill="#14511F" transform="translate(100.75,22.8125)"/>
<path d="M0 0 C0.33 0 0.66 0 1 0 C0.99333817 0.88283157 0.98667633 1.76566315 0.97981262 2.67524719 C0.91973951 10.988905 0.87404497 19.30249007 0.84456348 27.61631489 C0.82889728 31.89070699 0.8076418 36.16491998 0.77368164 40.43920898 C0.74112191 44.56297253 0.72315418 48.68656363 0.71536827 52.81044579 C0.70981864 54.38495792 0.69898169 55.95946045 0.68280983 57.53389931 C0.66107995 59.73675672 0.65803112 61.93889862 0.65942383 64.1418457 C0.65276199 65.39649124 0.64610016 66.65113678 0.63923645 67.94380188 C0.73742733 70.97492174 0.73742733 70.97492174 2.39701843 72.86003113 C17.61205995 83.68028887 45.71887976 82.18574302 63.21875 79.27734375 C66.95456054 78.47925012 70.47129222 77.49094312 74 76 C74.66987946 75.77844238 75.33975891 75.55688477 76.02993774 75.32861328 C78.64606635 74.17973481 80.13679959 73.19000721 82 71 C83.22908316 65.76254528 83.07185399 60.5435577 83 55.19921875 C83.00752149 53.63692711 83.01855807 52.07464877 83.03295898 50.5124054 C83.06136 46.41017481 83.04212616 42.30950708 83.01287842 38.20733643 C82.99146585 34.01767833 83.01522736 29.82830121 83.03515625 25.63867188 C83.06758226 17.42538496 83.0496742 9.2131988 83 1 C83.33 1 83.66 1 84 1 C84.00546844 2.24241707 84.00546844 2.24241707 84.01104736 3.50993347 C84.04894361 11.32288758 84.10581462 19.13542496 84.18390274 26.94808483 C84.22338054 30.96451112 84.2555673 34.98071808 84.27099609 38.99731445 C84.28616106 42.87497327 84.32060269 46.75202911 84.36830902 50.62941933 C84.38312467 52.10730048 84.39104113 53.58526771 84.39188385 55.06322289 C84.39425493 57.13679348 84.42134049 59.20869956 84.45410156 61.28198242 C84.46298401 62.46112717 84.47186646 63.64027191 84.48101807 64.85514832 C85.10021622 68.60727576 86.48725995 70.21448453 89 73 C89.74644206 76.39694396 89.44072053 79.76032621 88.26953125 83.0546875 C86.63181661 85.56417024 84.90373362 86.57442556 82.3125 88.0625 C81.48363281 88.54847656 80.65476562 89.03445312 79.80078125 89.53515625 C76.59271791 91.21301365 73.34270449 92.61098469 70 94 C69.9124873 97.22899426 69.85943854 100.45768116 69.8125 103.6875 C69.78736328 104.59951172 69.76222656 105.51152344 69.73632812 106.45117188 C69.65979807 113.46642675 70.9758083 116.6302146 75.5625 122 C80.80185904 128.4484419 80.33522022 134.57861402 80.3125 142.5625 C80.32861328 143.69880859 80.34472656 144.83511719 80.36132812 146.00585938 C80.36197266 147.09833984 80.36261719 148.19082031 80.36328125 149.31640625 C80.36626221 150.31099854 80.36924316 151.30559082 80.37231445 152.33032227 C79.94100575 155.4230178 79.19174306 156.79861443 77 159 C73.88032137 159.45495313 71.94853511 159.68799447 69.33789062 157.79443359 C67.54774941 155.39342303 67.61679333 153.82886589 67.59375 150.8515625 C67.57183594 149.84609375 67.54992187 148.840625 67.52734375 147.8046875 C67.51832031 146.75539062 67.50929688 145.70609375 67.5 144.625 C67.42624208 136.11122843 67.07862393 131.60424264 61.4375 125 C57.91216394 120.66112484 56.73962122 117.26238537 56.8046875 111.69921875 C56.81113281 110.72275391 56.81757812 109.74628906 56.82421875 108.74023438 C56.84097656 107.73283203 56.85773438 106.72542969 56.875 105.6875 C56.88402344 104.66076172 56.89304688 103.63402344 56.90234375 102.57617188 C56.92583799 100.05054101 56.95868869 97.5253919 57 95 C56.44965088 95.16226074 55.89930176 95.32452148 55.33227539 95.49169922 C52.7195423 96.06112351 50.35738096 96.12954695 47.68359375 96.1328125 C46.67232422 96.13410156 45.66105469 96.13539063 44.61914062 96.13671875 C43.56919922 96.13285156 42.51925781 96.12898438 41.4375 96.125 C40.38369141 96.12886719 39.32988281 96.13273437 38.24414062 96.13671875 C37.23416016 96.13542969 36.22417969 96.13414062 35.18359375 96.1328125 C34.26118896 96.13168457 33.33878418 96.13055664 32.38842773 96.12939453 C30 96 30 96 27 95 C27.00666183 95.74280212 27.01332367 96.48560425 27.02018738 97.25091553 C27.08032329 104.25452398 27.1259869 111.25804285 27.15543652 118.26183701 C27.17108596 121.86249566 27.19231058 125.46294079 27.22631836 129.06347656 C27.25893828 132.53886257 27.27685844 136.01404333 27.28463173 139.48957062 C27.29286439 141.45940424 27.31627973 143.42915541 27.33988953 145.39886475 C27.34011612 146.59980774 27.34034271 147.80075073 27.34057617 149.03808594 C27.34723801 150.09509705 27.35389984 151.15210815 27.36076355 152.2411499 C26.94672255 155.4074261 26.27994441 156.78256435 24 159 C20.4375 159.4375 20.4375 159.4375 17 159 C14.67776396 155.51664594 14.73127643 154.08654631 14.68115234 149.96801758 C14.66128265 148.72695755 14.64141296 147.48589752 14.62094116 146.20722961 C14.60906482 144.85299864 14.59740196 143.49876578 14.5859375 142.14453125 C14.56722683 140.75875188 14.54765348 139.37298391 14.5272522 137.98722839 C14.47591406 134.34260784 14.43629756 130.69795035 14.39910889 127.05316162 C14.35907964 123.33287403 14.30798241 119.61274034 14.2578125 115.89257812 C14.16103338 108.59515765 14.07663517 101.29766276 14 94 C13.10579346 93.67604248 12.21158691 93.35208496 11.2902832 93.01831055 C10.11812256 92.58301025 8.94596191 92.14770996 7.73828125 91.69921875 C6.57594971 91.27213623 5.41361816 90.84505371 4.21606445 90.4050293 C-0.13150626 88.50566928 -3.0812981 86.4037167 -5 82 C-5.81944783 76.96843714 -5.86159033 73.29238549 -3 69 C-2.34 69 -1.68 69 -1 69 C-1.00222061 68.25355225 -1.00444122 67.50710449 -1.00672913 66.73803711 C-1.0268307 59.67678169 -1.04202424 52.61553631 -1.05181217 45.55426025 C-1.05701352 41.92467012 -1.06406083 38.29510379 -1.07543945 34.66552734 C-1.08636654 31.15772266 -1.0922975 27.64994076 -1.09487724 24.14212036 C-1.09760298 22.16366829 -1.10539921 20.18522529 -1.11329651 18.20678711 C-1.11367808 12.04011637 -0.9656238 6.09445611 0 0 Z " fill="#0B2A10" transform="translate(29,43)"/>
<path d="M0 0 C0 6.93 0 13.86 0 21 C0.66 21 1.32 21 2 21 C3.02137457 22.65365406 4.01612294 24.32376502 5 26 C5.845625 26.99 6.69125 27.98 7.5625 29 C12.80185904 35.4484419 12.33522022 41.57861402 12.3125 49.5625 C12.32861328 50.69880859 12.34472656 51.83511719 12.36132812 53.00585938 C12.36197266 54.09833984 12.36261719 55.19082031 12.36328125 56.31640625 C12.36626221 57.31099854 12.36924316 58.30559082 12.37231445 59.33032227 C11.94100575 62.4230178 11.19174306 63.79861443 9 66 C5.88032137 66.45495313 3.94853511 66.68799447 1.33789062 64.79443359 C-0.45225059 62.39342303 -0.38320667 60.82886589 -0.40625 57.8515625 C-0.42816406 56.84609375 -0.45007813 55.840625 -0.47265625 54.8046875 C-0.48167969 53.75539062 -0.49070312 52.70609375 -0.5 51.625 C-0.57351511 43.13925545 -0.83158859 38.54560324 -6.625 32.0625 C-11.1191981 26.26734982 -10.12447977 19.16208828 -10.0625 12.125 C-10.05798828 11.15046875 -10.05347656 10.1759375 -10.04882812 9.171875 C-10.03710906 6.78118566 -10.02070219 4.3906256 -10 2 C-6.19956554 0.26265853 -4.40285423 0 0 0 Z " fill="#1A1B1B" transform="translate(97,136)"/>
<path d="M0 0 C0.04628946 7.91885578 0.08185182 15.83765526 0.10362434 23.75661278 C0.11407274 27.4334935 0.12825102 31.11028183 0.15087891 34.78710938 C0.17256991 38.33379655 0.18456067 41.88039472 0.18975449 45.4271431 C0.193457 46.78197252 0.20068689 48.13679694 0.21146011 49.49158859 C0.22592448 51.38545757 0.22681649 53.27941564 0.22705078 55.17333984 C0.231492 56.25255707 0.23593323 57.33177429 0.24050903 58.44369507 C0 61 0 61 -2 63 C-4.5 63.3125 -4.5 63.3125 -7 63 C-9.32441815 59.51337277 -9.24401741 58.17422077 -9.22705078 54.05981445 C-9.22689972 52.83877518 -9.22674866 51.6177359 -9.22659302 50.35969543 C-9.21627045 49.04087875 -9.20594788 47.72206207 -9.1953125 46.36328125 C-9.19158161 44.99993599 -9.188735 43.63658804 -9.18673706 42.27323914 C-9.17910653 38.68765846 -9.15946315 35.10224021 -9.1373291 31.51672363 C-9.11685811 27.85687456 -9.10773267 24.19699921 -9.09765625 20.53710938 C-9.0762166 13.35799893 -9.04208779 6.17902224 -9 -1 C-5.23375329 -2.25541557 -3.62811066 -1.37061958 0 0 Z " fill="#1D1E1E" transform="translate(54,138)"/>
<path d="M0 0 C0.33 0.99 0.66 1.98 1 3 C0.5875 3.350625 0.175 3.70125 -0.25 4.0625 C-2.70762407 6.78344094 -4.24051885 9.78439652 -6 13 C-6.66 13 -7.32 13 -8 13 C-6.63589551 7.40717158 -3.84616474 4.08806189 0 0 Z " fill="#0F2E15" transform="translate(40,24)"/>
</svg>
