<?xml version="1.0" encoding="utf-8"?>
<svg version="1.1" id="Layer_1" xmlns="http://www.w3.org/2000/svg" x="0px" y="0px" width="1024px" height="1024px" viewBox="0 0 1024 1024" enable-background="new 0 0 1024 1024">
  <path fill="#1E1E1E" d="M674.313,354.23c4.385,0.011,8.77,0.022,13.151,0.034c0.873,0.002,1.746,0.004,2.646,0.006 c14.117,0.036,28.233,0.06,42.352,0.082c14.495,0.021,28.989,0.055,43.484,0.098c8.938,0.026,17.876,0.044,26.813,0.051 c6.139,0.005,12.272,0.021,18.408,0.046c3.536,0.014,7.071,0.023,10.607,0.019c3.845-0.004,7.688,0.015,11.534,0.036 c1.102-0.004,2.203-0.009,3.34-0.015c14.139,0.128,25.896,3.397,36.533,12.914c8.119,8.515,11.964,19.394,11.957,30.965 c0.004,0.866,0.008,1.733,0.011,2.626c0.011,2.924,0.014,5.848,0.018,8.771c0.006,2.107,0.013,4.219,0.021,6.328 c0.017,5.813,0.026,11.626,0.038,17.438c0.013,6.263,0.028,12.526,0.047,18.79c0.033,12.279,0.06,24.559,0.084,36.837 c0.021,9.982,0.042,19.965,0.063,29.947c0.008,2.872,0.014,5.744,0.021,8.617c0.002,0.714,0.003,1.428,0.005,2.163 c0.046,20.094,0.089,40.187,0.128,60.277c0.001,0.759,0.003,1.518,0.004,2.297c0.008,3.844,0.016,7.685,0.021,11.524 c0.003,0.763,0.004,1.525,0.006,2.313c0.003,1.543,0.006,3.086,0.009,4.629c0.046,23.985,0.101,47.975,0.161,71.962 c0.067,26.946,0.13,53.896,0.182,80.846c0.005,2.875,0.012,5.751,0.018,8.626c0.002,0.708,0.004,1.416,0.005,2.146 c0.021,11.384,0.051,22.766,0.082,34.146c0.03,11.448,0.055,22.896,0.068,34.345c0.01,6.199,0.021,12.398,0.042,18.6 c0.021,5.68,0.028,11.358,0.03,17.039c0.003,2.051,0.009,4.102,0.02,6.149c0.098,21.357-1.252,39.552-16.6,55.807 c-11.379,10.907-25.616,13.471-40.871,13.443c-1.144,0.002-2.286,0.004-3.464,0.006c-3.178,0.005-6.354,0.005-9.533,0.003 c-3.455,0-6.909,0.005-10.365,0.009c-6.854,0.01-13.711,0.012-20.565,0.013c-8.21,0.001-16.421,0.007-24.631,0.014 c-19.845,0.018-39.689,0.021-59.534,0.027c-9.387,0.002-18.773,0.006-28.161,0.01c-32.133,0.013-64.265,0.022-96.396,0.025 c-2.019,0.002-4.034,0.002-6.053,0.002c-2.021,0-4.044,0-6.064,0c-4.058,0-8.112,0.002-12.169,0.002c-1.006,0-2.013,0-3.048,0 c-32.614,0.004-65.229,0.02-97.846,0.043c-34.479,0.022-68.961,0.037-103.439,0.039c-3.785,0-7.57,0-11.354,0 c-1.396,0-1.396,0-2.822,0.002c-14.999,0-29.998,0.012-45,0.024c-15.075,0.017-30.15,0.02-45.226,0.01 c-8.956-0.005-17.911-0.001-26.867,0.017c-5.984,0.01-11.969,0.009-17.954-0.001c-3.408-0.006-6.816-0.005-10.225,0.006 c-3.678,0.012-7.355,0.004-11.033-0.008c-1.05,0.008-2.099,0.015-3.181,0.021c-15.97-0.111-28.786-5.348-40.118-16.512 c-12.866-13.722-13.294-30.471-13.211-48.22c-0.005-2.148-0.011-4.298-0.019-6.443c-0.017-5.872-0.008-11.744,0.004-17.616 c0.009-6.345-0.005-12.688-0.016-19.033c-0.017-11.697-0.015-23.397-0.004-35.1c0.01-10.809,0.013-21.618,0.008-32.428 c0-0.719-0.001-1.438-0.001-2.178c-0.001-2.913-0.002-5.828-0.004-8.743c-0.012-27.323-0.001-54.646,0.021-81.973 c0.019-24.257,0.017-48.515-0.002-72.771c-0.021-27.276-0.03-54.553-0.018-81.829c0.001-2.909,0.002-5.818,0.004-8.729 c0-0.717,0-1.433,0.001-2.171c0.004-10.802-0.001-21.603-0.011-32.402c-0.012-12.284-0.008-24.569,0.013-36.854 c0.011-6.267,0.015-12.532,0.001-18.798c-0.012-5.74-0.005-11.479,0.016-17.219c0.004-2.072,0.002-4.146-0.008-6.218 C130.411,393.935,130.903,380.625,142,369c0.659-0.71,1.317-1.42,1.996-2.152c11.434-11.266,25.844-11.992,41.02-12.006 c1.184-0.005,2.367-0.01,3.587-0.015c3.263-0.013,6.527-0.021,9.79-0.027c3.527-0.008,7.055-0.021,10.583-0.035 c6.104-0.021,12.208-0.04,18.313-0.056c8.826-0.022,17.651-0.051,26.477-0.08c14.32-0.048,28.641-0.091,42.961-0.132 c13.907-0.039,27.813-0.081,41.722-0.125c0.857-0.002,1.716-0.005,2.6-0.008c4.307-0.014,8.608-0.027,12.912-0.042 c35.682-0.114,71.36-0.22,107.041-0.323"/>
  <path display="none" fill="#292929" d="M531.066,24.285C536.729,28.676,540.526,34.998,542,42c0.085,1.411,0.122,2.826,0.12,4.239 c0.002,1.258,0.002,1.258,0.004,2.541c-0.005,1.367-0.005,1.367-0.011,2.762c0,0.966,0.001,1.933,0.001,2.928 c-0.001,3.192-0.009,6.385-0.019,9.577c-0.002,2.214-0.003,4.428-0.004,6.642c-0.004,5.826-0.014,11.652-0.023,17.479 c-0.012,5.945-0.017,11.891-0.021,17.836c-0.011,11.666-0.027,23.331-0.049,34.996c0.621,0.056,1.243,0.112,1.883,0.17 c0.813,0.081,1.627,0.161,2.465,0.244c1.211,0.115,1.211,0.115,2.445,0.233C551,142,551,142,553.438,143.375 c4.028,6.768,4.011,16.439,4.982,24.174c0.128,0.99,0.255,1.98,0.386,3c0.414,3.232,0.824,6.465,1.233,9.697 c0.288,2.262,0.577,4.523,0.866,6.785c0.602,4.719,1.2,9.438,1.8,14.159c0.768,6.052,1.54,12.104,2.313,18.154 c0.598,4.661,1.188,9.321,1.781,13.982c0.284,2.232,0.568,4.465,0.854,6.697c0.396,3.111,0.792,6.222,1.185,9.334 c0.119,0.922,0.237,1.844,0.359,2.794c0.16,1.272,0.16,1.272,0.32,2.569c0.096,0.734,0.188,1.468,0.283,2.225 c0.193,2.01,0.197,4.036,0.197,6.055c2.97,0.33,5.939,0.66,9,1c0.069,8.44,0.123,16.881,0.155,25.321 c0.016,3.919,0.037,7.838,0.069,11.757c0.032,3.78,0.053,7.56,0.06,11.34c0.006,1.444,0.017,2.888,0.033,4.333 c0.021,2.018,0.021,4.037,0.021,6.055c0.01,1.726,0.01,1.726,0.021,3.486c-0.118,0.894-0.237,1.787-0.36,2.708 c-3.736,2.491-5.744,2.207-10.188,2.125c-1.272-0.018-2.547-0.036-3.855-0.055c-1.464-0.035-1.464-0.035-2.957-0.07 c0.162,0.567,0.324,1.134,0.492,1.718c0.521,2.342,0.637,4.398,0.641,6.794c0.001,0.84,0.003,1.68,0.004,2.545 c-0.004,0.868-0.008,1.736-0.012,2.631c0.004,0.88,0.008,1.76,0.012,2.666c-0.001,0.836-0.003,1.672-0.004,2.533 c-0.001,0.765-0.002,1.531-0.004,2.319C563,354,563,354,562,355c-3.1,0.101-6.177,0.136-9.277,0.129 c-1.461,0.002-1.461,0.002-2.949,0.005c-3.236,0.004-6.475,0.001-9.709-0.002c-2.238,0-4.479,0.001-6.717,0.003 c-4.695,0.001-9.396,0-14.093-0.005c-6.036-0.006-12.073-0.002-18.107,0.003c-4.624,0.004-9.248,0.002-13.871,0 c-2.229,0-4.453,0-6.682,0.002c-3.104,0.002-6.212-0.001-9.315-0.007c-0.932,0.002-1.859,0.004-2.818,0.006 c-6.345-0.021-6.345-0.021-7.459-1.136c-0.087-1.708-0.107-3.419-0.098-5.129c0.003-1.035,0.007-2.069,0.01-3.135 c0.009-1.089,0.017-2.177,0.025-3.299c0.005-1.092,0.009-2.185,0.014-3.311c0.012-2.709,0.028-5.418,0.049-8.127 c-0.987,0.023-1.975,0.046-2.992,0.07c-1.279,0.018-2.563,0.036-3.883,0.055c-1.276,0.023-2.553,0.046-3.867,0.07 C447,331,447,331,445,329c-0.24-2.708-0.24-2.708-0.227-6.194c0-1.301,0-2.603,0-3.943c0.01-1.426,0.021-2.852,0.029-4.277 c0.004-1.455,0.007-2.909,0.011-4.363c0.008-3.831,0.025-7.661,0.049-11.492c0.021-3.908,0.028-7.815,0.04-11.723 c0.021-7.669,0.056-15.338,0.098-23.008c2.97-0.33,5.94-0.66,9-1c0.104-0.926,0.209-1.851,0.316-2.805 c1.516-13.404,3.092-26.8,4.684-40.195c0.084-0.708,0.168-1.417,0.255-2.147c1.144-9.617,2.295-19.233,3.471-28.847 c0.501-4.101,0.998-8.202,1.486-12.304c0.466-3.922,0.944-7.843,1.431-11.762c0.182-1.462,0.354-2.924,0.525-4.387 c0.237-2.021,0.49-4.04,0.744-6.059c0.139-1.138,0.276-2.276,0.419-3.449c0.771-3.51,1.206-5.389,3.669-8.045 c3.293-1.022,6.584-1.57,10-2c0.004-1.233,0.007-2.466,0.011-3.736c0.037-11.638,0.097-23.275,0.173-34.913 c0.04-5.982,0.072-11.965,0.09-17.948c0.015-5.777,0.049-11.554,0.097-17.331c0.015-2.2,0.021-4.401,0.021-6.601 c0.003-3.09,0.03-6.18,0.063-9.27c-0.008-1.354-0.008-1.354-0.016-2.735c0.145-8.917,3.21-16.115,9.561-22.466 C503.032,16.862,518.201,16.284,531.066,24.285z"/>
  <path fill="#C52631" d="M185.037,354.887c1.758,0,1.758,0,3.551,0c3.847,0,7.694,0.008,11.541,0.016 c2.678,0.002,5.355,0.003,8.033,0.004c6.311,0.003,12.622,0.011,18.933,0.021c7.19,0.011,14.38,0.017,21.57,0.022 c14.778,0.01,29.557,0.028,44.336,0.05c-3.435,4.08-6.914,8.038-10.701,11.799c-0.877,0.875-1.755,1.749-2.66,2.65 c-0.931,0.923-1.863,1.846-2.822,2.797c-0.984,0.979-1.967,1.959-2.951,2.939c-3.621,3.608-7.248,7.21-10.875,10.813 c-3.073,3.053-6.144,6.109-9.212,9.167c-1.424,1.417-2.852,2.833-4.279,4.247c-4.476,4.459-8.794,8.973-12.909,13.768 c-2.535,2.899-5.243,5.615-7.97,8.332c-0.575,0.576-1.15,1.152-1.743,1.746c-1.203,1.203-2.407,2.405-3.613,3.606 c-1.831,1.825-3.657,3.655-5.482,5.487c-1.179,1.18-2.358,2.355-3.537,3.533c-0.538,0.54-1.075,1.079-1.629,1.636 c-2.448,2.435-4.877,4.688-7.57,6.859c-2.257,1.847-4.134,3.797-6.02,6.021c-5.766,6.745-12.18,12.895-18.457,19.158 c-1.4,1.4-2.8,2.804-4.2,4.203c-2.918,2.92-5.838,5.838-8.76,8.754c-3.753,3.748-7.501,7.499-11.249,11.252 c-2.882,2.889-5.767,5.771-8.652,8.652c-1.384,1.384-2.768,2.771-4.151,4.153c-1.922,1.925-3.847,3.846-5.773,5.767 c-0.862,0.865-0.862,0.865-1.741,1.747C132.114,518,132.114,518,131,518c-0.094-16.334-0.164-32.668-0.207-49.003 c-0.021-7.585-0.049-15.171-0.095-22.756c-0.04-6.617-0.066-13.233-0.075-19.853c-0.005-3.499-0.017-6.998-0.046-10.496 c-0.033-3.92-0.033-7.84-0.031-11.761c-0.014-1.141-0.029-2.281-0.043-3.457c0.062-12.221,2.963-22.735,11.498-31.677 c0.988-1.065,0.988-1.065,1.996-2.152C155.438,355.574,169.85,354.836,185.037,354.887z"/>
  <path fill="#E0AE3C" d="M531,819c9.376,6.907,15.116,14.751,18,26c0.483,3.456,0.604,6.885,0.684,10.371 c0.052,1.577,0.052,1.577,0.103,3.187c0.464,17.204,0.325,34.428,0.284,51.637c-0.012,4.842-0.017,9.683-0.021,14.522 c-0.011,9.428-0.025,18.855-0.049,28.283c0.99,0,1.98,0,3,0c0-25.41,0-50.82,0-77c5.28,0,10.56,0,16,0c0,25.41,0,50.82,0,77 c1.32,0,2.64,0,4,0c0-25.41,0-50.82,0-77c4.95,0,9.9,0,15,0c0,25.74,0,51.48,0,78c-37.62,0-75.24,0-114,0 c-0.063-17.613-0.124-35.229-0.188-53.375c-0.041-8.321-0.041-8.321-0.085-16.811c-0.014-6.812-0.014-6.812-0.016-10.007 c-0.005-2.217-0.016-4.433-0.03-6.646c-0.021-3.371-0.023-6.741-0.022-10.112c-0.011-0.976-0.021-1.951-0.032-2.956 c0.051-11.415,3.479-22.094,11.6-30.356C498.363,812.475,515.823,809.859,531,819z"/>
  <path fill="#E1B03C" d="M210.762,816.543c9.886,6.436,17.155,14.979,20.238,26.457c1.021,5.782,1.136,11.387,1.113,17.25 c0,1.006,0,2.011,0,3.047c0,3.307-0.008,6.612-0.016,9.918c-0.002,2.299-0.003,4.601-0.004,6.897 c-0.004,6.039-0.014,12.077-0.024,18.113c-0.01,6.167-0.015,12.334-0.02,18.501c-0.011,12.093-0.028,24.183-0.049,36.271 c1.32,0,2.64,0,4,0c0-25.08,0-50.16,0-76c4.29,0,8.58,0,13,0c0,25.41,0,50.82,0,77c-11.962,0.062-23.925,0.124-36.25,0.188 c-3.754,0.027-7.508,0.057-11.376,0.083c-4.643,0.016-4.643,0.016-6.828,0.018c-1.501,0.005-3.002,0.016-4.503,0.03 C178.679,954.428,168.61,953.392,158,949c-0.116-13.613-0.205-27.227-0.259-40.84c-0.026-6.322-0.061-12.646-0.118-18.967 c-0.055-6.107-0.084-12.218-0.098-18.323c-0.009-2.324-0.027-4.647-0.054-6.971c-0.184-16.449,0.221-28.364,12.189-40.771 c3.193-2.905,6.461-5.236,10.34-7.129c1.085-0.545,1.085-0.545,2.191-1.104C190.654,812.191,202.792,812.646,210.762,816.543z"/>
  <path fill="#E1B03B" d="M700,817c9.106,5.324,16.552,13.814,19.595,23.987c1.418,5.977,1.681,11.639,1.632,17.765 c0.001,1.035,0.001,2.07,0.001,3.137c-0.001,3.395-0.017,6.785-0.03,10.18c-0.004,2.361-0.008,4.728-0.01,7.091 c-0.009,6.199-0.026,12.397-0.05,18.599c-0.022,7.449-0.031,14.899-0.045,22.352c-0.02,11.298-0.058,22.597-0.093,33.895 c-24.42,0-48.84,0-74,0c-0.2-27.221-0.2-27.221-0.244-38.871c-0.03-7.934-0.063-15.865-0.133-23.799 c-0.055-6.4-0.085-12.8-0.098-19.199c-0.011-2.436-0.027-4.869-0.056-7.306c-0.177-16.513-0.094-29.092,11.915-41.626 C669.967,813.454,686.069,810.558,700,817z"/>
  <path fill="#DFAE3B" d="M849,818c0.702,0.412,1.405,0.825,2.129,1.25c7.938,5.301,13.362,13.592,15.871,22.75 c0.421,3.58,0.438,7.128,0.433,10.73c0.017,1.565,0.017,1.565,0.03,3.166c0.03,3.431,0.04,6.858,0.049,10.291 c0.019,2.388,0.035,4.773,0.057,7.16c0.047,6.27,0.077,12.534,0.104,18.803c0.029,6.399,0.076,12.804,0.121,19.205 c0.086,12.548,0.154,25.097,0.209,37.645c-1.873,0.651-3.748,1.296-5.625,1.938c-1.566,0.538-1.566,0.538-3.164,1.09 c-5.085,1.54-9.825,2.098-15.125,2.086c-1.141,0-2.281,0-3.456,0c-1.216-0.005-2.432-0.011-3.685-0.018 c-1.257-0.001-2.516-0.003-3.811-0.004c-3.321-0.005-6.646-0.014-9.972-0.023c-3.398-0.012-6.798-0.017-10.196-0.021 c-6.655-0.011-13.313-0.025-19.969-0.049c-0.093-13.727-0.164-27.453-0.207-41.18c-0.021-6.375-0.049-12.75-0.095-19.124 c-0.044-6.16-0.067-12.319-0.078-18.479c-0.007-2.342-0.021-4.685-0.043-7.024C792.43,851.666,792.396,837.049,804,824 c2.497-2.359,5.066-4.222,8-6c0.619-0.412,1.237-0.825,1.875-1.25C823.85,811.14,839.377,812.266,849,818z"/>
  <path fill="#E0AE3C" d="M359,818c9.121,5.364,15.118,13.425,18.362,23.411c1.121,4.552,1.026,9.043,0.979,13.708 c0,1.611,0,1.611,0.001,3.256c-0.002,3.521-0.023,7.044-0.049,10.566c-0.006,2.451-0.01,4.904-0.013,7.358 c-0.014,6.438-0.041,12.872-0.074,19.31c-0.036,7.732-0.05,15.468-0.067,23.199c-0.027,11.73-0.087,23.459-0.139,35.189 c-24.09,0-48.18,0-73,0c-0.201-27.221-0.201-27.221-0.244-38.871c-0.03-7.934-0.065-15.866-0.133-23.799 c-0.055-6.4-0.084-12.8-0.098-19.199c-0.009-2.436-0.027-4.87-0.054-7.306c-0.176-16.515-0.094-29.092,11.916-41.626 C328.877,812.688,344.359,811.08,359,818z"/>
  <path fill="#B2B3B2" d="M179,595c2.479-0.027,4.958-0.047,7.438-0.063c0.707-0.011,1.414-0.019,2.143-0.025 c1.807-0.009,3.614,0.036,5.42,0.088c1,1,1,1,1,8c11.88,0,23.76,0,36,0c0-2.64,0-5.28,0-8c2.813-0.026,5.625-0.047,8.438-0.063 c0.802-0.011,1.605-0.019,2.432-0.025c2.044-0.009,4.088,0.035,6.131,0.088c1,1,1,1,1.098,2.848 c-0.033,2.053-0.065,4.104-0.098,6.152c0.784-0.041,1.567-0.082,2.375-0.125C254,604,254,604,256,606 c0.198,2.579,0.273,5.051,0.259,7.631c0.003,0.787,0.007,1.574,0.011,2.385c0.009,2.609,0.003,5.221-0.004,7.828 c0.001,1.811,0.003,3.617,0.006,5.425c0.003,3.794-0.001,7.587-0.011,11.382c-0.011,4.867-0.005,9.736,0.007,14.605 c0.007,3.735,0.005,7.471,0,11.205c-0.001,1.796,0,3.592,0.005,5.388c0.005,2.509-0.002,5.016-0.014,7.521 c0.004,0.747,0.008,1.494,0.012,2.264c-0.042,5.141-0.042,5.141-2.271,7.367c-2.625,0.125-2.625,0.125-5,0 c0.021,1.3,0.041,2.599,0.063,3.938c0.021,1.354,0.009,2.71-0.063,4.063c-1.934,1.934-5.375,1.175-7.938,1.188 c-1.267,0.017-2.534,0.028-3.84,0.045C234,698,234,698,232,696c0-2.31,0-4.62,0-7c-12.54,0-25.08,0-38,0c0,2.64,0,5.28,0,8 c-1,1-1,1-4.125,1.133c-1.279-0.003-2.558-0.005-3.875-0.008c-1.279,0.003-2.558,0.005-3.875,0.008C179,698,179,698,178,697 c-0.141-2.671-0.042-5.324,0-8c-0.949,0.041-1.897,0.082-2.875,0.125C172,689,172,689,170,687c-0.198-2.574-0.273-5.04-0.259-7.615 c-0.003-0.785-0.007-1.568-0.011-2.38c-0.009-2.604-0.003-5.209,0.004-7.813c-0.001-1.808-0.003-3.612-0.006-5.418 c-0.003-3.789,0.001-7.577,0.011-11.366c0.011-4.86,0.005-9.723-0.007-14.581c-0.007-3.731-0.005-7.462,0-11.192 c0.001-1.792,0-3.585-0.005-5.377c-0.005-2.504,0.002-5.008,0.014-7.513c-0.004-0.743-0.008-1.486-0.012-2.253 c0.031-3.716,0.153-5.315,2.271-8.491c3.625-0.188,3.625-0.188,7,0C179,600.36,179,597.72,179,595z"/>
  <path fill="#B1B2B1" d="M839.563,593.875c1.768-0.004,1.768-0.004,3.566-0.008C846,594,846,594,847,595c0.142,2.671,0.043,5.324,0,8 c1.113-0.041,2.229-0.082,3.375-0.125C854,603,854,603,856,605c0.198,2.574,0.271,5.04,0.259,7.615 c0.004,0.785,0.007,1.568,0.011,2.38c0.011,2.604,0.005,5.209-0.004,7.813c0.001,1.808,0.003,3.612,0.006,5.418 c0.005,3.789-0.001,7.577-0.011,11.366c-0.012,4.86-0.005,9.723,0.007,14.581c0.01,3.731,0.006,7.462,0,11.192 c-0.001,1.792,0,3.585,0.006,5.377c0.006,2.504-0.004,5.008-0.015,7.513c0.004,0.743,0.008,1.486,0.013,2.253 c-0.029,3.716-0.152,5.315-2.271,8.491c-3.125,0.188-3.125,0.188-6,0c0.021,1.3,0.041,2.599,0.063,3.938 c0.021,1.354,0.01,2.71-0.063,4.063c-1,1-1,1-4.125,1.133c-1.278-0.003-2.558-0.005-3.875-0.008 c-1.278,0.003-2.558,0.005-3.875,0.008C833,698,833,698,832,697c0-2.64,0-5.28,0-8c-12.21,0-24.42,0-37,0c0,2.64,0,5.28,0,8 c-1.756,1.756-4.036,1.132-6.371,1.137c-0.702-0.004-1.405-0.008-2.129-0.012c-0.702,0.004-1.405,0.008-2.129,0.012 c-5.244-0.01-5.244-0.01-6.371-1.137c-0.041-2.333-0.042-4.667,0-7c-0.97-0.145-1.938-0.289-2.938-0.438C772,689,772,689,771,688 c-0.105-2.545-0.146-5.063-0.146-7.609c-0.003-0.797-0.007-1.593-0.01-2.414c-0.01-2.646-0.012-5.294-0.013-7.939 c-0.003-1.832-0.007-3.664-0.01-5.497c-0.006-3.846-0.009-7.691-0.009-11.538c0-4.938-0.015-9.875-0.029-14.813 c-0.014-3.784-0.016-7.57-0.014-11.355c-0.002-1.821-0.007-3.643-0.015-5.463c-0.01-2.543-0.007-5.086-0.001-7.629 c-0.005-0.758-0.011-1.518-0.017-2.297c0.03-5.215,0.03-5.215,2.26-7.441c2.625-0.125,2.625-0.125,5,0c0-2.97,0-5.939,0-9 c2.646-0.026,5.291-0.047,7.938-0.063c0.756-0.011,1.511-0.019,2.286-0.025c1.928-0.009,3.853,0.035,5.775,0.088c1,1,1,1,1,8 c11.88,0,23.76,0,36,0c0-2.64,0-5.28,0-8C833.866,593.566,836.372,593.868,839.563,593.875z"/>
  <path fill="#1D1E1E" d="M484.878,432.726c0.973-0.008,0.973-0.008,1.965-0.016c2.121-0.014,4.242-0.013,6.364-0.011 c1.49-0.004,2.98-0.008,4.472-0.015c3.118-0.008,6.235-0.008,9.354-0.002c3.971,0.008,7.939-0.012,11.912-0.032 c3.077-0.018,6.152-0.018,9.23-0.015c1.462-0.001,2.925-0.006,4.39-0.016c10.858-0.066,20.852,0.409,29.61,7.499 c5.803,5.976,8.932,12.742,9.074,21.004c-0.173,10.035-2.758,16.451-9.77,23.738c-3.516,3.025-7.065,4.794-11.48,6.137 c-0.565,0.175-1.131,0.349-1.713,0.528c-3.002,0.618-5.854,0.613-8.916,0.633c-0.658,0.005-1.315,0.01-1.993,0.015 c-2.17,0.017-4.341,0.021-6.511,0.027c-1.117,0.004-1.117,0.004-2.258,0.009c-3.947,0.016-7.896,0.024-11.844,0.028 c-4.055,0.006-8.107,0.027-12.163,0.058c-3.138,0.021-6.272,0.024-9.409,0.025c-1.493,0.003-2.986,0.012-4.479,0.022 c-10.834,0.094-20.962-0.22-29.714-7.344c-6.355-6.355-9.195-13.58-9.5-22.563c0.326-8.973,3.51-15.192,9.578-21.717 C467.603,434.875,476.285,432.76,484.878,432.726z"/>
  <path fill="#DCAE3C" d="M527.711,828.922c6.46,5.494,10.705,10.024,11.691,18.563c0.39,9.457-0.868,16.421-7.234,23.572 c-7.725,7.328-14.943,8.605-25.477,8.346c-8.78-0.957-14.555-5.289-20.063-12.014c-4.263-6.256-5.456-12.921-4.629-20.391 c0.521-2.422,1.199-4.648,2-7c-0.66,0.66-1.32,1.32-2,2c-0.66-0.66-1.32-1.32-2-2c-2.469,2.897-3.407,4.83-3.681,8.622 c-0.098,1.323-0.098,1.323-0.194,2.673c-0.196,4.251-0.256,8.489-0.238,12.744c0,0.948-0.001,1.896-0.001,2.872 c0.001,3.095,0.009,6.188,0.019,9.284c0.002,2.158,0.003,4.319,0.004,6.479c0.004,5.658,0.014,11.317,0.023,16.978 c0.014,6.804,0.019,13.606,0.022,20.411c0.01,10.313,0.028,20.623,0.046,30.937c23.76,0,47.52,0,72,0c0-33.66,0-67.32,0-102 c0.33,0,0.66,0,1,0c0.763,13.749,1.141,27.438,1.098,41.207c-0.002,1.831-0.003,3.662-0.004,5.492 c-0.004,4.738-0.014,9.479-0.023,14.219c-0.012,4.867-0.017,9.735-0.021,14.604c-0.011,9.493-0.026,18.985-0.049,28.479 c0.99,0,1.979,0,3,0c0-25.41,0-50.82,0-77c5.28,0,10.56,0,16,0c0,25.41,0,50.82,0,77c1.32,0,2.64,0,4,0c0-25.41,0-50.82,0-77 c4.95,0,9.899,0,15,0c0,25.74,0,51.479,0,78c-37.62,0-75.24,0-114,0c-0.063-17.613-0.124-35.229-0.188-53.375 c-0.041-8.321-0.041-8.321-0.083-16.813c-0.014-6.81-0.014-6.81-0.016-10.005c-0.005-2.217-0.016-4.433-0.03-6.646 c-0.021-3.371-0.023-6.741-0.022-10.112c-0.013-0.976-0.021-1.951-0.032-2.956c0.036-8.002,1.422-15.878,5.936-22.655 c0.621-0.961,0.621-0.961,1.256-1.939C482,828,482,828,484,827c0.33,0.99,0.66,1.98,1,3c0.66-0.33,1.32-0.66,2-1c0,0.66,0,1.32,0,2 c4.374,0,5.448-0.637,9-2.938C505.642,821.846,518.258,822.22,527.711,828.922z"/>
  <path fill="#325B72" d="M774.443,441.596c0.647-0.007,1.298-0.014,1.967-0.021c2.145-0.021,4.289-0.017,6.434-0.009 c1.49-0.007,2.981-0.012,4.474-0.018c3.124-0.009,6.248-0.007,9.37,0.003c4.007,0.014,8.011-0.009,12.017-0.038 c3.078-0.018,6.155-0.018,9.231-0.012c1.479,0,2.954-0.006,4.433-0.019c2.063-0.017,4.126-0.005,6.188,0.013 c1.764,0,1.764,0,3.562,0.001C835,442,835,442,836.879,443.633c1.449,3.062,1.502,5.354,1.51,8.74 c0.011,1.292,0.021,2.583,0.028,3.913c-0.006,1.406-0.012,2.812-0.019,4.218c0.002,1.444,0.005,2.889,0.009,4.333 c0.004,3.024-0.002,6.048-0.019,9.071c-0.017,3.876-0.007,7.752,0.014,11.628c0.011,2.979,0.007,5.962-0.001,8.941 c-0.002,1.431,0.001,2.858,0.008,4.288c0.007,1.996-0.007,3.992-0.021,5.988c-0.003,1.137-0.005,2.272-0.008,3.442 C838,511,838,511,836.879,512.865c-2.791,1.686-5.077,1.521-8.322,1.539c-0.647,0.007-1.298,0.014-1.967,0.021 c-2.145,0.021-4.289,0.017-6.434,0.009c-1.49,0.006-2.981,0.012-4.474,0.018c-3.124,0.009-6.248,0.007-9.37-0.003 c-4.007-0.014-8.011,0.009-12.017,0.038c-3.078,0.018-6.155,0.018-9.231,0.012c-1.479,0-2.954,0.006-4.433,0.019 c-2.063,0.017-4.127,0.005-6.188-0.013c-1.764,0-1.764,0-3.562-0.001C768,514,768,514,766.121,512.367 c-1.449-3.062-1.502-5.354-1.51-8.74c-0.011-1.292-0.021-2.583-0.028-3.913c0.006-1.406,0.012-2.812,0.019-4.218 c-0.002-1.444-0.005-2.889-0.009-4.333c-0.004-3.024,0.002-6.048,0.019-9.071c0.017-3.876,0.007-7.752-0.014-11.628 c-0.011-2.979-0.007-5.962,0.001-8.941c0.002-1.431-0.001-2.858-0.008-4.288c-0.007-1.996,0.007-3.992,0.021-5.988 c0.004-1.704,0.004-1.704,0.008-3.442C765,445,765,445,766.121,443.135C768.912,441.449,771.198,441.611,774.443,441.596z"/>
  <path fill="#C92531" d="M492.816,418.469c1.59-0.003,3.179-0.007,4.768-0.012c3.31-0.006,6.618,0.003,9.927,0.021 c4.208,0.022,8.415,0.012,12.623-0.015c3.275-0.015,6.55-0.01,9.824,0.001c1.551,0.003,3.101-0.001,4.651-0.01 c15.355-0.073,27.532,3.197,39.078,13.73c8.66,9.085,11.778,19.91,11.559,32.186c-0.852,12.54-5.639,23.039-14.762,31.738 c-8.336,6.344-17.438,10.02-27.895,10.084c-0.74,0.008-1.479,0.016-2.244,0.022c-2.445,0.024-4.896,0.041-7.344,0.056 c-1.261,0.01-1.261,0.01-2.548,0.018c-4.456,0.026-8.912,0.047-13.369,0.061c-3.667,0.016-7.334,0.042-11.001,0.082 c-4.446,0.05-8.892,0.074-13.338,0.082c-1.686,0.006-3.367,0.021-5.051,0.046c-13.326,0.182-25.047-1.515-35.631-10.479 c-6.318-6.355-11.061-13.291-13.065-22.078c-0.182-0.772-0.363-1.544-0.551-2.34c-2.138-12.655,0.054-23.622,6.891-34.34 C456.667,421.489,474.451,418.357,492.816,418.469z M457,445c-4.972,7.747-5.72,14.988-5,24c1.669,7.197,5.359,13.221,11,18 c6.652,3.938,13.055,5.113,20.727,5.177c0.656,0.007,1.313,0.016,1.988,0.021c2.16,0.02,4.32,0.029,6.48,0.041 c1.112,0.006,1.112,0.006,2.251,0.013c3.936,0.021,7.871,0.035,11.807,0.044c4.038,0.012,8.075,0.046,12.113,0.085 c3.128,0.026,6.256,0.035,9.384,0.038c1.487,0.005,2.975,0.017,4.461,0.035c11.939,0.141,22.193-1.021,31.137-9.598 c6.126-6.881,8.164-14.947,7.967-24.018c-0.847-7.674-4.354-14.866-10.313-19.84c-7.13-4.406-13.26-6.106-21.619-6.177 c-0.645-0.007-1.29-0.016-1.954-0.021c-2.122-0.02-4.245-0.029-6.367-0.041c-0.729-0.004-1.462-0.008-2.215-0.013 c-3.872-0.021-7.742-0.035-11.613-0.044c-3.971-0.012-7.938-0.046-11.904-0.085c-3.078-0.026-6.155-0.035-9.233-0.038 c-1.461-0.005-2.922-0.017-4.383-0.035C478.069,432.383,466.268,434.142,457,445z"/>
  <path fill="#C62631" d="M294,355c28.38,0,56.76,0,86,0c-6.75,7.875-6.75,7.875-9.714,10.841c-0.672,0.674-1.343,1.349-2.035,2.043 c-0.716,0.714-1.431,1.427-2.168,2.163c-1.155,1.157-1.155,1.157-2.333,2.338c-2.524,2.529-5.054,5.055-7.582,7.58 c-1.761,1.761-3.521,3.522-5.28,5.284c-3.678,3.679-7.355,7.356-11.038,11.032c-3.784,3.782-7.568,7.563-11.352,11.352 c-4.569,4.575-9.141,9.147-13.715,13.719c-1.744,1.743-3.487,3.487-5.23,5.233c-2.425,2.427-4.854,4.852-7.282,7.275 c-0.726,0.728-1.452,1.455-2.199,2.205c-0.658,0.652-1.315,1.309-1.992,1.981c-0.574,0.573-1.148,1.147-1.739,1.738 C295,441,295,441,294,441C294,412.62,294,384.24,294,355z"/>
  <path fill="#E3B33D" d="M794,845c0.33,0,0.66,0,1,0c0.33,23.43,0.66,46.86,1,71c1.357-1.124,1.357-1.124,1.027-4.055 c-0.062-2.542-0.122-5.083-0.188-7.625C797,901,797,901,799,898c-0.035,1.002-0.069,2.003-0.105,3.035 C798.51,910.93,798.51,910.93,802,920c3.17,1.585,6.54,1.294,10,1c2.405-0.862,2.405-0.862,4-2c0,0.99,0,1.98,0,3c1.32,0,2.64,0,4,0 c0-4.95,0-9.9,0-15c-3.96,0-7.92,0-12,0c0.33,1.32,0.66,2.64,1,4c1.98,0,3.96,0,6,0c-1.875,4.875-1.875,4.875-3,6 c-3.5-0.313-3.5-0.313-7-1c-1.417-2.834-1.17-5.28-1.188-8.438c-0.016-1.153-0.028-2.31-0.045-3.496C804,901,804,901,806,898 c3.125-0.188,3.125-0.188,6,0c0.66,1.32,1.32,2.64,2,4c1.98,0,3.96,0,6,0c0.33-2.97,0.66-5.94,1-9c0.33,0,0.66,0,1,0 c0,9.57,0,19.14,0,29c1.65,0,3.3,0,5,0c0-5.61,0-11.22,0-17c3.613,4.517,5.873,8.531,8.34,13.672 c1.688,2.927,1.688,2.927,6.66,3.328c0-9.57,0-19.14,0-29c-1.65-0.33-3.3-0.66-5-1c0-0.33,0-0.66,0-1c2.375-0.125,2.375-0.125,5,0 c2,2,2,2,2.211,4.781c-0.025,1.732-0.025,1.732-0.051,3.504c-0.019,1.879-0.019,1.879-0.033,3.795 c-0.021,1.314-0.043,2.628-0.064,3.982c-0.032,2.595-0.063,5.188-0.09,7.783c-0.018,1.155-0.036,2.313-0.055,3.5 c-0.224,2.575-0.224,2.575,1.082,3.652c5.701-0.038,11.559-0.097,16-4c3.371-4.342,4.503-7.166,4.546-12.648 c0.021-1.301,0.039-2.602,0.06-3.939c0.002-1.405,0.005-2.812,0.006-4.215c0.015-1.449,0.029-2.897,0.05-4.349 c0.044-3.797,0.063-7.595,0.079-11.393c0.02-3.881,0.062-7.763,0.102-11.646c0.075-7.604,0.126-15.208,0.16-22.813 c0.33,0,0.66,0,1,0c0.33,33.66,0.66,67.32,1,102c-15.397,5.133-15.397,5.133-23.914,5.113c-1.141,0-2.281,0-3.456,0 c-1.216-0.007-2.432-0.013-3.685-0.018c-1.259-0.001-2.516-0.003-3.811-0.004c-3.323-0.005-6.646-0.014-9.972-0.024 c-3.398-0.011-6.798-0.016-10.196-0.021c-6.656-0.011-13.313-0.027-19.969-0.049c-0.023-13.917-0.041-27.833-0.052-41.75 c-0.005-6.461-0.015-12.923-0.023-19.385c-0.011-6.23-0.017-12.462-0.02-18.692c-0.003-2.382-0.008-4.764-0.013-7.146 c-0.008-3.324-0.009-6.65-0.008-9.979c-0.004-0.993-0.008-1.986-0.011-3.01c0.001-0.903,0.002-1.808,0.004-2.736 c-0.001-0.787-0.002-1.574-0.003-2.386C793,847,793,847,794,845z"/>
  <path fill="#F9F8F8" d="M701.969,829.355c5.193,4.104,8.759,9.032,10.031,15.645c0.784,9.492,0.146,17.488-5.695,25.254 c-5.5,6.046-11.388,9.111-19.479,10.156c-9.604,0.438-16.516-2.218-23.699-8.535c-5.23-5.714-7.294-12.868-7.625-20.5 c0.407-9.227,4.826-16.191,11.5-22.375C677.54,821.225,691.499,822.146,701.969,829.355z"/>
  <path fill="#F9F8F7" d="M211.93,829.285c5.692,4.386,9.686,10.626,11.07,17.715c0.974,8.06-0.874,15.779-5.73,22.336 c-5.454,5.856-10.854,9.203-18.859,10.039c-10.597,0.339-18.057-1.537-25.906-8.73c-6.029-6.593-6.942-13.621-6.836-22.258 c0.74-7.544,4.241-12.683,9.645-17.822C186.39,821.56,200.081,821.394,211.93,829.285z"/>
  <path fill="#F9F8F7" d="M525,827c6.064,4.299,12.271,9.502,14,17c1.071,9.276,0.727,17.359-5,25 c-5.587,6.277-11.156,9.518-19.488,10.348c-9.709,0.381-16.455-0.871-23.793-7.365c-5.838-6.039-8.67-12.038-9.154-20.42 c0.303-7.858,3.795-15.163,9.438-20.563C501.612,823.666,512.861,821.063,525,827z"/>
  <path fill="#F9F8F8" d="M352.875,825.973c7.888,3.813,12.368,9.149,16.125,17.027c2.029,6.432,1.583,13.387-0.773,19.664 c-3.805,7.247-9.561,13.234-17.434,15.773c-9.614,1.937-17.636,1.271-26.227-3.604C318.532,870.52,314.563,864.26,313,857 c-1.111-9.246,1-16.251,6.5-23.688C328.367,823.753,340.942,821.349,352.875,825.973z"/>
  <path fill="#F9F8F8" d="M845,827c7.334,5.146,11.178,10.534,14,19c0.887,8.741-0.362,16.146-5.695,23.262 c-5.595,6.127-11.479,9.156-19.703,10.148c-9.061,0.383-15.858-1.118-22.664-7.277c-6.961-7.453-8.545-13.601-8.275-23.693 c0.781-7.9,4.238-13.347,10.008-18.707C822.008,822.8,834.659,821.595,845,827z"/>
  <path display="none" fill="#ABABAC" d="M461,331c33.33,0,66.66,0,101,0c0.794,3.177,1.128,5.331,1.133,8.512 c0.001,0.84,0.003,1.68,0.004,2.545c-0.004,0.868-0.008,1.736-0.012,2.631c0.004,0.88,0.008,1.76,0.012,2.666 c-0.001,0.836-0.003,1.672-0.004,2.533c-0.001,0.765-0.002,1.531-0.004,2.319C563,354,563,354,562,355 c-3.1,0.101-6.177,0.136-9.277,0.129c-1.461,0.002-1.461,0.002-2.949,0.005c-3.236,0.004-6.475,0.001-9.709-0.002 c-2.238,0-4.479,0.001-6.717,0.003c-4.695,0.001-9.396,0-14.093-0.005c-6.036-0.006-12.073-0.002-18.107,0.003 c-4.624,0.004-9.248,0.002-13.871,0c-2.229,0-4.453,0-6.682,0.002c-3.104,0.002-6.212-0.001-9.315-0.007 c-0.932,0.002-1.859,0.004-2.818,0.006c-6.345-0.021-6.345-0.021-7.459-1.136C461,346.41,461,338.82,461,331z"/>
  <path fill="#2C2C2D" d="M225.625,620.75c1.146,0.717,2.275,1.464,3.375,2.25c0.866,0.536,1.732,1.072,2.625,1.625 c6.073,6.073,8.959,11.734,9,20.438c-0.215,9.269-2.849,16.456-9.625,22.938c-7.852,5.854-16.618,6.332-26,5 c-7.442-2.717-13.18-7.961-17.027-14.836c-3.061-6.912-2.91-14.646-0.91-21.854c2.958-7.653,8.556-13.108,15.992-16.465 C210.243,617.779,218.757,617.485,225.625,620.75z"/>
  <path fill="#2C2C2D" d="M825.438,621c6.548,3.822,11.826,9.416,14.125,16.742c1.959,10.104,0.065,18.427-5.313,27.07 c-7.112,6.913-13.709,8.522-23.461,8.57c-7.814-0.175-12.796-3.027-18.102-8.57c-5.132-6.616-7.426-13.794-7.07-22.146 c1.052-7.333,4.815-13.813,10.383-18.668C804.673,617.68,815.597,616.597,825.438,621z"/>
  <path fill="#E6B93D" d="M592,876c4.62,0,9.24,0,14,0c0,25.41,0,50.82,0,77c1.65,0,3.3,0,5,0c0-25.41,0-50.82,0-77 c4.62,0,9.24,0,14,0c0,25.74,0,51.48,0,78c-10.89,0-21.78,0-33,0C592,928.26,592,902.52,592,876z"/>
  <path fill="#E2B43C" d="M287,876c4.29,0,8.58,0,13,0c0,25.74,0,51.48,0,78c-9.9,0-19.8,0-30,0c0-25.41,0-50.82,0-77 c4.29,0,8.58,0,13,0c0,25.08,0,50.16,0,76c1.32,0,2.64,0,4,0C287,927.59,287,902.18,287,876z"/>
  <path fill="#C82631" d="M381,355c18.81,0,37.62,0,57,0c-3.708,4.326-7.259,8.385-11.255,12.385c-0.487,0.488-0.977,0.977-1.478,1.48 c-1.584,1.588-3.171,3.172-4.758,4.756c-1.108,1.111-2.221,2.222-3.33,3.333c-2.313,2.313-4.626,4.625-6.939,6.937 c-2.976,2.968-5.943,5.94-8.911,8.915c-2.284,2.288-4.571,4.574-6.858,6.858c-1.098,1.097-2.191,2.193-3.289,3.291 c-1.521,1.524-3.047,3.047-4.571,4.567c-0.868,0.865-1.736,1.732-2.632,2.627C382,412,382,412,381,412 C381,393.19,381,374.38,381,355z"/>
  <path fill="#DDAD3C" d="M895,874c4.938,14.813,1.777,38.306-4.586,52.316C885.861,934.957,879.35,941.99,871,947 c0-23.43,0-46.86,0-71c7.92,0,15.84,0,24,0C895,875.34,895,874.68,895,874z"/>
  <path fill="#4B99BB" d="M811.375,459.563c4.591,2.703,8.849,6.544,10.258,11.799c1.865,13.415,1.865,13.415-2.258,19.076 c-1.096,1.217-2.22,2.404-3.375,3.563c-0.866,0.99-1.732,1.98-2.625,3c-6.042,3.581-12.454,2.431-19.188,1.438 c-5.995-2.703-10.253-7.602-13.188-13.438c-1.127-7.364-0.363-13.894,4-20C791.606,457.208,801.956,455.334,811.375,459.563z"/>
  <path fill="#E1B13C" d="M131,876c7.26,0,14.52,0,22,0c0,22.77,0,45.54,0,69c-11.474-7.649-17.876-17.324-21.396-30.589 c-1.264-7.132-0.909-14.381-0.792-21.599c0.015-1.638,0.029-3.272,0.041-4.908C130.884,883.936,130.942,879.969,131,876z"/>
  <path fill="#DB1A39" d="M811,546c15.689-0.161,31.325,0.334,47,1c-0.813,1.938-0.813,1.938-2,4c-0.99,0.33-1.98,0.66-3,1 c0,0.66,0,1.32,0,2c-4.113,4.428-8.691,8.412-13.184,12.451c-2.688,2.451-5.19,4.907-7.492,7.729 c-1.918,2.327-3.688,4.127-6.014,6.008c-4.521,3.824-8.336,8.195-12.211,12.652c-1.04,1.069-1.04,1.069-2.102,2.16 c-0.66,0-1.32,0-2,0C809.848,578.64,810.258,562.344,811,546z"/>
  <path fill="#E1B13C" d="M455,876c4.95,0,9.9,0,15,0c0,25.74,0,51.48,0,78c-4.95,0-9.9,0-15,0C455,928.26,455,902.52,455,876z"/>
  <path fill="#E1B13C" d="M418,876c4.95,0,9.9,0,15,0c0,25.74,0,51.48,0,78c-4.95,0-9.9,0-15,0C418,928.26,418,902.52,418,876z"/>
  <path fill="#E6B63E" d="M629,876c4.62,0,9.24,0,14,0c0,25.74,0,51.48,0,78c-4.62,0-9.24,0-14,0C629,928.26,629,902.52,629,876z"/>
  <path fill="#E4B53D" d="M437,876c4.62,0,9.24,0,14,0c0,25.74,0,51.48,0,78c-4.62,0-9.24,0-14,0C437,928.26,437,902.52,437,876z"/>
  <path fill="#E5B63D" d="M400,877c4.62,0,9.24,0,14,0c0,25.41,0,50.82,0,77c-4.62,0-9.24,0-14,0C400,928.59,400,903.18,400,877z"/>
  <path fill="#E5B43C" d="M382,877c4.62,0,9.24,0,14,0c0,25.41,0,50.82,0,77c-4.62,0-9.24,0-14,0C382,928.59,382,903.18,382,877z"/>
  <path fill="#538CAE" d="M806,381c15.18,0,30.36,0,46,0c-3.762,7.524-10.715,12.834-17.035,18.254 c-2.073,1.842-4.02,3.771-5.965,5.746c-3.171,3.221-6.479,6.188-9.91,9.125c-3.227,2.895-6.209,6.023-9.207,9.152 C808,425,808,425,806,425C806,410.48,806,395.96,806,381z"/>
  <path fill="#E11B3B" d="M217,702c0.66,0,1.32,0,2,0c0,15.18,0,30.36,0,46c-14.85,0-29.7,0-45,0 c4.099-4.782,8.076-9.146,12.559-13.496c1.994-2.045,3.857-4.119,5.719-6.281c3.752-4.323,7.763-8.34,11.848-12.348 c5.602-5.471,5.602-5.471,10.742-11.367C215.923,703.267,215.923,703.267,217,702z"/>
  <path fill="#E3B43C" d="M776,876c4.29,0,8.58,0,13,0c0,25.74,0,51.48,0,78c-4.29,0-8.58,0-13,0C776,928.26,776,902.52,776,876z"/>
  <path fill="#E6B63C" d="M742,876c4.29,0,8.58,0,13,0c0,25.74,0,51.48,0,78c-4.29,0-8.58,0-13,0C742,928.26,742,902.52,742,876z"/>
  <path fill="#E0AE3D" d="M725,876c4.29,0,8.58,0,13,0c0,25.74,0,51.48,0,78c-4.29,0-8.58,0-13,0C725,928.26,725,902.52,725,876z"/>
  <path fill="#E5B63C" d="M759,877c4.29,0,8.58,0,13,0c0,25.41,0,50.82,0,77c-4.29,0-8.58,0-13,0C759,928.59,759,903.18,759,877z"/>
  <path fill="#E5B63C" d="M253,877c4.29,0,8.58,0,13,0c0,25.41,0,50.82,0,77c-4.29,0-8.58,0-13,0C253,928.59,253,903.18,253,877z"/>
  <path fill="#E7BC39" d="M359,818c9.121,5.364,15.118,13.425,18.362,23.411c1.121,4.552,1.026,9.043,0.979,13.708 c0,1.611,0,1.611,0.001,3.256c-0.002,3.521-0.023,7.044-0.049,10.566c-0.006,2.451-0.01,4.904-0.013,7.358 c-0.014,6.438-0.041,12.872-0.074,19.31c-0.031,6.574-0.045,13.15-0.06,19.729c-0.032,12.888-0.085,25.774-0.146,38.662 c-0.33,0-0.66,0-1,0c-0.016-1.95-0.016-1.95-0.031-3.939c-0.098-12.256-0.2-24.513-0.309-36.769 c-0.055-6.301-0.108-12.604-0.157-18.903c-0.048-6.082-0.101-12.163-0.156-18.245c-0.02-2.317-0.039-4.639-0.056-6.958 c-0.024-3.251-0.055-6.501-0.086-9.752c-0.006-0.957-0.012-1.913-0.02-2.897c-0.054-4.944-0.354-9.658-1.188-14.534 c-2.867,0.573-3.861,0.861-6,3c-0.34-0.725-0.681-1.449-1.031-2.195c-4.188-8.356-8.505-13.264-17.281-16.68 c-9.451-2.671-16.482-1.487-25.068,3.207c-3.071,1.957-5.312,3.866-7.617,6.668c0-0.99,0-1.98,0-3c-0.66-0.33-1.32-0.66-2-1 c0.33-0.66,0.66-1.32,1-2c-0.598,0.66-1.196,1.32-1.813,2C313,834,313,834,310,834c0,0.99,0,1.98,0,3c0.66-0.33,1.32-0.66,2-1 c-0.33,1.32-0.66,2.64-1,4c-0.66,0-1.32,0-2,0c-2.057,5.951-2.305,11.351-2.318,17.617c-0.016,1.564-0.016,1.564-0.029,3.165 c-0.03,3.437-0.05,6.872-0.064,10.308c-0.019,2.389-0.038,4.778-0.059,7.167c-0.054,6.274-0.091,12.55-0.128,18.825 c-0.04,6.408-0.094,12.816-0.144,19.225c-0.097,12.564-0.182,25.129-0.258,37.693c-0.33,0-0.66,0-1,0 c-0.117-14.266-0.205-28.53-0.259-42.796c-0.026-6.625-0.061-13.25-0.118-19.874c-0.055-6.4-0.084-12.8-0.098-19.199 c-0.009-2.436-0.027-4.87-0.054-7.306c-0.176-16.515-0.094-29.094,11.916-41.626C328.877,812.688,344.359,811.08,359,818z"/>
  <path fill="#528AAA" d="M803,380c0,13.86,0,27.72,0,42c-13.53,0-27.06,0-41,0c1.729-3.455,2.796-5.028,5.449-7.609 c0.684-0.673,1.367-1.346,2.072-2.039c0.715-0.691,1.43-1.387,2.166-2.102c4.729-4.613,9.274-9.276,13.587-14.286 c2.884-3.282,5.949-6.374,9.038-9.464c0.617-0.632,1.236-1.263,1.877-1.914c0.891-0.894,0.891-0.894,1.799-1.805 c0.531-0.536,1.063-1.071,1.608-1.623C801,380,801,380,803,380z"/>
  <path fill="#DFAC3D" d="M612,878c3.96,0,7.92,0,12,0c-0.33,24.09-0.66,48.18-1,73c-3.63,0-7.26,0-11,0 C612,926.91,612,902.82,612,878z"/>
  <path fill="#DFAD3D" d="M237,878c3.3,0,6.6,0,10,0c0.01,0.923,0.021,1.846,0.031,2.796c0.098,8.683,0.2,17.364,0.308,26.046 c0.055,4.464,0.109,8.928,0.158,13.393c0.048,4.306,0.1,8.609,0.156,12.916c0.021,1.646,0.039,3.29,0.056,4.936 c0.024,2.299,0.054,4.598,0.086,6.896c0.015,1.31,0.031,2.619,0.047,3.97c-0.05,2.967-0.05,2.967,1.158,5.05c-3.96,0-7.92,0-12,0 C237,928.92,237,903.84,237,878z"/>
  <path fill="#E0AF37" d="M829.813,813.563c0.796,0.01,1.59,0.018,2.406,0.023c6.254,0.175,11.344,1.174,16.781,4.414 c0.702,0.412,1.405,0.825,2.129,1.25c5.649,3.773,9.501,8.895,12.871,14.75c0,0.66,0,1.32,0,2c-1.485,0.495-1.485,0.495-3,1 c-1.339,2.348-1.339,2.348-2,5c0.495,1.485,0.495,1.485,1,3c0.069,2.229,0.085,4.458,0.063,6.688 c-0.009,1.182-0.018,2.359-0.025,3.574c-0.012,0.903-0.023,1.81-0.035,2.738c-0.33,0-0.66,0-1,0 c-0.025-0.762-0.052-1.523-0.078-2.309c-0.525-9.604-2.635-16.994-9.211-24.188c-5.99-5.265-13.138-6.893-20.922-6.777 c-8.86,0.868-15.188,4.47-20.789,11.273c-0.66-1.32-1.32-2.64-2-4c-3.438,0.182-3.438,0.182-7,1c-1.513,1.936-1.513,1.936-2,4 c0.95-6.755,5.012-11.564,10.219-15.81C814.615,816.112,820.85,813.442,829.813,813.563z"/>
  <path fill="#0D0E1E" d="M748.074,874.902c1.023,0.002,1.023,0.002,2.072,0.004c2.181,0.006,4.358,0.019,6.541,0.031 c1.479,0.005,2.96,0.01,4.438,0.014c3.624,0.011,7.249,0.026,10.873,0.049c0,0.33,0,0.66,0,1c-4.29,0-8.58,0-13,0 c0,25.74,0,51.48,0,78c-1.32,0-2.64,0-4,0c0-25.74,0-51.48,0-78c-4.29,0-8.58,0-13,0c0,25.74,0,51.48,0,78c-1.32,0-2.64,0-4,0 c0-25.74,0-51.48,0-78C741.538,874.82,744.342,874.887,748.074,874.902z"/>
  <path fill="#E9BD3C" d="M483,827c0.66,0.99,1.32,1.98,2,3c0.66-0.33,1.32-0.66,2-1c0,0.66,0,1.32,0,2c0.66,0,1.32,0,2,0 c-0.482,4.343-1.745,6.14-5,9c-0.66,0.66-1.32,1.32-2,2c-0.66-0.66-1.32-1.32-2-2c-2.469,2.898-3.407,4.83-3.681,8.622 c-0.098,1.323-0.098,1.323-0.194,2.673c-0.196,4.251-0.256,8.489-0.238,12.744c0,0.948-0.001,1.896-0.001,2.872 c0.001,3.095,0.009,6.188,0.019,9.284c0.002,2.16,0.003,4.319,0.004,6.479c0.004,5.658,0.014,11.317,0.023,16.978 c0.014,6.804,0.019,13.606,0.022,20.412c0.01,10.313,0.028,20.623,0.046,30.936c23.76,0,47.52,0,72,0c0-33.66,0-67.32,0-102 c0.33,0,0.66,0,1,0c0,34.65,0,69.3,0,105c-24.75,0-49.5,0-75,0c-0.12-26.552-0.12-26.552-0.146-37.902 c-0.018-7.731-0.037-15.467-0.078-23.199c-0.032-6.237-0.053-12.477-0.06-18.713c-0.006-2.375-0.017-4.752-0.033-7.127 c-0.021-3.337-0.022-6.673-0.021-10.01c-0.011-0.974-0.021-1.947-0.032-2.951c0.035-8.019,1.402-15.906,5.998-22.658 c0.638-0.962,0.638-0.962,1.289-1.941C482,828,482,828,483,827z"/>
  <path fill="#15131E" d="M193.313,892.563c4.175,0.065,5.35,0.188,8.813,2.75c2.951,4.229,3.061,7.505,3.125,12.563 c0.026,1.214,0.052,2.429,0.078,3.68c-0.427,4.48-2,6.964-4.953,10.259c-3.736,1.867-7.287,1.838-11.375,1.188 c-3.268-1.808-4.588-3.215-6.313-6.5c-1.208-6.152-2.449-13.615,1.188-19.125C187.211,893.646,188.285,892.678,193.313,892.563z"/>
  <path fill="#15121F" d="M643,875c0,0.33,0,0.66,0,1c-4.62,0-9.24,0-14,0c0,25.74,0,51.48,0,78c-1.32,0-2.64,0-4,0 c0-25.74,0-51.48,0-78c-4.62,0-9.24,0-14,0c0,25.41,0,50.82,0,77c-1.32,0-2.64,0-4,0c0-25.41,0-50.82,0-77 c3.563-1.188,6.971-1.403,10.688-1.625c0.744-0.045,1.487-0.09,2.256-0.137C627.676,873.847,635.294,874.326,643,875z"/>
  <path fill="#0E0E1C" d="M845,893c13,0,13,0,18,4c1.55,3.101,1.308,6.349,1.375,9.75c0.037,0.704,0.075,1.407,0.113,2.133 c0.064,3.974-0.312,6.413-2.824,9.57C856.233,923.646,853.61,922,845,922C845,912.43,845,902.86,845,893z"/>
  <path fill="#1B191E" d="M822,893c1.65,0,3.3,0,5,0c1.708,2.123,2.95,3.961,4.25,6.313c0.351,0.597,0.701,1.189,1.063,1.805 c1.51,2.595,2.736,5.03,3.688,7.885c0.33-5.28,0.66-10.56,1-16c1.65,0,3.3,0,5,0c0,9.57,0,19.14,0,29c-5,0-5,0-6.394-1.377 c-0.354-0.629-0.702-1.257-1.063-1.904c-0.39-0.677-0.78-1.354-1.182-2.051c-0.39-0.716-0.774-1.431-1.175-2.168 c-0.405-0.716-0.813-1.431-1.231-2.168c-1.002-1.77-1.98-3.549-2.955-5.332c-0.33,4.95-0.66,9.9-1,15c-1.65,0-3.3,0-5,0 C822,912.43,822,902.86,822,893z"/>
  <path fill="#1F1A1E" d="M812.91,892.32c3.236,1.053,4.464,2.768,6.09,5.68c0.75,2.313,0.75,2.313,1,4c-2.875,0.188-2.875,0.188-6,0 c-0.66-0.99-1.32-1.98-2-3c-3.084-0.25-3.084-0.25-6,0c-1.532,3.065-1.104,6.268-1.063,9.625c0.007,1.06,0.007,1.06,0.014,2.141 c0.012,1.745,0.029,3.489,0.049,5.234c3.419,0.208,3.419,0.208,7,0c2.009-2.373,2.009-2.373,3-5c-1.98,0-3.96,0-6,0 c-0.33-1.32-0.66-2.64-1-4c3.96,0,7.92,0,12,0c0,4.95,0,9.9,0,15c-1.32,0-2.64,0-4,0c-0.33-0.66-0.66-1.32-1-2 c-0.99,0.66-1.98,1.32-3,2c-7.055,0.672-7.055,0.672-10.375-1.688c-4.072-5.797-4.271-11.435-3.625-18.313 C800.646,894.339,804.914,891.017,812.91,892.32z"/>
  <path fill="#EDEDED" d="M839.563,593.875c1.768-0.004,1.768-0.004,3.566-0.008C846,594,846,594,847,595c0.142,2.671,0.043,5.324,0,8 c2.31,0,4.62,0,7,0c0,0.99,0,1.98,0,3c-0.844-0.161-1.688-0.321-2.556-0.487c-3.563-0.528-6.952-0.673-10.554-0.718 c-0.684-0.01-1.365-0.021-2.069-0.03c-2.239-0.029-4.479-0.057-6.722-0.081c-1.561-0.021-3.122-0.042-4.683-0.063 c-4.094-0.057-8.187-0.105-12.28-0.153c-4.183-0.051-8.366-0.104-12.549-0.161c-8.196-0.105-16.394-0.209-24.59-0.307 c0-2.97,0-5.94,0-9c2.646-0.026,5.291-0.047,7.938-0.063c0.756-0.009,1.512-0.017,2.287-0.023c1.928-0.009,3.853,0.035,5.775,0.088 c1,1,1,1,1,8c11.88,0,23.76,0,36,0c0-2.64,0-5.28,0-8C833.866,593.566,836.372,593.868,839.563,593.875z"/>
  <path fill="#1D1A1F" d="M676,893c3.188,2.125,3.188,2.125,5,5c-0.073,3.755-0.328,5.328-3,8c0.66,0.701,1.32,1.402,2,2.125 c2,2.875,2,2.875,2.563,5.875c-0.747,3.995-2.487,5.438-5.563,8c-3.196,1.599-6.523,1.367-10,1c-3.488-1.44-4.652-2.287-6.313-5.688 c-0.229-0.765-0.454-1.526-0.688-2.313c2.813-0.688,2.813-0.688,6-1c1.021,0.979,2.021,1.979,3,3c2.654-0.229,2.654-0.229,5-1 c0.682-1.892,0.682-1.892,1-4c-2.359-2.359-3.779-2.491-7-3c0-1.65,0-3.3,0-5c3.465-0.495,3.465-0.495,7-1c-0.33-1.32-0.66-2.64-1-4 c-1.979,0-3.96,0-6,0c-0.33,0.99-0.66,1.979-1,3c-2.97-0.495-2.97-0.495-6-1c0.321-2.97,0.523-4.552,2.738-6.637 C667.642,892.011,671.595,892.247,676,893z"/>
  <path fill="#E9E9E9" d="M179,595c2.479-0.027,4.958-0.047,7.438-0.063c0.707-0.011,1.414-0.019,2.143-0.025 c1.807-0.009,3.614,0.036,5.42,0.088c1,1,1,1,1,8c11.88,0,23.76,0,36,0c0-2.64,0-5.28,0-8c2.813-0.026,5.625-0.047,8.438-0.063 c0.802-0.011,1.605-0.019,2.432-0.025c2.044-0.009,4.088,0.035,6.131,0.088c1,1,1,1,1,9c-24.75,0-49.5,0-75,0c0-0.33,0-0.66,0-1 c1.65,0,3.3,0,5,0C179,600.36,179,597.72,179,595z"/>
  <path fill="#0B0B1E" d="M473,847c0.33,0,0.66,0,1,0c0,35.31,0,70.62,0,107c-1.32,0-2.64,0-4,0c0-25.74,0-51.48,0-78 c0.33,0,0.66,0,1,0c0.33,6.93,0.66,13.86,1,21c-0.012-3.274-0.023-6.549-0.035-9.922c-0.008-3.171-0.014-6.341-0.02-9.512 c-0.005-2.204-0.014-4.407-0.021-6.611c-0.013-3.167-0.018-6.335-0.021-9.502c-0.005-0.985-0.013-1.971-0.018-2.986 c0-0.921,0-1.842,0-2.79c-0.003-0.809-0.005-1.616-0.007-2.449C471.998,851.027,472.391,849.112,473,847z"/>
  <path fill="#1F1C1E" d="M517,893c3.293,2.47,4.732,4.593,5.5,8.625c-0.76,5.128-4.007,7.731-7.5,11.375 c-1.346,1.656-2.686,3.318-4,5c3.3,0,6.6,0,10,0c0,1.65,0,3.3,0,5c-5.94,0-11.88,0-18,0c0-5.315,0.357-5.862,3.861-9.412 c1.047-1.013,2.094-2.025,3.141-3.039c3.366-3.41,4.719-5.743,4.998-10.549c-1.65-0.33-3.3-0.66-5-1c-1.485,2.475-1.485,2.475-3,5 c-1.65-0.33-3.3-0.66-5-1c0.248-3.636,0.625-5.555,3-8.375C509.055,892.429,512.479,892.138,517,893z"/>
  <path fill="#1B191E" d="M684,893c1.98,0,3.96,0,6,0c1.98,5.94,3.96,11.88,6,18c2.266-3.398,3.389-6.84,4.625-10.688 c0.229-0.702,0.459-1.403,0.695-2.129c0.563-1.728,1.122-3.455,1.68-5.186c1.98,0,3.96,0,6,0c-2.471,9.841-5.737,19.401-9,29 c-2.31,0-4.62,0-7,0c-2.27-5.901-4.291-11.844-6.188-17.875c-0.409-1.28-0.409-1.28-0.826-2.586 c-0.258-0.814-0.517-1.629-0.779-2.469c-0.232-0.734-0.465-1.471-0.704-2.229C684,895,684,895,684,893z"/>
  <path fill="#0B0B1E" d="M588,876c0.66,0.66,1.32,1.32,2,2c0.66-0.66,1.32-1.32,2-2c0,25.74,0,51.48,0,78c-1.32,0-2.64,0-4,0 C588,928.26,588,902.52,588,876z"/>
  <path fill="#100F1E" d="M396,876c1.98,0.99,1.98,0.99,4,2c0,25.08,0,50.16,0,76c-1.32,0-2.64,0-4,0C396,928.26,396,902.52,396,876z"/>
  <path fill="#0C0B1E" d="M378,844c2.047,4.094,2.292,6.046,2.414,10.516c0.039,1.25,0.077,2.501,0.117,3.789 c0.031,1.304,0.062,2.604,0.094,3.945c0.039,1.317,0.077,2.635,0.117,3.992c0.095,3.253,0.18,6.505,0.258,9.758c0.33,0,0.66,0,1,0 c0,25.74,0,51.48,0,78c-1.32,0-2.64,0-4,0C378,917.7,378,881.4,378,844z"/>
  <path fill="#07071B" d="M794,838c1.13,3.39,0.701,5.547,0,9c-0.094,1.553-0.146,3.108-0.158,4.663 c-0.015,1.361-0.015,1.361-0.029,2.749c-0.006,0.982-0.012,1.966-0.018,2.978c-0.015,1.566-0.015,1.566-0.03,3.165 c-0.029,3.446-0.057,6.896-0.081,10.342c-0.021,2.392-0.042,4.781-0.063,7.176c-0.057,6.291-0.105,12.583-0.153,18.874 c-0.05,6.422-0.104,12.843-0.161,19.265c-0.105,12.598-0.209,25.194-0.307,37.791c-1.32,0-2.64,0-4,0c0-25.74,0-51.479,0-78 c-4.29,0-8.58,0-13,0c0-0.33,0-0.66,0-1c2.313-0.025,4.625-0.046,6.938-0.063c1.288-0.014,2.575-0.023,3.902-0.035 C790,875,790,875,791,876c0.029-1.301,0.029-1.301,0.061-2.627c0.078-3.251,0.165-6.501,0.259-9.751 c0.038-1.4,0.071-2.801,0.104-4.201C791.59,852.067,791.761,845.063,794,838z"/>
  <path fill="#070001" d="M822.813,550.75c0.873-0.025,1.745-0.052,2.646-0.078c2.982,0.385,4.32,1.359,6.543,3.328 c-0.206,1.113-0.412,2.229-0.625,3.375c-0.124,1.196-0.247,2.393-0.375,3.625c0.66,0.66,1.32,1.32,2,2c-0.188,3-0.188,3-1,6 c-3.393,2.262-4.652,2.245-8.625,2.188c-0.98-0.007-1.965-0.013-2.977-0.02C818,571,818,571,817,570 c-0.099-1.33-0.131-2.666-0.133-4c-0.001-0.805-0.003-1.608-0.004-2.438c0.004-0.848,0.008-1.691,0.012-2.563 c-0.004-0.846-0.008-1.691-0.012-2.563c0.001-0.805,0.003-1.606,0.004-2.438c0.001-0.742,0.002-1.485,0.004-2.25 C817.142,550.087,819.705,550.805,822.813,550.75z"/>
  <path fill="#293942" d="M813,386c4.29,0,8.58,0,13,0c1.354,2.709,1.065,5.009,1,8c-0.66,0-1.32,0-2,0c0,0.99,0,1.98,0,3 c0.99,0.33,1.98,0.66,3,1c0.25,2.313,0.25,2.313,0,5c-2.266,2.266-3.588,2.957-6.797,3.293c-2.734-0.098-5.469-0.195-8.203-0.293 C813,399.4,813,392.8,813,386z"/>
  <path fill="#0B0A1F" d="M443.688,874.938c0.702,0.007,1.403,0.011,2.129,0.016c1.729,0.012,3.457,0.028,5.186,0.049 c0,0.33,0,0.66,0,1c-4.62,0-9.24,0-14,0c0,25.74,0,51.479,0,78c-1.32,0-2.64,0-4,0c0-25.74,0-51.479,0-78 C436.619,874.794,439.925,874.892,443.688,874.938z"/>
  <path fill="#0D0C1D" d="M259.188,874.938c1.272,0.011,2.544,0.02,3.855,0.027c1.464,0.02,1.464,0.02,2.957,0.035c0,0.33,0,0.66,0,1 c-4.29,0-8.58,0-13,0c0,25.74,0,51.479,0,78c-1.32,0-2.64,0-4,0c0-25.74,0-51.48,0-78 C252.561,874.813,255.438,874.903,259.188,874.938z"/>
  <path fill="#F6CC3C" d="M725,876c4.29,0,8.58,0,13,0c0,25.08,0,50.16,0,76c-0.66,0-1.32,0-2,0c0-24.42,0-48.84,0-74 c-3.3,0-6.6,0-10,0c0,24.42,0,48.84,0,74c-0.33,0-0.66,0-1,0C725,926.92,725,901.84,725,876z"/>
  <path fill="#272727" d="M254,604c3,1,3,1,5,4c0.184,2.538,0.252,4.964,0.227,7.501c0,0.761,0,1.522,0.001,2.307 c-0.001,2.518-0.017,5.032-0.033,7.548c-0.004,1.744-0.007,3.489-0.009,5.233c-0.007,4.592-0.027,9.185-0.049,13.775 c-0.021,4.685-0.029,9.37-0.04,14.056c-0.021,9.193-0.056,18.387-0.098,27.58c-0.66,0-1.32,0-2,0c-0.33,0.99-0.66,1.979-1,3 c-1.533-3.065-1.121-6.271-1.098-9.631c0.001-0.787,0.003-1.574,0.004-2.385c0.004-1.714,0.01-3.426,0.018-5.138 c0.013-2.706,0.02-5.411,0.024-8.117c0.013-6.721,0.038-13.439,0.061-20.16c0.02-5.679,0.036-11.354,0.046-17.03 c0.006-2.672,0.019-5.343,0.032-8.014c0.003-1.634,0.007-3.265,0.01-4.896c0.005-0.747,0.01-1.494,0.016-2.264 C255.181,607.558,255.181,607.558,254,604z"/>
  <path fill="#090A1E" d="M451,876c1.333,0,2.667,0,4,0c0,25.74,0,51.48,0,78c-1.32,0-2.64,0-4,0C451,928.26,451,902.52,451,876z"/>
  <path fill="#09091E" d="M414,876c1.333,0,2.667,0,4,0c0,25.74,0,51.48,0,78c-1.32,0-2.64,0-4,0C414,928.26,414,902.52,414,876z"/>
  <path fill="#EBC13D" d="M821,893c0.33,0,0.66,0,1,0c0,9.57,0,19.14,0,29c-2-2-2-2-2.195-5.039c0.023-1.184,0.047-2.367,0.07-3.586 c0.018-1.188,0.036-2.377,0.055-3.602c0.023-0.915,0.047-1.83,0.07-2.773c-3.96,0-7.92,0-12,0c0.33,1.32,0.66,2.64,1,4 c1.98,0,3.96,0,6,0c-1.875,4.875-1.875,4.875-3,6c-3.5-0.313-3.5-0.313-7-1c-1.417-2.834-1.17-5.28-1.188-8.438 c-0.016-1.153-0.028-2.31-0.045-3.496C804,901,804,901,806,898c3.125-0.188,3.125-0.188,6,0c0.66,1.32,1.32,2.64,2,4 c1.98,0,3.96,0,6,0C820.33,899.03,820.66,896.06,821,893z"/>
  <path fill="#2A1D1F" d="M204,722c1.98,0,3.96,0,6,0c1.008,2.747,2.006,5.497,3,8.25c0.286,0.777,0.572,1.555,0.867,2.355 c0.406,1.131,0.406,1.131,0.82,2.283c0.251,0.691,0.503,1.385,0.762,2.097C216,739,216,739,216,743c-1.32,0-2.64,0-4,0 c-0.33-0.99-0.66-1.98-1-3c-2.97-0.33-5.94-0.66-9-1c-0.33,1.32-0.66,2.64-1,4c-1.32,0-2.64,0-4,0 c0.618-5.024,2.13-9.247,4.063-13.875c0.282-0.688,0.563-1.377,0.854-2.086C202.605,725.357,203.302,723.678,204,722z"/>
  <path fill="#F0C73C" d="M483,827c0.66,0.99,1.32,1.98,2,3c0.66-0.33,1.32-0.66,2-1c0,0.66,0,1.32,0,2c0.66,0,1.32,0,2,0 c-0.482,4.343-1.745,6.14-5,9c-0.66,0.66-1.32,1.32-2,2c-0.66-0.66-1.32-1.32-2-2c-2.467,2.896-3.405,4.822-3.675,8.611 c-0.064,0.882-0.129,1.764-0.194,2.672c-0.208,4.313-0.309,8.62-0.336,12.938c-0.01,0.97-0.021,1.937-0.03,2.933 c-0.029,3.159-0.057,6.317-0.081,9.479c-0.021,2.205-0.042,4.41-0.063,6.616c-0.056,5.776-0.104,11.554-0.153,17.33 c-0.051,5.906-0.104,11.813-0.161,17.718c-0.105,11.567-0.209,23.136-0.307,34.703c-0.33,0-0.66,0-1,0 c-0.069-13.778-0.123-27.557-0.155-41.335c-0.016-6.398-0.037-12.797-0.069-19.195c-0.032-6.179-0.053-12.356-0.06-18.537 c-0.006-2.354-0.017-4.705-0.033-7.06c-0.021-3.305-0.022-6.61-0.021-9.916c-0.011-0.964-0.021-1.929-0.032-2.923 c0.036-7.993,1.419-15.868,5.998-22.597c0.638-0.962,0.638-0.962,1.289-1.941C482,828,482,828,483,827z"/>
  <path fill="#302823" d="M644,845c3,3,3,3,3.369,5.024c-0.003,0.777-0.006,1.558-0.009,2.358c0.005,0.896,0.009,1.792,0.013,2.716 c-0.011,0.979-0.021,1.96-0.032,2.973c0,1.034,0.001,2.066,0.001,3.134c-0.002,3.426-0.023,6.851-0.049,10.275 c-0.006,2.37-0.01,4.742-0.013,7.115c-0.014,6.248-0.041,12.497-0.074,18.746c-0.03,6.374-0.044,12.749-0.06,19.123 c-0.032,12.511-0.083,25.022-0.146,37.533c-1.32,0-2.64,0-4,0C643.33,918.03,643.66,882.06,644,845z"/>
  <path fill="#E3B63D" d="M193.438,897.438C196,898,196,898,198.313,900c2.168,3.854,2.29,6.676,1.688,11 c-1.406,4.406-1.406,4.406-3,6c-3.438,0.25-3.438,0.25-7,0c-2.29-3.435-2.297-4.888-2.313-8.938c-0.017-1.04-0.034-2.08-0.051-3.152 C188.145,900.841,189.31,898.39,193.438,897.438z"/>
  <path fill="#252120" d="M345,893c1,1,1,1,1.113,3.775c-0.005,1.21-0.012,2.42-0.018,3.666c-0.003,1.305-0.007,2.608-0.01,3.955 c-0.009,1.389-0.017,2.775-0.023,4.166c-0.007,1.393-0.012,2.783-0.016,4.178c-0.012,3.42-0.028,6.84-0.049,10.26c-1.65,0-3.3,0-5,0 c-0.33-7.59-0.66-15.18-1-23c-1.32,0.99-2.64,1.98-4,3c-1.32-1.32-2.64-2.64-4-4C339.036,892.006,339.036,892.006,345,893z"/>
  <path fill="#BDBDBD" d="M558,375c3,2.063,3,2.063,5,5c0,3.543-0.342,5.866-2.125,8.938c-3.06,1.734-5.443,1.484-8.875,1.063 c-2.438-1.5-2.438-1.5-4-4c-0.625-3.532-0.661-6.755,1.063-10C552.23,374.365,554.501,374.518,558,375z"/>
  <path fill="#BEBEBE" d="M472,375c2.961,2.582,3.867,4.189,4.5,8.063C476,386,476,386,474.438,388.375 c-3.371,2.249-5.463,2.193-9.438,1.625c-2.438-1.563-2.438-1.563-4-4c-0.563-3.94-0.604-6.058,1.563-9.438 C465.967,374.38,468.034,374.363,472,375z"/>
  <path fill="#D9A839" d="M629,876c4.62,0,9.24,0,14,0c0,25.41,0,50.82,0,77c-0.99-0.66-1.98-1.32-3-2 c-0.36-2.974-0.36-2.974-0.341-6.836c0-0.703-0.001-1.405-0.001-2.13c0.002-2.326,0.023-4.652,0.049-6.979 c0.006-1.609,0.01-3.223,0.013-4.834c0.014-4.245,0.041-8.487,0.074-12.732c0.03-4.33,0.044-8.66,0.06-12.99 c0.032-8.499,0.084-16.997,0.146-25.496c-0.627,0.012-1.253,0.023-1.898,0.035c-0.815,0.009-1.635,0.018-2.477,0.026 c-0.813,0.013-1.624,0.022-2.461,0.034C631,879,631,879,629,878C629,877.34,629,876.68,629,876z"/>
  <path fill="#1C181E" d="M801,896c0.33,0.66,0.66,1.32,1,2c-0.33,0.99-0.66,1.98-1,3c-0.121,2.311-0.176,4.624-0.188,6.938 c-0.016,1.228-0.028,2.452-0.045,3.717c0.217,3.12,0.482,4.802,2.23,7.348c2.709,1.354,5.01,1.065,8,1c-2.475-0.99-2.475-0.99-5-2 c0-0.33,0-0.66,0-1c1.113-0.247,2.228-0.495,3.375-0.75c3.671-0.86,3.671-0.86,5.063-3.375c0.188-0.619,0.371-1.237,0.563-1.875 c-1.98,0-3.96,0-6,0c-0.33-1.32-0.66-2.64-1-4c3.96,0,7.92,0,12,0c0,4.95,0,9.9,0,15c-1.32,0-2.64,0-4,0c-0.33-0.66-0.66-1.32-1-2 c-0.99,0.66-1.98,1.32-3,2c-7.055,0.672-7.055,0.672-10.375-1.688c-4.056-5.771-4.316-11.454-3.625-18.313 C799.5,898.313,799.5,898.313,801,896z"/>
  <path fill="#B9BABA" d="M158,639c2.438,1.563,2.438,1.563,4,4c0.563,3.5,0.563,3.5,0,7c-2.125,2.5-2.125,2.5-5,4 c-3.631,0-5.42-0.588-8.375-2.688c-2.139-3.046-2.233-4.663-1.625-8.313C149.941,638.529,152.869,638.267,158,639z"/>
  <path fill="#CC2431" d="M483.063,454.938c3.396,1.229,4.946,2.035,6.938,5.063c-0.061,3.47-0.373,5.92-2.125,8.938 c-3.06,1.731-5.443,1.482-8.875,1.063c-2.438-1.625-2.438-1.625-4-4c-0.563-2.938-0.563-2.938,0-6 C477.512,456.527,478.691,455.026,483.063,454.938z"/>
  <path fill="#273138" d="M788,399c2.359,0.215,2.359,0.215,5,1c3.508,5.293,4.539,11.777,5,18c-0.99,0-1.98,0-3,0 c-0.33-1.32-0.66-2.64-1-4c-2.64,0-5.28,0-8,0c0,1.32,0,2.64,0,4c-1.32,0-2.64,0-4,0C782.472,411.089,785.206,405.278,788,399z"/>
  <path fill="#CB2331" d="M544,455c3.308,2.499,4.806,3.943,5.563,8.063C549,466,549,466,547.438,468.375 C544.042,470.639,542,470.643,538,470c-2.5-2.063-2.5-2.063-4-5c0-3.85,0.134-6.041,2.75-8.938 C539.546,454.742,540.945,454.404,544,455z"/>
  <path fill="#555656" d="M783,606c2.438,1.625,2.438,1.625,4,4c0.606,3.637,0.472,5.283-1.563,8.375 c-3.396,2.264-5.438,2.268-9.438,1.625c-2.695-2.419-3.807-4.008-4.5-7.563C772.802,606.089,777.124,605.16,783,606z"/>
  <path fill="#545454" d="M850,673c2.375,1.563,2.375,1.563,4,4c0.563,3.5,0.563,3.5,0,7c-2.125,2.5-2.125,2.5-5,4 c-3.184-0.063-5.149-0.489-7.875-2.125c-1.826-3.043-1.55-5.418-1.125-8.875C842.733,672.899,845.196,672.199,850,673z"/>
  <path fill="#BABABA" d="M875,639c2.375,1,2.375,1,4,3c0.66,3.558,0.631,6.739-1,10c-3.261,1.631-6.442,1.659-10,1 c-2.692-2.188-2.939-3.584-3.438-7c0.438-3,0.438-3,2.063-5.375C869.694,638.524,871.346,638.467,875,639z"/>
  <path fill="#5B5B5B" d="M248.563,605c3.068,1.259,4.553,2.245,6.438,5c-0.061,3.47-0.373,5.92-2.125,8.938 c-3.014,1.709-5.496,1.427-8.875,1.063c-1.938-1-1.938-1-3-3c-0.393-3.095-0.635-5.046,0-8C243.456,606.123,244.739,605,248.563,605 z"/>
  <path fill="#D1D1D1" d="M839.563,593.875c1.768-0.004,1.768-0.004,3.566-0.008C846,594,846,594,847,595c0.142,2.671,0.043,5.324,0,8 c2.31,0,4.62,0,7,0c0,0.99,0,1.98,0,3c-0.817-0.153-1.635-0.307-2.477-0.465c-3.972-0.604-7.895-0.877-11.898-1.1 c-0.736-0.043-1.472-0.086-2.23-0.131c-1.798-0.104-3.597-0.206-5.395-0.307c-0.33-2.97-0.66-5.94-1-9 C833.866,593.566,836.372,593.868,839.563,593.875z"/>
  <path fill="#595959" d="M251,673c2.5,1.563,2.5,1.563,4,4c-0.061,3.47-0.373,5.92-2.125,8.938c-3.014,1.709-5.496,1.427-8.875,1.063 c-1.938-1-1.938-1-3-3c-0.53-3.58-0.659-6.76,1.063-10C245.179,672.392,247.563,672.578,251,673z"/>
  <path fill="#575757" d="M783,673c1.938,1,1.938,1,3,3c0.46,2.759,0.511,5.246,0,8c-2.178,2.681-3.61,2.935-7,3.5 c-3-0.5-3-0.5-5.375-2.688c-1.768-3.061-2.332-4.366-1.625-7.813C775.002,672.558,777.849,672.345,783,673z"/>
  <path fill="#111212" d="M770,686c0.866,0.712,0.866,0.712,1.75,1.438c2.176,1.513,3.676,2.104,6.25,2.563c0.33,2.31,0.66,4.62,1,7 c4.95,0,9.9,0,15,0c0.33-2.64,0.66-5.28,1-8c12.21,0,24.42,0,37,0c0.495,3.96,0.495,3.96,1,8c2.291,0.054,4.583,0.093,6.875,0.125 c1.276,0.023,2.553,0.047,3.867,0.07c3.344,0.161,3.344,0.161,5.258-2.195c-0.33,1.32-0.66,2.64-1,4 c-2.626,0.081-5.249,0.141-7.875,0.188c-1.119,0.036-1.119,0.036-2.262,0.074c-2.168,0.029-2.168,0.029-5.863-0.264c-2-3-2-3-2-8 c-10.89,0-21.78,0-33,0c-0.33,2.31-0.66,4.62-1,7c-2.109,2.109-6.533,1.231-9.438,1.25c-1.187,0.031-1.187,0.031-2.395,0.063 c-2.291,0.017-2.291,0.017-6.17-0.313c-2.152-3.229-2.201-4.284-2-8c-1.65-0.33-3.3-0.66-5-1C770.67,688.68,770.34,687.36,770,686z"/>
  <path fill="#04051D" d="M773,876c0.99,0,1.98,0,3,0c0,25.74,0,51.48,0,78c-1.32,0-2.64,0-4,0C772.33,928.26,772.66,902.52,773,876z"/>
  <path fill="#585959" d="M178.938,672.563c3.451,0.493,4.855,0.723,7.063,3.438c0.665,3.583,0.744,6.786-1.188,9.938 c-2.458,1.438-3.929,2.063-6.813,2.063c-3.354-2.46-4.822-3.912-5.5-8.063C173.275,675.385,174.18,673.271,178.938,672.563z"/>
  <path fill="#E1B13D" d="M850,898c6,0,6,0,7.844,1.691c2.018,4.021,1.921,7.929,1.156,12.309c-2.25,3.125-2.25,3.125-5,5 c-1.32,0-2.64,0-4,0C850,910.73,850,904.46,850,898z"/>
  <path fill="#C61C36" d="M217,702c0.66,0,1.32,0,2,0c0,15.18,0,30.36,0,46c-5.94,0-11.88,0-18,0c0-0.66,0-1.32,0-2 c-1.98,0-3.96,0-6,0c0-0.33,0-0.66,0-1c3.465-0.495,3.465-0.495,7-1c0.33-0.99,0.66-1.98,1-3c-0.33-0.66-0.66-1.32-1-2 c2.97,0,5.94,0,9,0c0.33,1.32,0.66,2.64,1,4c2.475-0.495,2.475-0.495,5-1c0.33,1.65,0.66,3.3,1,5 C217.67,732.15,217.34,717.3,217,702z"/>
  <path fill="#D5D4D4" d="M778,689c5.61,0,11.22,0,17,0c0,2.64,0,5.28,0,8c-1.756,1.756-4.036,1.132-6.371,1.137 c-0.702-0.004-1.405-0.008-2.129-0.012c-0.702,0.004-1.405,0.008-2.129,0.012c-5.244-0.01-5.244-0.01-6.371-1.137 C778,694.36,778,691.72,778,689z"/>
  <path fill="#CECECE" d="M832,689c5.28,0,10.56,0,16,0c0,2.64,0,5.28,0,8c-1,1-1,1-4.125,1.133c-1.278-0.003-2.558-0.005-3.875-0.008 c-1.278,0.003-2.558,0.005-3.875,0.008C833,698,833,698,832,697C832,694.36,832,691.72,832,689z"/>
  <path fill="#606060" d="M849,607c1.875,1.063,1.875,1.063,3,3c0.504,3.956,0.571,6.12-1.625,9.5c-2.375,1.5-2.375,1.5-5.5,1.438 C842,620,842,620,840,617c-0.542-6.067-0.542-6.067,1.125-8.938C843.89,606.496,845.882,606.61,849,607z"/>
  <path fill="#5D5E5E" d="M183,607c2.56,2.219,2.949,3.652,3.438,7c-0.438,3-0.438,3-2.063,5.438C182,621,182,621,178.875,620.875 C176,620,176,620,174,618c-0.557-7.011-0.557-7.011,1.125-10C177.932,606.503,179.877,606.545,183,607z"/>
  <path fill="#C0BFBF" d="M178,689c4.95,0,9.9,0,15,0c0,2.97,0,5.94,0,9c-2.313,0.027-4.625,0.046-6.938,0.063 c-1.288,0.014-2.576,0.023-3.902,0.035C179,698,179,698,178,697C177.859,694.329,177.958,691.676,178,689z"/>
  <path fill="#E82432" d="M294,357c0.66,0,1.32,0,2,0c-0.002,0.916-0.004,1.832-0.007,2.776c-0.02,8.637-0.035,17.273-0.045,25.91 c-0.005,4.44-0.012,8.88-0.023,13.321c-0.011,4.285-0.017,8.571-0.02,12.857c-0.002,1.634-0.006,3.269-0.011,4.9 c-0.007,2.291-0.008,4.582-0.007,6.873c-0.002,1.306-0.005,2.606-0.007,3.95c0.039,3.702,0.039,3.702,1.12,8.41 c3.96-3.96,7.92-7.92,12-12c0.66,0.33,1.32,0.66,2,1c-2.642,2.671-5.289,5.336-7.938,8c-0.755,0.763-1.509,1.526-2.287,2.313 c-1.078,1.082-1.078,1.082-2.178,2.188c-0.665,0.67-1.33,1.341-2.016,2.031C295,441,295,441,294,441C294,413.28,294,385.56,294,357z "/>
  <path fill="#DEA72B" d="M171,950c29.205,0.495,29.205,0.495,59,1c0,0.66,0,1.32,0,2c-19.8,0-39.6,0-60,0 C170.33,952.01,170.66,951.02,171,950z"/>
  <path fill="#263843" d="M819.598,432.902c1.488,0.007,2.979,0.019,4.467,0.035c0.759,0.005,1.518,0.009,2.299,0.014 c1.88,0.012,3.759,0.029,5.639,0.049c0.625,2.375,0.625,2.375,1,5c-2,2-2,2-5.439,2.23c-1.375-0.006-2.748-0.021-4.121-0.043 c-0.698-0.003-1.396-0.003-2.115-0.004c-5.182-0.045-5.182-0.045-6.322-1.186c-0.125-2.5-0.125-2.5,0-5 C816,433,816,433,819.598,432.902z"/>
  <path fill="#284150" d="M779,447c1.875,1.063,1.875,1.063,3,3c0.375,3.563,0.375,3.563,0,7c-3.471,2.313-4.918,2.51-9,2 c-2.354-2.117-2.918-3.44-3.375-6.563C770,450,770,450,771.125,448.188C773.871,446.448,775.818,446.603,779,447z"/>
  <path fill="#A1A0A0" d="M831,604c2.667-0.027,5.333-0.047,8-0.063c0.744-0.011,1.487-0.019,2.254-0.025 c0.741-0.003,1.482-0.007,2.246-0.01c0.67-0.006,1.341-0.013,2.031-0.018c3.506,0.161,6.984,0.68,10.469,1.113 c-0.33,25.41-0.66,50.82-1,77c-0.33,0-0.66,0-1,0c-1.082-7.798-1.08-15.438-0.992-23.301c0.01-1.367,0.021-2.735,0.025-4.104 c0.034-5.767,0.076-11.533,0.139-17.3c0.037-3.544,0.063-7.088,0.074-10.633c0.012-1.996,0.04-3.992,0.068-5.989 c0.003-1.212,0.007-2.424,0.01-3.672c0.01-1.065,0.02-2.131,0.027-3.229c-0.4-3.157-1.107-4.539-3.354-6.772 c-2.626-0.334-2.626-0.334-5,0c0-0.33,0-0.66,0-1c-6.93-0.495-6.93-0.495-14-1C831,604.67,831,604.34,831,604z"/>
  <path fill="#273743" d="M819.598,515.902c1.488,0.007,2.979,0.019,4.467,0.033c0.759,0.007,1.518,0.011,2.299,0.016 c1.88,0.012,3.759,0.027,5.639,0.049c0.043,2,0.041,4,0,6c-1.756,1.756-4.036,1.132-6.371,1.137 c-0.702-0.004-1.405-0.008-2.129-0.012c-0.702,0.004-1.405,0.008-2.129,0.012c-5.244-0.01-5.244-0.01-6.371-1.137 c-0.125-2.5-0.125-2.5,0-5C816,516,816,516,819.598,515.902z"/>
  <path fill="#273742" d="M776.371,515.863c0.702,0.004,1.405,0.008,2.129,0.012c0.702-0.004,1.405-0.008,2.129-0.012 c5.244,0.01,5.244,0.01,6.371,1.137c0.125,2.5,0.125,2.5,0,5c-1,1-1,1-4.598,1.098c-1.488-0.007-2.979-0.019-4.467-0.033 c-0.759-0.007-1.518-0.011-2.299-0.016c-1.88-0.012-3.759-0.027-5.639-0.049c-0.043-2-0.041-4,0-6 C771.756,515.244,774.036,515.868,776.371,515.863z"/>
  <path fill="#263844" d="M779.125,432.938c1.281,0.011,2.563,0.02,3.883,0.027c0.987,0.012,1.977,0.023,2.992,0.035 c1.125,4.75,1.125,4.75,0,7c-5.28,0-10.56,0-16,0c0-1.98,0-3.96,0-6C773.003,432.498,775.791,432.907,779.125,432.938z"/>
  <path fill="#222629" d="M813,386c3.3,0.33,6.6,0.66,10,1c0,0.33,0,0.66,0,1c-2.31,0.33-4.62,0.66-7,1c-0.651,4.724-1.119,9.22-1,14 c3.96-0.495,3.96-0.495,8-1c0.33-2.64,0.66-5.28,1-8c0.33,0.99,0.66,1.98,1,3c0.99,0.33,1.98,0.66,3,1c0.25,2.313,0.25,2.313,0,5 c-2.266,2.266-3.588,2.957-6.797,3.293c-2.734-0.098-5.469-0.195-8.203-0.293C813,399.4,813,392.8,813,386z"/>
  <path fill="#28404F" d="M830,447c0,0.66,0,1.32,0,2c0.99,0.33,1.98,0.66,3,1c-0.875,6.875-0.875,6.875-2,8 c-6.245,0.463-6.245,0.463-8.938-1.188c-1.449-2.475-1.485-3.991-1.063-6.813C823.284,446.32,825.956,446.73,830,447z"/>
  <path fill="#273F4E" d="M779,498c1.875,1.188,1.875,1.188,3,3c0.428,2.854,0.406,4.345-1.125,6.813 c-2.746,1.739-4.693,1.587-7.875,1.188c-1.875-1.188-1.875-1.188-3-3c-0.428-2.854-0.406-4.345,1.125-6.813 C773.871,497.448,775.818,497.603,779,498z"/>
  <path fill="#080808" d="M180,593c2.292-0.054,4.583-0.093,6.875-0.125c1.914-0.035,1.914-0.035,3.867-0.07C194,593,194,593,196,595 c0,1.98,0,3.96,0,6c10.89,0,21.78,0,33,0c0-1.65,0-3.3,0-5c0.66-0.33,1.32-0.66,2-1c0,2.64,0,5.28,0,8c-11.88,0-23.76,0-36,0 c-0.33-2.31-0.66-4.62-1-7c-1.878-1.878-5.04-1.391-7.563-1.563c-1.198-0.084-2.395-0.17-3.629-0.256 c-0.927-0.061-1.854-0.119-2.809-0.184C180,593.67,180,593.34,180,593z"/>
  <path fill="#273F4E" d="M830,498c1.875,1.063,1.875,1.063,3,3c-0.444,6.444-0.444,6.444-2,8c-3.438,0.188-3.438,0.188-7,0 c-2-2-2-2-2.313-5.5c0.104-1.155,0.204-2.31,0.313-3.5C825.232,497.845,826.252,497.531,830,498z"/>
  <path fill="#05081E" d="M724,873c2.361,0.254,4.715,0.578,7.063,0.938c1.29,0.194,2.581,0.392,3.91,0.592 c0.999,0.154,1.998,0.312,3.027,0.473c0,0.33,0,0.66,0,1c-4.29,0-8.58,0-13,0c-0.33,25.08-0.66,50.16-1,76c-0.33,0-0.66,0-1,0 c-0.023-10.152-0.041-20.306-0.052-30.458c-0.005-4.714-0.015-9.428-0.023-14.142c-0.011-4.545-0.017-9.092-0.02-13.638 c-0.002-1.735-0.008-3.476-0.013-5.214c-0.008-2.426-0.009-4.852-0.008-7.275c-0.004-0.728-0.008-1.451-0.011-2.199 C722.886,874.114,722.886,874.114,724,873z"/>
  <path fill="#F4F5F5" d="M775.625,603.875c0.784,0.041,1.567,0.082,2.375,0.125c-0.813,0.83-1.623,1.66-2.459,2.516 c-2.926,3.533-3.256,6.749-3.2,11.234c-0.011,0.751-0.021,1.503-0.032,2.278c-0.026,2.468-0.021,4.934-0.016,7.399 c-0.013,1.72-0.028,3.438-0.046,5.153c-0.04,4.508-0.05,9.016-0.054,13.523c-0.012,4.604-0.047,9.21-0.082,13.813 c-0.064,9.026-0.1,18.052-0.111,27.078c-0.33,0-0.66,0-1,0c-0.046-10.526-0.082-21.053-0.104-31.58 c-0.013-4.887-0.024-9.773-0.049-14.662c-0.021-4.714-0.032-9.428-0.039-14.142c-0.004-1.802-0.012-3.604-0.021-5.404 c-0.014-2.517-0.016-5.032-0.015-7.55c-0.01-0.75-0.017-1.5-0.022-2.272C770.78,604.105,770.78,604.105,775.625,603.875z"/>
  <path fill="#3C1C20" d="M211,727c1.735,2.604,2.652,4.521,3.625,7.438c0.26,0.764,0.521,1.523,0.789,2.311C216,739,216,739,216,743 c-1.32,0-2.64,0-4,0c-0.33-0.99-0.66-1.98-1-3c-2.64-0.33-5.28-0.66-8-1c0-0.33,0-0.66,0-1c1.98,0,3.96,0,6,0c0-0.66,0-1.32,0-2 c-1.65,0-3.3,0-5,0c0.522-2.763,1.109-5.326,2-8c0.66,0,1.32,0,2,0c0,0.66,0,1.32,0,2c0.99,0,1.98,0,3,0 C211,729.01,211,728.02,211,727z"/>
  <path fill="#C8C8C8" d="M231,595c2.646,0.141,5.292,0.287,7.938,0.438c1.132,0.061,1.132,0.061,2.287,0.119 c5.662,0.33,5.662,0.33,6.775,1.443c0,1.65,0,3.3,0,5c-5.28,0-10.56,0-16,0C231.67,599.69,231.34,597.38,231,595z"/>
  <path fill="#C6C5C5" d="M179,595c6.93,0.495,6.93,0.495,14,1c0,2.31,0,4.62,0,7c-4.29,0-8.58,0-13,0 C179.67,600.36,179.34,597.72,179,595z"/>
  <path fill="#C7C7C7" d="M778,595c2.479,0.141,4.959,0.287,7.438,0.438c0.707,0.039,1.414,0.079,2.145,0.119 c5.307,0.33,5.307,0.33,6.42,1.443c0,1.65,0,3.3,0,5c-4.95,0.33-9.9,0.66-15,1C778.67,600.36,778.34,597.72,778,595z"/>
  <path fill="#0D0C1B" d="M340,894c1.98,0,3.96,0,6,0c0,9.57,0,19.14,0,29c-1.65,0-3.3,0-5,0c0-7.92,0-15.84,0-24c0.33,0,0.66,0,1,0 c0,7.26,0,14.52,0,22c0.66,0,1.32,0,2,0c0-8.58,0-17.16,0-26C342.68,894.67,341.36,894.34,340,894z"/>
  <path fill="#1E1C22" d="M589,880c0.33,0,0.66,0,1,0c0,23.43,0,46.86,0,71c0.66,0,1.32,0,2,0c0,0.99,0,1.98,0,3c-1.32,0-2.64,0-4,0 C588.33,929.58,588.66,905.16,589,880z"/>
  <path fill="#080707" d="M795,595c2,2,2,2,2,6c10.89,0,21.78,0,33,0c0-1.98,0-3.96,0-6c0.33,0,0.66,0,1,0c0,2.64,0,5.28,0,8 c-11.88,0-23.76,0-36,0C795,600.36,795,597.72,795,595z"/>
  <path fill="#2C3E49" d="M788,399c1.65,0.33,3.3,0.66,5,1c0.99,2.97,1.98,5.94,3,9c-0.66-0.33-1.32-0.66-2-1 c-0.33,0.99-0.66,1.98-1,3c-1.98,0-3.96,0-6,0c-0.33-0.66-0.66-1.32-1-2c-0.99,0.495-0.99,0.495-2,1 C785.041,406.134,786.037,402.506,788,399z"/>
  <path fill="#272321" d="M802,896c0.66,0,1.32,0,2,0c-0.165,0.949-0.33,1.896-0.5,2.875c-0.686,4.701-0.586,9.385-0.5,14.125 c0.66,0.33,1.32,0.66,2,1c0,0.66,0,1.32,0,2c0.66,0.33,1.32,0.66,2,1c0,0.33,0,0.66,0,1c1.65,0.33,3.3,0.66,5,1 c-0.33,0.66-0.66,1.32-1,2c-5.396,0.49-5.396,0.49-8.313-1.875c-2.964-3.729-2.853-6.203-2.875-10.938 c-0.016-1.226-0.028-2.446-0.045-3.707C799.988,901.173,800.573,898.961,802,896z"/>
  <path fill="#DDA835" d="M710,828c3.813,3.287,5.229,6.396,7,11c-0.66,0.66-1.32,1.32-2,2c-0.99,0-1.98,0-3,0 c-0.33,0.66-0.66,1.32-1,2c-1.98-3.63-3.96-7.26-6-11c1.65-0.66,3.3-1.32,5-2C710,829.34,710,828.68,710,828z"/>
  <path fill="#262321" d="M847,897c0.33,0,0.66,0,1,0c0.33,6.6,0.66,13.2,1,20c5.002,0.567,5.002,0.567,7.688-2.5 c0.765-0.825,1.526-1.65,2.313-2.5c0.66,0,1.32,0,2,0c0.75,1.688,0.75,1.688,1,4c-1.25,2.813-1.25,2.813-4,5 c-3.63-0.33-7.26-0.66-11-1C847,912.41,847,904.82,847,897z"/>
  <path fill="#DCA62E" d="M315,830c0.66,0,1.32,0,2,0c1.161,4.547,1.265,6.97-0.875,11.188c-2.726,5.434-2.922,10.816-3.125,16.813 c-0.33,0-0.66,0-1,0c-0.027-2.083-0.047-4.167-0.063-6.25c-0.014-1.16-0.023-2.32-0.035-3.516c0.08-2.668,0.447-4.688,1.098-7.234 c-0.857-2.218-0.857-2.218-2-4c-0.99,0.495-0.99,0.495-2,1c0.33-1.32,0.66-2.64,1-4c0.99,0,1.98,0,3,0 C313.66,832.68,314.32,831.36,315,830z"/>
  <path fill="#5D1C25" d="M843,562c0.66,0.33,1.32,0.66,2,1c-0.713,0.701-1.426,1.402-2.16,2.125 c-4.899,4.847-9.662,9.722-14.15,14.957C820.217,589.71,820.217,589.71,815,592c1.612-4.031,4.462-6.76,7.5-9.75 c0.499-0.507,0.998-1.014,1.512-1.535C827.746,577,827.746,577,830,577c0.214-0.541,0.428-1.083,0.648-1.641 c1.832-3.198,4.35-5.569,6.977-8.109c0.516-0.507,1.031-1.014,1.563-1.535C840.454,564.472,841.727,563.235,843,562z"/>
  <path fill="#110E1C" d="M822,893c1.65,0,3.3,0,5,0c1.875,2.375,1.875,2.375,3,5c-0.33,0.66-0.66,1.32-1,2 c-0.454-0.805-0.907-1.608-1.375-2.438c-1.372-2.651-1.372-2.651-3.625-3.563c0.33,8.91,0.66,17.82,1,27c-0.99,0.33-1.98,0.66-3,1 C822,912.43,822,902.86,822,893z"/>
  <path fill="#4A7B96" d="M800,381c0.33,0.99,0.66,1.98,1,3c-7.59,7.59-15.18,15.18-23,23c-0.66-0.33-1.32-0.66-2-1 C783.854,397.512,791.736,389.093,800,381z"/>
  <path fill="#DCA42B" d="M485,837c0.33,0.66,0.66,1.32,1,2c-0.712,1.608-0.712,1.608-1.438,3.25 c-2.451,6.016-1.807,12.371-1.563,18.75c-2.352-3.526-2.215-5.028-2.125-9.188c0.018-1.089,0.036-2.176,0.055-3.295 c0.023-0.83,0.047-1.662,0.07-2.52c-3.167,1.833-3.167,1.833-5,5c-0.313-3.188-0.313-3.188,0-7c2.5-2.938,2.5-2.938,5-5 c0.66,0.33,1.32,0.66,2,1C483.66,839.01,484.32,838.02,485,837z"/>
  <path fill="#0F0F1D" d="M518,907c0,3.779-0.997,4.461-3.5,7.188c-0.649,0.718-1.3,1.433-1.969,2.17 c-0.505,0.543-1.013,1.085-1.531,1.645c3.3,0,6.6,0,10,0c0,1.32,0,2.64,0,4c-2.97,0-5.94,0-9,0c0-0.33,0-0.66,0-1c2.64,0,5.28,0,8,0 c0-0.66,0-1.32,0-2c-7.92,0.495-7.92,0.495-16,1c5.705-8.169,5.705-8.169,10-9C516.229,909.021,516.229,909.021,518,907z"/>
  <path fill="#14131E" d="M202,897c0.66,0.33,1.32,0.66,2,1c1.187,3.561,1.097,6.438,1.063,10.188 c-0.009,1.272-0.018,2.547-0.027,3.855c-0.012,0.976-0.023,1.951-0.035,2.957c-0.66,0.33-1.32,0.66-2,1c-0.66-0.99-1.32-1.98-2-3 c-0.33,0-0.66,0-1,0c-0.33-4.29-0.66-8.58-1-13c0.99,1.32,1.98,2.64,3,4c0.33-0.99,0.66-1.98,1-3c-0.66-0.33-1.32-0.66-2-1 C201.33,899.01,201.66,898.02,202,897z"/>
  <path fill="#E1E0E1" d="M233,689c5.28,0,10.56,0,16,0c0,2.64,0,5.28,0,8c-1,1-1,1-4.125,1.133c-1.279-0.003-2.558-0.005-3.875-0.008 c-1.279,0.003-2.558,0.005-3.875,0.008C234,698,234,698,233,697c-0.041-1.666-0.043-3.334,0-5c0.33,1.32,0.66,2.64,1,4 c4.29,0,8.58,0,13,0c0-1.98,0-3.96,0-6c-4.62,0.33-9.24,0.66-14,1C233,690.34,233,689.68,233,689z"/>
  <path fill="#E4E4E4" d="M178,689c4.95,0,9.9,0,15,0c0,2.97,0,5.94,0,9c-2.313,0.027-4.625,0.046-6.938,0.063 c-1.288,0.014-2.576,0.023-3.902,0.035C179,698,179,698,178,697C177.859,694.329,177.958,691.676,178,689z M180,690 c0,1.98,0,3.96,0,6c3.96,0,7.92,0,12,0c0-1.98,0-3.96,0-6C188.04,690,184.08,690,180,690z"/>
  <path fill="#EFC73D" d="M691,894c2.222,2.222,2.926,4.085,4,7c1.65,0,3.3,0,5,0c-0.283,1.605-0.577,3.21-0.875,4.813 c-0.162,0.896-0.325,1.787-0.492,2.707C698,911,698,911,696,914c-0.841-2.581-1.673-5.165-2.5-7.75 c-0.238-0.729-0.477-1.459-0.723-2.211c-0.228-0.709-0.451-1.418-0.686-2.148c-0.209-0.647-0.419-1.299-0.635-1.968 C691,898,691,898,691,894z"/>
  <path fill="#18151E" d="M674,893c0,0.33,0,0.66,0,1c-1.98,0.33-3.96,0.66-6,1c2.31,0.66,4.62,1.32,7,2c-0.33,0.66-0.66,1.32-1,2 c-1.98,0-3.96,0-6,0c-0.33,0.99-0.66,1.98-1,3c-2.97-0.495-2.97-0.495-6-1c0.313-2.89,0.644-4.586,2.563-6.813 C667.142,892.443,670.042,892.802,674,893z"/>
  <path fill="#262321" d="M202,895c1.828,3.655,0.847,7.188,0,11c-0.227-0.557-0.454-1.113-0.688-1.688 c-1.725-3.039-3.634-5.07-6.313-7.313c-2.711-0.42-2.711-0.42-5,0c0-0.66,0-1.32,0-2C194.718,893.335,197.545,892.379,202,895z"/>
  <path fill="#4E4E4E" d="M849,607c1.875,1.063,1.875,1.063,3,3c0.188,3.688,0.188,3.688,0,7c-0.99,0.495-0.99,0.495-2,1 c0-2.31,0-4.62,0-7c-2.346-0.77-2.346-0.77-5-1c-2,1-2,1-3,3c0.23,2.654,0.23,2.654,1,5c2.97,0.495,2.97,0.495,6,1 c-0.33,0.66-0.66,1.32-1,2c-2.875-0.313-2.875-0.313-6-1c-2.463-3.695-2.39-5.633-2-10C842.156,606.286,844.99,606.499,849,607z"/>
  <path fill="#F5CE3D" d="M850,898c1.98,0,3.96,0,6,0c0.66,0.66,1.32,1.32,2,2c-0.33,0.99-0.66,1.98-1,3 c-0.454-0.475-0.907-0.949-1.375-1.438c-1.558-1.652-1.558-1.652-3.625-2.563c0,5.28,0,10.56,0,16c1.65-0.33,3.3-0.66,5-1 c-1.25,1.5-1.25,1.5-3,3c-1.32,0-2.64,0-4,0C850,910.73,850,904.46,850,898z"/>
  <path fill="#C0C0BF" d="M172,603c2.97,0.495,2.97,0.495,6,1c0,0.33,0,0.66,0,1c-1.98,0-3.96,0-6,0c0.33,1.32,0.66,2.64,1,4 c0.392-0.475,0.784-0.949,1.188-1.438c2.262-1.95,3.856-2.337,6.813-2.563c0.66,0.66,1.32,1.32,2,2 c-1.134,0.31-2.269,0.619-3.438,0.938c-3.35,0.689-3.35,0.689-4.563,2.063c-0.231,1.348-0.412,2.704-0.563,4.063 c-0.145,1.302-0.289,2.601-0.438,3.938c-0.99,0.33-1.98,0.66-3,1c-0.222-2.103-0.427-4.207-0.625-6.313 c-0.116-1.172-0.232-2.344-0.352-3.551C170,606,170,606,172,603z"/>
  <path fill="#C4C4C4" d="M235,690c3.63,0,7.26,0,11,0c0,1.65,0,3.3,0,5c-3.63,0-7.26,0-11,0C235,693.35,235,691.7,235,690z"/>
  <path fill="#F2CB3E" d="M827,905c3.613,4.517,5.873,8.531,8.34,13.672c1.479,2.57,1.479,2.57,4.354,3.156 c0.762,0.057,1.521,0.113,2.309,0.172c-0.33,0.66-0.66,1.32-1,2c-2.293-0.184-2.293-0.184-5-1c-1.801-2.285-1.801-2.285-3.313-5.063 c-0.514-0.921-1.023-1.84-1.553-2.785c-0.563-1.065-0.563-1.065-1.137-2.152c-0.33,2.97-0.66,5.94-1,9c-0.33,0-0.66,0-1,0 C827.67,916.39,827.34,910.78,827,905z"/>
  <path fill="#13111D" d="M516,894c1.875,0.25,1.875,0.25,4,1c2.355,3.18,2.175,6.151,2,10c-0.99,0.495-0.99,0.495-2,1 c0-0.66,0-1.32,0-2c-0.66,0-1.32,0-2,0c0,0.66,0,1.32,0,2c-1.531,1.289-1.531,1.289-3.5,2.625c-0.649,0.446-1.3,0.892-1.969,1.352 c-0.505,0.34-1.013,0.678-1.531,1.023c1.204-2.493,2.454-4.682,4-7c0.385-1.655,0.729-3.322,1-5c0.66,0.33,1.32,0.66,2,1 c0,0.66,0,1.32,0,2c0.66,0,1.32,0,2,0c-0.33-1.98-0.66-3.96-1-6c-0.99-0.33-1.98-0.66-3-1C516,894.67,516,894.34,516,894z"/>
  <path fill="#0C0C1C" d="M863,901c0.33,0,0.66,0,1,0c0.767,12.593,0.767,12.593-1.113,16.043C861.5,918.375,861.5,918.375,859,920 c0.66-1.98,1.32-3.96,2-6c-0.66-0.33-1.32-0.66-2-1c0-3.63,0-7.26,0-11c2.359,2.359,2.491,3.779,3,7 C862.33,906.36,862.66,903.72,863,901z"/>
  <path fill="#242321" d="M856,895c3.379,0.604,5.576,1.534,8,4c0.172,3.137,0.172,3.137-0.25,6.688 c-0.129,1.182-0.258,2.359-0.391,3.574c-0.118,0.903-0.237,1.81-0.359,2.738c-2-3-2-3-2.5-6.625c-0.165-1.113-0.33-2.229-0.5-3.375 c-0.66-0.33-1.32-0.66-2-1C857.273,899.021,856.602,897.021,856,895z"/>
  <path fill="#EEC63C" d="M815,919c0.33,0.99,0.66,1.98,1,3c1.32,0,2.64,0,4,0c0.33-0.66,0.66-1.32,1-2c0,0.66,0,1.32,0,2 c1.98,0,3.96,0,6,0c0,0.33,0,0.66,0,1c-2.541,0.169-5.083,0.335-7.625,0.5c-1.069,0.071-1.069,0.071-2.16,0.145 c-12.263,0.787-12.263,0.787-16.215-1.645c0.33-0.66,0.66-1.32,1-2c0.66,0.33,1.32,0.66,2,1 C809.882,921.466,809.882,921.466,815,919z"/>
  <path fill="#46748C" d="M812,386c0.33,0,0.66,0,1,0c0,6.6,0,13.2,0,20c1.732-0.124,3.465-0.247,5.25-0.375 c0.975-0.069,1.949-0.14,2.953-0.211c2.693-0.398,4.467-1.049,6.797-2.414c0,0.99,0,1.98,0,3c-2,1.688-2,1.688-4,3 c0-0.66,0-1.32,0-2c-3.96,0-7.92,0-12,0C812,400.07,812,393.14,812,386z"/>
  <path fill="#5189A8" d="M816,397c2.31,0,4.62,0,7,0c0.382,1.656,0.714,3.324,1,5c-1,1-1,1-4.563,1.063 c-1.137-0.021-2.271-0.039-3.438-0.063C816,401.02,816,399.04,816,397z"/>
  <path fill="#272420" d="M201,910c1.945,2.918,2.453,4.625,3,8c-2.969,1.649-5.605,2.66-9,3c-2.313-0.938-2.313-0.938-4-2 c2.31-0.66,4.62-1.32,7-2c0.186-1.454,0.186-1.454,0.375-2.938c0.206-1.013,0.413-2.021,0.625-3.063 C199.66,910.67,200.32,910.34,201,910z"/>
  <path fill="#F1F2F2" d="M775.625,603.875c0.784,0.041,1.567,0.082,2.375,0.125c-1.212,1.18-1.212,1.18-2.449,2.383 c-3.457,4.148-3.328,8.277-3.361,13.492c-0.025,0.879-0.053,1.758-0.076,2.664c-0.061,2.153-0.088,4.307-0.111,6.461 c-0.33,0-0.66,0-1,0c-0.058-3.792-0.094-7.583-0.125-11.375c-0.017-1.08-0.033-2.16-0.051-3.273 c-0.007-1.029-0.014-2.063-0.021-3.125c-0.011-0.951-0.021-1.904-0.029-2.889C771.113,604.833,772.149,604.04,775.625,603.875z"/>
  <path fill="#2B2421" d="M676,907c1.875,0.313,1.875,0.313,4,1c2.313,3.469,2.425,4.922,2,9c-1.5,1.875-1.5,1.875-3,3 c-1.874-3.162-2.099-5.361-2-9c-0.33-0.33-0.66-0.66-1-1C676,909.01,676,908.02,676,907z"/>
  <path fill="#393223" d="M184,900c2.063,0.438,2.063,0.438,4,1c0.108,1.604,0.186,3.207,0.25,4.813 c0.046,0.896,0.093,1.787,0.141,2.707C188,911,188,911,184,914c0-3.3,0-6.6,0-10c-0.66,0-1.32,0-2,0C183,901,183,901,184,900z"/>
  <path fill="#2B3B45" d="M824,394c0.33,0.99,0.66,1.98,1,3c0.99,0.33,1.98,0.66,3,1c0,1.65,0,3.3,0,5c-3.996,2.83-7.428,1.762-12,1 c0-0.33,0-0.66,0-1c3.465-0.495,3.465-0.495,7-1C823.33,399.36,823.66,396.72,824,394z"/>
  <path fill="#C3C2C2" d="M172,676c0.33,0,0.66,0,1,0c0.165,0.939,0.165,0.939,0.332,1.898c0.159,0.815,0.317,1.635,0.48,2.477 c0.151,0.813,0.302,1.624,0.457,2.461c0.606,2.522,0.606,2.522,3.73,4.164c0,0.66,0,1.32,0,2c-2,0.043-4,0.041-6,0 c-1-1-1-1-1.133-3.215c0.002-0.898,0.005-1.797,0.008-2.725c-0.002-0.896-0.005-1.792-0.008-2.715C171,678,171,678,172,676z"/>
  <path fill="#F3D13D" d="M804,903c0.33,0,0.66,0,1,0c0.33,3.96,0.66,7.92,1,12c1.98-0.33,3.96-0.66,6-1c-0.99-0.66-1.98-1.32-3-2 c1.98-0.33,3.96-0.66,6-1c-1.875,4.875-1.875,4.875-3,6c-3.5-0.313-3.5-0.313-7-1c-1.322-2.645-1.097-4.678-1.063-7.625 c0.009-1.003,0.018-2.006,0.025-3.039C803.977,904.565,803.988,903.794,804,903z"/>
  <path fill="#C1C1C1" d="M831,595c4.95,0.33,9.9,0.66,15,1c-0.33,1.32-0.66,2.64-1,4c0-0.99,0-1.98,0-3c-3.63,0-7.26,0-11,0 c0,1.32,0,2.64,0,4c2.64,0,5.28,0,8,0c0,0.33,0,0.66,0,1c-3.3,0-6.6,0-10,0C831.67,599.69,831.34,597.38,831,595z"/>
  <path fill="#A1A1A1" d="M186.375,603.938c0.736,0.007,1.472,0.011,2.23,0.016c1.798,0.012,3.596,0.028,5.395,0.049 c0,0.33,0,0.66,0,1c-1.537,0.056-1.537,0.056-3.105,0.113c-1.361,0.063-2.721,0.132-4.082,0.197 c-0.673,0.022-1.347,0.046-2.041,0.068c-4.381,0.235-7.282,0.935-10.771,3.619c-0.66,0.99-1.32,1.979-2,3c0-2.311,0-4.62,0-7 C176.857,604.027,181.45,603.88,186.375,603.938z"/>
  <path fill="#5188A8" d="M816,389c2.31,0,4.62,0,7,0c0,1.65,0,3.3,0,5c-2.31,0-4.62,0-7,0C816,392.35,816,390.7,816,389z"/>
  <path fill="#12101D" d="M808,907c3.63,0,7.26,0,11,0c0,0.66,0,1.32,0,2c-0.99,0.33-1.98,0.66-3,1c0,1.65,0,3.3,0,5 c-0.33-1.32-0.66-2.64-1-4c-1.98,0-3.96,0-6,0C808.67,909.68,808.34,908.36,808,907z"/>
  <path fill="#323131" d="M892,383c2.063,3.094,2.39,4.467,2.75,8.063c0.098,0.878,0.196,1.756,0.297,2.66C895,396,895,396,893,398 c-0.33-0.33-0.66-0.66-1-1c0-2.333,0-4.667,0-7c-0.186-0.928-0.371-1.856-0.563-2.813C891,385,891,385,892,383z"/>
  <path fill="#2F4350" d="M826,386c1.354,2.709,1.065,5.009,1,8c-1.32-0.33-2.64-0.66-4-1c0-1.32,0-2.64,0-4c-2.31,0-4.62,0-7,0 C818.705,385.182,821.621,385.752,826,386z"/>
  <path fill="#9F9F9F" d="M254,682c0.625,1.875,0.625,1.875,1,4c-3.097,3.098-5.553,2.989-9.891,3.098 c-1.453-0.007-2.906-0.019-4.359-0.033c-0.745-0.007-1.49-0.011-2.258-0.016c-1.831-0.012-3.662-0.027-5.492-0.049 c0-0.33,0-0.66,0-1c1.265-0.098,2.529-0.196,3.832-0.297c1.66-0.15,3.32-0.301,4.98-0.453c0.833-0.063,1.667-0.124,2.525-0.188 c4.889-0.362,4.889-0.362,8.736-3.143C253.533,682.971,253.533,682.971,254,682z"/>
  <path fill="#4E4F4F" d="M176,608c0.66,0.33,1.32,0.66,2,1c-0.351,0.557-0.701,1.113-1.063,1.688 c-1.156,2.854-0.747,4.397,0.063,7.313c2.97,0.495,2.97,0.495,6,1c-0.33,0.66-0.66,1.32-1,2c-5.75-0.75-5.75-0.75-8-3 c-0.266-1.875-0.266-1.875-0.25-4c-0.005-0.701-0.01-1.402-0.016-2.125C174,610,174,610,176,608z"/>
  <path fill="#262321" d="M515,893c2.537,1.269,3.497,2.608,5,5c0,1.32,0,2.64,0,4c-0.66,0-1.32,0-2,0c-1.667-1.667-3.333-3.333-5-5 C513.66,895.68,514.32,894.36,515,893z"/>
  <path fill="#272421" d="M518,904c0.66,0,1.32,0,2,0c0.33,0.99,0.66,1.98,1,3c-1.145,0.649-1.145,0.649-2.313,1.313 c-2.271,1.427-3.907,2.722-5.688,4.688c-1.32-0.66-2.64-1.32-4-2c2.946-1.801,5.888-3.502,9-5C518,905.34,518,904.68,518,904z"/>
  <path fill="#0D0C1C" d="M515,893c-0.66,1.65-1.32,3.3-2,5c-1.32-0.33-2.64-0.66-4-1c0.66-0.33,1.32-0.66,2-1 c-0.763,0.165-1.526,0.33-2.313,0.5C506,897,506,897,503,897C507.001,893.12,509.48,892.567,515,893z"/>
  <path fill="#0E0D1C" d="M818,910c0.66,0,1.32,0,2,0c0,3.96,0,7.92,0,12c-1.32,0-2.64,0-4,0C816.66,918.04,817.32,914.08,818,910z"/>
  <path fill="#252221" d="M686,895c0.99,0,1.98,0,3,0c1.837,3.782,2.158,5.945,1,10c-2.255-2.255-2.979-4.005-4-7 C686,897.01,686,896.02,686,895z"/>
  <path fill="#D41735" d="M822,562c1.65,0,3.3,0,5,0c0.563,1.938,0.563,1.938,1,4c-1,1-1,1-3.563,1.063 c-1.207-0.029-1.207-0.029-2.438-0.063C822,565.35,822,563.7,822,562z"/>
  <path fill="#0E0D1B" d="M724,873c2.361,0.254,4.715,0.578,7.063,0.938c1.29,0.194,2.581,0.392,3.91,0.592 c0.999,0.154,1.998,0.312,3.027,0.473c0,0.33,0,0.66,0,1c-4.29,0-8.58,0-13,0c0,1.98,0,3.96,0,6c-0.33,0-0.66,0-1,0 c-0.879-6.152-0.879-6.152-1-8C723.33,873.67,723.66,873.34,724,873z"/>
  <path fill="#C73A41" d="M169,356c0,0.66,0,1.32,0,2c0.66,0.33,1.32,0.66,2,1c-3.3,0.33-6.6,0.66-10,1c-0.33-0.99-0.66-1.98-1-3 C163.073,356.089,165.801,355.911,169,356z"/>
  <path fill="#E7BF3E" d="M697,903c2,3,2,3,1.758,5.043c-0.586,1.985-1.172,3.972-1.758,5.957c-1.748-2.622-2.516-3.995-3-7 c0.33-0.66,0.66-1.32,1-2c0.66,0,1.32,0,2,0C697,904.34,697,903.68,697,903z"/>
  <path fill="#252526" d="M169,687c4.455,0.99,4.455,0.99,9,2c-0.66,2.31-1.32,4.62-2,7c-0.041-0.598-0.083-1.196-0.125-1.813 c-0.752-2.538-0.752-2.538-3.938-3.938c-0.969-0.412-1.939-0.825-2.938-1.25C169,688.34,169,687.68,169,687z"/>
  <path fill="#2C2521" d="M673,903c0.66,0.99,1.32,1.98,2,3c-0.33,0.66-0.66,1.32-1,2c-1.98,0-3.96,0-6,0c0-1.32,0-2.64,0-4 C669.65,903.67,671.3,903.34,673,903z"/>
  <path fill="#C0C1C1" d="M854,682c0.66,1.32,1.32,2.64,2,4c-0.99,1.485-0.99,1.485-2,3c-3.125,0.188-3.125,0.188-6,0 C849.98,686.69,851.96,684.38,854,682z"/>
  <path fill="#4C7F9C" d="M789,404c0.66,0,1.32,0,2,0c0.66,2.31,1.32,4.62,2,7c-1.65,0-3.3,0-5,0C788.33,408.69,788.66,406.38,789,404 z"/>
  <path fill="#312A23" d="M829,901c2.063,2.313,2.063,2.313,4,5c-0.33,0.99-0.66,1.98-1,3c-1.32-0.66-2.64-1.32-4-2c0-0.66,0-1.32,0-2 c-0.66-0.33-1.32-0.66-2-1C826.99,903.01,827.98,902.02,829,901z"/>
  <path fill="#CB203C" d="M206,728c0.66,0,1.32,0,2,0c0.33,2.31,0.66,4.62,1,7c-1.32,0-2.64,0-4,0 C205.33,732.69,205.66,730.38,206,728z"/>
  <path fill="#2D404C" d="M787,402c0.66,0.66,1.32,1.32,2,2c-0.375,3.625-0.375,3.625-1,7c-0.66-0.66-1.32-1.32-2-2 c-0.99,0.495-0.99,0.495-2,1C785.875,403.125,785.875,403.125,787,402z"/>
  <path fill="#C5C5C5" d="M249,604c2.375-0.188,2.375-0.188,5,0c0.66,0.99,1.32,1.98,2,3c-0.99,1.485-0.99,1.485-2,3 C252.35,608.02,250.7,606.04,249,604z"/>
  <path fill="#C2C2C2" d="M773,604c1.65,0,3.3,0,5,0c-1.65,1.65-3.3,3.3-5,5c-0.66-0.33-1.32-0.66-2-1 C771.66,606.68,772.32,605.36,773,604z"/>
  <path fill="#212121" d="M825,389c0.33,0,0.66,0,1,0c0,1.65,0,3.3,0,5c-0.66,0-1.32,0-2,0c0,0.99,0,1.98,0,3 c-2.64-0.33-5.28-0.66-8-1c0-0.33,0-0.66,0-1c2.97-0.66,5.94-1.32,9-2C825,391.68,825,390.36,825,389z"/>
  <path fill="#EBC23B" d="M814,817c0.66,0.33,1.32,0.66,2,1c-1.188,2-1.188,2-3,4c-2.688,0.25-2.688,0.25-5,0 C811.75,818.125,811.75,818.125,814,817z"/>
  <path fill="#2D2D2D" d="M873,361c2.438,0.75,2.438,0.75,5,2c0.813,2.125,0.813,2.125,1,4c-2.438-0.75-2.438-0.75-5-2 C873.188,362.875,873.188,362.875,873,361z"/>
  <path fill="#D21C3B" d="M216,703c0.66,0,1.32,0,2,0c-0.188,1.813-0.188,1.813-1,4c-2.563,1.75-2.563,1.75-5,3 C213.074,707.085,213.778,705.222,216,703z"/>
  <path fill="#D61736" d="M822,555c2.475,0.495,2.475,0.495,5,1c-0.33,0.99-0.66,1.98-1,3c-1.32,0-2.64,0-4,0 C822,557.68,822,556.36,822,555z"/>
  <path fill="#2A3942" d="M796,410c1.765,3.088,2,4.233,2,8c-0.99,0-1.98,0-3,0c-0.33-1.32-0.66-2.64-1-4c0.66,0,1.32,0,2,0 C796,412.68,796,411.36,796,410z"/>
  <path fill="#E4BA39" d="M489,821c0.33,0.66,0.66,1.32,1,2c-1.438,2.625-1.438,2.625-3,5c-0.66-0.33-1.32-0.66-2-1 c0.313-1.875,0.313-1.875,1-4C486.99,822.34,487.98,821.68,489,821z"/>
  <path fill="#451C20" d="M198,737c1.32,1.32,2.64,2.64,4,4c-0.33,0.66-0.66,1.32-1,2c-1.32,0-2.64,0-4,0 C197.33,741.02,197.66,739.04,198,737z"/>
  <path fill="#23282C" d="M788,399c1.32,0,2.64,0,4,0c0,1.32,0,2.64,0,4c-1.32,0.33-2.64,0.66-4,1C788,402.35,788,400.7,788,399z"/>
  <path fill="#28353D" d="M825,397c0.99,0.33,1.98,0.66,3,1c0,1.65,0,3.3,0,5c-0.99,0.495-0.99,0.495-2,1 C825.67,401.69,825.34,399.38,825,397z"/>
  <path fill="#28353D" d="M0,0"/>
  <path fill="#28353D" d="M0,0"/>
  <path fill="#28353D" d="M0,0"/>
  <path fill="#28353D" d="M0,0"/>
  <path fill="#28353D" d="M0,0"/>
</svg>