<?xml version="1.0" encoding="UTF-8"?>
<svg version="1.1" xmlns="http://www.w3.org/2000/svg" width="140" height="219">
<path d="M0 0 C2.5136683 2.23026452 4.45362056 4.48446151 6.453125 7.18359375 C7.10410156 8.04082031 7.75507812 8.89804687 8.42578125 9.78125 C13.73183668 18.80048934 14.96761933 27.26796753 14.90704536 37.60055542 C14.89424363 39.79540554 14.9058529 41.98902975 14.92308044 44.18383789 C14.94956083 48.04269906 14.95538351 51.90125067 14.95397949 55.76019287 C14.95173442 61.96316786 14.96583247 68.16576551 15.00956535 74.36859131 C15.01939497 76.52864652 15.0106997 78.68810185 15.00086975 80.84814453 C15.00775314 82.15380371 15.01463654 83.45946289 15.02172852 84.8046875 C15.02076675 85.95509521 15.01980499 87.10550293 15.01881409 88.29077148 C15.44050196 91.50077025 16.04118464 92.06621995 18.390625 94.12109375 C19.48294459 98.8024634 20.0699252 102.94832433 17.87109375 107.44921875 C13.36602601 112.53673588 5.89100403 114.91986214 -0.609375 116.12109375 C-1.46995465 130.74835707 -1.46995465 130.74835707 3.828125 143.68359375 C4.44558594 144.26238281 5.06304687 144.84117187 5.69921875 145.4375 C10.17775547 149.89535064 9.70150045 155.69599179 9.76171875 161.60742188 C9.76300781 162.78755859 9.76429687 163.96769531 9.765625 165.18359375 C9.79011719 166.36759766 9.81460938 167.55160156 9.83984375 168.77148438 C9.84371094 169.90908203 9.84757812 171.04667969 9.8515625 172.21875 C9.85978027 173.25523682 9.86799805 174.29172363 9.87646484 175.35961914 C9.26631828 178.82764313 8.17843174 180.02725423 5.390625 182.12109375 C2.265625 182.05859375 2.265625 182.05859375 -0.609375 181.12109375 C-2.76329032 177.89022078 -2.86529473 176.92678618 -2.91796875 173.19140625 C-2.94310547 172.23105469 -2.96824219 171.27070313 -2.99414062 170.28125 C-3.02916006 168.26568697 -3.06043973 166.25005532 -3.08789062 164.234375 C-3.3195077 155.79447492 -5.7240144 151.90549521 -11.3046875 145.76953125 C-13.79858036 142.61856482 -13.72831378 139.64901245 -13.70703125 135.796875 C-13.70453369 134.87044189 -13.70203613 133.94400879 -13.69946289 132.98950195 C-13.69035889 131.81605225 -13.68125488 130.64260254 -13.671875 129.43359375 C-13.65125 125.70046875 -13.630625 121.96734375 -13.609375 118.12109375 C-23.509375 118.12109375 -33.409375 118.12109375 -43.609375 118.12109375 C-43.56296875 122.4059375 -43.5165625 126.69078125 -43.46875 131.10546875 C-43.44302219 134.52419569 -43.4213325 137.94289523 -43.40237427 141.36166382 C-43.38125984 144.96949724 -43.35305007 148.5769542 -43.30761719 152.18457031 C-43.26412375 155.65997288 -43.24023079 159.13501063 -43.22986603 162.61066437 C-43.21888885 164.58055159 -43.187668 166.55029222 -43.15618896 168.5199585 C-43.15588684 169.72090149 -43.15558472 170.92184448 -43.15527344 172.15917969 C-43.14639099 173.2161908 -43.13750854 174.2732019 -43.12835693 175.36224365 C-43.73511008 178.84223972 -44.79555611 180.03793804 -47.609375 182.12109375 C-51.234375 182.12109375 -51.234375 182.12109375 -54.609375 181.12109375 C-56.90314366 177.89314737 -56.85243384 174.94133304 -56.83642578 171.06738281 C-56.83627472 169.84641907 -56.83612366 168.62545532 -56.83596802 167.36749268 C-56.82564545 166.05383728 -56.81532288 164.74018188 -56.8046875 163.38671875 C-56.80095542 162.02480273 -56.79810937 160.66288402 -56.79611206 159.30096436 C-56.78849094 155.72361789 -56.76885569 152.1464349 -56.7467041 148.56915283 C-56.72621278 144.91591605 -56.71710333 141.26265274 -56.70703125 137.609375 C-56.68560822 130.44654022 -56.65149082 123.28383992 -56.609375 116.12109375 C-57.30002548 115.99380386 -57.99067596 115.86651398 -58.70225525 115.73536682 C-59.60609451 115.56303024 -60.50993378 115.39069366 -61.44116211 115.21313477 C-62.33806259 115.04459488 -63.23496307 114.87605499 -64.15904236 114.70240784 C-67.04708768 114.0172513 -68.91443289 112.97671262 -71.171875 111.05859375 C-71.81253906 110.53136719 -72.45320313 110.00414062 -73.11328125 109.4609375 C-75.60053624 107.23344805 -75.60053624 107.23344805 -75.8125 104.5390625 C-75.82796875 103.47300781 -75.8434375 102.40695313 -75.859375 101.30859375 C-75.88515625 100.25027344 -75.9109375 99.19195312 -75.9375 98.1015625 C-75.609375 95.12109375 -75.609375 95.12109375 -74.11192322 93.32322693 C-72.11086641 90.39048005 -72.23740839 88.43905352 -72.24047852 84.90649414 C-72.23359512 83.64740738 -72.22671173 82.38832062 -72.21961975 81.09107971 C-72.2243867 80.08459979 -72.2243867 80.08459979 -72.22924995 79.05778694 C-72.23840261 76.94067761 -72.22808535 74.82444642 -72.21263123 72.7073822 C-72.17267822 66.68929395 -72.17130757 60.67127506 -72.17358398 54.65307617 C-72.17363564 50.96537711 -72.15418509 47.27814477 -72.12425041 43.59057426 C-72.11358374 41.52726227 -72.12546626 39.46490575 -72.13807678 37.40162659 C-72.03197608 23.79001856 -69.0294889 12.23316928 -59.609375 2.12109375 C-41.8381352 -13.47724337 -19.01108422 -13.68911903 0 0 Z " fill="#824B10" transform="translate(97.609375,22.87890625)"/>
<path d="M0 0 C-1.55851755 0.82011312 -3.12201716 1.63076213 -4.6875 2.4375 C-5.55761719 2.88996094 -6.42773438 3.34242188 -7.32421875 3.80859375 C-9.91955496 4.9641814 -12.21979156 5.4928411 -15 6 C-15.86057965 20.62726332 -15.86057965 20.62726332 -10.5625 33.5625 C-9.63630859 34.43068359 -9.63630859 34.43068359 -8.69140625 35.31640625 C-4.21286953 39.77425689 -4.68912455 45.57489804 -4.62890625 51.48632812 C-4.62761719 52.66646484 -4.62632813 53.84660156 -4.625 55.0625 C-4.60050781 56.24650391 -4.57601562 57.43050781 -4.55078125 58.65039062 C-4.54691406 59.78798828 -4.54304688 60.92558594 -4.5390625 62.09765625 C-4.53084473 63.13414307 -4.52262695 64.17062988 -4.51416016 65.23852539 C-5.12430672 68.70654938 -6.21219326 69.90616048 -9 72 C-12.125 71.9375 -12.125 71.9375 -15 71 C-17.15391532 67.76912703 -17.25591973 66.80569243 -17.30859375 63.0703125 C-17.33373047 62.10996094 -17.35886719 61.14960938 -17.38476562 60.16015625 C-17.41978506 58.14459322 -17.45106473 56.12896157 -17.47851562 54.11328125 C-17.7101327 45.67338117 -20.1146394 41.78440146 -25.6953125 35.6484375 C-28.18920536 32.49747107 -28.11893878 29.5279187 -28.09765625 25.67578125 C-28.09515869 24.74934814 -28.09266113 23.82291504 -28.09008789 22.8684082 C-28.08098389 21.6949585 -28.07187988 20.52150879 -28.0625 19.3125 C-28.041875 15.579375 -28.02125 11.84625 -28 8 C-37.9 8 -47.8 8 -58 8 C-57.95359375 12.28484375 -57.9071875 16.5696875 -57.859375 20.984375 C-57.83364719 24.40310194 -57.8119575 27.82180148 -57.79299927 31.24057007 C-57.77188484 34.84840349 -57.74367507 38.45586045 -57.69824219 42.06347656 C-57.65474875 45.53887913 -57.63085579 49.01391688 -57.62049103 52.48957062 C-57.60951385 54.45945784 -57.578293 56.42919847 -57.54681396 58.39886475 C-57.54651184 59.59980774 -57.54620972 60.80075073 -57.54589844 62.03808594 C-57.53701599 63.09509705 -57.52813354 64.15210815 -57.51898193 65.2411499 C-58.12573508 68.72114597 -59.18618111 69.91684429 -62 72 C-65.625 72 -65.625 72 -69 71 C-71.29376866 67.77205362 -71.24305884 64.82023929 -71.22705078 60.94628906 C-71.22689972 59.72532532 -71.22674866 58.50436157 -71.22659302 57.24639893 C-71.21627045 55.93274353 -71.20594788 54.61908813 -71.1953125 53.265625 C-71.19158042 51.90370898 -71.18873437 50.54179027 -71.18673706 49.17987061 C-71.17911594 45.60252414 -71.15948069 42.02534115 -71.1373291 38.44805908 C-71.11683778 34.7948223 -71.10772833 31.14155899 -71.09765625 27.48828125 C-71.07623322 20.32544647 -71.04211582 13.16274617 -71 6 C-71.99 5.67 -72.98 5.34 -74 5 C-73.35973877 5.16153564 -72.71947754 5.32307129 -72.05981445 5.48950195 C-68.03610002 6.16081663 -64.11551418 6.16246904 -60.04296875 6.16796875 C-59.18117508 6.17129715 -58.31938141 6.17462555 -57.43147278 6.17805481 C-55.6117913 6.18310591 -53.7921006 6.1854637 -51.97241211 6.18530273 C-49.20736181 6.18748433 -46.44271393 6.20564586 -43.67773438 6.22460938 C-41.90364719 6.22754476 -40.12955812 6.22952859 -38.35546875 6.23046875 C-37.12850533 6.24124702 -37.12850533 6.24124702 -35.87675476 6.25224304 C-30.58261055 6.23146969 -26.09961702 5.42168853 -21 4 C-18.83924626 3.73733957 -16.67161784 3.52306485 -14.5 3.375 C-12.93765625 3.26285156 -12.93765625 3.26285156 -11.34375 3.1484375 C-10.18359375 3.07496094 -10.18359375 3.07496094 -9 3 C-9 2.34 -9 1.68 -9 1 C-5.47051709 -0.66670026 -3.71727674 -1.13583456 0 0 Z " fill="#2A2A2B" transform="translate(112,133)"/>
<path d="M0 0 C-13.24633718 8.42041032 -28.48263221 8.18783487 -43.640625 8.07421875 C-45.03922298 8.06824747 -46.43782345 8.06283186 -47.83642578 8.0579834 C-51.22434873 8.04409847 -54.61214107 8.02463789 -58 8 C-57.99555878 8.74724335 -57.99111755 9.49448669 -57.98654175 10.26437378 C-57.94650816 17.29805546 -57.91603763 24.33169784 -57.89637566 31.36546135 C-57.88592751 34.98180873 -57.87174968 38.59806216 -57.84912109 42.21435547 C-57.8274292 45.70268811 -57.81543915 49.19093024 -57.81024551 52.6793251 C-57.80473831 54.66139971 -57.78911966 56.64343779 -57.77340698 58.62545776 C-57.77325592 59.82655182 -57.77310486 61.02764587 -57.77294922 62.26513672 C-57.768508 63.32658905 -57.76406677 64.38804138 -57.75949097 65.48165894 C-58 68 -58 68 -60 70 C-59.67 49.21 -59.34 28.42 -59 7 C-44.15 6.505 -44.15 6.505 -29 6 C-26.36 5.34 -23.72 4.68 -21 4 C-18.83924626 3.73733957 -16.67161784 3.52306485 -14.5 3.375 C-12.93765625 3.26285156 -12.93765625 3.26285156 -11.34375 3.1484375 C-10.18359375 3.07496094 -10.18359375 3.07496094 -9 3 C-9 2.34 -9 1.68 -9 1 C-5.47051709 -0.66670026 -3.71727674 -1.13583456 0 0 Z " fill="#271A0D" transform="translate(112,133)"/>
<path d="M0 0 C0 0.33 0 0.66 0 1 C-0.71542969 0.97905273 -1.43085937 0.95810547 -2.16796875 0.93652344 C-5.44516652 0.85279167 -8.72213841 0.80115949 -12 0.75 C-13.12535156 0.71648438 -14.25070313 0.68296875 -15.41015625 0.6484375 C-22.59686453 0.56438243 -26.76543647 1.51431221 -33 5 C-35.21484375 4.62011719 -35.21484375 4.62011719 -37 4 C-25.18865843 -2.44254995 -13.00900754 -4.00277155 0 0 Z " fill="#36240C" transform="translate(83,15)"/>
<path d="M0 0 C1.10844754 3.74314209 0.96363452 7.01660971 0.7421875 10.87890625 C0.8263623 13.08078456 0.8263623 13.08078456 2.33984375 14.734375 C4.47847246 16.36476489 6.36501762 16.6439213 9 17 C9 17.66 9 18.32 9 19 C9.99 19 10.98 19 12 19 C12 19.66 12 20.32 12 21 C12.99 21.33 13.98 21.66 15 22 C8.1801056 21.71583773 3.79439516 18.79439516 -1 14 C-1.09900199 12.02287193 -1.12970773 10.04209962 -1.125 8.0625 C-1.12757812 6.98097656 -1.13015625 5.89945312 -1.1328125 4.78515625 C-1 2 -1 2 0 0 Z " fill="#2F1D0B" transform="translate(23,116)"/>
<path d="M0 0 C0.66 0.33 1.32 0.66 2 1 C0.59106853 2.63171123 -0.82745958 4.25513945 -2.25 5.875 C-3.03890625 6.77992187 -3.8278125 7.68484375 -4.640625 8.6171875 C-6.74691403 10.74439993 -8.25651526 11.90512306 -11 13 C-8.72126867 7.61390776 -4.84467788 3.22978525 0 0 Z " fill="#4E310F" transform="translate(44,20)"/>
<path d="M0 0 C-1.59766103 0.86627399 -3.20339944 1.71766465 -4.8125 2.5625 C-5.70582031 3.03816406 -6.59914063 3.51382813 -7.51953125 4.00390625 C-10 5 -10 5 -13 4 C-11.68 3.67 -10.36 3.34 -9 3 C-9 2.34 -9 1.68 -9 1 C-5.47051709 -0.66670026 -3.71727674 -1.13583456 0 0 Z " fill="#3E250D" transform="translate(112,133)"/>
<path d="M0 0 C2.34765625 0.171875 2.34765625 0.171875 5.0625 0.75 C5.96097656 0.93046875 6.85945313 1.1109375 7.78515625 1.296875 C8.51605469 1.52890625 9.24695313 1.7609375 10 2 C10.33 2.66 10.66 3.32 11 4 C6.07872966 4.16682272 2.49656104 4.24828052 -2 2 C-1.34 1.34 -0.68 0.68 0 0 Z " fill="#5F3917" transform="translate(40,136)"/>
<path d="M0 0 C1.32 0.33 2.64 0.66 4 1 C4 4.96 4 8.92 4 13 C3.67 13 3.34 13 3 13 C2.67 10.03 2.34 7.06 2 4 C1.34 4 0.68 4 0 4 C0 2.68 0 1.36 0 0 Z " fill="#693C11" transform="translate(111,115)"/>
</svg>
