<?xml version="1.0" encoding="UTF-8"?>
<svg version="1.1" viewBox="0 0 2048 1663" width="554" height="450" xmlns="http://www.w3.org/2000/svg">
<path transform="translate(86,21)" d="m0 0h1900l12 2 16 8 5 5 7 12 3 11 1 31v1511l-2 13-7 14-8 9-13 7-15 3-566 1h-1338l-26-1-12-3-10-5-8-7-7-11-4-11-1-7v-1427l1-96 1-20 2-12 4-7-6 1-4-2 1-2h12l1-2h2l2-4 4-6-9-1-1-2h12l6 3 2 2 2-1-1-5z" fill="#D2D5D6"/>
<path transform="translate(144,163)" d="m0 0h1093l2 1v456l-2 1h-1094l-1-1v-456z" fill="#D3D6D7"/>
<path transform="translate(143,780)" d="m0 0h1095l1 1v455l-1 1-1094 1-2-1v-456z" fill="#D3D6D7"/>
<path transform="translate(115,735)" d="m0 0h1152l8 4 6 7 3 7v510l-2 6-6 8-8 5h-1155l-10-6-5-8-1-8v-503l2-9 4-6 8-6zm28 45-1 1v456l2 1 1094-1 1-1v-455l-1-1z" fill="#4C4F4F"/>
<path transform="translate(261,118)" d="m0 0h1e3l8 2 8 7 4 9v511l-2 6-7 8-5 4-6 1h-1147l-9-3-8-7-2-4-1-8v-399l1-112 4-6 8-7 3-1zm-117 45-2 1v456l1 1h1094l2-1v-456l-2-1z" fill="#4C4F4F"/>
<path transform="translate(1621,173)" d="m0 0 4 1 1 7 1 19 14 1 1-12 2-13 1-2h5l1 1-1 27 13 3 3-15 4-12 5 1 1 2-5 26 14 3 3-10 5-12 2-3 5 1-2 11-5 17 10 3 3 1 2-6 10-17 3-1 2 1-1 7-6 15-3 6 5 2 5 3 3-1 14-19 5-1 1 2-8 16-5 9 8 6 4-1 12-12 4-5h4l1 4-14 19v4l7 6 4-2 14-11 3-3 4 1 1 4-10 9-7 8v4l6 7 5-2 17-11h4l1 4-11 10-7 6h-2l1 4 5 8 19-9 4-2 4 1 1 5-12 7-10 6 3 9 1 2 7-1 17-6 4 1 1 5-24 11 3 11 1 1 22-5h5l1 6-8 3-16 5 1 13 18-2h9l1 1v5l-25 6v13h27l1 5-4 2-24 2v13l26 3 1 1v5l-1 1h-17l-10-1-1 14 12 2 13 3 1 1v5l-1 1-12-1-15-2-2 12 15 6 9 3v6l-3 1-24-6-2-1-2 8v5l17 9 6 3-1 5-9-2-16-6h-3l-4 8v4l20 13 1 5-3 1-16-8-10-4-2 5-3 4 2 4 16 14 1 5-7-1-18-12-4 2-4 5 1 4 9 10 6 8v3h-5l-15-13-3-2-4 1-5 5 2 6 10 15 1 5h-5l-11-12-5-5-6 1-4 3 1 7 9 17-1 4-5-1-10-15-3-4-5 1-6 3 1 6 7 18-2 4-4-1-11-20v-2l-10 3h-3l5 21 1 7-5 1-4-9-6-15-8 1-4 1 1 14 1 13-5 1-2-5-5-20h-8l-5 1v26l-5 1-2-7-2-15v-5h-14l-2 25-1 2-5-1-1-1v-24l-2-1-12-1-2 13-2 11-2 2-4-1v-11l1-16-12-2-9 24-5-1 1-10 4-16-10-4h-3l-10 22-5 1-1-5 8-22-9-5-4-1-2 5-11 17-5-1 1-5 8-16 2-6-5-2-5-3-4 2-13 16-4 1-1-5 10-15 3-6-8-7-4-1-2 4-5 4-7 8-5 1-2-1 1-4 8-9 7-9-4-6-3-3-4 1-11 8-7 5-4-1v-4l12-11 5-4 1-3-5-7v-2l-5 1-18 10-3 1-3-3v-2l17-12 4-3-4-12-26 11-3-2-1-4 10-6 13-7-1-6-2-7-25 8-4-2v-4l20-8 5-1-2-9v-5l-24 4h-5l-1-1v-5l23-6h3l-1-14-14 1h-14l-1-5 6-2 21-3 1-14h-17l-11-1v-7l27-1 2-13-16-2-11-2-1-1v-5l1-1 18 1 10 1 1-9 1-4-11-3-14-4v-7l8 1 20 4 2-9v-4l-12-5-12-6 2-6 27 8 5-12-5-2-15-9-3-1v-5l4-1 21 9 4 1 2-5 3-6-13-10-8-6 1-4 2-1 21 12h4l6-8-6-7-12-12 1-5 5 2 13 10 5 4 4-2 5-5-2-5-9-12-4-5 1-4 5 1 15 15v2l5-2 6-4-1-5-11-19 1-4 4 1 10 12 5 7 4-1 7-4-1-5-9-20 1-3h5l13 22 12-4-7-23v-5l3-1 4 4 8 20 7-1 6-1-4-23v-6h5l5 14 3 12 14-3-1-3-1-25h5l2 5 3 22 6-1h9v-27z" fill="#D3D6D7"/>
<path transform="translate(1623,803)" d="m0 0h5l1 1 1 25 5 1h8l5-25h5l1 5-2 22 15 2 1-9 5-15 4-2 2 1-1 12-3 16 12 3 5-11 5-12 3-2 3 1-1 8-4 14v6l11 5 2-6 10-17 3-1 2 2-1 6-8 19 4 4 8 4 2-4 9-12 4-5 5 1-3 7-9 15-2 4 4 2 6 4 4-2 16-16h3l-1 7-9 11-4 5 1 4 6 6 4-1 13-11 4-3h4v5l-13 14-1 2h-2l1 5 4 5v2l8-4 14-9h5l-1 5-11 10-6 5 1 5 3 5v2l18-8 6-3h3l1 5-10 7-10 6h-2l5 12 11-3 12-4 5 1-1 5-21 10h-2l3 9v4l24-5h4l1 6-8 3-16 5 1 12 3 1 23-2 2 2-1 4-25 6 1 13h26l1 6-1 1-26 2v13l25 3 1 1v6h-17l-11-1v13l19 5 6 2-1 6-11-1-15-2-2-1-1 13 20 8 3 1-1 7-18-4-10-2-3 12 5 2 18 10-2 5-5-1-18-7-4-1-2 6-2 5 13 10 7 5v5l-6-1-19-10-3 1-4 6 1 4 8 8 7 6 1 6-2 1-14-9-7-4-5 1-4 5 2 5 9 10 4 5-1 5-5-2-10-9-6-4-5 1-4 4 1 5 11 17-1 5-4-1-11-12-7-6-8 6 2 6 8 16v4l-4 1-6-8-8-12-6 1-7 2 9 26-2 2-4-1-10-19v-2l-10 2-3 1 2 11 3 15-1 1h-5l-3-8-5-14-3-1-10 2 2 19v8l-3 1-3-3-5-21v-2l-13 2-1 26h-5l-2-9-2-18-12 1-1 2-3 22-1 2-5-1-1-25-13-2-5 25-4 1-2-1v-8l3-19-14-3-3 10-5 14-4 1-2-4 5-21v-3l-13-4-3 9-7 14h-4l-1-5 8-23-6-2-4-2h-3l-13 21-5-1 1-5 8-16 1-5-9-6-4 2-9 11-5 5h-4l1-6 7-10 4-6-1-5-6-5-4 2-14 12-4 2-3-3 7-8 9-11-1-5-5-5-5 1-11 8-7 5-3-1-1-4 17-16 2-3-6-8-6 2-17 9-4-1-1-4 11-7 9-7h2l-6-12-16 6-9 4-3-4 1-3 21-11h2l-4-9v-4l-26 7-3-1-1-5 10-4 14-5 1-1-2-9v-4l-23 4h-5l-1-6 22-5h4l-2-14h-27v-6l1-1 25-3 1-13-28-2v-6l4-1h24v-9l1-5-14-2-13-3v-5l1-1 16 1 11 1 3-13-12-3-13-4-1-1v-5l5-1 24 5 1-7 2-6-6-2-17-8-1-4 1-2 9 2 19 6 3-9v-4l-20-12-1-4 1-2 5 1 19 9h3l5-10-10-9-8-7-1-5 6 1 16 10 5 2 2-4 4-6-18-18 1-4 3-1 9 7 10 8 4-1 4-4h2l-1-5-10-14-4-6 2-2 5 1 7 7 7 8 3 1 8-5-1-6-6-11-4-7 1-4 4 1 11 14 3 4v2l11-6-2-9-7-15v-3l5-1 6 9 7 13 11-4-1-9-4-14 1-5 4 1 5 10 4 10v3l14-3-4-23v-5l5-1 3 7 5 18v2l13-3-1-27 5-1 2 3 3 24 14-1 1-26z" fill="#D3D6D7"/>
<path transform="translate(1617,791)" d="m0 0h17l21 2 22 4 21 6 20 8 22 11 18 12 14 11 15 13 12 12 12 16 10 15 8 14 12 28 7 24 4 23 1 9v39l-3 23-6 24-7 20-9 20-9 16-12 17-9 11-12 13-7 7-14 11-12 9-13 8-19 10-20 8-18 6-25 5-21 2h-24l-26-3-25-6-21-7-20-9-19-11-18-13-15-13-18-18-10-13-12-18-12-23-8-21-7-24-3-16-2-17v-31l2-19 5-24 8-24 9-20 9-17 8-12 12-16 9-10 6-7 8-7 12-10 17-12 19-11 19-9 24-8 23-5 14-2zm6 12-1 1-1 26-14 1-3-24-2-3-5 1 1 27-13 3-4-16-3-10-5-1-1 1 1 10 3 18-14 3-1-6-7-16-2-2-4 1 1 7 4 15v5l-11 4-11-20-2-2-5 1 1 5 7 16 1 6-11 6-2-4-8-11-5-6-4 1 1 5 9 16 1 6-8 5-4-2-13-14-5-1-2 3 10 13 5 7v4l-4 2-3 3-4-1-10-8-8-6-4 2 1 4 17 17-4 6-2 4-12-6-11-7h-4l1 5 11 10 7 6-5 10-5-1-19-9h-3l-1 5 9 6 13 8-4 10v2l-25-8h-3l-1 5 22 11h2l-3 9v4l-24-5-5 1v5l8 3 16 5h2l-3 13-27-2-1 1v5l13 3 14 2-1 5v9h-27l-1 1v6l28 2-1 13-25 3-1 1v6h27l2 14-9 1-17 4 1 6 11-1 17-3 1 8 1 5-12 5-12 4-1 4 2 3 17-4 11-3 1 6 3 7-6 2-17 9-1 3 4 4 15-7 9-3 6 12-4 2-16 11-2 1 2 5 5-1 19-10 3 1 5 8-11 11-8 7 1 4 3 1 12-9 7-5 5 1 5 5-1 5-9 11-6 7 3 3 4-2 11-10 5-4 5 2 4 4-1 5-9 14-2 3v4l6-1 11-14 3-3 6 2 5 4-1 5-8 16-1 5 5 1 11-18 2-3 5 1 6 3h2l-8 23 1 5h4l8-16 2-7 13 4-2 11-3 15 2 2 4-1 8-22v-2l14 3-3 19v8l4 1 2-1 5-25 13 2 1 25 5 1 2-7 2-17 1-2 12-1 3 25 1 2h5l1-26 13-2 3 15 3 10 3 1 2-1-1-17-1-10 12-2 5 12 3 10 1 1h5l1-3-5-21v-3l6-2 7-1 2 6 8 15 4 1 2-3-9-25 9-3 5 1 11 17 4 2 2-1-1-6-9-18 1-3 8-5 14 14 4 5 4-1-1-5-11-18 1-4 4-4 6 1 13 11 4 3 3-1-1-5-10-11-4-6 2-4 3-4 6 1 11 7 8 5 2-1-1-6-16-15 1-5 4-5 6 2 17 9h4v-5l-16-12-4-4 4-8v-2l17 6 7 3 4-1 1-4-20-11-3-1 3-12 26 6h2l1-7-21-8-2-1 1-13 9 2 14 2h5l1-6-6-2-19-5v-13l11 1h17v-6l-1-1-25-3v-13l26-2 1-5-1-2h-26l-1-13 25-6 1-4-4-2-23 2-2-7v-6l23-7 1-5-1-2-9 1-19 4-1-7-2-6 6-2 17-8 1-5-5-1-21 7h-2l-5-12 5-2 13-8 4-3-1-5-5 1-19 9-3 1-2-5-2-4 1-4 15-13 2-2v-4h-5l-19 12-3 1-2-4-3-4v-4h2l14-16v-5l-5 1-11 9-6 5-4-1-6-6 1-4 11-14 2-3v-5l-4 1-17 17-5-2-5-4h-2l9-16 4-6 1-4-5-1-11 14-4 5v2l-11-6-1-2 9-21-1-5-2-1-3 3-9 15-2 6-11-5 1-10 4-13v-5l-4-1-4 6-7 18h-4l-9-2 4-22v-6l-4-1-3 4-5 17v5l-15-2 2-26-1-1h-5l-5 25h-8l-5-1-1-25-1-1z" fill="#4C4F4F"/>
<path transform="translate(1609,162)" d="m0 0h32l24 3 26 6 22 8 23 11 19 12 16 12 13 12 13 13 11 14 11 16 12 21 8 19 7 21 5 24 2 15v41l-3 21-6 26-9 24-9 19-8 13-10 14-9 11-11 12-9 9-11 9-13 10-14 9-21 11-23 9-22 6-23 4-11 1h-32l-17-2-24-5-20-6-24-10-16-9-15-10-14-11-12-11-11-11-9-11-10-13-11-18-8-16-8-19-5-16-5-22-2-15-1-13v-19l2-22 5-24 7-24 7-16 8-16 11-18 13-17 11-12 16-16 16-12 20-13 16-8 14-6 21-7 16-4 19-3zm12 11-2 1v27h-9l-6 1-3-22-2-5h-5l1 25 1 3-14 3-3-12-5-14h-5l1 12 3 17-6 1-7 1-8-20-4-4-3 1 1 8 6 20-12 4-11-19-2-3h-5l-1 3 10 22v3l-8 5h-3l-13-17-3-3h-3l-1 4 12 21v3l-7 5-4 1-2-4-14-14-5 1 1 4 10 13 4 6-2 4-5 5-5-2-7-6-11-8h-2l-1 5 18 18-4 7-3 3-5-2-19-11-3 2 1 4 16 12 4 4-5 8v2l-16-6-9-4-4 1v5l11 6 10 6h2l-5 12-27-8-2 6 16 8 8 3-1 7-1 6-24-5h-4v7l20 6 5 1-2 9v4l-20-2h-8l-1 1v5l5 2 19 3h4l-2 13-27 1v7l11 1h17l-1 14-26 4-1 3 1 3h14l14-1 1 14-11 2-15 4v5l1 1 12-1 17-3 1 9 1 5-11 3-14 6 1 5 3 1 25-8 3 9v4l-22 12-1 2 3 5 24-10 3-1 4 12-15 11-6 4 1 4 4 1 17-10 5-2h2l2 5 3 5-14 14-5 4 2 4 5-1 14-11 3-2 4 1 6 7-3 5-12 14-1 4 6 1 15-15v-2l5 2 7 6-6 11-7 10 1 5 4-1 15-18 6 2 4 3h2l-3 8-8 16 1 4 5-1 12-19v-2l10 4 3 2-8 22 1 5 5-1 10-22 5 1 8 3-5 21v5l5 1 9-24 12 2-1 16v11l4 1 2-2 4-21v-3l12 1 2 1v24l2 2h4l1-2 2-25h14l1 13 2 13 5 1 1-1v-26l5-1h8l6 24 5 1 1-1-1-13-1-14 8-2h4l7 18 3 6 5-1-2-11-4-17 9-2 4-1 2 5 9 17 4 1 2-4-8-20v-4l8-4 4 1 13 19 5-1-1-5-8-15-1-7 6-4 5 1 12 12 3 4h5l-1-5-10-15-2-6 6-6 5 1 12 11 4 3h5l-1-4-8-10-7-8 1-4 5-6 5 2 17 11h5l-1-5-12-11-6-5 2-5 3-4v-2l10 4 16 8 3-1-1-5-20-13 1-6 3-6 6 1 19 7h3l1-5-16-8-7-4 1-8 1-5 18 5 10 2 1-1v-6l-20-7-4-2 2-12 22 3h5l1-1v-5l-6-2-17-4h-3l1-14 10 1h17l1-1v-5l-1-1-26-3v-13l24-2 4-2-1-5h-27v-13l25-6v-5l-1-1h-9l-18 2-1-13 23-7 1-5-1-2-9 1-18 4-4-10v-2l24-11-2-6-5 1-18 6h-4l-4-9v-2l15-9 7-4-1-5-4-1-22 11-3-3-4-7v-2l4-2 15-13 1-3-1-2-5 1-19 12-4-2-5-6 2-4 11-12 5-4-2-5-4 1-14 12-4 3-4-2-6-5 2-4 10-14 3-4-1-4-5 1-11 12-5 5-4-1-7-5 6-11 7-14-1-2-5 1-15 20-5-2-5-3h-2l10-23v-5l-4-1-6 9-7 13v2l-11-4h-2l7-25-1-4h-4l-6 12-4 11v2l-14-3 5-27-2-2h-4l-6 20-1 7-13-3v-10l1-17-1-1h-5l-2 9-2 13v5l-14-1-1-19-1-7z" fill="#4C4F4F"/>
<path transform="translate(187,1410)" d="m0 0h83l10 2 17 6 13 8 10 8 8 8 9 14 5 10 4 13 2 11v21l-3 14-4 12-6 12-11 14-7 7-13 9-16 8-10 3-20 2h-61l-19-2-15-4-16-8-12-9-10-10-9-14-5-10-4-13-2-13v-16l3-17 5-14 8-14 9-11 10-9 14-9 12-5 12-3z" fill="#4C4F4F"/>
<path transform="translate(919,1418)" d="m0 0h21l14 3 13 5 14 9 10 9 9 12 7 14 5 19 1 7v9l-4 20-5 13-10 16-10 10-15 10-11 5-17 4h-23l-17-4-16-8-10-8-7-6-8-11-7-12-4-13-2-11v-17l3-17 5-12 9-14 9-10 8-7 13-8 14-5z" fill="#952829"/>
<path transform="translate(1105,1418)" d="m0 0h19l18 4 16 8 9 6 8 7 10 13 8 16 4 16 1 7v10l-3 17-4 12-6 11-12 15-10 8-16 9-15 5-6 1h-20l-18-4-17-8-12-9-8-8-10-15-5-11-4-19v-17l4-18 4-10 9-14 9-10 11-9 15-8 14-4z" fill="#4C4F4F"/>
<path transform="translate(924,1476)" d="m0 0h11l12 6 6 7 2 5v14l-4 8-7 6-5 2-12 1-10-3-8-7-5-10v-7l6-12 7-7z" fill="#38393A"/>
<path transform="translate(1109,1476)" d="m0 0h10l8 3 7 6 5 10 1 6-3 9-5 8-9 6-3 1h-10l-8-3-8-7-4-7v-11l4-9 7-8z" fill="#38393A"/>
<path transform="translate(405,1478)" d="m0 0h12l8 5 3 5 1 5v19l-5 10-7 4h-12l-7-4-5-8-1-4v-16l3-8 4-5z" fill="#4C4E4F"/>
<path transform="translate(1472,372)" d="m0 0h11l7 4 4 5 2 6v7l-4 8-9 6-7 1-9-3-6-7-2-4v-9l4-8 6-5z" fill="#4C4F4F"/>
<path transform="translate(1730,1105)" d="m0 0 8 2 6 4 4 7 1 9-4 8-7 6-5 2-9-1-6-4-5-6-1-3v-10l4-7 6-5z" fill="#4C4F4F"/>
<path transform="translate(1282,775)" d="m0 0h1v493l-7 9-8 5h-64v-1l58-1 8-2 3-1v-2l5-2 3-9v-225l-1-21v-142l1-4-1-4 1-6z" fill="#38393A"/>
<path transform="translate(442,1478)" d="m0 0h22l3 1v8l-1 1h-19v8l19 1v8l-2 1h-17v16l-1 3-7 1-2-2v-41l2-4z" fill="#4C4F4F"/>
<path transform="translate(479,1478)" d="m0 0h23l1 1v8l-19 1v8l18 1v8l-2 1h-17v19l-2 1h-6l-1-1v-44l1-2z" fill="#4C4F4F"/>
<path transform="translate(1282,178)" d="m0 0h1v418h-1l-1-165-1-9v-25l1-12-1-29 1-47v-66z" fill="#38393A"/>
<path transform="translate(1878,1191)" d="m0 0 3 2 11 29 2 7v5l-5-2-3-9h-15l-4 10h-4l2-9 8-23z" fill="#3B3C3D"/>
<path transform="translate(1685,171)" d="m0 0 9 1 19 7 23 11 19 12 16 12 13 12 13 13 11 14 11 16 10 17-1 3-8-13-4-6-5-7-4-7-7-6-2-5-2-4-5-1-2-4h-2l-7-8-8-7v-2h-2v-2h-2l-2-2-8-6-8-4v-2l-5-2-10-7-8-5-5-2v-2l-9-2-5-3-14-5-9-3z" fill="#3A3B3C"/>
<path transform="translate(407,1486)" d="m0 0h8l4 5v22l-4 5h-8l-5-5v-21l3-5z" fill="#D3D6D7"/>
<path transform="translate(1862,579)" d="m0 0 6 2 3 5v20l-3 5-3 2h-5l-4-4-1-2-1-16 2-8 3-3z" fill="#D3D6D7"/>
<path transform="translate(1413,1196)" d="m0 0h6l4 3 1 3v21l-4 5-7 1-5-5-1-17 2-7z" fill="#D3D6D7"/>
<path transform="translate(1414,579)" d="m0 0 7 1 3 5v21l-5 6h-7l-4-5-1-16 2-8z" fill="#D3D6D7"/>
<path transform="translate(1415,1191)" d="m0 0 8 2 5 5 1 4v21l-3 6-6 4h-9l-6-5-2-5-1-6v-9l2-9 5-6zm-2 5-5 6-1 5 1 17 5 5 7-1 4-5v-21l-3-5-2-1z" fill="#3B3C3D"/>
<path transform="translate(1412,575)" d="m0 0h8l6 3 3 7v21l-3 6-5 4h-10l-6-5-2-5-1-14 2-10 4-5zm2 4-5 4-2 8 1 16 4 5h7l5-6v-21l-3-5z" fill="#3B3C3D"/>
<path transform="translate(1858,576)" d="m0 0h10l5 3 2 4 1 7v15l-3 7-6 5h-8l-6-4-3-5v-22l3-7zm4 3-5 3-2 3-1 12 1 10 2 4 3 2 7-1 3-3 1-3v-20l-3-5z" fill="#3B3C3D"/>
<path transform="translate(1690,802)" d="m0 0 8 1 20 8 22 11 18 12 14 11 15 13 12 12 9 12-1 2-5-6-6-5-4-3v-2h-2l-1-3-2-2-5-4-11-9-3-2v-2l-4-2-11-8-13-9-10-6-4-2v-2l-5-1-12-5-8-4-11-4z" fill="#3A3B3C"/>
<path transform="translate(1821,1193)" d="m0 0h20v4h-16v11h8l7 3 3 5v8l-3 5-6 4h-11l-3-2v-4l13 1 4-4v-8l-5-3-11 1-1-1v-18z" fill="#3B3C3D"/>
<path transform="translate(1824,576)" d="m0 0h10l5 4 2 5-1 6-2 2 1 4 3 6-1 7-5 5-4 2h-7l-6-3-1-4 9 2 6-1 3-3v-6l-2-3-8-1-1-4 9-4 1-1-1-7-2-1h-7l-7 1 1-4z" fill="#3B3C3D"/>
<path transform="translate(1896,575)" d="m0 0 4 1 7 22 2 10h2l3-12 7-19 4-2 1 2-10 30-4 10-4-1-9-25-4-15z" fill="#3B3C3D"/>
<path transform="translate(1893,141)" d="m0 0 4 1 7 21 3 8 10-28 4-2 1 2-9 27-5 11-4-4-11-33z" fill="#3C3D3E"/>
<path transform="translate(1910,752)" d="m0 0 10 2 2 2v3l-6-1h-8l-3 4-1 4v10l2 8 3 2h7l6-2-2 5-3 2h-9l-6-4-3-6-1-5v-9l3-9 6-5z" fill="#3B3C3D"/>
<path transform="translate(1234,735)" d="m0 0h33l8 4 6 7 2 4v24h-1l-1-18-5-8v-2h-2l-4-5-4-2-7-1h-57l-44-1v-1z" fill="#393B3C"/>
<path transform="translate(1936,753)" d="m0 0h10l5 3-3 3-9-2-4 2-2 4v17l3 5 1 1h7l6-2 1 2-4 4-2 1h-9l-7-6-2-7v-11l3-9 4-4z" fill="#3B3D3E"/>
<path transform="translate(1416,478)" d="m0 0 3 4 7 13 6 12 7 9 6 8 4 7 1 3h2l9 11 13 13 10 8 3 2v2l4 2 20 13 18 10-3 1-18-10-15-10-14-11-12-11-11-11-9-11-10-13-11-18-10-20z" fill="#3B3D3E"/>
<path transform="translate(1934,142)" d="m0 0h11l4 3v2h-14l-3 4-1 4v9l2 9 2 2h8l6-2-1 4-4 3h-9l-5-3-3-5-1-4v-15l3-7z" fill="#3C3D3E"/>
<path transform="translate(1282,1110)" d="m0 0h1v158l-7 9-8 5h-64v-1l58-1 8-2 3-1v-2l5-2 3-9v-153z" fill="#38393A"/>
<path transform="translate(405,1478)" d="m0 0h12l8 5 1 4-5 2-6-4-12 2-6 3-3 2v-5l5-6z" fill="#3A3B3C"/>
<path transform="translate(1476,1191)" d="m0 0 4 2 12 9 10 7 7 4 12 7 25 11 19 6 14 4v1l-10-1-20-6-20-8-22-12-12-8-12-9-7-6z" fill="#3D3E3F"/>
<path transform="translate(1413,1101)" d="m0 0 2 2 7 15 5 8 3 7 7 11 6 10 7 8 7 9 18 18h-3l-21-21-10-13-12-18-12-23-4-10z" fill="#3E3F40"/>
<path transform="translate(1165,119)" d="m0 0h105l6 4 6 7 1 3v10h-1l-3-13-4-5-4-2-6-2h-29l-71-1z" fill="#38393A"/>
<path transform="translate(1137,1422)" d="m0 0 8 1 17 9 13 11 9 12-1 2-1-3h-2v-2h-2v-3l-4-2v-2l-3 1v-2l-4-2-10-9h-2v-2l-5-2-7-3-3-1v-2z" fill="#3B3D3D"/>
<path transform="translate(1460,545)" d="m0 0 7 6 7 7 10 8 3 2v2l4 2 20 13 18 10-3 1-18-10-15-10-14-11-12-11-7-7z" fill="#3B3D3E"/>
<path transform="translate(1878,1201)" d="m0 0 3 4 4 13-13 1 3-10z" fill="#D3D6D7"/>
<path transform="translate(479,1478)" d="m0 0h23l1 5-2 3-9-4-5-1h-10z" fill="#3D3E3F"/>
<path transform="translate(1796,1168)" d="m0 0v3l-9 10-8 8-9 7-2-1 3-3h2v-2l8-8 3-1 2-4z" fill="#3C3D3E"/>
<path transform="translate(1685,171)" d="m0 0 9 1 19 7 9 4v2l-9-2-5-3-14-5-9-3z" fill="#3E3F40"/>
<path transform="translate(1808,257)" d="m0 0h3l10 15 8 14-1 3-8-13-4-6-5-7z" fill="#3C3E3E"/>
<path transform="translate(442,1478)" d="m0 0h22l2 2v5l-4-2-6-2-14-1z" fill="#3E4040"/>
<path transform="translate(1543,1230)" d="m0 0 24 8 12 3v1l-10-1-20-6-8-3z" fill="#3E3F40"/>
<path transform="translate(303,1423)" d="m0 0 4 1 12 9 9 9 4 6-1 3-8-11-7-6-1-2h-2v-2l-5-2z" fill="#3F4041"/>
<path transform="translate(1062,1563)" d="m0 0 5 2 14 8 12 5v1l-8-1-17-9-6-5z" fill="#3D3F3F"/>
<path transform="translate(1416,478)" d="m0 0 3 4 7 13 8 16-3-1-12-22-3-7z" fill="#3D3E3F"/>
<path transform="translate(1810,887)" d="m0 0 5 5 10 16 4 7-1 3-5-7-4-8-5-9-4-4z" fill="#3D3E3F"/>
<path transform="translate(1413,1101)" d="m0 0 2 2 7 15 5 8 1 6h-2l-12-25z" fill="#3C3E3F"/>
<path transform="translate(1481,373)" d="m0 0h5l6 5 4 9v7l-2 1-2-10-3-6v-2l-7-2z" fill="#3E3F40"/>
<path transform="translate(1752,577)" d="m0 0 2 1-8 6-18 10-4 2-3-1 15-8z" fill="#3D3F40"/>
<path transform="translate(1725,1106)" d="m0 0h5v2l-8 1v2h-2l-2 4h-2l-3 10h-1l1-9 6-7z" fill="#3C3E3E"/>
<path transform="translate(1731,1106)" d="m0 0 7 1 6 4 3 5v5l-3-4-2-3-5-3-1-3h-5z" fill="#3B3C3D"/>
<path transform="translate(1267,119)" d="m0 0 5 1 8 7 3 6v10h-1l-3-13-4-5-4-2-3-1z" fill="#3E4040"/>
<path transform="translate(1234,735)" d="m0 0h19l-1 2-22 1v-2z" fill="#393B3C"/>
<path transform="translate(1282,1266)" d="m0 0v3l-6 8-8 5-3-1 6-4h2v-2l5-2 2-5z" fill="#3E4040"/>
<path transform="translate(1476,846)" d="m0 0 2 1-4 5-6 5-1 2-5 3-2 1 2-4 13-12z" fill="#3D3E3F"/>
<path transform="translate(1444,527)" d="m0 0 4 2 2 5h2l8 10-1 2-10-11z" fill="#3C3E3F"/>
<path transform="translate(1508,1213)" d="m0 0 10 5 8 5-1 2-16-9z" fill="#3C3D3E"/>
<path transform="translate(1493,396)" d="m0 0 1 3-4 5-7 4-7 1-2-2 10-2 7-6z" fill="#3D3F3F"/>
<path transform="translate(497,1498)" d="m0 0h5v7h-11v-1l7-1z" fill="#393A3B"/>
<path transform="translate(1620,1208)" d="m0 0h12l-1 3h-12z" fill="#414343"/>
<path transform="translate(1440,1151)" d="m0 0 5 5 5 6v2l-3-1-7-10z" fill="#3B3C3D"/>
<path transform="translate(1596,1207)" d="m0 0h10l3 1-1 3-12-2z" fill="#3E3F40"/>
<path transform="translate(1711,179)" d="m0 0 9 3 2 1v2l-9-2z" fill="#3C3E3E"/>
<path transform="translate(1458,864)" d="m0 0v3l-9 10v-3z" fill="#3D3F3F"/>
</svg>
