<?xml version="1.0" encoding="UTF-8"?>
<svg version="1.1" xmlns="http://www.w3.org/2000/svg" width="140" height="219">
<path d="M0 0 C1.6248049 1.22305345 3.23046744 2.47210186 4.8125 3.75 C5.46347656 4.27464844 6.11445312 4.79929687 6.78515625 5.33984375 C12.8054942 10.75153215 16.2787595 18.14877851 18.8125 25.75 C18.91039895 27.95202669 18.94799187 30.1568913 18.9543457 32.36108398 C18.95782013 33.02809326 18.96129456 33.69510254 18.96487427 34.38232422 C18.97222003 35.82935696 18.9775717 37.27640088 18.98116493 38.7234478 C18.988338 41.01421602 19.00400973 43.30477099 19.02250671 45.59547424 C19.07494379 52.10797239 19.1229696 58.6203518 19.13842773 65.13305664 C19.14850578 69.11787135 19.17782163 73.10214653 19.21974754 77.08674812 C19.23206195 78.60454288 19.23717798 80.12241381 19.23494911 81.64025688 C19.23259749 83.76393174 19.25474664 85.88605615 19.2824707 88.00952148 C19.28833694 89.21736801 19.29420319 90.42521454 19.30024719 91.66966248 C19.91070633 95.3405456 21.03853738 96.3824446 23.8125 98.75 C24.8978513 102.56282502 24.58693748 106.20112504 22.8125 109.75 C18.97628711 114.80682608 13.8575294 117.14397734 7.8125 118.75 C6.4925 118.75 5.1725 118.75 3.8125 118.75 C3.89370706 122.14678803 4.00652019 125.54182382 4.125 128.9375 C4.14755859 129.89720703 4.17011719 130.85691406 4.19335938 131.84570312 C4.50802322 140.11278061 6.97646518 144.04601225 12.5078125 150.00390625 C16.32349886 155.11052841 15.0364403 162.78293712 15.0625 168.8125 C15.083125 170.00939453 15.10375 171.20628906 15.125 172.43945312 C15.13273437 174.15745117 15.13273437 174.15745117 15.140625 175.91015625 C15.1499707 176.95824463 15.15931641 178.00633301 15.16894531 179.08618164 C14.8125 181.75 14.8125 181.75 13.51464844 183.59545898 C10.69790741 185.50601095 8.0971039 185.04860035 4.8125 184.75 C2.07125088 182.00875088 1.85492551 179.66548754 1.77001953 175.83203125 C1.79114323 172.88289066 1.85544324 169.93626461 1.93945312 166.98828125 C2.03152778 160.86802502 1.12124316 156.81726775 -3.1875 152.25 C-7.1896327 148.00773933 -8.44768013 144.03612149 -8.3828125 138.23046875 C-8.37636719 137.20888672 -8.36992188 136.18730469 -8.36328125 135.13476562 C-8.34652344 134.07966797 -8.32976562 133.02457031 -8.3125 131.9375 C-8.30347656 130.86306641 -8.29445312 129.78863281 -8.28515625 128.68164062 C-8.26165306 126.03753146 -8.22879575 123.39388128 -8.1875 120.75 C-8.88963623 120.91298584 -9.59177246 121.07597168 -10.31518555 121.24389648 C-13.32481803 121.77419552 -16.09018462 121.86331957 -19.14453125 121.84765625 C-20.25634766 121.84443359 -21.36816406 121.84121094 -22.51367188 121.83789062 C-23.66416016 121.82951172 -24.81464844 121.82113281 -26 121.8125 C-27.16982422 121.80798828 -28.33964844 121.80347656 -29.54492188 121.79882812 C-32.42583358 121.7870693 -35.30664044 121.77063426 -38.1875 121.75 C-38.18083817 122.46552536 -38.17417633 123.18105072 -38.16731262 123.91825867 C-38.10712615 130.67136886 -38.06148743 137.42440386 -38.03206348 144.17772198 C-38.01642757 147.6494411 -37.99522788 151.12093803 -37.96118164 154.5925293 C-37.92225937 158.58644712 -37.90777371 162.58013263 -37.89453125 166.57421875 C-37.87904739 167.81709152 -37.86356354 169.05996429 -37.84761047 170.34049988 C-37.84738388 171.50132584 -37.84715729 172.66215179 -37.84692383 173.8581543 C-37.84026199 174.87741501 -37.83360016 175.89667572 -37.82673645 176.94682312 C-38.25290365 180.25819437 -39.12557765 182.13334229 -41.1875 184.75 C-44.75 185.1875 -44.75 185.1875 -48.1875 184.75 C-50.97989483 181.95760517 -51.13808717 179.88361714 -51.30775452 175.9911499 C-51.3044236 174.40563324 -51.3044236 174.40563324 -51.30102539 172.78808594 C-51.30094986 171.58714294 -51.30087433 170.38619995 -51.30079651 169.14886475 C-51.29563522 167.85708313 -51.29047394 166.56530151 -51.28515625 165.234375 C-51.28329017 163.89487765 -51.28186716 162.55537962 -51.28086853 161.21588135 C-51.27705835 157.69777528 -51.26724091 154.17971079 -51.25616455 150.66162109 C-51.24591817 147.06869061 -51.241364 143.47575339 -51.23632812 139.8828125 C-51.22561725 132.83852471 -51.20855887 125.79426507 -51.1875 118.75 C-52.29520752 118.60143555 -53.40291504 118.45287109 -54.54418945 118.29980469 C-60.19327132 117.44731307 -64.30222296 115.30535356 -68.6875 111.6875 C-70.95361216 107.24969701 -71.02743088 102.63824641 -70.1875 97.75 C-69.69182022 97.32787735 -69.19614044 96.9057547 -68.68544006 96.47084045 C-66.48833895 93.94680056 -66.80211379 92.00144634 -66.78686523 88.69311523 C-66.77352646 87.44429062 -66.76018768 86.195466 -66.7464447 84.90879822 C-66.74630939 83.5420634 -66.74619289 82.17532857 -66.74609375 80.80859375 C-66.73431462 79.40192799 -66.72094908 77.99527469 -66.70606995 76.58863831 C-66.66984143 72.87874321 -66.64968199 69.16895835 -66.63452148 65.45892334 C-66.60973672 59.54632775 -66.56953435 53.63397657 -66.51262093 47.7216053 C-66.49647031 45.66895278 -66.4925291 43.61653532 -66.48960876 41.56382751 C-66.36921579 26.54350987 -63.82166283 16.00867786 -53.41796875 4.82421875 C-39.12869676 -8.46405345 -16.29319671 -10.87027366 0 0 Z " fill="#7C0F13" transform="translate(89.1875,19.25)"/>
<path d="M0 0 C1.21343851 3.76474505 1.08191094 7.31515219 1.02172852 11.24707031 C1.01212097 11.96941864 1.00251343 12.69176697 0.99261475 13.43600464 C0.959709 15.81681322 0.91934486 18.19743345 0.87890625 20.578125 C0.85459689 22.23149965 0.83075374 23.88488122 0.80735779 25.53826904 C0.74459805 29.88500866 0.67550851 34.23162548 0.60510254 38.57824707 C0.53434577 43.01564961 0.46957277 47.45313905 0.40429688 51.890625 C0.2753891 60.59384623 0.13979447 69.29694686 0 78 C0.77633789 78.13494873 1.55267578 78.26989746 2.35253906 78.40893555 C5 79 5 79 7.359375 80.45703125 C22.41816678 89.25617733 50.66341093 86.86815871 67 83 C74.6089222 80.55422097 74.6089222 80.55422097 81 76 C81.29425749 72.8003926 81.29425749 72.8003926 81.22705078 68.97998047 C81.22734283 68.25792419 81.22763489 67.53586792 81.22793579 66.79193115 C81.22654008 64.40022858 81.21096783 62.00883579 81.1953125 59.6171875 C81.19158322 57.9609494 81.18873585 56.30470911 81.18673706 54.64846802 C81.17909389 50.2852776 81.1594396 45.92221993 81.1373291 41.55908203 C81.11688535 37.10841671 81.1077385 32.65772997 81.09765625 28.20703125 C81.07619429 19.47129319 81.04205018 10.7356631 81 2 C83.41604637 5.62406956 83.25087297 7.29805253 83.25537109 11.61108398 C83.25899155 12.27809326 83.262612 12.94510254 83.26634216 13.63232422 C83.27323074 15.07935151 83.2757426 16.52640474 83.27439499 17.9734478 C83.27342983 20.2643021 83.28636985 22.55468709 83.30337524 24.84547424 C83.34965389 31.35796481 83.37425752 37.87040731 83.38085938 44.38305664 C83.38587281 48.36783926 83.41011266 52.35213154 83.44618607 56.33674812 C83.45598748 57.85455444 83.4583141 59.37242817 83.45301437 60.89025688 C83.44594687 63.01387855 83.46321592 65.13603802 83.48583984 67.25952148 C83.48868988 68.46736801 83.49153992 69.67521454 83.49447632 70.91966248 C84.0975004 74.594105 85.22399091 75.63186971 88 78 C89.0853513 81.81282502 88.77443748 85.45112504 87 89 C83.16378711 94.05682608 78.0450294 96.39397734 72 98 C70.68 98 69.36 98 68 98 C68.08120706 101.39678803 68.19402019 104.79182382 68.3125 108.1875 C68.33505859 109.14720703 68.35761719 110.10691406 68.38085938 111.09570312 C68.69552322 119.36278061 71.16396518 123.29601225 76.6953125 129.25390625 C80.51099886 134.36052841 79.2239403 142.03293712 79.25 148.0625 C79.270625 149.25939453 79.29125 150.45628906 79.3125 151.68945312 C79.32023437 153.40745117 79.32023437 153.40745117 79.328125 155.16015625 C79.3374707 156.20824463 79.34681641 157.25633301 79.35644531 158.33618164 C79 161 79 161 77.70214844 162.84545898 C74.88540741 164.75601095 72.2846039 164.29860035 69 164 C66.25875088 161.25875088 66.04242551 158.91548754 65.95751953 155.08203125 C65.97864323 152.13289066 66.04294324 149.18626461 66.12695312 146.23828125 C66.21902778 140.11802502 65.30874316 136.06726775 61 131.5 C56.9978673 127.25773933 55.73981987 123.28612149 55.8046875 117.48046875 C55.81113281 116.45888672 55.81757812 115.43730469 55.82421875 114.38476562 C55.84097656 113.32966797 55.85773438 112.27457031 55.875 111.1875 C55.88402344 110.11306641 55.89304688 109.03863281 55.90234375 107.93164062 C55.92584694 105.28753146 55.95870425 102.64388128 56 100 C55.29786377 100.16298584 54.59572754 100.32597168 53.87231445 100.49389648 C50.86268197 101.02419552 48.09731538 101.11331957 45.04296875 101.09765625 C43.93115234 101.09443359 42.81933594 101.09121094 41.67382812 101.08789062 C40.52333984 101.07951172 39.37285156 101.07113281 38.1875 101.0625 C37.01767578 101.05798828 35.84785156 101.05347656 34.64257812 101.04882812 C31.76166642 101.0370693 28.88085956 101.02063426 26 101 C26.00666183 101.71552536 26.01332367 102.43105072 26.02018738 103.16825867 C26.08037385 109.92136886 26.12601257 116.67440386 26.15543652 123.42772198 C26.17107243 126.8994411 26.19227212 130.37093803 26.22631836 133.8425293 C26.26524063 137.83644712 26.27972629 141.83013263 26.29296875 145.82421875 C26.30845261 147.06709152 26.32393646 148.30996429 26.33988953 149.59049988 C26.34011612 150.75132584 26.34034271 151.91215179 26.34057617 153.1081543 C26.34723801 154.12741501 26.35389984 155.14667572 26.36076355 156.19682312 C25.93459635 159.50819437 25.06192235 161.38334229 23 164 C19.4375 164.4375 19.4375 164.4375 16 164 C13.20760517 161.20760517 13.04941283 159.13361714 12.87974548 155.2411499 C12.8830764 153.65563324 12.8830764 153.65563324 12.88647461 152.03808594 C12.88655014 150.83714294 12.88662567 149.63619995 12.88670349 148.39886475 C12.89186478 147.10708313 12.89702606 145.81530151 12.90234375 144.484375 C12.90420983 143.14487765 12.90563284 141.80537962 12.90663147 140.46588135 C12.91044165 136.94777528 12.92025909 133.42971079 12.93133545 129.91162109 C12.94158183 126.31869061 12.946136 122.72575339 12.95117188 119.1328125 C12.96188275 112.08852471 12.97894113 105.04426507 13 98 C11.89229248 97.85143555 10.78458496 97.70287109 9.64331055 97.54980469 C3.99422868 96.69731307 -0.11472296 94.55535356 -4.5 90.9375 C-6.76611216 86.49969701 -6.83993088 81.88824641 -6 77 C-5.50432022 76.57787735 -5.00864044 76.1557547 -4.49794006 75.72084045 C-2.30083895 73.19680056 -2.61461379 71.25144634 -2.59936523 67.94311523 C-2.58602646 66.69429062 -2.57268768 65.445466 -2.5589447 64.15879822 C-2.55880939 62.7920634 -2.55869289 61.42532857 -2.55859375 60.05859375 C-2.54681462 58.65192799 -2.53344908 57.24527469 -2.51856995 55.83863831 C-2.48234143 52.12874321 -2.46218199 48.41895835 -2.44702148 44.70892334 C-2.42223672 38.79632775 -2.38203435 32.88397657 -2.32512093 26.9716053 C-2.30897031 24.91895278 -2.3050291 22.86653532 -2.30210876 20.81382751 C-2.24460093 13.63910686 -1.78470743 6.96349296 0 0 Z " fill="#5C090E" transform="translate(25,40)"/>
<path d="M0 0 C1.21236328 0.02707031 1.21236328 0.02707031 2.44921875 0.0546875 C3.37154297 0.08949219 3.37154297 0.08949219 4.3125 0.125 C4.32708252 0.73496826 4.34166504 1.34493652 4.35668945 1.97338867 C4.43144775 4.75371064 4.52801482 7.53286824 4.625 10.3125 C4.64755859 11.27220703 4.67011719 12.23191406 4.69335938 13.22070312 C5.00802322 21.48778061 7.47646518 25.42101225 13.0078125 31.37890625 C16.82349886 36.48552841 15.5364403 44.15793712 15.5625 50.1875 C15.583125 51.38439453 15.60375 52.58128906 15.625 53.81445312 C15.63015625 54.95978516 15.6353125 56.10511719 15.640625 57.28515625 C15.65464355 58.85728882 15.65464355 58.85728882 15.66894531 60.46118164 C15.3125 63.125 15.3125 63.125 14.01464844 64.97045898 C11.19790741 66.88101095 8.5971039 66.42360035 5.3125 66.125 C2.57125088 63.38375088 2.35492551 61.04048754 2.27001953 57.20703125 C2.29114323 54.25789066 2.35544324 51.31126461 2.43945312 48.36328125 C2.53152778 42.24302502 1.62124316 38.19226775 -2.6875 33.625 C-8.35798313 27.61428789 -8.02417303 21.28406434 -8 13.4375 C-8.01611328 12.37982422 -8.03222656 11.32214844 -8.04882812 10.23242188 C-8.04947266 9.22373047 -8.05011719 8.21503906 -8.05078125 7.17578125 C-8.05376221 6.25450439 -8.05674316 5.33322754 -8.05981445 4.3840332 C-7.93695068 3.63855225 -7.81408691 2.89307129 -7.6875 2.125 C-4.48369983 -0.01086678 -3.66810033 -0.10632175 0 0 Z " fill="#2B2A2B" transform="translate(88.6875,137.875)"/>
<path d="M0 0 C1.258125 -0.020625 2.51625 -0.04125 3.8125 -0.0625 C4.52019531 -0.07410156 5.22789063 -0.08570313 5.95703125 -0.09765625 C8 0 8 0 11 1 C11.85336171 8.18840943 12.17251188 15.28369938 12.203125 22.51953125 C12.20882507 23.58112961 12.21452515 24.64272797 12.22039795 25.73649597 C12.22978032 27.96258567 12.23635473 30.18868883 12.24023438 32.41479492 C12.25002268 35.82039063 12.28114265 39.2254027 12.3125 42.63085938 C12.31902358 44.80207978 12.32427657 46.97330446 12.328125 49.14453125 C12.3404718 50.15916946 12.3528186 51.17380768 12.36553955 52.2191925 C12.33656335 61.37581838 12.33656335 61.37581838 9 65 C5.4375 65.4375 5.4375 65.4375 2 65 C0 63 0 63 -0.24050903 60.36776733 C-0.23606781 59.25302032 -0.23162659 58.13827332 -0.22705078 56.98974609 C-0.22689972 55.72858978 -0.22674866 54.46743347 -0.22659302 53.1680603 C-0.21637898 51.78651778 -0.20594697 50.40497685 -0.1953125 49.0234375 C-0.19158288 47.61382243 -0.18873567 46.20420477 -0.18673706 44.79458618 C-0.17909655 41.08240618 -0.15944461 37.37038239 -0.1373291 33.65826416 C-0.11687959 29.87115594 -0.10773727 26.0840225 -0.09765625 22.296875 C-0.076199 14.86451207 -0.04205816 7.43227792 0 0 Z " fill="#2A2A2B" transform="translate(39,139)"/>
<path d="M0 0 C3.33511388 2.9901021 5.21521119 5.89498574 7 10 C7 10.66 7 11.32 7 12 C3.33663903 10.77887968 2.64957986 9.13279518 0.76953125 5.88671875 C0 4 0 4 0 0 Z " fill="#460D10" transform="translate(99,29)"/>
<path d="M0 0 C2.41486943 2.41486943 2.2961925 3.12707789 2.3125 6.4375 C2.33763672 7.61119141 2.33763672 7.61119141 2.36328125 8.80859375 C2 11 2 11 -1 14 C-0.67 9.38 -0.34 4.76 0 0 Z " fill="#360A0D" transform="translate(111,116)"/>
<path d="M0 0 C0.33 0 0.66 0 1 0 C1.33 3.96 1.66 7.92 2 12 C2.99 12.33 3.98 12.66 5 13 C4.67 13.99 4.34 14.98 4 16 C1.34493073 13.59384348 0.07835303 11.82040233 -0.265625 8.21875 C-0.25145444 5.46966145 -0.17296687 2.74344679 0 0 Z " fill="#38090E" transform="translate(19,117)"/>
<path d="M0 0 C0.66 0.33 1.32 0.66 2 1 C-1.32307692 5.8 -1.32307692 5.8 -4.75 6.8125 C-5.4925 6.874375 -6.235 6.93625 -7 7 C-4.66666667 4.66666667 -2.33333333 2.33333333 0 0 Z " fill="#390B0D" transform="translate(42,19)"/>
</svg>
