<?xml version="1.0" encoding="UTF-8"?>
<svg version="1.1" viewBox="0 0 2000 2000" width="500" height="500" xmlns="http://www.w3.org/2000/svg">
<path transform="translate(1400,770)" d="m0 0 22 1 25 5 21 7 21 10 16 11 13 11 13 12 10 11 11 14 10 13 28 40 12 16 8 9 9 4 28 7 14 2 250 1 10 4 9 6 7 7 6 10 4 12v16l-5 12-7 10-7 7-11 6-10 2-245 1-22 3-20 5-9 5-5 4-11 14-11 16-9 13-11 16-10 13-7 9-11 13-7 8-16 16-14 10-18 10-13 6-21 7-16 3-9 1h-39l-38-4-26-5-20-6-19-7-29-11-29-9-20-5-12-2-12-1-59-1h-281l-29 1-20 3-28 8-29 10-31 11-26 7-28 5-28 3h-40l-17-3-21-7-17-8-19-12-14-12-11-10-7-8-10-11-14-19-14-20-16-24-10-13-7-8-10-6-21-5-21-3-255-1-12-3-11-7-8-8-7-14-2-11 1-14 4-11 6-9 7-7 11-6 5-2 248-1 31-3 18-4 12-4 8-7 26-36 11-16 12-17 10-13 12-14 14-14 8-7 17-13 18-10 17-7 21-5 13-2h39l41 6 26 6 17 5 30 11 20 7 27 8 20 4 17 2 19 1h324l22-1 28-6 36-12 17-6 36-13 23-6 33-5 10-1z" fill="#D7B37B"/>
<path transform="translate(328,943)" d="m0 0h8l2 1-1 4-5 10-1 5v11l4 19 8 26 5 12v4l-5 1h-248l-12-3-11-7-8-8-7-14-2-11 1-14 4-11 6-9 7-7 11-6 5-2z" fill="#8D8E8D"/>
<path transform="translate(1829,944)" d="m0 0h82l10 4 9 6 7 7 6 10 4 12v16l-5 12-7 10-7 7-11 6-10 2h-230l-6-1 1-7 2-8v-21l-5-27-4-17-3-9 1-1z" fill="#8D8E8E"/>
</svg>
