<?xml version="1.0" encoding="UTF-8"?>
<svg version="1.1" xmlns="http://www.w3.org/2000/svg" width="140" height="219">
<path d="M0 0 C7.87530012 7.21902511 13.64614242 16.18423045 14.13803101 27.04873657 C14.14452667 28.18330292 14.15102234 29.31786926 14.15771484 30.48681641 C14.16797699 31.77810455 14.17823914 33.0693927 14.18881226 34.39981079 C14.19225018 35.08452076 14.1956881 35.76923073 14.19923019 36.47468948 C14.21107599 38.62672174 14.2305392 40.7785584 14.25234985 42.93051147 C14.31380239 49.04605641 14.36811098 55.16157499 14.40136719 61.27734375 C14.42228753 65.02449854 14.45755698 68.77128555 14.50212479 72.51823044 C14.51629312 73.94474342 14.52500912 75.37132133 14.52817917 76.79790115 C14.53307644 78.78933767 14.55782384 80.7806956 14.58349609 82.77197266 C14.59158295 83.90494781 14.5996698 85.03792297 14.60800171 86.20523071 C15.04599262 89.32790642 15.63177023 90.05391816 18 92 C19.09264496 95.91592222 19.25023513 99.77662826 18.4375 103.75 C14.02516998 110.65625568 7.48813292 112.61498969 0 115 C-1.63551063 129.97837541 -1.63551063 129.97837541 3.9375 143.1875 C5.28347453 144.46700665 6.63595652 145.73977378 8 147 C9.81301803 152.43905409 9.22737025 158.30861809 9.25 164 C9.270625 165.29679688 9.29125 166.59359375 9.3125 167.9296875 C9.32023437 169.78980469 9.32023437 169.78980469 9.328125 171.6875 C9.3374707 172.82574219 9.34681641 173.96398437 9.35644531 175.13671875 C9 178 9 178 7.66699219 179.87109375 C5.06269059 181.63475669 3.05404809 181.38175601 0 181 C-1.6730957 179.80102539 -1.6730957 179.80102539 -3 178 C-3.30541992 175.61499023 -3.30541992 175.61499023 -3.23046875 172.80859375 C-3.2245874 171.78572266 -3.21870605 170.76285156 -3.21264648 169.70898438 C-3.20434814 168.62939453 -3.1960498 167.54980469 -3.1875 166.4375 C-3.154002 156.46220207 -3.154002 156.46220207 -7.9375 148 C-8.64777344 147.38125 -9.35804687 146.7625 -10.08984375 146.125 C-14.93165562 140.73860807 -14.26117895 132.81942298 -14.125 126 C-14.11597656 125.12988281 -14.10695312 124.25976562 -14.09765625 123.36328125 C-14.07434619 121.2420658 -14.03848579 119.12099438 -14 117 C-14.99 117.33 -15.98 117.66 -17 118 C-18.9920303 118.08291953 -20.98673713 118.10738177 -22.98046875 118.09765625 C-24.14384766 118.09443359 -25.30722656 118.09121094 -26.50585938 118.08789062 C-27.72080078 118.07951172 -28.93574219 118.07113281 -30.1875 118.0625 C-31.41404297 118.05798828 -32.64058594 118.05347656 -33.90429688 118.04882812 C-36.93624668 118.03703065 -39.96809906 118.02056921 -43 118 C-43.00586624 118.74502274 -43.01173248 119.49004547 -43.01777649 120.25764465 C-43.07566439 127.27652789 -43.14771813 134.29508897 -43.23571491 141.31364918 C-43.28045551 144.92204877 -43.31970305 148.53033451 -43.34643555 152.13891602 C-43.37243241 155.62099585 -43.41280795 159.10263839 -43.46318626 162.58444786 C-43.48800764 164.56025199 -43.49790939 166.5362252 -43.50764465 168.51216125 C-43.52743881 169.71317978 -43.54723297 170.9141983 -43.56762695 172.15161133 C-43.57873001 173.21084305 -43.58983307 174.27007477 -43.60127258 175.36140442 C-44 178 -44 178 -45.33952332 179.84208679 C-47.93171849 181.64972255 -49.93473058 181.38315868 -53 181 C-54.66621399 179.85929871 -54.66621399 179.85929871 -56 178 C-56.36076355 175.24751282 -56.36076355 175.24751282 -56.34057617 171.8762207 C-56.34034958 170.61513992 -56.34012299 169.35405914 -56.33988953 168.05476379 C-56.32456963 166.67843268 -56.30892164 165.30210518 -56.29296875 163.92578125 C-56.2873726 162.51759798 -56.28310259 161.10940886 -56.28010559 159.70121765 C-56.26865818 155.99718056 -56.23919235 152.2934971 -56.20599365 148.58959961 C-56.17529026 144.80913069 -56.16159971 141.02860457 -56.14648438 137.24804688 C-56.11432216 129.83187014 -56.06312755 122.41598464 -56 115 C-56.93061752 114.803423 -56.93061752 114.803423 -57.8800354 114.60287476 C-58.69257782 114.42761261 -59.50512024 114.25235046 -60.34228516 114.07177734 C-61.14832184 113.89947601 -61.95435852 113.72717468 -62.78482056 113.5496521 C-65.28878733 112.92834325 -67.22543691 112.04897217 -69.375 110.625 C-70.00148438 110.22539062 -70.62796875 109.82578125 -71.2734375 109.4140625 C-74.0678782 107.12540292 -75.78177307 105.20909518 -76.43359375 101.59765625 C-76.43488281 100.76105469 -76.43617187 99.92445312 -76.4375 99.0625 C-76.45683594 98.22847656 -76.47617188 97.39445312 -76.49609375 96.53515625 C-76 94 -76 94 -73.984375 91.8515625 C-70.95135505 87.49308895 -71.62702467 83.48927788 -71.8125 78.3125 C-71.84990777 75.9974692 -71.88206151 73.68235005 -71.91015625 71.3671875 C-71.92836426 70.06491211 -71.94657227 68.76263672 -71.96533203 67.42089844 C-72.04590996 59.5332897 -71.93696314 51.64715997 -71.79550171 43.76083374 C-71.76535129 41.89003146 -71.74281574 40.01908978 -71.72817993 38.14810181 C-71.70688052 35.48222992 -71.66079803 32.81778383 -71.609375 30.15234375 C-71.60816147 29.36252106 -71.60694794 28.57269836 -71.60569763 27.75894165 C-71.36382985 18.47909373 -66.84788868 10.07698033 -61 3 C-58.17230493 0.38386606 -55.1905311 -1.84681205 -52 -4 C-51.10087891 -4.61875 -51.10087891 -4.61875 -50.18359375 -5.25 C-34.46350923 -15.1707958 -13.88412274 -10.70407666 0 0 Z " fill="#6F6F6F" transform="translate(96,25)"/>
<path d="M0 0 C0.495 1.485 0.495 1.485 1 3 C-4.49357403 8.37149461 -9.6877688 10.75211699 -17 13 C-18.63551063 27.97837541 -18.63551063 27.97837541 -13.0625 41.1875 C-11.71652547 42.46700665 -10.36404348 43.73977378 -9 45 C-7.18698197 50.43905409 -7.77262975 56.30861809 -7.75 62 C-7.729375 63.29679687 -7.70875 64.59359375 -7.6875 65.9296875 C-7.67976563 67.78980469 -7.67976563 67.78980469 -7.671875 69.6875 C-7.6625293 70.82574219 -7.65318359 71.96398437 -7.64355469 73.13671875 C-8 76 -8 76 -9.33300781 77.87109375 C-11.93730941 79.63475669 -13.94595191 79.38175601 -17 79 C-18.6730957 77.80102539 -18.6730957 77.80102539 -20 76 C-20.30541992 73.61499023 -20.30541992 73.61499023 -20.23046875 70.80859375 C-20.2245874 69.78572266 -20.21870605 68.76285156 -20.21264648 67.70898438 C-20.20434814 66.62939453 -20.1960498 65.54980469 -20.1875 64.4375 C-20.154002 54.46220207 -20.154002 54.46220207 -24.9375 46 C-25.64777344 45.38125 -26.35804687 44.7625 -27.08984375 44.125 C-31.93165562 38.73860807 -31.26117895 30.81942298 -31.125 24 C-31.11597656 23.12988281 -31.10695312 22.25976562 -31.09765625 21.36328125 C-31.07434619 19.2420658 -31.03848579 17.12099438 -31 15 C-31.99 15.33 -32.98 15.66 -34 16 C-35.9920303 16.08291953 -37.98673713 16.10738177 -39.98046875 16.09765625 C-41.14384766 16.09443359 -42.30722656 16.09121094 -43.50585938 16.08789062 C-44.72080078 16.07951172 -45.93574219 16.07113281 -47.1875 16.0625 C-48.41404297 16.05798828 -49.64058594 16.05347656 -50.90429688 16.04882812 C-53.93624668 16.03703065 -56.96809906 16.02056921 -60 16 C-60.00586624 16.74502274 -60.01173248 17.49004547 -60.01777649 18.25764465 C-60.07566439 25.27652789 -60.14771813 32.29508897 -60.23571491 39.31364918 C-60.28045551 42.92204877 -60.31970305 46.53033451 -60.34643555 50.13891602 C-60.37243241 53.62099585 -60.41280795 57.10263839 -60.46318626 60.58444786 C-60.48800764 62.56025199 -60.49790939 64.5362252 -60.50764465 66.51216125 C-60.52743881 67.71317978 -60.54723297 68.9141983 -60.56762695 70.15161133 C-60.57873001 71.21084305 -60.58983307 72.27007477 -60.60127258 73.36140442 C-61 76 -61 76 -62.33952332 77.84208679 C-64.93171849 79.64972255 -66.93473058 79.38315868 -70 79 C-71.66621399 77.85929871 -71.66621399 77.85929871 -73 76 C-73.36076355 73.24751282 -73.36076355 73.24751282 -73.34057617 69.8762207 C-73.34034958 68.61513992 -73.34012299 67.35405914 -73.33988953 66.05476379 C-73.32456963 64.67843268 -73.30892164 63.30210518 -73.29296875 61.92578125 C-73.2873726 60.51759798 -73.28310259 59.10940886 -73.28010559 57.70121765 C-73.26865818 53.99718056 -73.23919235 50.2934971 -73.20599365 46.58959961 C-73.17529026 42.80913069 -73.16159971 39.02860457 -73.14648438 35.24804688 C-73.11432216 27.83187014 -73.06312755 20.41598464 -73 13 C-73.6199585 12.87447754 -74.23991699 12.74895508 -74.87866211 12.61962891 C-75.69085205 12.44866699 -76.50304199 12.27770508 -77.33984375 12.1015625 C-78.14542725 11.93479004 -78.95101074 11.76801758 -79.78100586 11.59619141 C-82.3658039 10.90171712 -84.06844598 9.84757341 -86 8 C-83.16532728 8.3064511 -80.59815703 8.7215904 -78.00048828 9.93066406 C-69.0340386 14.03943931 -59.79950729 13.60502277 -50.14038086 13.52148438 C-47.20406765 13.50012054 -44.27022127 13.52131472 -41.33398438 13.546875 C-27.91747583 13.56674342 -13.84481201 13.0231113 -3 4 C-1.04591976 1.87860167 -1.04591976 1.87860167 0 0 Z " fill="#262627" transform="translate(113,127)"/>
<path d="M0 0 C0.33 0.66 0.66 1.32 1 2 C0.29750122 3.53043945 0.29750122 3.53043945 -0.41918945 5.09179688 C-3.09199884 11.8764671 -2.36687648 19.35663026 -2.29296875 26.53125 C-2.28736562 28.13406983 -2.28309891 29.73689485 -2.28010559 31.33972168 C-2.26871315 35.53522204 -2.23929505 39.73040523 -2.20599365 43.92578125 C-2.17517121 48.2161022 -2.16157437 52.50647497 -2.14648438 56.796875 C-2.11441924 65.19806136 -2.06329173 73.5989911 -2 82 C-0.90582764 82.64437012 0.18834473 83.28874023 1.31567383 83.95263672 C1.93114578 84.31509491 2.54661774 84.6775531 3.18074036 85.05099487 C5.63653159 86.33204262 7.95403892 86.75845886 10.6875 87.125 C15.70532 87.82053941 15.70532 87.82053941 17.6652832 89.01416016 C21.02829984 90.43420211 24.31620844 90.28546985 27.90625 90.265625 C29.04882263 90.26849518 29.04882263 90.26849518 30.21447754 90.27142334 C31.82153657 90.27278156 33.42860671 90.2691105 35.03564453 90.26074219 C37.49146232 90.25003722 39.94654864 90.26064946 42.40234375 90.2734375 C43.96614744 90.27211584 45.52995068 90.26955331 47.09375 90.265625 C47.82613892 90.26967346 48.55852783 90.27372192 49.31311035 90.27789307 C53.07010332 90.24344241 55.78632957 89.99679254 59 88 C60.40615657 87.64317455 61.82447305 87.33170923 63.25 87.0625 C68.92815965 85.87252265 74.13094522 84.24603652 79 81 C79.47952802 78.01029037 79.47952802 78.01029037 79.43237305 74.43896484 C79.4425647 73.76567642 79.45275635 73.092388 79.46325684 72.3986969 C79.49349335 70.1693603 79.50266849 67.94045257 79.51171875 65.7109375 C79.52855764 64.16678426 79.54670681 62.6226448 79.56611633 61.07852173 C79.61370873 57.01135563 79.64345798 52.94424535 79.66955566 48.87689209 C79.69931486 44.72771169 79.74586098 40.57872386 79.79101562 36.4296875 C79.87715371 28.28655272 79.94445189 20.1434006 80 12 C80.33 12 80.66 12 81 12 C81.00586624 12.80766312 81.01173248 13.61532623 81.01777649 14.44746399 C81.07565468 22.05498578 81.14770272 29.66217823 81.23571491 37.26940632 C81.28046315 41.18047848 81.31970911 45.09144541 81.34643555 49.00268555 C81.37242461 52.77652088 81.4127949 56.54995219 81.46318626 60.32353783 C81.47988494 61.76399909 81.49138053 63.20453028 81.49761391 64.64507484 C81.50722148 66.66103774 81.53696102 68.67687441 81.56762695 70.69262695 C81.57873001 71.84068314 81.58983307 72.98873932 81.60127258 74.17158508 C82.04395029 77.31176602 82.60104937 78.05985888 85 80 C86.16651068 83.04856141 86.41865884 85.76586048 86 89 C82.46118321 95.63528148 76.83626685 98.61579556 70 101 C69.30664551 101.26514404 68.61329102 101.53028809 67.89892578 101.8034668 C58.83485582 104.80359983 49.52690561 104.52291522 40.08544922 104.50097656 C37.13800282 104.50000429 34.19316601 104.54172405 31.24609375 104.5859375 C20.24881798 104.65369479 12.02244319 103.7772288 2 99 C0.65458919 98.63291934 -0.69910905 98.29333187 -2.0625 98 C-5.9164546 96.68801546 -7.11415947 95.62081381 -9 92 C-9.54722649 88.56996179 -9.72353094 85.40485146 -9 82 C-8.33355469 81.29230469 -7.66710937 80.58460937 -6.98046875 79.85546875 C-3.95469077 75.4928579 -4.6270258 71.48924613 -4.8125 66.3125 C-4.84990777 63.9974692 -4.88206151 61.68235005 -4.91015625 59.3671875 C-4.92836426 58.06491211 -4.94657227 56.76263672 -4.96533203 55.42089844 C-5.04590996 47.5332897 -4.93696314 39.64715997 -4.79550171 31.76083374 C-4.76535129 29.89003146 -4.74281574 28.01908978 -4.72817993 26.14810181 C-4.70688052 23.48222992 -4.66079803 20.81778383 -4.609375 18.15234375 C-4.60816147 17.36252106 -4.60694794 16.57269836 -4.60569763 15.75894165 C-4.45037041 9.79943361 -2.73120938 5.2699061 0 0 Z " fill="#565656" transform="translate(29,37)"/>
<path d="M0 0 C5.03498082 0.54432225 9.36119314 2.19210108 14.0234375 4.0625 C16.5175281 4.84804035 18.61328366 5.26083836 21.18603516 5.55859375 C22.44464355 5.70425781 23.70325195 5.84992188 25 6 C24.91571128 13.91904568 24.82087344 21.83786396 24.71247292 29.75661278 C24.66247448 33.43340641 24.61614507 37.11017082 24.578125 40.78710938 C24.54131654 44.33393703 24.49496933 47.88052221 24.44193649 51.4271431 C24.42336878 52.7819151 24.40826962 54.13673913 24.39665604 55.49158859 C24.37983491 57.38560856 24.34966384 59.27949588 24.31884766 61.17333984 C24.30552399 62.25255707 24.29220032 63.33177429 24.2784729 64.44369507 C24 67 24 67 22 69 C19 69.25 19 69.25 16 69 C14 67 14 67 13.75949097 64.4057312 C13.76393219 63.30874908 13.76837341 62.21176697 13.77294922 61.08154297 C13.77310028 59.84040741 13.77325134 58.59927185 13.77340698 57.32052612 C13.783621 55.9610783 13.794053 54.6016321 13.8046875 53.2421875 C13.80841716 51.85499271 13.81126435 50.46779529 13.81326294 49.08059692 C13.82090316 45.42759949 13.84055484 41.77476083 13.8626709 38.12182617 C13.88312104 34.39504138 13.89226287 30.66823096 13.90234375 26.94140625 C13.92380049 19.62753175 13.95794097 12.31378811 14 5 C12.89068115 4.85054932 11.7813623 4.70109863 10.63842773 4.54711914 C6.5386584 3.93062695 3.71760602 2.74499874 0 1 C0 0.67 0 0.34 0 0 Z " fill="#2F2F30" transform="translate(27,135)"/>
<path d="M0 0 C-1.3881735 3.12857014 -3.01101878 5.28189174 -5.4375 7.6875 C-6.03433594 8.28949219 -6.63117187 8.89148438 -7.24609375 9.51171875 C-9 11 -9 11 -12 12 C-9.98697969 7.241952 -5.71890513 0 0 0 Z " fill="#3F3F3F" transform="translate(43,23)"/>
</svg>
