<?xml version="1.0" encoding="UTF-8"?>
<svg version="1.1" xmlns="http://www.w3.org/2000/svg" width="140" height="219">
<path d="M0 0 C10.94208645 10.25820605 13.39778243 20.85345783 13.92956543 35.38183594 C14.17360567 45.5792061 14.22208085 55.78058103 14.26879883 65.98046875 C14.28769141 69.87648509 14.32972278 73.77212588 14.37109375 77.66796875 C14.37126747 79.46473053 14.37126747 79.46473053 14.3714447 81.29779053 C14.39145287 82.96167816 14.39145287 82.96167816 14.41186523 84.65917969 C14.41693588 85.63240173 14.42200653 86.60562378 14.42723083 87.6083374 C14.87710333 90.61542207 15.91132278 91.86478984 17.8125 94.18359375 C18.84939678 98.18305277 19.07003726 100.45390485 17.6875 104.37109375 C13.25063213 111.02639556 7.12706255 112.77529645 -0.1875 115.18359375 C-1.82301063 130.16196916 -1.82301063 130.16196916 3.75 143.37109375 C5.09597453 144.6506004 6.44845652 145.92336753 7.8125 147.18359375 C9.62551803 152.62264784 9.03987025 158.49221184 9.0625 164.18359375 C9.083125 165.48039063 9.10375 166.7771875 9.125 168.11328125 C9.13273437 169.97339844 9.13273437 169.97339844 9.140625 171.87109375 C9.1499707 173.00933594 9.15931641 174.14757812 9.16894531 175.3203125 C8.8125 178.18359375 8.8125 178.18359375 7.47558594 180.05078125 C4.8332728 181.85059525 2.91800165 181.62723684 -0.1875 181.18359375 C-2.76605229 179.15267018 -4.02924464 177.94879526 -4.70166016 174.69750977 C-4.70987793 173.78670654 -4.7180957 172.87590332 -4.7265625 171.9375 C-4.74976562 170.93525391 -4.77296875 169.93300781 -4.796875 168.90039062 C-4.80460937 167.33901367 -4.80460937 167.33901367 -4.8125 165.74609375 C-4.83812233 163.68477707 -4.87170328 161.62354067 -4.9140625 159.5625 C-4.92002441 158.65056885 -4.92598633 157.7386377 -4.93212891 156.79907227 C-5.2102763 153.95032177 -6.00864689 151.77876889 -7.1875 149.18359375 C-7.8475 149.18359375 -8.5075 149.18359375 -9.1875 149.18359375 C-10.44140625 147.64453125 -10.44140625 147.64453125 -11.75 145.55859375 C-12.18441406 144.88570312 -12.61882812 144.2128125 -13.06640625 143.51953125 C-15.74136132 137.94593149 -15.31213971 131.8498935 -15.25 125.80859375 C-15.229375 122.96234375 -15.20875 120.11609375 -15.1875 117.18359375 C-24.7575 117.18359375 -34.3275 117.18359375 -44.1875 117.18359375 C-44.16429687 121.39625 -44.14109375 125.60890625 -44.1171875 129.94921875 C-44.10432335 133.31060162 -44.09347853 136.67197751 -44.08399963 140.03337097 C-44.07344337 143.58040312 -44.0593391 147.12733952 -44.03662109 150.67431641 C-44.01071149 154.74512656 -44.00102262 158.81583547 -43.9921875 162.88671875 C-43.98186493 164.15662659 -43.97154236 165.42653442 -43.96090698 166.73492432 C-43.96068039 168.50630768 -43.96068039 168.50630768 -43.96044922 170.31347656 C-43.956008 171.35272278 -43.95156677 172.39196899 -43.94699097 173.46270752 C-44.19470151 176.26506461 -44.56881342 177.89014829 -46.1875 180.18359375 C-49.5625 181.18359375 -49.5625 181.18359375 -53.1875 181.18359375 C-56.05011409 179.07925644 -57.06897793 177.8820784 -57.66851807 174.34881592 C-57.65963562 173.25627502 -57.65075317 172.16373413 -57.64160156 171.03808594 C-57.64114838 169.17660919 -57.64114838 169.17660919 -57.64068604 167.27752686 C-57.62026115 165.92850093 -57.59939719 164.57948158 -57.578125 163.23046875 C-57.57066102 161.84613869 -57.56496883 160.46179803 -57.56097412 159.07745361 C-57.54572974 155.44070058 -57.50645952 151.8045905 -57.4621582 148.16809082 C-57.42117892 144.45459693 -57.40295751 140.74099876 -57.3828125 137.02734375 C-57.33996301 129.74580121 -57.27172754 122.4647877 -57.1875 115.18359375 C-57.86949463 115.06169678 -58.55148926 114.9397998 -59.25415039 114.81420898 C-60.15125732 114.64606689 -61.04836426 114.4779248 -61.97265625 114.3046875 C-62.86090088 114.14154053 -63.74914551 113.97839355 -64.66430664 113.81030273 C-69.32507609 112.65266411 -73.11381175 109.81848912 -76.1875 106.18359375 C-77.31972902 102.12580654 -77.49643486 98.30051208 -76.375 94.24609375 C-75.1875 92.18359375 -75.1875 92.18359375 -73.1875 90.18359375 C-72.88255321 87.30683526 -72.88255321 87.30683526 -72.93212891 83.88891602 C-72.92669823 82.92011757 -72.92669823 82.92011757 -72.92115784 81.93174744 C-72.91425611 80.52618893 -72.91175986 79.12060357 -72.91310501 77.71502876 C-72.91407065 75.48113624 -72.90111932 73.24772453 -72.88412476 71.01390076 C-72.83789665 64.66140611 -72.81329704 58.30895578 -72.80664062 51.95629883 C-72.8015866 48.0698932 -72.77712999 44.18398063 -72.74131393 40.29774284 C-72.73159327 38.82479775 -72.72914121 37.35178408 -72.73448563 35.8788166 C-72.78043934 22.57473941 -70.61731064 12.0280997 -61.1875 2.18359375 C-43.7357129 -14.30027911 -18.68028548 -15.51130848 0 0 Z " fill="#866512" transform="translate(93.1875,23.81640625)"/>
<path d="M0 0 C-2.97 0.99 -5.94 1.98 -9 3 C-10.62258125 17.97404594 -10.62258125 17.97404594 -5.0625 31.1875 C-3.71652547 32.46700665 -2.36404348 33.73977378 -1 35 C0.81301803 40.43905409 0.22737025 46.30861809 0.25 52 C0.270625 53.29679687 0.29125 54.59359375 0.3125 55.9296875 C0.32023437 57.78980469 0.32023437 57.78980469 0.328125 59.6875 C0.3374707 60.82574219 0.34681641 61.96398437 0.35644531 63.13671875 C0 66 0 66 -1.33691406 67.8671875 C-3.9792272 69.6670015 -5.89449835 69.44364309 -9 69 C-11.57855229 66.96907643 -12.84174464 65.76520151 -13.51416016 62.51391602 C-13.52237793 61.60311279 -13.5305957 60.69230957 -13.5390625 59.75390625 C-13.56226563 58.75166016 -13.58546875 57.74941406 -13.609375 56.71679688 C-13.61710937 55.15541992 -13.61710937 55.15541992 -13.625 53.5625 C-13.65062233 51.50118332 -13.68420328 49.43994692 -13.7265625 47.37890625 C-13.73252441 46.4669751 -13.73848633 45.55504395 -13.74462891 44.61547852 C-14.0227763 41.76672802 -14.82114689 39.59517514 -16 37 C-16.66 37 -17.32 37 -18 37 C-19.25390625 35.4609375 -19.25390625 35.4609375 -20.5625 33.375 C-20.99691406 32.70210937 -21.43132812 32.02921875 -21.87890625 31.3359375 C-24.55386132 25.76233774 -24.12463971 19.66629975 -24.0625 13.625 C-24.041875 10.77875 -24.02125 7.9325 -24 5 C-33.57 5 -43.14 5 -53 5 C-52.97679688 9.21265625 -52.95359375 13.4253125 -52.9296875 17.765625 C-52.91682335 21.12700787 -52.90597853 24.48838376 -52.89649963 27.84977722 C-52.88594337 31.39680937 -52.8718391 34.94374577 -52.84912109 38.49072266 C-52.82321149 42.56153281 -52.81352262 46.63224172 -52.8046875 50.703125 C-52.78920364 52.60798676 -52.78920364 52.60798676 -52.77340698 54.55133057 C-52.77325592 55.73225281 -52.77310486 56.91317505 -52.77294922 58.12988281 C-52.768508 59.16912903 -52.76406677 60.20837524 -52.75949097 61.27911377 C-53.00720151 64.08147086 -53.38131342 65.70655454 -55 68 C-58.375 69 -58.375 69 -62 69 C-64.86261409 66.89566269 -65.88147793 65.69848465 -66.48101807 62.16522217 C-66.47213562 61.07268127 -66.46325317 59.98014038 -66.45410156 58.85449219 C-66.45379944 57.61350769 -66.45349731 56.37252319 -66.45318604 55.09393311 C-66.43276115 53.74490718 -66.41189719 52.39588783 -66.390625 51.046875 C-66.38316102 49.66254494 -66.37746883 48.27820428 -66.37347412 46.89385986 C-66.35822974 43.25710683 -66.31895952 39.62099675 -66.2746582 35.98449707 C-66.23367892 32.27100318 -66.21545751 28.55740501 -66.1953125 24.84375 C-66.15246301 17.56220746 -66.08422754 10.28119395 -66 3 C-68.31 2.67 -70.62 2.34 -73 2 C-73 1.67 -73 1.34 -73 1 C-71.2984375 1.2165625 -71.2984375 1.2165625 -69.5625 1.4375 C-68.04241402 1.63096549 -66.52136853 1.81689324 -65 2 C-63.73542969 2.17402344 -62.47085938 2.34804687 -61.16796875 2.52734375 C-55.05407703 3.19967687 -48.93491147 3.14954924 -42.79052734 3.13037109 C-40.76782609 3.12504692 -38.74535046 3.1303256 -36.72265625 3.13671875 C-22.44380079 4.25702804 -22.44380079 4.25702804 -10 0 C-6.03636598 -0.94782553 -4.03247433 -1.00811858 0 0 Z " fill="#262625" transform="translate(102,136)"/>
<path d="M0 0 C0.33 0.66 0.66 1.32 1 2 C0.24778439 3.37216626 -0.56173914 4.71299602 -1.39331055 6.03857422 C-5.23753707 13.47772054 -4.72984295 21.22940234 -4.70703125 29.3828125 C-4.72016755 31.05005687 -4.73547766 32.71728539 -4.75285339 34.38449097 C-4.79249087 38.74101255 -4.80288 43.0971158 -4.80688477 47.45379639 C-4.81625659 51.91203328 -4.85369517 56.37002847 -4.88867188 60.828125 C-4.95303095 69.55208809 -4.98644851 78.27581063 -5 87 C-4.23558594 87.2990625 -3.47117187 87.598125 -2.68359375 87.90625 C-0 89 -0 89 2.9375 90.5 C21.08451987 98.01042629 50.75601452 96.85346367 69 90 C72.74257844 88.33370029 72.74257844 88.33370029 76 86 C77.04862445 82.68124515 77.04862445 82.68124515 76.88647461 78.84472656 C76.90263824 77.77583443 76.90263824 77.77583443 76.91912842 76.68534851 C76.94648167 74.33605024 76.92466181 71.98993259 76.90234375 69.640625 C76.91172847 68.00964364 76.92418604 66.37867731 76.93959045 64.7477417 C76.97183951 60.45992437 76.96236629 56.17317567 76.94421387 51.88531494 C76.93306214 47.50805937 76.96135322 43.13107841 76.98632812 38.75390625 C77.02949612 30.16904796 77.02859094 21.58491776 77 13 C77.33 13 77.66 13 78 13 C78.84687219 21.58636682 79.15820501 30.09389621 79.2109375 38.71875 C79.23896477 41.30469428 79.26762883 43.89063172 79.296875 46.4765625 C79.33834582 50.51009379 79.37637262 54.5434848 79.40136719 58.57714844 C79.42630048 62.49956927 79.47467949 66.42155115 79.5234375 70.34375 C79.52669037 71.5541394 79.52994324 72.76452881 79.53329468 74.01159668 C79.54986115 75.13376587 79.56642761 76.25593506 79.58349609 77.41210938 C79.59158295 78.39739624 79.5996698 79.38268311 79.60800171 80.39782715 C80.06337375 83.42068918 81.08732353 84.67062116 83 87 C84.03689678 90.99945902 84.25753726 93.2703111 82.875 97.1875 C80.10555586 101.34166621 78.10810152 103.55470583 73.078125 104.6171875 C70.93885291 104.94984943 68.79387827 105.24808869 66.64453125 105.5078125 C63.85356662 105.76924155 63.85356662 105.76924155 62 108 C44.45690503 110.83311 24.02258332 110.30134332 6.4375 107.75 C5.65431396 107.64075195 4.87112793 107.53150391 4.06420898 107.41894531 C-1.88932324 106.408906 -7.21903787 103.89892103 -11 99 C-12.13222902 94.94221279 -12.30893486 91.11691833 -11.1875 87.0625 C-10 85 -10 85 -8 83 C-7.69505321 80.12324151 -7.69505321 80.12324151 -7.74462891 76.70532227 C-7.73919823 75.73652382 -7.73919823 75.73652382 -7.73365784 74.74815369 C-7.72675611 73.34259518 -7.72425986 71.93700982 -7.72560501 70.53143501 C-7.72657065 68.29754249 -7.71361932 66.06413078 -7.69662476 63.83030701 C-7.65039665 57.47781236 -7.62579704 51.12536203 -7.61914062 44.77270508 C-7.6140866 40.88629945 -7.58962999 37.00038688 -7.55381393 33.11414909 C-7.54409327 31.641204 -7.54164121 30.16819033 -7.54698563 28.69522285 C-7.58354759 18.11015541 -6.84680433 8.53803738 0 0 Z " fill="#6E4A0F" transform="translate(28,31)"/>
<path d="M0 0 C1.87640009 0.23881456 3.75275851 0.47796099 5.62890625 0.71875 C7.23819691 0.90963785 8.85061597 1.07549048 10.46484375 1.21875 C11.26019531 1.2909375 12.05554688 1.363125 12.875 1.4375 C13.98488281 1.52837891 13.98488281 1.52837891 15.1171875 1.62109375 C17 2 17 2 19 4 C19.20927429 6.54957581 19.20927429 6.54957581 19.15112305 9.81079102 C19.13417892 11.02867813 19.1172348 12.24656525 19.09977722 13.50135803 C19.07078615 14.83554868 19.04142447 16.16973132 19.01171875 17.50390625 C18.98809036 18.86627451 18.96521707 20.22865606 18.94306946 21.59104919 C18.89451443 24.44684292 18.83914332 27.30239547 18.77856445 30.15795898 C18.70097176 33.82558819 18.63663376 37.49329675 18.57690716 41.16125584 C18.53027189 43.97421586 18.47848939 46.78706127 18.42493629 49.59989738 C18.39945499 50.95272613 18.37516198 52.30557777 18.3520565 53.65844917 C18.31869485 55.54526172 18.27806457 57.43194158 18.23706055 59.31860352 C18.20469551 60.93171165 18.20469551 60.93171165 18.17167664 62.57740784 C18 65 18 65 17 66 C10.53846154 66.35897436 10.53846154 66.35897436 7 64 C6.63923645 61.4057312 6.63923645 61.4057312 6.65942383 58.08154297 C6.65965042 56.84040741 6.65987701 55.59927185 6.66011047 54.32052612 C6.67543152 52.96107628 6.69107953 51.60163009 6.70703125 50.2421875 C6.71262573 48.8549953 6.71689653 47.46779717 6.71989441 46.08059692 C6.73135503 42.42750719 6.76083214 38.77477466 6.79400635 35.12182617 C6.82468133 31.39506869 6.83839421 27.66825355 6.85351562 23.94140625 C6.88570114 16.62744123 6.93691161 9.31377064 7 2 C4.69 1.67 2.38 1.34 0 1 C0 0.67 0 0.34 0 0 Z " fill="#2B2B2B" transform="translate(29,137)"/>
<path d="M0 0 C-4.455 1.485 -4.455 1.485 -9 3 C-9.19022643 6.50258187 -9.32823869 9.99471871 -9.4375 13.5 C-9.49615234 14.48226562 -9.55480469 15.46453125 -9.61523438 16.4765625 C-9.74785806 22.1604345 -9.28967585 25.35644188 -5.47265625 29.71875 C-4.34042504 30.83869124 -3.19096385 31.94272946 -2 33 C-2.33 33.66 -2.66 34.32 -3 35 C-4.13125022 33.92319498 -5.25474919 32.83824365 -6.375 31.75 C-7.00148438 31.14671875 -7.62796875 30.5434375 -8.2734375 29.921875 C-11.43914911 26.39805122 -12.25366886 23.57363774 -12.265625 18.8671875 C-12.26820312 17.89652344 -12.27078125 16.92585938 -12.2734375 15.92578125 C-12.26570313 14.91902344 -12.25796875 13.91226563 -12.25 12.875 C-12.25773437 11.86050781 -12.26546875 10.84601563 -12.2734375 9.80078125 C-12.27085938 8.83269531 -12.26828125 7.86460937 -12.265625 6.8671875 C-12.26336914 5.98144043 -12.26111328 5.09569336 -12.25878906 4.18310547 C-12 2 -12 2 -10 0 C-6.03636598 -0.94782553 -4.03247433 -1.00811858 0 0 Z " fill="#19160F" transform="translate(102,136)"/>
</svg>
