<?xml version="1.0" standalone="no"?>
<!DOCTYPE svg PUBLIC "-//W3C//DTD SVG 20010904//EN"
 "http://www.w3.org/TR/2001/REC-SVG-20010904/DTD/svg10.dtd">
<svg version="1.0" xmlns="http://www.w3.org/2000/svg"
 width="431.000000pt" height="364.000000pt" viewBox="0 0 431.000000 364.000000"
 preserveAspectRatio="xMidYMid meet">

<g transform="translate(0.000000,364.000000) scale(0.100000,-0.100000)"
fill="#000000" stroke="none">
<path d="M1940 3590 c0 -6 78 -10 205 -10 127 0 205 4 205 10 0 6 -78 10 -205
10 -127 0 -205 -4 -205 -10z"/>
<path d="M2360 3551 c0 -20 -6 -31 -17 -34 -14 -4 -12 -5 5 -6 19 -1 22 4 22
34 0 19 -2 35 -5 35 -3 0 -5 -13 -5 -29z"/>
<path d="M2120 3562 c0 -4 9 -13 20 -20 16 -10 25 -10 43 -1 12 7 23 12 25 11
9 -7 52 0 52 8 0 6 -30 10 -70 10 -38 0 -70 -3 -70 -8z"/>
<path d="M1202 3503 c70 -2 187 -2 260 0 73 1 16 3 -127 3 -143 0 -203 -2
-133 -3z"/>
<path d="M532 2957 l-533 -533 3 -1114 c3 -1094 3 -1116 23 -1150 l20 -35 3
147 3 148 34 0 35 0 0 -184 c0 -105 4 -187 9 -191 6 -3 11 109 13 293 l3 299
30 48 c82 132 277 125 353 -12 22 -40 22 -50 25 -350 2 -266 4 -308 17 -308
13 0 15 30 18 202 l2 203 38 0 37 0 0 -200 c0 -125 4 -201 10 -202 6 -2 11 71
13 200 l2 202 35 0 35 0 0 -199 c0 -123 4 -202 10 -206 7 -4 10 65 10 199 l0
206 40 0 40 0 0 -200 c0 -127 4 -200 10 -200 6 0 10 73 10 200 l0 200 38 0 37
0 0 -202 c0 -196 1 -203 20 -203 19 0 20 8 25 315 4 268 7 319 22 345 64 117
223 140 321 47 61 -58 62 -60 67 -395 3 -192 9 -308 15 -310 6 -1 11 72 13
200 l2 203 40 0 40 0 0 -206 c0 -134 3 -203 10 -199 6 4 10 83 10 206 l0 199
35 0 35 0 2 -200 c4 -269 22 -269 26 0 l2 200 35 0 35 0 0 -199 c0 -123 4
-202 10 -206 7 -4 10 65 10 199 l0 206 40 0 40 0 0 -206 c0 -134 3 -203 10
-199 6 4 10 83 10 206 l0 199 35 0 35 0 2 -203 c3 -172 5 -202 18 -202 13 0
16 43 20 311 l5 311 30 48 c20 32 45 57 75 73 93 49 221 13 275 -78 19 -33 20
-56 25 -350 4 -271 7 -315 20 -315 13 0 15 30 18 202 l2 203 35 0 35 0 0 -199
c0 -123 4 -202 10 -206 7 -4 10 65 10 199 l0 206 40 0 40 0 0 -206 c0 -134 3
-203 10 -199 6 4 10 83 10 206 l0 199 38 0 37 0 0 -203 c0 -128 4 -202 10
-202 6 0 11 76 13 203 l2 202 35 0 35 0 0 -199 c0 -123 4 -202 10 -206 7 -4
10 65 10 199 l0 206 40 0 40 0 2 -203 c3 -172 5 -202 18 -202 13 0 16 44 20
315 4 268 7 319 22 345 64 117 223 140 321 47 61 -58 62 -59 67 -397 4 -267 7
-310 20 -310 13 0 15 29 15 203 l0 202 38 0 37 0 0 -199 c0 -123 4 -202 10
-206 7 -4 10 65 10 199 l0 206 40 0 40 0 0 -206 c0 -134 3 -203 10 -199 6 4
10 83 10 206 l0 199 35 0 35 0 2 -202 c2 -131 7 -201 13 -198 6 3 10 81 10
203 l0 197 37 0 38 0 2 -202 c3 -173 5 -203 18 -203 13 0 16 43 20 310 5 298
6 312 28 352 74 139 290 134 362 -7 19 -37 20 -59 20 -335 0 -209 3 -296 11
-293 7 2 10 64 9 191 l-1 187 40 0 40 0 3 -148 c3 -138 4 -145 18 -117 13 26
15 227 18 1590 2 1175 -1 1567 -9 1590 -7 17 -23 45 -37 64 l-25 33 -233 -233
-234 -234 0 265 0 265 -265 -265 -265 -265 0 263 c0 144 -3 262 -8 262 -4 0
-242 -235 -530 -523 -400 -400 -520 -525 -511 -534 7 -7 12 -40 13 -75 1 -58
-1 -63 -21 -66 -12 -2 -24 -11 -26 -20 -10 -45 -18 85 -8 135 6 31 11 114 11
184 l0 128 98 4 c53 1 9 4 -98 5 -181 2 -199 4 -245 26 -58 27 -78 47 -100 99
-37 89 -6 197 73 252 41 28 50 30 158 33 l114 4 0 176 0 177 -535 -535 -535
-535 -2 533 -3 532 -533 -533z m3588 -510 c0 -1 -70 -72 -155 -157 l-155 -155
0 158 0 157 155 0 c85 0 155 -1 155 -3z m-2606 -38 c3 -17 6 -51 6 -75 0 -42
-1 -44 -30 -44 l-30 0 0 68 c0 73 3 82 30 82 12 0 20 -11 24 -31z m330 0 c3
-17 6 -51 6 -75 0 -42 -1 -44 -30 -44 l-30 0 0 68 c0 73 3 82 30 82 12 0 20
-11 24 -31z m670 0 c3 -17 6 -51 6 -75 0 -40 -2 -44 -24 -44 -15 0 -26 -7 -29
-17 -3 -10 -5 21 -6 68 -1 90 2 99 29 99 12 0 20 -11 24 -31z m330 0 c3 -17 6
-51 6 -75 0 -42 -1 -44 -30 -44 l-30 0 0 68 c0 73 3 82 30 82 12 0 20 -11 24
-31z m-1330 -332 c3 -12 6 -43 6 -69 0 -44 -2 -48 -24 -48 -15 0 -26 -7 -29
-17 -3 -10 -5 21 -6 68 0 47 2 88 5 91 11 12 42 -5 48 -25z m1000 0 c3 -12 6
-43 6 -69 0 -44 -2 -48 -24 -48 -15 0 -26 -7 -29 -17 -3 -10 -5 21 -6 68 0 47
2 88 5 91 11 12 42 -5 48 -25z m-670 1 c3 -13 6 -44 6 -69 0 -44 -2 -47 -30
-51 l-30 -5 0 67 c0 37 3 70 7 73 14 15 41 6 47 -15z m340 -9 c3 -17 6 -49 6
-70 0 -35 -3 -39 -25 -39 -17 0 -25 -6 -26 -17 -1 -33 -18 19 -18 58 -2 68 9
99 34 99 17 0 24 -7 29 -31z m660 9 c3 -13 6 -44 6 -69 0 -44 -2 -47 -30 -51
l-30 -5 0 67 c0 37 3 70 7 73 14 15 41 6 47 -15z m-2138 -12 c8 -3 12 -10 9
-16 -3 -5 1 -10 9 -10 14 0 16 -31 16 -259 l0 -259 -22 -5 c-33 -8 -437 -9
-475 -1 l-33 7 0 258 c0 224 2 259 15 259 8 0 15 6 15 14 0 9 12 16 28 18 46
5 422 0 438 -6z m3350 -10 c6 -9 16 -16 23 -16 8 0 11 -72 11 -260 0 -241 -1
-260 -17 -260 -117 -1 -466 -2 -490 -1 l-33 1 0 260 c0 224 2 260 15 260 8 0
15 6 15 14 0 20 22 21 260 19 173 -1 206 -4 216 -17z m-3912 -258 c14 -23 -3
-52 -33 -56 -42 -6 -67 38 -39 66 17 17 58 11 72 -10z m4086 7 c10 -12 10 -21
2 -40 -19 -40 -82 -29 -82 15 0 37 55 55 80 25z m-2716 -66 c3 -17 6 -51 6
-75 0 -42 -1 -44 -24 -38 -20 5 -25 1 -29 -18 -2 -12 -5 19 -6 70 -1 91 -1 92
23 92 18 0 25 -7 30 -31z m330 9 c3 -13 6 -45 6 -73 0 -49 -1 -50 -30 -51
l-30 -1 0 67 c0 37 3 70 7 73 14 15 41 6 47 -15z m337 -5 c5 -15 9 -47 7 -72
-3 -41 -6 -46 -25 -43 -16 2 -22 -3 -25 -20 -8 -43 -21 70 -14 117 6 36 11 45
27 45 12 0 23 -10 30 -27z m333 -4 c3 -17 6 -51 6 -75 0 -42 -1 -44 -24 -38
-18 4 -25 1 -29 -13 -3 -10 -5 21 -6 70 -1 85 -1 87 23 87 18 0 25 -7 30 -31z
m330 9 c3 -13 6 -45 6 -73 0 -49 -1 -50 -30 -51 l-30 -1 0 67 c0 37 3 70 7 73
14 15 41 6 47 -15z m-2364 -453 l0 -155 -157 0 -158 0 155 155 c85 85 156 155
157 155 2 0 3 -70 3 -155z m1034 114 c3 -17 6 -51 6 -75 0 -40 -2 -44 -24 -44
-15 0 -26 -7 -29 -17 -3 -10 -5 21 -6 68 -1 90 2 99 29 99 12 0 20 -11 24 -31z
m330 0 c3 -17 6 -51 6 -75 0 -42 -1 -44 -30 -44 l-30 0 0 68 c0 73 3 82 30 82
12 0 20 -11 24 -31z m338 -7 c5 -19 8 -50 6 -70 -2 -29 -8 -38 -25 -40 -12 -2
-24 -11 -26 -20 -8 -34 -19 79 -12 124 5 39 9 45 28 42 14 -2 24 -14 29 -36z
m332 7 c3 -17 6 -51 6 -75 0 -40 -2 -44 -24 -44 -15 0 -26 -7 -29 -17 -3 -10
-5 21 -6 68 -1 90 2 99 29 99 12 0 20 -11 24 -31z m330 0 c3 -17 6 -51 6 -75
0 -42 -1 -44 -30 -44 l-30 0 0 68 c0 73 3 82 30 82 12 0 20 -11 24 -31z
m-1330 -332 c3 -12 6 -43 6 -69 0 -44 -2 -48 -24 -48 -15 0 -26 -7 -29 -17 -3
-10 -5 21 -6 68 0 47 2 88 5 91 11 12 42 -5 48 -25z m1000 0 c3 -12 6 -43 6
-69 0 -44 -2 -48 -24 -48 -15 0 -26 -7 -29 -17 -3 -10 -5 21 -6 68 0 47 2 88
5 91 11 12 42 -5 48 -25z m-670 1 c3 -13 6 -44 6 -69 0 -44 -2 -47 -30 -51
l-30 -5 0 67 c0 37 3 70 7 73 14 15 41 6 47 -15z m340 -9 c3 -17 6 -49 6 -70
0 -35 -3 -39 -25 -39 -17 0 -25 -6 -26 -17 -1 -33 -18 19 -18 58 -2 68 9 99
34 99 17 0 24 -7 29 -31z m660 9 c3 -13 6 -44 6 -69 0 -44 -2 -47 -30 -51
l-30 -5 0 67 c0 37 3 70 7 73 14 15 41 6 47 -15z"/>
<path d="M3850 2405 c-10 -12 -10 -19 -2 -27 8 -8 9 -15 1 -25 -16 -18 6 -43
37 -43 22 0 24 4 24 55 0 51 -2 55 -24 55 -13 0 -29 -7 -36 -15z m50 -21 c0
-8 -9 -14 -20 -14 -22 0 -28 26 -7 33 16 6 27 -1 27 -19z m0 -44 c0 -21 -24
-28 -35 -10 -8 14 3 30 21 30 8 0 14 -9 14 -20z"/>
<path d="M420 1898 c-135 -70 -80 -261 77 -261 54 0 90 24 120 81 17 35 19 49
12 77 -13 45 -54 90 -101 109 -49 21 -56 20 -108 -6z"/>
<path d="M3765 1902 c-97 -45 -111 -157 -29 -231 38 -35 68 -46 127 -44 79 2
146 130 107 203 -15 29 -91 78 -131 84 -23 4 -47 0 -74 -12z"/>
<path d="M360 1284 c0 -11 34 -94 39 -94 4 0 14 22 23 48 l15 48 -39 -1 c-21
0 -38 0 -38 -1z m50 -38 c0 -24 -17 -28 -23 -6 -3 13 0 20 9 20 8 0 14 -6 14
-14z"/>
<path d="M1995 3061 c-33 -4 -70 -12 -82 -19 -49 -27 -68 -114 -39 -171 30
-58 45 -61 277 -61 l211 0 39 39 c33 33 39 45 39 81 0 23 -7 54 -16 70 -31 52
-58 60 -220 63 -82 2 -176 1 -209 -2z m13 -100 c8 -4 12 -19 10 -32 -2 -19 -9
-24 -32 -24 -36 0 -56 26 -37 49 15 18 39 20 59 7z m341 -10 c14 -26 -8 -54
-39 -49 -25 3 -36 27 -26 54 8 20 53 17 65 -5z"/>
<path d="M2455 2790 c-16 -17 -50 -37 -75 -45 -25 -7 -37 -14 -27 -14 30 -1
80 25 111 58 17 17 27 31 25 31 -3 0 -18 -14 -34 -30z"/>
<path d="M3803 300 c-45 -18 -55 -72 -22 -114 28 -36 64 -34 100 5 l29 31 0
-26 c0 -14 5 -26 10 -26 6 0 10 21 10 48 l0 47 28 -50 c15 -27 32 -50 37 -50
6 0 11 30 13 68 3 76 -15 95 -20 20 l-3 -48 -25 48 c-29 55 -50 61 -50 14 0
-32 -1 -33 -35 -29 -27 3 -35 1 -35 -12 0 -9 7 -16 16 -16 8 0 12 -4 9 -10
-10 -16 -61 -12 -75 6 -32 38 27 95 66 63 22 -18 30 -2 9 21 -20 22 -29 23
-62 10z"/>
<path d="M310 281 c-16 -32 -12 -86 9 -105 14 -13 24 -14 45 -7 23 9 26 16 26
55 0 24 -3 51 -6 60 -9 23 -61 21 -74 -3z m58 -49 c3 -40 2 -43 -20 -40 -17 2
-24 11 -26 31 -5 39 5 59 25 55 13 -2 19 -15 21 -46z"/>
<path d="M1200 290 c0 -5 -7 -10 -15 -10 -8 0 -15 -4 -15 -10 0 -5 7 -10 15
-10 11 0 15 -12 15 -45 0 -25 5 -45 10 -45 6 0 10 28 10 65 0 37 -4 65 -10 65
-5 0 -10 -4 -10 -10z"/>
<path d="M2116 284 c-4 -9 -3 -20 0 -23 4 -3 9 0 11 7 6 16 43 16 43 -1 0 -7
-13 -23 -30 -35 -16 -13 -30 -31 -30 -42 0 -17 7 -20 40 -20 22 0 40 5 40 10
0 6 -15 10 -32 10 l-33 1 33 27 c45 37 42 75 -4 80 -22 2 -33 -2 -38 -14z"/>
<path d="M3004 285 c-8 -21 5 -34 16 -16 4 8 15 11 24 8 20 -8 21 -27 1 -27
-8 0 -15 -5 -15 -10 0 -6 7 -13 15 -16 20 -8 19 -34 -1 -34 -9 0 -23 8 -30 18
-13 16 -13 16 -14 -4 0 -23 18 -44 37 -44 19 0 55 39 47 52 -4 6 -7 27 -8 47
-1 33 -4 36 -34 39 -22 2 -34 -2 -38 -13z"/>
<path d="M3113 238 c12 -34 27 -63 32 -65 6 -2 20 26 32 62 17 53 18 65 7 65
-8 0 -14 -6 -14 -14 0 -7 -6 -28 -14 -46 l-13 -32 -14 46 c-7 25 -19 46 -26
46 -9 0 -6 -17 10 -62z"/>
<path d="M4022 233 l3 -68 35 3 c63 5 90 59 54 110 -11 16 -25 22 -55 22 l-40
0 3 -67z m69 37 c36 -20 18 -80 -23 -80 -15 0 -18 8 -18 45 0 46 7 53 41 35z"/>
</g>
</svg>
