<?xml version="1.0" encoding="UTF-8"?>
<svg version="1.1" xmlns="http://www.w3.org/2000/svg" width="527" height="207">
<path d="M0 0 C1.8526764 -0.00186947 3.70535242 -0.00417072 5.5580278 -0.00686532 C10.63769867 -0.01297268 15.71735305 -0.01285099 20.79702675 -0.01167095 C26.27973122 -0.01146668 31.76243043 -0.01698815 37.24513245 -0.02172852 C47.98156738 -0.03002932 58.71799681 -0.03278308 69.45443469 -0.03334089 C78.18077568 -0.03381623 86.90711486 -0.03587188 95.63345528 -0.03904152 C116.3513955 -0.04641365 137.06933453 -0.05256653 157.78727627 -0.05204296 C158.4494342 -0.05202738 159.11159213 -0.0520118 159.79381545 -0.05199575 C163.14974901 -0.05191265 166.50568257 -0.05181361 169.86161613 -0.05171105 C170.52809301 -0.0516911 171.19456988 -0.05167115 171.88124303 -0.05165061 C173.22901987 -0.05161017 174.57679672 -0.05156837 175.92457356 -0.05152521 C196.89829543 -0.05091233 217.87200114 -0.0584225 238.84571838 -0.07209778 C262.42000469 -0.08746241 285.99428325 -0.09605114 309.56857544 -0.09513456 C322.04707166 -0.09480248 334.52554964 -0.09755418 347.00404167 -0.10831261 C357.62605771 -0.11741186 368.24804725 -0.1195975 378.8700655 -0.11280318 C384.28897349 -0.10953536 389.70783061 -0.10949087 395.12673378 -0.11815643 C400.08914657 -0.12601042 405.05146806 -0.12460123 410.01387859 -0.1158723 C411.80718115 -0.11433492 413.60049048 -0.11616244 415.39378505 -0.12173238 C438.14787107 -0.18771463 438.14787107 -0.18771463 442.88966268 3.75579387 C447.45893884 8.54716844 448.0614064 13.12358877 448.07293701 19.61645508 C448.077202 20.70560715 448.08146698 21.79475922 448.08586121 22.91691589 C448.08540802 24.10196716 448.08495483 25.28701843 448.08448792 26.50798035 C448.08952583 28.39174629 448.08952583 28.39174629 448.09466553 30.31356812 C448.10348327 33.75172095 448.10584272 37.18984889 448.10648131 40.62801194 C448.10719316 42.77876114 448.10933006 44.92950406 448.11197853 47.08025169 C448.12122511 54.59132157 448.12531434 62.10237372 448.12452698 69.6134491 C448.12392661 76.60198859 448.13447222 83.59045079 448.15027064 90.57897073 C448.16337101 96.5893416 448.16870982 102.59968729 448.16807157 108.61007231 C448.16781728 112.19515209 448.17062989 115.78016317 448.18124962 119.36522865 C448.19278128 123.36729287 448.18816852 127.36918529 448.18214417 131.3712616 C448.18776367 132.55024017 448.19338318 133.72921875 448.19917297 134.94392395 C448.14363483 149.47711539 448.14363483 149.47711539 443.50172424 155.07121277 C439.17329349 158.55507167 435.18099759 158.28528308 429.87179565 158.29193115 C429.04027125 158.29686913 428.20874685 158.30180711 427.35202473 158.30689472 C424.55597936 158.32229564 421.75995699 158.33063737 418.96388245 158.33903503 C416.9634633 158.34861152 414.96304619 158.35862146 412.96263123 158.36903381 C407.5229127 158.39611382 402.08318547 158.41710662 396.64343667 158.4370358 C390.9619209 158.45887626 385.28043205 158.48627443 379.59893799 158.51309204 C368.83614015 158.56304519 358.07332739 158.60797429 347.31050032 158.6511144 C335.05913458 158.70046438 322.80779584 158.75539081 310.55645621 158.810794 C285.35073741 158.92465429 260.14499271 159.03148451 234.93922424 159.13371277 C234.27922424 162.76371277 233.61922424 166.39371277 232.93922424 170.13371277 C231.94922424 170.46371277 230.95922424 170.79371277 229.93922424 171.13371277 C229.93922424 173.44371277 229.93922424 175.75371277 229.93922424 178.13371277 C228.94922424 178.46371277 227.95922424 178.79371277 226.93922424 179.13371277 C226.95984924 180.24746277 226.98047424 181.36121277 227.00172424 182.50871277 C226.93922424 186.13371277 226.93922424 186.13371277 225.93922424 188.13371277 C223.93967678 188.17625633 221.93880788 188.1745206 219.93922424 188.13371277 C218.93922424 187.13371277 218.93922424 187.13371277 218.84156799 185.28605652 C218.87412008 183.23527527 218.90667216 181.18449402 218.93922424 179.13371277 C217.94922424 178.80371277 216.95922424 178.47371277 215.93922424 178.13371277 C215.02516174 176.32121277 215.02516174 176.32121277 214.31422424 174.13371277 C213.52807291 171.39102006 213.52807291 171.39102006 211.93922424 169.13371277 C211.47911174 165.81067802 211.23541213 162.47640459 210.93922424 159.13371277 C207.30922424 158.80371277 203.67922424 158.47371277 199.93922424 158.13371277 C199.98047424 159.72183777 200.02172424 161.30996277 200.06422424 162.94621277 C200.16403977 166.78911067 200.14836425 167.82000276 197.93922424 171.13371277 C197.27922424 171.13371277 196.61922424 171.13371277 195.93922424 171.13371277 C195.93922424 173.44371277 195.93922424 175.75371277 195.93922424 178.13371277 C194.94922424 178.46371277 193.95922424 178.79371277 192.93922424 179.13371277 C192.95984924 180.24746277 192.98047424 181.36121277 193.00172424 182.50871277 C192.93922424 186.13371277 192.93922424 186.13371277 191.93922424 188.13371277 C189.93967678 188.17625633 187.93880788 188.1745206 185.93922424 188.13371277 C184.93922424 187.13371277 184.93922424 187.13371277 184.84156799 185.28605652 C184.87412008 183.23527527 184.90667216 181.18449402 184.93922424 179.13371277 C183.94922424 178.80371277 182.95922424 178.47371277 181.93922424 178.13371277 C181.93922424 175.82371277 181.93922424 173.51371277 181.93922424 171.13371277 C181.29469299 170.90941589 180.65016174 170.68511902 179.98609924 170.45402527 C177.93922424 169.13371277 177.93922424 169.13371277 177.32984924 166.75090027 C177.28344299 165.84597839 177.23703674 164.94105652 177.18922424 164.00871277 C177.13250549 163.09863464 177.07578674 162.18855652 177.01734924 161.25090027 C176.97867737 160.20289246 176.97867737 160.20289246 176.93922424 159.13371277 C175.3704783 159.13151293 175.3704783 159.13151293 173.77004051 159.12926865 C148.33168193 159.09268613 122.89345513 159.0332529 97.45520592 158.94981003 C85.15348972 158.90998771 72.8518378 158.87761141 60.55006409 158.86271667 C49.82879517 158.84971674 39.10766746 158.82279443 28.38647807 158.7790997 C22.70880125 158.75644769 17.03129886 158.74080434 11.35357285 158.74182892 C6.0101415 158.74257331 0.66709627 158.72471109 -4.6762352 158.69254494 C-6.63779185 158.68402235 -8.59939169 158.68231195 -10.56095886 158.68791008 C-13.23929842 158.69453598 -15.91640441 158.67666351 -18.59461975 158.6526947 C-19.37089615 158.66045512 -20.14717256 158.66821554 -20.94697249 158.67621112 C-26.11862042 158.59427608 -29.11351679 157.46382971 -33.06077576 154.13371277 C-36.72471758 147.33493587 -36.49303025 140.642496 -36.46482849 133.05168152 C-36.47169174 131.75638519 -36.47855499 130.46108887 -36.48562622 129.12654114 C-36.50348399 125.59345994 -36.50240355 122.06062809 -36.49668384 118.52751541 C-36.49358184 115.57030946 -36.49969549 112.61315071 -36.50572258 109.6559515 C-36.51974137 102.67681853 -36.5182281 95.69780804 -36.50682068 88.71867371 C-36.49533635 81.53399028 -36.50942619 74.34968001 -36.53621715 67.16504574 C-36.55840993 60.98049522 -36.56500367 54.79606153 -36.55914074 48.61147404 C-36.55577916 44.92465329 -36.5581329 41.2380718 -36.57539177 37.55128479 C-36.59380393 33.4391992 -36.57963724 29.32783507 -36.56248474 25.21574402 C-36.57215271 24.00407562 -36.58182068 22.79240723 -36.59178162 21.54402161 C-36.53122897 14.6050537 -35.81590969 10.02579243 -32.06077576 4.13371277 C-24.52755948 -2.53856451 -9.55647082 -0.00913055 0 0 Z " fill="#C4CED1" transform="translate(60.06077575683594,7.8662872314453125)"/>
<path d="M0 0 C1.8526764 -0.00186947 3.70535242 -0.00417072 5.5580278 -0.00686532 C10.63769867 -0.01297268 15.71735305 -0.01285099 20.79702675 -0.01167095 C26.27973122 -0.01146668 31.76243043 -0.01698815 37.24513245 -0.02172852 C47.98156738 -0.03002932 58.71799681 -0.03278308 69.45443469 -0.03334089 C78.18077568 -0.03381623 86.90711486 -0.03587188 95.63345528 -0.03904152 C116.3513955 -0.04641365 137.06933453 -0.05256653 157.78727627 -0.05204296 C158.4494342 -0.05202738 159.11159213 -0.0520118 159.79381545 -0.05199575 C163.14974901 -0.05191265 166.50568257 -0.05181361 169.86161613 -0.05171105 C170.52809301 -0.0516911 171.19456988 -0.05167115 171.88124303 -0.05165061 C173.22901987 -0.05161017 174.57679672 -0.05156837 175.92457356 -0.05152521 C196.89829543 -0.05091233 217.87200114 -0.0584225 238.84571838 -0.07209778 C262.42000469 -0.08746241 285.99428325 -0.09605114 309.56857544 -0.09513456 C322.04707166 -0.09480248 334.52554964 -0.09755418 347.00404167 -0.10831261 C357.62605771 -0.11741186 368.24804725 -0.1195975 378.8700655 -0.11280318 C384.28897349 -0.10953536 389.70783061 -0.10949087 395.12673378 -0.11815643 C400.08914657 -0.12601042 405.05146806 -0.12460123 410.01387859 -0.1158723 C411.80718115 -0.11433492 413.60049048 -0.11616244 415.39378505 -0.12173238 C438.14787107 -0.18771463 438.14787107 -0.18771463 442.88966268 3.75579387 C447.45893884 8.54716844 448.0614064 13.12358877 448.07293701 19.61645508 C448.077202 20.70560715 448.08146698 21.79475922 448.08586121 22.91691589 C448.08540802 24.10196716 448.08495483 25.28701843 448.08448792 26.50798035 C448.08952583 28.39174629 448.08952583 28.39174629 448.09466553 30.31356812 C448.10348327 33.75172095 448.10584272 37.18984889 448.10648131 40.62801194 C448.10719316 42.77876114 448.10933006 44.92950406 448.11197853 47.08025169 C448.12122511 54.59132157 448.12531434 62.10237372 448.12452698 69.6134491 C448.12392661 76.60198859 448.13447222 83.59045079 448.15027064 90.57897073 C448.16337101 96.5893416 448.16870982 102.59968729 448.16807157 108.61007231 C448.16781728 112.19515209 448.17062989 115.78016317 448.18124962 119.36522865 C448.19278128 123.36729287 448.18816852 127.36918529 448.18214417 131.3712616 C448.18776367 132.55024017 448.19338318 133.72921875 448.19917297 134.94392395 C448.14363483 149.47711539 448.14363483 149.47711539 443.50172424 155.07121277 C439.17329349 158.55507167 435.18099759 158.28528308 429.87179565 158.29193115 C429.04027125 158.29686913 428.20874685 158.30180711 427.35202473 158.30689472 C424.55597936 158.32229564 421.75995699 158.33063737 418.96388245 158.33903503 C416.9634633 158.34861152 414.96304619 158.35862146 412.96263123 158.36903381 C407.5229127 158.39611382 402.08318547 158.41710662 396.64343667 158.4370358 C390.9619209 158.45887626 385.28043205 158.48627443 379.59893799 158.51309204 C368.83614015 158.56304519 358.07332739 158.60797429 347.31050032 158.6511144 C335.05913458 158.70046438 322.80779584 158.75539081 310.55645621 158.810794 C285.35073741 158.92465429 260.14499271 159.03148451 234.93922424 159.13371277 C234.27922424 162.76371277 233.61922424 166.39371277 232.93922424 170.13371277 C231.94922424 170.46371277 230.95922424 170.79371277 229.93922424 171.13371277 C229.93922424 173.44371277 229.93922424 175.75371277 229.93922424 178.13371277 C228.94922424 178.46371277 227.95922424 178.79371277 226.93922424 179.13371277 C226.95984924 180.24746277 226.98047424 181.36121277 227.00172424 182.50871277 C226.93922424 186.13371277 226.93922424 186.13371277 225.93922424 188.13371277 C223.93967678 188.17625633 221.93880788 188.1745206 219.93922424 188.13371277 C218.93922424 187.13371277 218.93922424 187.13371277 218.84156799 185.28605652 C218.87412008 183.23527527 218.90667216 181.18449402 218.93922424 179.13371277 C217.94922424 178.80371277 216.95922424 178.47371277 215.93922424 178.13371277 C215.02516174 176.32121277 215.02516174 176.32121277 214.31422424 174.13371277 C213.52807291 171.39102006 213.52807291 171.39102006 211.93922424 169.13371277 C211.47911174 165.81067802 211.23541213 162.47640459 210.93922424 159.13371277 C207.30922424 158.80371277 203.67922424 158.47371277 199.93922424 158.13371277 C199.98047424 159.72183777 200.02172424 161.30996277 200.06422424 162.94621277 C200.16403977 166.78911067 200.14836425 167.82000276 197.93922424 171.13371277 C197.27922424 171.13371277 196.61922424 171.13371277 195.93922424 171.13371277 C195.93922424 173.44371277 195.93922424 175.75371277 195.93922424 178.13371277 C194.94922424 178.46371277 193.95922424 178.79371277 192.93922424 179.13371277 C192.95984924 180.24746277 192.98047424 181.36121277 193.00172424 182.50871277 C192.93922424 186.13371277 192.93922424 186.13371277 191.93922424 188.13371277 C189.93967678 188.17625633 187.93880788 188.1745206 185.93922424 188.13371277 C184.93922424 187.13371277 184.93922424 187.13371277 184.84156799 185.28605652 C184.87412008 183.23527527 184.90667216 181.18449402 184.93922424 179.13371277 C183.94922424 178.80371277 182.95922424 178.47371277 181.93922424 178.13371277 C181.93922424 175.82371277 181.93922424 173.51371277 181.93922424 171.13371277 C181.29469299 170.90941589 180.65016174 170.68511902 179.98609924 170.45402527 C177.93922424 169.13371277 177.93922424 169.13371277 177.32984924 166.75090027 C177.28344299 165.84597839 177.23703674 164.94105652 177.18922424 164.00871277 C177.13250549 163.09863464 177.07578674 162.18855652 177.01734924 161.25090027 C176.97867737 160.20289246 176.97867737 160.20289246 176.93922424 159.13371277 C175.3704783 159.13151293 175.3704783 159.13151293 173.77004051 159.12926865 C148.33168193 159.09268613 122.89345513 159.0332529 97.45520592 158.94981003 C85.15348972 158.90998771 72.8518378 158.87761141 60.55006409 158.86271667 C49.82879517 158.84971674 39.10766746 158.82279443 28.38647807 158.7790997 C22.70880125 158.75644769 17.03129886 158.74080434 11.35357285 158.74182892 C6.0101415 158.74257331 0.66709627 158.72471109 -4.6762352 158.69254494 C-6.63779185 158.68402235 -8.59939169 158.68231195 -10.56095886 158.68791008 C-13.23929842 158.69453598 -15.91640441 158.67666351 -18.59461975 158.6526947 C-19.37089615 158.66045512 -20.14717256 158.66821554 -20.94697249 158.67621112 C-26.11862042 158.59427608 -29.11351679 157.46382971 -33.06077576 154.13371277 C-36.72471758 147.33493587 -36.49303025 140.642496 -36.46482849 133.05168152 C-36.47169174 131.75638519 -36.47855499 130.46108887 -36.48562622 129.12654114 C-36.50348399 125.59345994 -36.50240355 122.06062809 -36.49668384 118.52751541 C-36.49358184 115.57030946 -36.49969549 112.61315071 -36.50572258 109.6559515 C-36.51974137 102.67681853 -36.5182281 95.69780804 -36.50682068 88.71867371 C-36.49533635 81.53399028 -36.50942619 74.34968001 -36.53621715 67.16504574 C-36.55840993 60.98049522 -36.56500367 54.79606153 -36.55914074 48.61147404 C-36.55577916 44.92465329 -36.5581329 41.2380718 -36.57539177 37.55128479 C-36.59380393 33.4391992 -36.57963724 29.32783507 -36.56248474 25.21574402 C-36.57215271 24.00407562 -36.58182068 22.79240723 -36.59178162 21.54402161 C-36.53122897 14.6050537 -35.81590969 10.02579243 -32.06077576 4.13371277 C-24.52755948 -2.53856451 -9.55647082 -0.00913055 0 0 Z M-12.06077576 25.13371277 C-12.06077576 61.10371277 -12.06077576 97.07371277 -12.06077576 134.13371277 C116.96922424 134.13371277 245.99922424 134.13371277 378.93922424 134.13371277 C378.93922424 98.16371277 378.93922424 62.19371277 378.93922424 25.13371277 C249.90922424 25.13371277 120.87922424 25.13371277 -12.06077576 25.13371277 Z " fill="#F1AD16" transform="translate(60.06077575683594,7.8662872314453125)"/>
<path d="M0 0 C0.6775925 -0.00175304 1.355185 -0.00350607 2.0533106 -0.00531223 C4.35232027 -0.0100105 6.65126775 -0.007497 8.95028019 -0.00507832 C10.60376334 -0.00694437 12.25724604 -0.00924424 13.91072804 -0.01194364 C18.47664356 -0.01809351 23.04254087 -0.01792432 27.60845959 -0.01674926 C32.52400284 -0.01654606 37.43954011 -0.02205631 42.3550806 -0.02680683 C51.99370297 -0.03513131 61.63231923 -0.03786248 71.27094489 -0.03841921 C79.10128352 -0.03889351 86.93162013 -0.04094393 94.76195812 -0.04411983 C116.93626856 -0.05293121 139.11057415 -0.05753844 161.28488635 -0.05678936 C163.07992792 -0.05672943 163.07992792 -0.05672943 164.91123295 -0.05666828 C166.10937935 -0.0566274 167.30752575 -0.05658652 168.54197962 -0.0565444 C187.96925197 -0.05613776 207.39650496 -0.06571053 226.82377171 -0.07980665 C246.74593303 -0.09414842 266.66808489 -0.10107805 286.59025151 -0.10021287 C297.78534707 -0.09988015 308.98042233 -0.10266019 320.17551327 -0.11339092 C329.7058745 -0.12246705 339.23620623 -0.12469508 348.7665699 -0.1178815 C353.63356069 -0.11460164 358.50049478 -0.114612 363.36748028 -0.12323475 C367.81661345 -0.13103647 372.26564437 -0.12973393 376.71477485 -0.12095062 C378.33051728 -0.11940154 379.94626709 -0.121284 381.5620008 -0.12681069 C383.74616225 -0.13379112 385.92995697 -0.12864084 388.11410522 -0.12025452 C389.93936718 -0.12058057 389.93936718 -0.12058057 391.80150312 -0.12091321 C394.61997318 0.12863445 394.61997318 0.12863445 396.61997318 2.12863445 C396.87165546 4.22761059 396.87165546 4.22761059 396.87394047 6.87338543 C396.87958012 7.87452877 396.88521976 8.87567211 396.89103031 9.90715313 C396.88495762 11.56076099 396.88495762 11.56076099 396.87876225 13.24777508 C396.8840192 14.98440662 396.8840192 14.98440662 396.88938236 16.75612164 C396.89821501 20.59910282 396.89234503 24.44190126 396.88559818 28.28488445 C396.88694439 30.9452465 396.88888121 33.60560291 396.89139652 36.26596355 C396.89503778 41.84797441 396.89023292 47.4299324 396.88071537 53.01193523 C396.86983048 59.4705636 396.87335595 65.92906571 396.88436818 72.38769102 C396.89343655 77.92743052 396.89472855 83.46713195 396.88949084 89.00687647 C396.88636864 92.31793903 396.88675083 95.62892904 396.89256382 98.93999004 C396.89761962 102.62991259 396.88993196 106.31958966 396.87876225 110.00949383 C396.88281071 111.11189907 396.88685917 112.21430431 396.89103031 113.35011578 C396.88539066 114.35125912 396.87975101 115.35240246 396.87394047 116.38388348 C396.87280939 117.69354202 396.87280939 117.69354202 396.87165546 119.02965832 C396.61997318 121.12863445 396.61997318 121.12863445 394.61997318 123.12863445 C391.80906582 123.37818211 391.80906582 123.37818211 388.13251591 123.37752342 C387.45545794 123.38013071 386.77839997 123.38273799 386.08082509 123.38542429 C383.78958288 123.39177021 381.49860998 123.38373302 379.20737553 123.37587261 C377.55715362 123.37745939 375.90693235 123.37992168 374.25671291 123.38318902 C369.70443196 123.38962962 365.15223933 123.38351354 360.59996414 123.37542474 C355.69739011 123.36886828 350.79482629 123.37379173 345.89225101 123.37730694 C336.28115942 123.3823584 326.67010213 123.37669546 317.0590148 123.36745664 C305.87741978 123.35709292 294.69583227 123.35714229 283.51423335 123.35762922 C263.56965499 123.3581303 243.62509264 123.34895588 223.68052006 123.334445 C204.30681917 123.32035666 184.93313239 123.31327419 165.55942631 123.31393719 C163.76971334 123.31399712 163.76971334 123.31399712 161.94384456 123.31405827 C160.75280942 123.31409862 159.56177429 123.31413898 158.33464718 123.31418055 C136.30871456 123.3148697 114.28278795 123.30898433 92.25685728 123.30002734 C84.45412863 123.29700569 76.65140108 123.29594715 68.84867191 123.29549503 C59.34578748 123.29481419 49.84291318 123.29036763 40.34003305 123.28116222 C35.4872293 123.27653251 30.63443854 123.27350303 25.78163242 123.27475643 C21.34551549 123.27584668 16.90942736 123.27236258 12.47331643 123.26510791 C10.86231597 123.26328573 9.25131255 123.2631728 7.64031196 123.2648752 C5.46264999 123.2669228 3.28508402 123.26290728 1.10743046 123.25726891 C-0.71246175 123.25621227 -0.71246175 123.25621227 -2.56911945 123.25513428 C-5.38002682 123.12863445 -5.38002682 123.12863445 -7.38002682 122.12863445 C-7.40335613 106.36946701 -7.42100615 90.61030421 -7.43183899 74.85112381 C-7.43700188 67.53436043 -7.44404444 60.21760776 -7.45546627 52.90085125 C-7.46541332 46.52580427 -7.4718803 40.15076505 -7.47411531 33.77571052 C-7.47542238 30.39815431 -7.478508 27.02062029 -7.48575687 23.64307117 C-7.49296295 19.87856102 -7.49401794 16.1140976 -7.49355221 12.34958172 C-7.49894512 10.65781559 -7.49894512 10.65781559 -7.50444698 8.93187237 C-7.50307232 7.91238506 -7.50169765 6.89289776 -7.50028133 5.8425169 C-7.50120313 4.95114308 -7.50212492 4.05976927 -7.50307465 3.14138412 C-7.23334988 -1.27062733 -3.6521138 0.00211448 0 0 Z M-1.38002682 7.12863445 C-1.38002682 43.09863445 -1.38002682 79.06863445 -1.38002682 116.12863445 C127.64997318 116.12863445 256.67997318 116.12863445 389.61997318 116.12863445 C389.61997318 80.15863445 389.61997318 44.18863445 389.61997318 7.12863445 C260.58997318 7.12863445 131.55997318 7.12863445 -1.38002682 7.12863445 Z " fill="#54554F" transform="translate(49.38002681732178,25.871365547180176)"/>
<path d="M0 0 C4.47460097 2.56998457 7.69083523 5.27359375 9.7890625 10.08203125 C10.53255454 15.71243448 10.5906545 20.41947006 8.1015625 25.58203125 C4.35549012 29.63183922 1.18846482 32.72512326 -4.48046875 33.3203125 C-10.29221486 33.48993335 -13.67073854 33.08173033 -18.2109375 29.08203125 C-22.91937225 23.86457653 -23.63237146 19.73764324 -23.55078125 12.875 C-22.93148215 7.78535795 -20.47328186 4.96825385 -16.63671875 1.76953125 C-11.48279005 -1.69044886 -5.77055351 -2.39590119 0 0 Z " fill="#EBAA18" transform="translate(483.2109375,111.91796875)"/>
<path d="M0 0 C4.37383743 2.73895645 7.3460277 5.07645723 9.6015625 9.82421875 C10.4262198 15.34422213 10.34981306 20.27229165 7.9140625 25.32421875 C4.16799012 29.37402672 1.00096482 32.46731076 -4.66796875 33.0625 C-10.47971486 33.23212085 -13.85823854 32.82391783 -18.3984375 28.82421875 C-23.10559476 23.60817963 -23.82502693 19.47953879 -23.734375 12.6171875 C-23.21273764 8.28031872 -21.6333797 5.70668541 -18.3984375 2.82421875 C-12.75854076 -1.21630429 -6.47945886 -3.17641224 0 0 Z " fill="#ECAA17" transform="translate(483.3984375,27.17578125)"/>
<path d="M0 0 C4.27316232 2.24364296 6.84744114 4.9584244 8.79296875 9.31640625 C9.52907273 14.77268211 9.73907059 20.28834281 7.23046875 25.31640625 C3.54853117 29.84802173 0.60934178 31.83603451 -5.046875 32.80078125 C-10.77024334 33.17608409 -14.40214826 32.81247596 -18.83203125 29.00390625 C-22.87249603 24.93786891 -24.57207805 21.97878538 -24.83203125 16.19140625 C-24.7838965 10.81234823 -23.90919197 8.09719242 -20.33203125 4.06640625 C-14.62586298 -1.53750094 -7.74535633 -2.39900417 0 0 Z " fill="#51544F" transform="translate(484.20703125,71.68359375)"/>
<path d="M0 0 C7.59 0 15.18 0 23 0 C23 10 23 10 21 13 C20.34 13 19.68 13 19 13 C19 15.31 19 17.62 19 20 C18.01 20.33 17.02 20.66 16 21 C16.020625 22.11375 16.04125 23.2275 16.0625 24.375 C16 28 16 28 15 30 C13.00045254 30.04254356 10.99958364 30.04080783 9 30 C8 29 8 29 7.90234375 27.15234375 C7.93489583 25.1015625 7.96744792 23.05078125 8 21 C7.01 20.67 6.02 20.34 5 20 C5 17.69 5 15.38 5 13 C3.68 12.34 2.36 11.68 1 11 C0.67 7.37 0.34 3.74 0 0 Z " fill="#1F1E1C" transform="translate(237,166)"/>
<path d="M0 0 C0.83265381 0.00523682 1.66530762 0.01047363 2.52319336 0.01586914 C3.42231445 0.0190918 4.32143555 0.02231445 5.24780273 0.02563477 C6.66609375 0.03820312 6.66609375 0.03820312 8.11303711 0.05102539 C9.06243164 0.05553711 10.01182617 0.06004883 10.98999023 0.06469727 C13.34356776 0.07652429 15.69702188 0.09300514 18.05053711 0.11352539 C19.05568387 4.42448815 18.8220047 7.74187571 18.05053711 12.11352539 C17.06053711 12.44352539 16.07053711 12.77352539 15.05053711 13.11352539 C15.05053711 15.42352539 15.05053711 17.73352539 15.05053711 20.11352539 C14.06053711 20.44352539 13.07053711 20.77352539 12.05053711 21.11352539 C12.07116211 22.22727539 12.09178711 23.34102539 12.11303711 24.48852539 C12.05053711 28.11352539 12.05053711 28.11352539 11.05053711 30.11352539 C9.05098965 30.15606895 7.05012075 30.15433322 5.05053711 30.11352539 C4.05053711 29.11352539 4.05053711 29.11352539 3.95288086 27.26586914 C3.98543294 25.21508789 4.01798503 23.16430664 4.05053711 21.11352539 C3.06053711 20.78352539 2.07053711 20.45352539 1.05053711 20.11352539 C0.13647461 18.30102539 0.13647461 18.30102539 -0.57446289 16.11352539 C-1.36061422 13.37083268 -1.36061422 13.37083268 -2.94946289 11.11352539 C-3.04770226 9.44923488 -3.0791992 7.78070608 -3.07446289 6.11352539 C-3.07704102 5.20602539 -3.07961914 4.29852539 -3.08227539 3.36352539 C-2.91486901 0.52746438 -2.83630675 0.16517002 0 0 Z " fill="#A81818" transform="translate(274.949462890625,165.886474609375)"/>
<path d="M0 0 C4.47460097 2.56998457 7.69083523 5.27359375 9.7890625 10.08203125 C10.53255454 15.71243448 10.5906545 20.41947006 8.1015625 25.58203125 C4.35549012 29.63183922 1.18846482 32.72512326 -4.48046875 33.3203125 C-10.29221486 33.48993335 -13.67073854 33.08173033 -18.2109375 29.08203125 C-22.91937225 23.86457653 -23.63237146 19.73764324 -23.55078125 12.875 C-22.93148215 7.78535795 -20.47328186 4.96825385 -16.63671875 1.76953125 C-11.48279005 -1.69044886 -5.77055351 -2.39590119 0 0 Z M-19.5859375 9.95703125 C-20.88250528 14.3653617 -20.61756437 17.99055913 -19.0234375 22.26953125 C-16.69047743 25.88964171 -14.05548995 28.15975503 -10.2109375 30.08203125 C-5.98842869 30.66444626 -3.57874528 30.96015913 0.05859375 28.625 C4.65034741 24.69512074 6.59062951 22.50291374 7.1015625 16.26953125 C7.03709629 11.88582928 5.67533524 9.43634822 2.7890625 6.08203125 C-1.02515511 2.71654512 -4.85910112 2.5137947 -9.76953125 2.66015625 C-14.4532814 3.46950828 -16.81692275 6.18110204 -19.5859375 9.95703125 Z " fill="#5A594C" transform="translate(483.2109375,111.91796875)"/>
<path d="M0 0 C4.37383743 2.73895645 7.3460277 5.07645723 9.6015625 9.82421875 C10.4262198 15.34422213 10.34981306 20.27229165 7.9140625 25.32421875 C4.16799012 29.37402672 1.00096482 32.46731076 -4.66796875 33.0625 C-10.47971486 33.23212085 -13.85823854 32.82391783 -18.3984375 28.82421875 C-23.10559476 23.60817963 -23.82502693 19.47953879 -23.734375 12.6171875 C-23.21273764 8.28031872 -21.6333797 5.70668541 -18.3984375 2.82421875 C-12.75854076 -1.21630429 -6.47945886 -3.17641224 0 0 Z M-19.2734375 9.13671875 C-21.05087822 13.38282713 -20.86625491 17.03800682 -19.7109375 21.44921875 C-17.45626258 25.5291067 -14.84324064 28.3426177 -10.3984375 29.82421875 C-5.70890165 30.20860693 -3.33400286 30.28317534 0.9140625 28.19921875 C4.38494959 25.13192318 6.16807703 22.500055 6.91796875 17.87109375 C7.22045683 12.75806946 6.00989417 9.78525285 2.6015625 5.82421875 C-1.08750456 2.66216127 -4.47734482 2.30038091 -9.18359375 2.47265625 C-13.7471967 3.19703767 -16.44793425 5.65193141 -19.2734375 9.13671875 Z " fill="#59584C" transform="translate(483.3984375,27.17578125)"/>
<path d="M0 0 C1.093125 0.00257813 2.18625 0.00515625 3.3125 0.0078125 C4.405625 0.00523437 5.49875 0.00265625 6.625 0 C9.3125 0.1328125 9.3125 0.1328125 10.3125 1.1328125 C10.35313832 2.79898365 10.355221 4.46669345 10.3125 6.1328125 C9.3225 6.4628125 8.3325 6.7928125 7.3125 7.1328125 C7.333125 8.2465625 7.35375 9.3603125 7.375 10.5078125 C7.3125 14.1328125 7.3125 14.1328125 6.3125 16.1328125 C4.31295254 16.17535606 2.31208364 16.17362033 0.3125 16.1328125 C-0.6875 15.1328125 -0.6875 15.1328125 -0.78515625 13.28515625 C-0.75260417 11.234375 -0.72005208 9.18359375 -0.6875 7.1328125 C-1.6775 6.8028125 -2.6675 6.4728125 -3.6875 6.1328125 C-3.730221 4.46669345 -3.72813832 2.79898365 -3.6875 1.1328125 C-2.6875 0.1328125 -2.6875 0.1328125 0 0 Z " fill="#AD1B1B" transform="translate(279.6875,179.8671875)"/>
<path d="M0 0 C1.42119141 -0.00386719 1.42119141 -0.00386719 2.87109375 -0.0078125 C5.26390459 0.11026525 7.27586153 0.44387365 9.5625 1.125 C9.5625 3.435 9.5625 5.745 9.5625 8.125 C6.59010209 9.61119895 3.86630422 9.25677009 0.5625 9.25 C-1.3246875 9.25386719 -1.3246875 9.25386719 -3.25 9.2578125 C-6.4375 9.125 -6.4375 9.125 -8.4375 8.125 C-8.4375 5.815 -8.4375 3.505 -8.4375 1.125 C-5.36792902 0.10180967 -3.21309677 -0.00871939 0 0 Z " fill="#323232" transform="translate(248.4375,168.875)"/>
<path d="M0 0 C1.37478516 0.01740234 1.37478516 0.01740234 2.77734375 0.03515625 C3.69644531 0.04417969 4.61554688 0.05320313 5.5625 0.0625 C6.27277344 0.07410156 6.98304688 0.08570313 7.71484375 0.09765625 C8.33984375 2.47265625 8.33984375 2.47265625 8.71484375 5.09765625 C8.05484375 5.75765625 7.39484375 6.41765625 6.71484375 7.09765625 C6.67318373 9.43061765 6.67318373 11.76469485 6.71484375 14.09765625 C6.38484375 14.75765625 6.05484375 15.41765625 5.71484375 16.09765625 C3.71529629 16.14019981 1.71442739 16.13846408 -0.28515625 16.09765625 C-1.28515625 15.09765625 -1.28515625 15.09765625 -1.3828125 13.25 C-1.35026042 11.19921875 -1.31770833 9.1484375 -1.28515625 7.09765625 C-1.94515625 6.76765625 -2.60515625 6.43765625 -3.28515625 6.09765625 C-3.32787725 4.4315372 -3.32579457 2.7638274 -3.28515625 1.09765625 C-2.28515625 0.09765625 -2.28515625 0.09765625 0 0 Z " fill="#323232" transform="translate(246.28515625,179.90234375)"/>
<path d="M0 0 C2.64 0 5.28 0 8 0 C10 2 10 2 10.1875 4.375 C10 7 10 7 9.375 9 C8.85274271 11.78537219 9.81451065 13.48955196 11 16 C10.01 16 9.02 16 8 16 C5 11.77777778 5 11.77777778 5 9 C4.01 9 3.02 9 2 9 C2 11.64 2 14.28 2 17 C1.34 17 0.68 17 0 17 C0 11.39 0 5.78 0 0 Z " fill="#5B594C" transform="translate(472,120)"/>
<path d="M0 0 C0.66 0 1.32 0 2 0 C2.83919398 2.26882087 3.67151724 4.53977027 4.5 6.8125 C4.73847656 7.45509766 4.97695313 8.09769531 5.22265625 8.75976562 C6.27068746 11.64933739 7 13.90076061 7 17 C6.01 16.67 5.02 16.34 4 16 C3.67 15.01 3.34 14.02 3 13 C1.35 13 -0.3 13 -2 13 C-2.66 14.32 -3.32 15.64 -4 17 C-4.66 17 -5.32 17 -6 17 C-5.45388522 11.81190963 -3.84540159 3.84540159 0 0 Z " fill="#605C4A" transform="translate(476,35)"/>
<path d="M0 0 C6.6 0 13.2 0 20 0 C20.33 1.65 20.66 3.3 21 5 C20.31035156 4.83757812 19.62070312 4.67515625 18.91015625 4.5078125 C15.70014319 3.94767599 12.6949472 3.86745088 9.4375 3.875 C8.32246094 3.87242187 7.20742188 3.86984375 6.05859375 3.8671875 C3.50806272 3.97793853 1.42409171 4.2532138 -1 5 C-0.67 3.35 -0.34 1.7 0 0 Z " fill="#791111" transform="translate(273,166)"/>
<path d="M0 0 C0.99 0.33 1.98 0.66 3 1 C4.1875 4.0625 4.1875 4.0625 5 7 C7.22189824 4.77810176 7.92598892 2.91517292 9 0 C9.66 0 10.32 0 11 0 C10.39363767 5.76044212 8.24341721 10.72014369 6 16 C4 15 4 15 2.9296875 12.3828125 C2.58164062 11.30773437 2.23359375 10.23265625 1.875 9.125 C1.52179688 8.05507812 1.16859375 6.98515625 0.8046875 5.8828125 C0 3 0 3 0 0 Z " fill="#E0A41C" transform="translate(471,80)"/>
<path d="M0 0 C2.64 0 5.28 0 8 0 C8.125 6.75 8.125 6.75 7 9 C5.00045254 9.04254356 2.99958364 9.04080783 1 9 C0 8 0 8 -0.09765625 6.15234375 C-0.06510417 4.1015625 -0.03255208 2.05078125 0 0 Z " fill="#807E79" transform="translate(245,187)"/>
<path d="M0 0 C2.64 0 5.28 0 8 0 C8.125 6.75 8.125 6.75 7 9 C5.00045254 9.04254356 2.99958364 9.04080783 1 9 C0 8 0 8 -0.09765625 6.15234375 C-0.06510417 4.1015625 -0.03255208 2.05078125 0 0 Z " fill="#888482" transform="translate(279,187)"/>
<path d="M0 0 C0.66 0 1.32 0 2 0 C2.99 3.3 3.98 6.6 5 10 C3.02 10 1.04 10 -1 10 C-0.979375 9.21625 -0.95875 8.4325 -0.9375 7.625 C-0.81315937 5.01885039 -0.81315937 5.01885039 -2 3 C-1.34 2.01 -0.68 1.02 0 0 Z " fill="#826F3E" transform="translate(476,35)"/>
<path d="M0 0 C1.53445094 3.06890187 0.54984289 5.70094266 0 9 C-1.32 9.33 -2.64 9.66 -4 10 C-3.34 9.34 -2.68 8.68 -2 8 C-2 6.68 -2 5.36 -2 4 C-5.63 4 -9.26 4 -13 4 C-13 3.01 -13 2.02 -13 1 C-6.565 0.505 -6.565 0.505 0 0 Z " fill="#252525" transform="translate(256,177)"/>
<path d="M0 0 C1.32 0 2.64 0 4 0 C4 2.64 4 5.28 4 8 C2.68 8 1.36 8 0 8 C-1.125 2.25 -1.125 2.25 0 0 Z " fill="#8B8B8B" transform="translate(247,187)"/>
<path d="M0 0 C3.375 -0.125 3.375 -0.125 7 0 C9 2 9 2 9.125 4.625 C9.08375 5.40875 9.0425 6.1925 9 7 C7 6 7 6 6 3 C4.35 2.67 2.7 2.34 1 2 C1 3.65 1 5.3 1 7 C0.67 7 0.34 7 0 7 C0 4.69 0 2.38 0 0 Z " fill="#51534F" transform="translate(473,120)"/>
<path d="M0 0 C1.65 0 3.3 0 5 0 C5.5625 1.9375 5.5625 1.9375 6 4 C5 5 5 5 2.4375 5.0625 C1.2309375 5.0315625 1.2309375 5.0315625 0 5 C0 3.35 0 1.7 0 0 Z " fill="#D49D20" transform="translate(474,122)"/>
</svg>
