<?xml version="1.0" encoding="UTF-8"?>
<svg version="1.1" xmlns="http://www.w3.org/2000/svg" width="495" height="273">
<path d="M0 0 C1.64295227 -0.00668677 1.64295227 -0.00668677 3.31909549 -0.01350862 C4.5322991 -0.01332426 5.7455027 -0.01313989 6.99547005 -0.01294994 C8.27659207 -0.01662663 9.5577141 -0.02030332 10.87765801 -0.02409142 C14.44551259 -0.03412786 18.01335035 -0.03783084 21.58121705 -0.04048073 C25.42451905 -0.04437885 29.26780767 -0.05395743 33.11110115 -0.0626936 C42.39771905 -0.08247059 51.68433806 -0.09252517 60.97097176 -0.10142139 C65.34077316 -0.10580173 69.71057333 -0.11116914 74.08037376 -0.11641026 C88.60017521 -0.13342275 103.11997589 -0.14791837 117.63978577 -0.155159 C121.40907352 -0.15706898 125.17836127 -0.15898931 128.947649 -0.16094494 C130.35295819 -0.16167055 130.35295819 -0.16167055 131.78665747 -0.16241082 C146.97373636 -0.17071654 162.16073663 -0.1960625 177.34778117 -0.22852562 C192.92847637 -0.26155961 208.50913157 -0.27960438 224.08986199 -0.28280324 C232.84259549 -0.28497159 241.59521429 -0.29376777 250.34791374 -0.31926441 C257.79983356 -0.34092139 265.25161083 -0.34904657 272.70355855 -0.33929763 C276.50762999 -0.33473849 280.311407 -0.33673209 284.11543846 -0.35605907 C288.23483815 -0.37680821 292.35357871 -0.36675221 296.47300911 -0.35352612 C297.68175127 -0.36449536 298.89049343 -0.37546461 300.13586414 -0.38676625 C301.23638115 -0.37818536 302.33689815 -0.36960447 303.47076416 -0.36076355 C304.4220186 -0.36174036 305.37327305 -0.36271717 306.35335338 -0.36372358 C309.63105325 0.28707301 310.82412547 1.5338562 312.86122322 4.13422108 C313.36458778 7.23895741 313.36458778 7.23895741 313.36915779 10.96625233 C313.37851774 11.99620068 313.37851774 11.99620068 313.38806677 13.04695606 C313.4040189 15.34722728 313.3913849 17.64644205 313.37880135 19.94672108 C313.38422152 21.59597867 313.39134359 23.24523142 313.40004158 24.89447498 C313.41829047 29.37382323 313.41120102 33.85280333 313.39852524 38.33215809 C313.38840565 43.01749134 313.39778802 47.70279285 313.4040699 52.38812733 C313.41134935 60.25667455 313.40175082 68.12507164 313.3827076 75.99359608 C313.36093826 85.09367879 313.36798943 94.19340304 313.39001322 103.29347706 C313.40815876 111.10335327 313.41072969 118.9131215 313.40025854 126.72301197 C313.39401895 131.38895005 313.39320074 136.05471958 313.4064045 140.72064686 C313.41795011 145.10710925 313.40996109 149.49310901 313.38682747 153.87952137 C313.38153345 155.49039408 313.38306602 157.10130566 313.39187813 158.71216297 C313.40279062 160.90936608 313.38912463 163.10508181 313.36915779 165.30218983 C313.36689564 167.14720081 313.36689564 167.14720081 313.36458778 169.02948475 C312.74976425 172.82169642 311.82844442 173.76942246 308.86122322 176.13422108 C306.35450405 176.63446707 306.35450405 176.63446707 303.47355747 176.63479233 C302.37365716 176.64460662 301.27375686 176.65442091 300.14052624 176.6645326 C298.9324662 176.6549276 297.72440616 176.64532259 296.47973824 176.63542652 C294.55443357 176.64372812 294.55443357 176.64372812 292.59023386 176.65219742 C289.02481751 176.66698285 285.45984142 176.65675295 281.8944391 176.6424607 C278.05049466 176.63137227 274.20661307 176.64328638 270.36267281 176.65230274 C262.8316273 176.6662514 255.30074922 176.65866728 247.76971167 176.64362716 C239.00472567 176.62678734 230.23978161 176.62997471 221.47478444 176.63372124 C205.8394847 176.63960271 190.20426543 176.62541655 174.56898689 176.60077381 C159.38699006 176.57684808 144.20510075 176.56977078 129.02308846 176.580266 C112.50109394 176.59166703 95.97914919 176.59361568 79.45715529 176.5791679 C77.69652053 176.57764202 75.93588577 176.57612166 74.17525101 176.5746069 C73.30892247 176.57384908 72.44259393 176.57309127 71.55001302 176.57231049 C65.43589188 176.56756167 59.32179292 176.56942329 53.20767212 176.57367229 C45.7605264 176.57859137 38.31348248 176.57264852 30.86636012 176.552778 C27.06448646 176.54288476 23.26276803 176.53782265 19.460886 176.54567051 C15.34568413 176.55399155 11.23089838 176.53918883 7.11572456 176.52190113 C5.9054338 176.52791118 4.69514304 176.53392122 3.4481768 176.54011339 C2.35088424 176.53167345 1.25359168 176.52323351 0.12304783 176.51453781 C-0.82750219 176.51350868 -1.77805221 176.51247955 -2.75740677 176.51141924 C-5.5757752 176.06500252 -6.42097352 175.36388895 -8.13877678 173.13422108 C-9.3912618 170.62925104 -9.25252084 168.92568834 -9.23643303 166.12640858 C-9.23159904 164.64720936 -9.23159904 164.64720936 -9.2266674 163.13812733 C-9.21409904 161.58931873 -9.21409904 161.58931873 -9.20127678 160.00922108 C-9.19676506 158.96894764 -9.19225334 157.9286742 -9.1876049 156.85687733 C-9.1757963 154.28260146 -9.15932753 151.70843961 -9.13877678 149.13422108 C-12.10877678 149.13422108 -15.07877678 149.13422108 -18.13877678 149.13422108 C-18.46877678 150.45422108 -18.79877678 151.77422108 -19.13877678 153.13422108 C-25.07877678 153.13422108 -31.01877678 153.13422108 -37.13877678 153.13422108 C-37.09752678 155.07297108 -37.05627678 157.01172108 -37.01377678 159.00922108 C-36.94346428 162.31390858 -36.94346428 162.31390858 -37.13877678 165.13422108 C-39.13877678 167.13422108 -39.13877678 167.13422108 -41.63487053 167.39984608 C-43.09086662 167.3921117 -43.09086662 167.3921117 -44.57627678 167.38422108 C-46.02840569 167.39195545 -46.02840569 167.39195545 -47.50987053 167.39984608 C-50.13877678 167.13422108 -50.13877678 167.13422108 -53.13877678 165.13422108 C-53.5375042 162.35013294 -53.5375042 162.35013294 -53.57114983 158.75677967 C-53.58134148 158.10299839 -53.59153313 157.44921711 -53.60203362 156.77562428 C-53.63226636 154.61121638 -53.64144463 152.44725024 -53.65049553 150.28265858 C-53.66733471 148.7833454 -53.68548392 147.2840464 -53.70489311 145.78476429 C-53.7524824 141.83596701 -53.78223363 137.8872272 -53.80833244 133.93823719 C-53.83809323 129.90969962 -53.88463881 125.88136033 -53.9297924 121.85297108 C-54.01592692 113.94681828 -54.08322666 106.04064761 -54.13877678 98.13422108 C-55.26992912 98.5924828 -55.26992912 98.5924828 -56.42393303 99.06000233 C-61.94411097 101.2442454 -66.29286596 102.8392784 -72.13877678 101.13422108 C-74.57113057 99.91804418 -76.82213498 98.57053899 -79.13877678 97.13422108 C-79.13877678 96.47422108 -79.13877678 95.81422108 -79.13877678 95.13422108 C-73.25566017 92.8463424 -68.46425815 91.69032765 -62.13877678 92.13422108 C-61.47877678 92.46422108 -60.81877678 92.79422108 -60.13877678 93.13422108 C-58.15877678 93.13422108 -56.17877678 93.13422108 -54.13877678 93.13422108 C-53.80877678 89.17422108 -53.47877678 85.21422108 -53.13877678 81.13422108 C-54.10815178 81.60859608 -55.07752678 82.08297108 -56.07627678 82.57172108 C-62.71738583 85.34551763 -67.9300678 85.89372804 -74.70127678 83.19672108 C-76.18929117 82.52858676 -77.67197346 81.84771831 -79.13877678 81.13422108 C-78.80877678 80.14422108 -78.47877678 79.15422108 -78.13877678 78.13422108 C-72.95961064 75.72322994 -68.92507722 74.57784603 -63.13877678 75.13422108 C-61.79741311 75.78457922 -60.46345424 76.45051658 -59.13877678 77.13422108 C-57.13917766 77.17426311 -55.13830564 77.17763012 -53.13877678 77.13422108 C-53.14099739 76.28675312 -53.143218 75.43928516 -53.14550591 74.56613636 C-53.16551939 66.59061064 -53.18075633 58.61509333 -53.19058895 50.6395483 C-53.19581387 46.53896612 -53.20290445 42.43840463 -53.21421623 38.33783436 C-53.22505896 34.3826715 -53.23105657 30.42752859 -53.23365402 26.47235203 C-53.23550576 24.9612328 -53.2391216 23.45011471 -53.24450684 21.93900394 C-53.25173564 19.8271315 -53.25276694 17.71534213 -53.25230217 15.60345936 C-53.25452278 14.39988789 -53.25674339 13.19631641 -53.2590313 11.95627308 C-53.13877678 9.13422108 -53.13877678 9.13422108 -52.13877678 7.13422108 C-49.82633886 7.10736696 -47.51381408 7.08789267 -45.20127678 7.07172108 C-43.91350334 7.06011951 -42.6257299 7.04851795 -41.29893303 7.03656483 C-38.13877678 7.13422108 -38.13877678 7.13422108 -37.13877678 8.13422108 C-37.06605936 10.48735662 -37.0550681 12.84255776 -37.07627678 15.19672108 C-37.08530022 16.48707264 -37.09432365 17.7774242 -37.10362053 19.10687733 C-37.11522209 20.10590076 -37.12682365 21.1049242 -37.13877678 22.13422108 C-35.15877678 22.13422108 -33.17877678 22.13422108 -31.13877678 22.13422108 C-30.47877678 20.48422108 -29.81877678 18.83422108 -29.13877678 17.13422108 C-22.53877678 17.13422108 -15.93877678 17.13422108 -9.13877678 17.13422108 C-9.18002678 15.23672108 -9.22127678 13.33922108 -9.26377678 11.38422108 C-9.35041831 7.39871058 -9.39424272 4.50953375 -7.13877678 1.13422108 C-4.601547 -0.13439381 -2.84158296 0.00534463 0 0 Z M-37.13877678 73.13422108 C-37.13877678 79.73422108 -37.13877678 86.33422108 -37.13877678 93.13422108 C-31.19877678 93.46422108 -25.25877678 93.79422108 -19.13877678 94.13422108 C-18.80877678 95.12422108 -18.47877678 96.11422108 -18.13877678 97.13422108 C-14.46309214 98.05314224 -12.97497103 98.09326964 -9.13877678 97.13422108 C-9.13877678 90.53422108 -9.13877678 83.93422108 -9.13877678 77.13422108 C-16.06877678 77.13422108 -22.99877678 77.13422108 -30.13877678 77.13422108 C-30.46877678 75.81422108 -30.79877678 74.49422108 -31.13877678 73.13422108 C-33.11877678 73.13422108 -35.09877678 73.13422108 -37.13877678 73.13422108 Z " fill="#333333" transform="translate(128.1387767791748,60.86577892303467)"/>
<path d="M0 0 C1.09776831 -0.00199105 2.19553662 -0.0039821 3.32657063 -0.00603348 C4.54250271 -0.00312064 5.75843479 -0.0002078 7.0112133 0.00279331 C8.93712974 0.00151167 8.93712974 0.00151167 10.90195358 0.00020415 C14.47754023 -0.0020404 18.05309713 0.00197993 21.62867999 0.00698221 C25.48007824 0.01128709 29.33147471 0.00984026 33.18287468 0.00907993 C39.85959714 0.00855472 46.53630985 0.01170123 53.21302986 0.01731777 C62.86653264 0.02543315 72.5200307 0.02804803 82.17353652 0.02930576 C97.8344278 0.03149622 113.49531387 0.03815614 129.15620232 0.04760838 C144.37234788 0.05678265 159.58849204 0.06386341 174.80463982 0.06811619 C175.74203098 0.06837891 176.67942215 0.06864164 177.6452191 0.06891232 C182.3476762 0.07021733 187.0501333 0.07148104 191.75259042 0.07272422 C230.78508058 0.08309665 269.81756493 0.1007148 308.85004997 0.12304783 C308.85004997 0.45304783 308.85004997 0.78304783 308.85004997 1.12304783 C235.59004997 1.12304783 162.33004997 1.12304783 86.85004997 1.12304783 C86.85004997 58.54304783 86.85004997 115.96304783 86.85004997 175.12304783 C160.11004997 175.12304783 233.37004997 175.12304783 308.85004997 175.12304783 C308.85004997 175.45304783 308.85004997 175.78304783 308.85004997 176.12304783 C268.89938416 176.19166223 228.94872601 176.24455029 188.99801309 176.27624382 C184.28519912 176.27999609 179.57238526 176.28387905 174.85957146 176.28784275 C173.92130535 176.28862968 172.98303924 176.28941661 172.01634083 176.29022739 C156.80907929 176.30329372 141.60185165 176.3269543 126.39461025 176.35450622 C110.79929674 176.38252631 95.20400103 176.39921688 79.60866338 176.40531331 C69.97967747 176.40943682 60.35078737 176.42247676 50.72183094 176.44679723 C44.12562312 176.46261254 37.52946508 176.46745777 30.93323966 176.46355196 C27.12327589 176.46162383 23.31347995 176.46465144 19.50354576 176.48066425 C15.37940869 176.49787174 11.25563237 176.49203941 7.13146782 176.48381138 C5.91844858 176.4925499 4.70542934 176.50128843 3.45565194 176.51029176 C2.35589258 176.50431861 1.25613323 176.49834546 0.12304783 176.49219131 C-0.82967048 176.49333048 -1.78238879 176.49446964 -2.76397735 176.49564332 C-5.58794659 176.05464992 -6.43055142 175.35702432 -8.14995003 173.12304783 C-9.40243505 170.61807779 -9.26369409 168.91451509 -9.24760628 166.11523533 C-9.24277229 164.63603611 -9.24277229 164.63603611 -9.23784065 163.12695408 C-9.22527229 161.57814548 -9.22527229 161.57814548 -9.21245003 159.99804783 C-9.20793831 158.95777439 -9.20342659 157.91750095 -9.19877815 156.84570408 C-9.18696955 154.27142821 -9.17050078 151.69726637 -9.14995003 149.12304783 C-12.11995003 149.12304783 -15.08995003 149.12304783 -18.14995003 149.12304783 C-18.47995003 150.44304783 -18.80995003 151.76304783 -19.14995003 153.12304783 C-25.08995003 153.12304783 -31.02995003 153.12304783 -37.14995003 153.12304783 C-37.10870003 155.06179783 -37.06745003 157.00054783 -37.02495003 158.99804783 C-36.95463753 162.30273533 -36.95463753 162.30273533 -37.14995003 165.12304783 C-39.14995003 167.12304783 -39.14995003 167.12304783 -41.64604378 167.38867283 C-43.10203987 167.38093845 -43.10203987 167.38093845 -44.58745003 167.37304783 C-46.03957893 167.3807822 -46.03957893 167.3807822 -47.52104378 167.38867283 C-50.14995003 167.12304783 -50.14995003 167.12304783 -53.14995003 165.12304783 C-53.54867744 162.33895969 -53.54867744 162.33895969 -53.58232307 158.74560642 C-53.59251472 158.09182514 -53.60270638 157.43804386 -53.61320686 156.76445103 C-53.64343961 154.60004313 -53.65261788 152.43607699 -53.66166878 150.27148533 C-53.67850796 148.77217215 -53.69665717 147.27287315 -53.71606636 145.77359104 C-53.76365565 141.82479376 -53.79340688 137.87605395 -53.81950569 133.92706394 C-53.84926648 129.89852637 -53.89581205 125.87018708 -53.94096565 121.84179783 C-54.02710017 113.93564503 -54.09439991 106.02947437 -54.14995003 98.12304783 C-55.28110237 98.58130955 -55.28110237 98.58130955 -56.43510628 99.04882908 C-61.95528422 101.23307215 -66.3040392 102.82810515 -72.14995003 101.12304783 C-74.58230382 99.90687093 -76.83330823 98.55936574 -79.14995003 97.12304783 C-79.14995003 96.46304783 -79.14995003 95.80304783 -79.14995003 95.12304783 C-73.26683342 92.83516915 -68.4754314 91.6791544 -62.14995003 92.12304783 C-61.48995003 92.45304783 -60.82995003 92.78304783 -60.14995003 93.12304783 C-58.16995003 93.12304783 -56.18995003 93.12304783 -54.14995003 93.12304783 C-53.81995003 89.16304783 -53.48995003 85.20304783 -53.14995003 81.12304783 C-54.11932503 81.59742283 -55.08870003 82.07179783 -56.08745003 82.56054783 C-62.72855908 85.33434438 -67.94124105 85.88255479 -74.71245003 83.18554783 C-76.20046441 82.51741351 -77.68314671 81.83654506 -79.14995003 81.12304783 C-78.81995003 80.13304783 -78.48995003 79.14304783 -78.14995003 78.12304783 C-72.97078389 75.7120567 -68.93625047 74.56667279 -63.14995003 75.12304783 C-61.80858635 75.77340597 -60.47462749 76.43934333 -59.14995003 77.12304783 C-57.15035091 77.16308986 -55.14947889 77.16645687 -53.14995003 77.12304783 C-53.15217064 76.27557987 -53.15439125 75.42811192 -53.15667915 74.55496311 C-53.17669264 66.5794374 -53.19192958 58.60392008 -53.2017622 50.62837505 C-53.20698712 46.52779287 -53.2140777 42.42723138 -53.22538948 38.32666111 C-53.23623221 34.37149826 -53.24222982 30.41635535 -53.24482727 26.46117878 C-53.24667901 24.95005956 -53.25029485 23.43894146 -53.25568008 21.9278307 C-53.26290889 19.81595825 -53.26394019 17.70416888 -53.26347542 15.59228611 C-53.26569603 14.38871464 -53.26791664 13.18514317 -53.27020454 11.94509983 C-53.14995003 9.12304783 -53.14995003 9.12304783 -52.14995003 7.12304783 C-49.83751211 7.09619371 -47.52498733 7.07671942 -45.21245003 7.06054783 C-43.92467659 7.04894627 -42.63690315 7.0373447 -41.31010628 7.02539158 C-38.14995003 7.12304783 -38.14995003 7.12304783 -37.14995003 8.12304783 C-37.07723261 10.47618338 -37.06624135 12.83138451 -37.08745003 15.18554783 C-37.09647346 16.47589939 -37.1054969 17.76625095 -37.11479378 19.09570408 C-37.12639534 20.09472752 -37.1379969 21.09375095 -37.14995003 22.12304783 C-35.16995003 22.12304783 -33.18995003 22.12304783 -31.14995003 22.12304783 C-30.48995003 20.47304783 -29.82995003 18.82304783 -29.14995003 17.12304783 C-22.54995003 17.12304783 -15.94995003 17.12304783 -9.14995003 17.12304783 C-9.19120003 15.22554783 -9.23245003 13.32804783 -9.27495003 11.37304783 C-9.36159156 7.38753733 -9.40541597 4.4983605 -7.14995003 1.12304783 C-4.60787217 -0.1479911 -2.84701742 -0.00113427 0 0 Z M-37.14995003 73.12304783 C-37.14995003 79.72304783 -37.14995003 86.32304783 -37.14995003 93.12304783 C-31.20995003 93.45304783 -25.26995003 93.78304783 -19.14995003 94.12304783 C-18.81995003 95.11304783 -18.48995003 96.10304783 -18.14995003 97.12304783 C-14.47426538 98.04196899 -12.98614428 98.08209639 -9.14995003 97.12304783 C-9.14995003 90.52304783 -9.14995003 83.92304783 -9.14995003 77.12304783 C-16.07995003 77.12304783 -23.00995003 77.12304783 -30.14995003 77.12304783 C-30.47995003 75.80304783 -30.80995003 74.48304783 -31.14995003 73.12304783 C-33.12995003 73.12304783 -35.10995003 73.12304783 -37.14995003 73.12304783 Z " fill="#D18D52" transform="translate(128.14995002746582,60.876952171325684)"/>
<path d="M0 0 C1.09776831 -0.00199105 2.19553662 -0.0039821 3.32657063 -0.00603348 C4.54250271 -0.00312064 5.75843479 -0.0002078 7.0112133 0.00279331 C8.93712974 0.00151167 8.93712974 0.00151167 10.90195358 0.00020415 C14.47754023 -0.0020404 18.05309713 0.00197993 21.62867999 0.00698221 C25.48007824 0.01128709 29.33147471 0.00984026 33.18287468 0.00907993 C39.85959714 0.00855472 46.53630985 0.01170123 53.21302986 0.01731777 C62.86653264 0.02543315 72.5200307 0.02804803 82.17353652 0.02930576 C97.8344278 0.03149622 113.49531387 0.03815614 129.15620232 0.04760838 C144.37234788 0.05678265 159.58849204 0.06386341 174.80463982 0.06811619 C175.74203098 0.06837891 176.67942215 0.06864164 177.6452191 0.06891232 C182.3476762 0.07021733 187.0501333 0.07148104 191.75259042 0.07272422 C230.78508058 0.08309665 269.81756493 0.1007148 308.85004997 0.12304783 C308.85004997 0.45304783 308.85004997 0.78304783 308.85004997 1.12304783 C235.59004997 1.12304783 162.33004997 1.12304783 86.85004997 1.12304783 C86.85004997 58.54304783 86.85004997 115.96304783 86.85004997 175.12304783 C160.11004997 175.12304783 233.37004997 175.12304783 308.85004997 175.12304783 C308.85004997 175.45304783 308.85004997 175.78304783 308.85004997 176.12304783 C268.89938416 176.19166223 228.94872601 176.24455029 188.99801309 176.27624382 C184.28519912 176.27999609 179.57238526 176.28387905 174.85957146 176.28784275 C173.92130535 176.28862968 172.98303924 176.28941661 172.01634083 176.29022739 C156.80907929 176.30329372 141.60185165 176.3269543 126.39461025 176.35450622 C110.79929674 176.38252631 95.20400103 176.39921688 79.60866338 176.40531331 C69.97967747 176.40943682 60.35078737 176.42247676 50.72183094 176.44679723 C44.12562312 176.46261254 37.52946508 176.46745777 30.93323966 176.46355196 C27.12327589 176.46162383 23.31347995 176.46465144 19.50354576 176.48066425 C15.37940869 176.49787174 11.25563237 176.49203941 7.13146782 176.48381138 C5.91844858 176.4925499 4.70542934 176.50128843 3.45565194 176.51029176 C2.35589258 176.50431861 1.25613323 176.49834546 0.12304783 176.49219131 C-0.82967048 176.49333048 -1.78238879 176.49446964 -2.76397735 176.49564332 C-5.58794659 176.05464992 -6.43055142 175.35702432 -8.14995003 173.12304783 C-9.40243505 170.61807779 -9.26369409 168.91451509 -9.24760628 166.11523533 C-9.24277229 164.63603611 -9.24277229 164.63603611 -9.23784065 163.12695408 C-9.22527229 161.57814548 -9.22527229 161.57814548 -9.21245003 159.99804783 C-9.20793831 158.95777439 -9.20342659 157.91750095 -9.19877815 156.84570408 C-9.18696955 154.27142821 -9.17050078 151.69726637 -9.14995003 149.12304783 C-12.11995003 149.12304783 -15.08995003 149.12304783 -18.14995003 149.12304783 C-18.47995003 150.44304783 -18.80995003 151.76304783 -19.14995003 153.12304783 C-25.08995003 153.12304783 -31.02995003 153.12304783 -37.14995003 153.12304783 C-37.10870003 155.06179783 -37.06745003 157.00054783 -37.02495003 158.99804783 C-36.95463753 162.30273533 -36.95463753 162.30273533 -37.14995003 165.12304783 C-39.14995003 167.12304783 -39.14995003 167.12304783 -41.64604378 167.38867283 C-43.10203987 167.38093845 -43.10203987 167.38093845 -44.58745003 167.37304783 C-46.03957893 167.3807822 -46.03957893 167.3807822 -47.52104378 167.38867283 C-50.14995003 167.12304783 -50.14995003 167.12304783 -53.14995003 165.12304783 C-53.54867744 162.33895969 -53.54867744 162.33895969 -53.58232307 158.74560642 C-53.59251472 158.09182514 -53.60270638 157.43804386 -53.61320686 156.76445103 C-53.64343961 154.60004313 -53.65261788 152.43607699 -53.66166878 150.27148533 C-53.67850796 148.77217215 -53.69665717 147.27287315 -53.71606636 145.77359104 C-53.76365565 141.82479376 -53.79340688 137.87605395 -53.81950569 133.92706394 C-53.84926648 129.89852637 -53.89581205 125.87018708 -53.94096565 121.84179783 C-54.02710017 113.93564503 -54.09439991 106.02947437 -54.14995003 98.12304783 C-55.28110237 98.58130955 -55.28110237 98.58130955 -56.43510628 99.04882908 C-61.95528422 101.23307215 -66.3040392 102.82810515 -72.14995003 101.12304783 C-74.58230382 99.90687093 -76.83330823 98.55936574 -79.14995003 97.12304783 C-79.14995003 96.46304783 -79.14995003 95.80304783 -79.14995003 95.12304783 C-73.26683342 92.83516915 -68.4754314 91.6791544 -62.14995003 92.12304783 C-61.48995003 92.45304783 -60.82995003 92.78304783 -60.14995003 93.12304783 C-58.16995003 93.12304783 -56.18995003 93.12304783 -54.14995003 93.12304783 C-53.81995003 89.16304783 -53.48995003 85.20304783 -53.14995003 81.12304783 C-54.11932503 81.59742283 -55.08870003 82.07179783 -56.08745003 82.56054783 C-62.72855908 85.33434438 -67.94124105 85.88255479 -74.71245003 83.18554783 C-76.20046441 82.51741351 -77.68314671 81.83654506 -79.14995003 81.12304783 C-78.81995003 80.13304783 -78.48995003 79.14304783 -78.14995003 78.12304783 C-72.97078389 75.7120567 -68.93625047 74.56667279 -63.14995003 75.12304783 C-61.80858635 75.77340597 -60.47462749 76.43934333 -59.14995003 77.12304783 C-57.15035091 77.16308986 -55.14947889 77.16645687 -53.14995003 77.12304783 C-53.15217064 76.27557987 -53.15439125 75.42811192 -53.15667915 74.55496311 C-53.17669264 66.5794374 -53.19192958 58.60392008 -53.2017622 50.62837505 C-53.20698712 46.52779287 -53.2140777 42.42723138 -53.22538948 38.32666111 C-53.23623221 34.37149826 -53.24222982 30.41635535 -53.24482727 26.46117878 C-53.24667901 24.95005956 -53.25029485 23.43894146 -53.25568008 21.9278307 C-53.26290889 19.81595825 -53.26394019 17.70416888 -53.26347542 15.59228611 C-53.26569603 14.38871464 -53.26791664 13.18514317 -53.27020454 11.94509983 C-53.14995003 9.12304783 -53.14995003 9.12304783 -52.14995003 7.12304783 C-49.83751211 7.09619371 -47.52498733 7.07671942 -45.21245003 7.06054783 C-43.92467659 7.04894627 -42.63690315 7.0373447 -41.31010628 7.02539158 C-38.14995003 7.12304783 -38.14995003 7.12304783 -37.14995003 8.12304783 C-37.07723261 10.47618338 -37.06624135 12.83138451 -37.08745003 15.18554783 C-37.09647346 16.47589939 -37.1054969 17.76625095 -37.11479378 19.09570408 C-37.12639534 20.09472752 -37.1379969 21.09375095 -37.14995003 22.12304783 C-35.16995003 22.12304783 -33.18995003 22.12304783 -31.14995003 22.12304783 C-30.48995003 20.47304783 -29.82995003 18.82304783 -29.14995003 17.12304783 C-22.54995003 17.12304783 -15.94995003 17.12304783 -9.14995003 17.12304783 C-9.19120003 15.22554783 -9.23245003 13.32804783 -9.27495003 11.37304783 C-9.36159156 7.38753733 -9.40541597 4.4983605 -7.14995003 1.12304783 C-4.60787217 -0.1479911 -2.84701742 -0.00113427 0 0 Z M-3.14995003 1.12304783 C-3.14995003 1.78304783 -3.14995003 2.44304783 -3.14995003 3.12304783 C-4.46995003 3.45304783 -5.78995003 3.78304783 -7.14995003 4.12304783 C-7.19662972 25.84532126 -7.23191907 47.56758645 -7.25357437 69.28989983 C-7.26389566 79.37549419 -7.27797226 89.46105743 -7.30082893 99.54663181 C-7.32073673 108.33518102 -7.33366026 117.1237077 -7.33812702 125.91227883 C-7.34073883 130.56759377 -7.34689538 135.22284423 -7.36141014 139.87813854 C-7.37495284 144.25701104 -7.3791794 148.63579228 -7.37616539 153.01468372 C-7.37671704 154.62437339 -7.38071417 156.23406601 -7.38836098 157.8437376 C-7.39827053 160.03671112 -7.39593369 162.22933737 -7.39045906 164.42231846 C-7.39230265 165.65106851 -7.39414623 166.87981855 -7.39604568 168.14580345 C-7.3766321 171.30765302 -7.3766321 171.30765302 -5.14995003 174.12304783 C24.27948257 181.48040598 55.51488519 175.12304783 85.85004997 175.12304783 C85.85004997 117.70304783 85.85004997 60.28304783 85.85004997 1.12304783 C56.48004997 1.12304783 27.11004997 1.12304783 -3.14995003 1.12304783 Z M-37.14995003 73.12304783 C-37.14995003 79.72304783 -37.14995003 86.32304783 -37.14995003 93.12304783 C-31.20995003 93.45304783 -25.26995003 93.78304783 -19.14995003 94.12304783 C-18.81995003 95.11304783 -18.48995003 96.10304783 -18.14995003 97.12304783 C-14.47426538 98.04196899 -12.98614428 98.08209639 -9.14995003 97.12304783 C-9.14995003 90.52304783 -9.14995003 83.92304783 -9.14995003 77.12304783 C-16.07995003 77.12304783 -23.00995003 77.12304783 -30.14995003 77.12304783 C-30.47995003 75.80304783 -30.80995003 74.48304783 -31.14995003 73.12304783 C-33.12995003 73.12304783 -35.10995003 73.12304783 -37.14995003 73.12304783 Z " fill="#AE9A87" transform="translate(128.14995002746582,60.876952171325684)"/>
<path d="M0 0 C2.31243792 -0.02685412 4.6249627 -0.04632841 6.9375 -0.0625 C8.22527344 -0.07410156 9.51304688 -0.08570312 10.83984375 -0.09765625 C14 0 14 0 15 1 C15.10114653 3.02033523 15.1307758 5.04425999 15.13371277 7.06712341 C15.13797775 8.38662994 15.14224274 9.70613647 15.14663696 11.06562805 C15.1462874 12.54171756 15.14582584 14.01780704 15.14526367 15.49389648 C15.14825351 17.03757814 15.15165562 18.58125905 15.15544128 20.12493896 C15.16430334 24.32942938 15.16662032 28.53389946 15.16725707 32.73839831 C15.16820433 36.24257501 15.17188051 39.74674692 15.17542917 43.25092179 C15.18358209 51.51502127 15.18601264 59.77910985 15.18530273 68.04321289 C15.1847017 76.58138796 15.19525668 85.1194999 15.2110464 93.65765899 C15.22410133 100.97654883 15.2294875 108.29541798 15.22884732 115.61431938 C15.22859173 119.99068388 15.23147635 124.36699231 15.24202538 128.74334526 C15.25167204 132.8579494 15.25180929 136.97244348 15.24450874 141.08705139 C15.24345861 142.60040509 15.24585101 144.11376552 15.2518692 145.62710762 C15.25953202 147.68683421 15.25498283 149.74617527 15.24723816 151.80589294 C15.24778293 152.96052253 15.24832769 154.11515211 15.24888897 155.30477047 C15 158 15 158 13 160 C10.50390625 160.265625 10.50390625 160.265625 7.5625 160.25 C6.11037109 160.25773437 6.11037109 160.25773437 4.62890625 160.265625 C2 160 2 160 -1 158 C-1.39872742 155.21591187 -1.39872742 155.21591187 -1.43237305 151.62255859 C-1.4425647 150.96877731 -1.45275635 150.31499603 -1.46325684 149.6414032 C-1.49348958 147.4769953 -1.50266785 145.31302917 -1.51171875 143.1484375 C-1.52855793 141.64912432 -1.54670714 140.14982532 -1.56611633 138.65054321 C-1.61370562 134.70174593 -1.64345685 130.75300612 -1.66955566 126.80401611 C-1.69931645 122.77547854 -1.74586203 118.74713925 -1.79101562 114.71875 C-1.87715014 106.8125972 -1.94444988 98.90642654 -2 91 C-3.13115234 91.45826172 -3.13115234 91.45826172 -4.28515625 91.92578125 C-9.80533419 94.11002432 -14.15408918 95.70505732 -20 94 C-22.43235379 92.78382311 -24.6833582 91.43631791 -27 90 C-27 89.34 -27 88.68 -27 88 C-21.11688339 85.71212132 -16.32548137 84.55610657 -10 85 C-9.34 85.33 -8.68 85.66 -8 86 C-6.02 86 -4.04 86 -2 86 C-1.67 82.04 -1.34 78.08 -1 74 C-1.969375 74.474375 -2.93875 74.94875 -3.9375 75.4375 C-10.57860905 78.21129655 -15.79129102 78.75950697 -22.5625 76.0625 C-24.05051439 75.39436569 -25.53319668 74.71349723 -27 74 C-26.67 73.01 -26.34 72.02 -26 71 C-20.82083386 68.58900887 -16.78630044 67.44362496 -11 68 C-9.65863633 68.65035814 -8.32467746 69.3162955 -7 70 C-5.00040088 70.04004203 -2.99952886 70.04340904 -1 70 C-1.00222061 69.15253204 -1.00444122 68.30506409 -1.00672913 67.43191528 C-1.02674261 59.45638957 -1.04197955 51.48087225 -1.05181217 43.50532722 C-1.05703709 39.40474504 -1.06412768 35.30418355 -1.07543945 31.20361328 C-1.08628218 27.24845043 -1.09227979 23.29330752 -1.09487724 19.33813095 C-1.09672898 17.82701173 -1.10034482 16.31589363 -1.10573006 14.80478287 C-1.11295886 12.69291042 -1.11399016 10.58112105 -1.11352539 8.46923828 C-1.115746 7.26566681 -1.11796661 6.06209534 -1.12025452 4.822052 C-1 2 -1 2 0 0 Z " fill="#383838" transform="translate(76,68)"/>
<path d="M0 0 C0.33 0 0.66 0 1 0 C0.67 23.76 0.34 47.52 0 72 C-6.93 72 -13.86 72 -21 72 C-21.33 70.68 -21.66 69.36 -22 68 C-23.98 68 -25.96 68 -28 68 C-28 51.17 -28 34.34 -28 17 C-26.02 17 -24.04 17 -22 17 C-21.34 15.35 -20.68 13.7 -20 12 C-13.4 12 -6.8 12 0 12 C0 8.04 0 4.08 0 0 Z " fill="#BBBBBA" transform="translate(119,66)"/>
<path d="M0 0 C5.94 0 11.88 0 18 0 C18.76203268 3.8101634 19.12619555 6.70831622 19.12939453 10.50878906 C19.13254669 11.58630432 19.13569885 12.66381958 19.13894653 13.77398682 C19.1369223 14.92622742 19.13489807 16.07846802 19.1328125 17.265625 C19.13424759 19.04933502 19.13424759 19.04933502 19.13571167 20.86907959 C19.13639125 23.3772385 19.13455243 25.88539918 19.13037109 28.39355469 C19.12500085 32.24938863 19.1303333 36.10510709 19.13671875 39.9609375 C19.1360583 42.39583359 19.13477783 44.83072961 19.1328125 47.265625 C19.13483673 48.42596252 19.13686096 49.58630005 19.13894653 50.78179932 C19.13579437 51.84670593 19.13264221 52.91161255 19.12939453 54.00878906 C19.12859894 54.95079163 19.12780334 55.89279419 19.12698364 56.86334229 C19 59 19 59 18 60 C12.06 60 6.12 60 0 60 C0 40.2 0 20.4 0 0 Z " fill="#8E8E8E" transform="translate(91,154)"/>
<path d="M0 0 C3.97443039 2.41688335 6.26266903 5.6395696 7.734375 10.0546875 C8.19214067 16.46340685 8.19214067 16.46340685 6.234375 18.9921875 C5.739375 19.3428125 5.244375 19.6934375 4.734375 20.0546875 C3.744375 19.7246875 2.754375 19.3946875 1.734375 19.0546875 C1.73050781 18.04148438 1.73050781 18.04148438 1.7265625 17.0078125 C1.60680101 14.24531411 1.39174214 11.74315055 0.734375 9.0546875 C-2.41516513 6.17902043 -3.99088738 5.0546875 -8.265625 5.0546875 C-7.935625 5.3846875 -7.605625 5.7146875 -7.265625 6.0546875 C-6.8576603 11.25623737 -7.30208889 14.70816787 -10.265625 19.0546875 C-14.98009097 22.34384981 -18.71175615 22.58362739 -24.265625 22.0546875 C-28.8219244 20.19074684 -31.14109726 17.46716819 -33.265625 13.0546875 C-33.71037362 8.11012934 -32.98366609 4.96168677 -29.890625 1.0546875 C-22.80983362 -4.34020117 -8.08115092 -3.28884049 0 0 Z " fill="#D6D6D6" transform="translate(323.265625,156.9453125)"/>
<path d="M0 0 C0.33 0 0.66 0 1 0 C1 31.02 1 62.04 1 94 C0.67 94 0.34 94 0 94 C0 86.74 0 79.48 0 72 C-2.97 72 -5.94 72 -9 72 C-9.33 53.85 -9.66 35.7 -10 17 C-9.67 17.99 -9.34 18.98 -9 20 C-6.03 20 -3.06 20 0 20 C0 13.4 0 6.8 0 0 Z " fill="#BFBDBB" transform="translate(119,138)"/>
<path d="M0 0 C7.85351255 1.24905137 15.34689452 3.93217887 22.875 6.4375 C24.09703125 6.83259766 25.3190625 7.22769531 26.578125 7.63476562 C27.74601562 8.02212891 28.91390625 8.40949219 30.1171875 8.80859375 C31.17534668 9.15720459 32.23350586 9.50581543 33.32373047 9.86499023 C35.89169389 10.95406722 37.23816015 11.87918243 39 14 C38.00128969 16.7741953 37.33458718 17.81992507 34.69921875 19.23828125 C33.20841797 19.77001953 33.20841797 19.77001953 31.6875 20.3125 C30.53636719 20.72371094 29.38523437 21.13492188 28.19921875 21.55859375 C27.5448584 21.78272949 26.89049805 22.00686523 26.21630859 22.23779297 C23.68498127 23.10833757 21.16564848 24.01048785 18.64453125 24.91015625 C16.76366562 25.56695355 14.88215327 26.22190177 13 26.875 C12.09209717 27.19766846 11.18419434 27.52033691 10.2487793 27.8527832 C9.38293213 28.14628662 8.51708496 28.43979004 7.625 28.7421875 C6.85414063 29.0088623 6.08328125 29.27553711 5.2890625 29.55029297 C2.58525025 30.08148134 0.64526619 29.69227925 -2 29 C-1.7578125 27.12109375 -1.7578125 27.12109375 -1 25 C0.7578125 23.91015625 0.7578125 23.91015625 3.125 23.0625 C4.01574219 22.73894531 4.90648437 22.41539062 5.82421875 22.08203125 C7.39623047 21.54642578 7.39623047 21.54642578 9 21 C10.29819216 20.545616 11.59636843 20.09118658 12.89453125 19.63671875 C14.24157835 19.17270699 15.58923433 18.71045899 16.9375 18.25 C17.58799316 18.02707275 18.23848633 17.80414551 18.90869141 17.57446289 C21.73954226 16.63318834 23.99412823 16 27 16 C27 15.34 27 14.68 27 14 C25.70964844 13.72929687 24.41929687 13.45859375 23.08984375 13.1796875 C18.15689807 12.08004163 13.36746131 10.68531217 8.5625 9.125 C7.76134766 8.88136719 6.96019531 8.63773438 6.13476562 8.38671875 C4.98717773 8.01353516 4.98717773 8.01353516 3.81640625 7.6328125 C2.78688843 7.30627686 2.78688843 7.30627686 1.73657227 6.97314453 C-0.51324688 5.71238548 -1.0567459 4.35102834 -2 2 C-1.34 1.34 -0.68 0.68 0 0 Z " fill="#D6D6D6" transform="translate(292,119)"/>
<path d="M0 0 C2.98492713 0.75970167 4.41946676 2.04766562 6.1640625 4.55078125 C6.1640625 5.21078125 6.1640625 5.87078125 6.1640625 6.55078125 C6.8240625 6.55078125 7.4840625 6.55078125 8.1640625 6.55078125 C8.2890625 14.17578125 8.2890625 14.17578125 7.1640625 17.55078125 C3.80808333 21.00845675 0.86374967 22.33143109 -3.83984375 22.72265625 C-7.26362074 22.42784962 -9.29315406 20.73030991 -11.8359375 18.55078125 C-14.517564 14.5283415 -14.52551579 11.27813123 -13.8359375 6.55078125 C-10.09572649 0.48905995 -6.76866913 -0.91498296 0 0 Z " fill="#B37A48" transform="translate(138.8359375,97.44921875)"/>
<path d="M0 0 C3.20679511 2.02878874 4.48265457 3.51193653 5.7265625 7.08984375 C6.40775928 10.4669634 6.44924664 12.93619951 5.09765625 16.13671875 C2.89372611 19.28610299 1.11068627 20.74867683 -2.67578125 21.60546875 C-7.27834214 21.8359082 -10.18399215 21.48000462 -14.1875 19.125 C-16.74177351 14.72108016 -16.90693671 10.97589598 -16 6 C-11.98176758 -0.56311295 -7.26370786 -0.97077857 0 0 Z " fill="#BE7E47" transform="translate(141,174)"/>
<path d="M0 0 C2.31 0 4.62 0 7 0 C7 16.5 7 33 7 50 C4.69 50 2.38 50 0 50 C0 33.5 0 17 0 0 Z " fill="#8D8D8D" transform="translate(91,83)"/>
<path d="M0 0 C2.3329866 0.04022391 4.66706666 0.04320247 7 0 C6.8125 2.375 6.8125 2.375 6 5 C3.875 6.1875 3.875 6.1875 1 7 C-0.134375 7.391875 -1.26875 7.78375 -2.4375 8.1875 C-9.27094778 9.74600563 -13.31576637 7.52422485 -19 4 C-19 3.34 -19 2.68 -19 2 C-6.0625 -3.03125 -6.0625 -3.03125 0 0 Z " fill="#A9484C" transform="translate(68,154)"/>
<path d="M0 0 C2.5625 1.625 2.5625 1.625 4 4 C3.85205998 7.6985004 3.64194427 9.35805573 1 12 C-1.05859375 12.30078125 -1.05859375 12.30078125 -3.4375 12.3125 C-4.61119141 12.33763672 -4.61119141 12.33763672 -5.80859375 12.36328125 C-8.51439111 11.91472661 -9.38000568 11.18213746 -11 9 C-11.38601984 5.91184125 -11.47901666 3.89815624 -10 1.125 C-6.77832708 -0.68719102 -3.54535963 -0.63360845 0 0 Z " fill="#353535" transform="translate(307,161)"/>
<path d="M0 0 C3.16115776 1.36983503 3.9927092 1.9890638 6 5 C6.44261436 8.98352923 6.3653862 11.29967646 4.5 14.875 C1.13223468 17.73760052 -1.64835935 18.14355928 -6 18 C-8.3125 17.4375 -8.3125 17.4375 -10 16 C-13 10.85714286 -13 10.85714286 -13 8 C-12.34 8 -11.68 8 -11 8 C-11 8.66 -11 9.32 -11 10 C-9.02 10 -7.04 10 -5 10 C-5 11.65 -5 13.3 -5 15 C-4.01 15 -3.02 15 -2 15 C-2 13.35 -2 11.7 -2 10 C-0.35 9.67 1.3 9.34 3 9 C3 8.67 3 8.34 3 8 C1.35 7.67 -0.3 7.34 -2 7 C-2.125 4.625 -2.125 4.625 -2 2 C-1.34 1.34 -0.68 0.68 0 0 Z " fill="#CB8D58" transform="translate(139,176)"/>
<path d="M0 0 C6.30339623 0.46691824 6.30339623 0.46691824 8.6640625 2.2734375 C11.12172502 5.44971479 11.33692886 9.08062347 11 13 C8.50490809 16.62922459 6.96099384 17.76428453 2.6875 18.8125 C1.800625 18.874375 0.91375 18.93625 0 19 C0 18.34 0 17.68 0 17 C0.99 17 1.98 17 3 17 C3 12.05 3 7.1 3 2 C2.01 2.495 2.01 2.495 1 3 C0.53101037 5.8159849 0.53101037 5.8159849 0.375 9.0625 C0.30023438 10.16722656 0.22546875 11.27195312 0.1484375 12.41015625 C0.09945312 13.26480469 0.05046875 14.11945313 0 15 C-0.33 15 -0.66 15 -1 15 C-1.02685412 12.68756208 -1.04632841 10.3750373 -1.0625 8.0625 C-1.07410156 6.77472656 -1.08570313 5.48695312 -1.09765625 4.16015625 C-1 1 -1 1 0 0 Z " fill="#CF8D54" transform="translate(134,99)"/>
<path d="M0 0 C-0.66 0.66 -1.32 1.32 -2 2 C-2 2.99 -2 3.98 -2 5 C0.97 5.33 3.94 5.66 7 6 C3.88018959 9.11981041 0.77330206 9.76693709 -3.47265625 10.1484375 C-8.02185419 9.88125122 -11.94652463 7.97173228 -16 6 C-15.67 5.01 -15.34 4.02 -15 3 C-9.72006588 0.54209963 -5.78159553 -0.36134972 0 0 Z " fill="#4E4F4F" transform="translate(65,136)"/>
<path d="M0 0 C2.98492713 0.75970167 4.41946676 2.04766562 6.1640625 4.55078125 C6.1640625 5.21078125 6.1640625 5.87078125 6.1640625 6.55078125 C6.8240625 6.55078125 7.4840625 6.55078125 8.1640625 6.55078125 C8.2890625 14.17578125 8.2890625 14.17578125 7.1640625 17.55078125 C3.80808333 21.00845675 0.86374967 22.33143109 -3.83984375 22.72265625 C-7.26362074 22.42784962 -9.29315406 20.73030991 -11.8359375 18.55078125 C-14.517564 14.5283415 -14.52551579 11.27813123 -13.8359375 6.55078125 C-10.09572649 0.48905995 -6.76866913 -0.91498296 0 0 Z M-12.2734375 6.30078125 C-13.13232889 9.7363468 -12.73466218 12.13562746 -11.8359375 15.55078125 C-9.36986736 18.86236115 -7.98382941 20.33097216 -3.8984375 21.11328125 C-0.08886391 20.41356365 2.14422358 18.93856086 5.1640625 16.55078125 C6.91731015 13.04428594 6.12531474 9.25752791 5.1640625 5.55078125 C2.75533762 2.80751125 1.30909718 1.7563003 -2.2734375 1.11328125 C-6.3041649 1.80145422 -9.63406683 3.08763434 -12.2734375 6.30078125 Z " fill="#BF7E46" transform="translate(138.8359375,97.44921875)"/>
<path d="M0 0 C0.74958984 0.00902344 1.49917969 0.01804688 2.27148438 0.02734375 C4.11862654 0.05087422 5.96560412 0.08674439 7.8125 0.125 C7.4825 1.775 7.1525 3.425 6.8125 5.125 C5.37510487 5.15212066 3.93756137 5.17145067 2.5 5.1875 C1.29923828 5.20490234 1.29923828 5.20490234 0.07421875 5.22265625 C-2.1875 5.125 -2.1875 5.125 -5.1875 4.125 C-5.1875 5.115 -5.1875 6.105 -5.1875 7.125 C-6.8375 6.795 -8.4875 6.465 -10.1875 6.125 C-10.5175 4.805 -10.8475 3.485 -11.1875 2.125 C-7.39586973 -0.40275351 -4.37875969 -0.09943035 0 0 Z " fill="#A81E1D" transform="translate(67.1875,153.875)"/>
<path d="M0 0 C0.99 0.33 1.98 0.66 3 1 C4.1845131 4.55353929 4.26641894 7.27013478 4 11 C2.5 12.9375 2.5 12.9375 1 14 C0.01 13.67 -0.98 13.34 -2 13 C-2.05391993 11.20866022 -2.09275571 9.41686101 -2.125 7.625 C-2.14820313 6.62726563 -2.17140625 5.62953125 -2.1953125 4.6015625 C-2 2 -2 2 0 0 Z " fill="#CDCDCD" transform="translate(327,163)"/>
<path d="M0 0 C2.33944736 0.28730055 4.6739143 0.61936779 7 1 C7.33 1.99 7.66 2.98 8 4 C7.01 4.495 7.01 4.495 6 5 C5.53193355 7.33744294 5.17330206 9.69739079 4.875 12.0625 C4.62363281 13.99802734 4.62363281 13.99802734 4.3671875 15.97265625 C4.24601563 16.97167969 4.12484375 17.97070312 4 19 C2.68 19 1.36 19 0 19 C0 18.34 0 17.68 0 17 C0.99 17 1.98 17 3 17 C3 12.05 3 7.1 3 2 C2.01 2.495 2.01 2.495 1 3 C0.53101037 5.8159849 0.53101037 5.8159849 0.375 9.0625 C0.30023438 10.16722656 0.22546875 11.27195312 0.1484375 12.41015625 C0.09945312 13.26480469 0.05046875 14.11945313 0 15 C-0.33 15 -0.66 15 -1 15 C-1.02685412 12.68756208 -1.04632841 10.3750373 -1.0625 8.0625 C-1.07410156 6.77472656 -1.08570313 5.48695312 -1.09765625 4.16015625 C-1 1 -1 1 0 0 Z " fill="#C88E5D" transform="translate(134,99)"/>
<path d="M0 0 C0.66 0 1.32 0 2 0 C2 1.65 2 3.3 2 5 C3.65 5 5.3 5 7 5 C7 5.99 7 6.98 7 8 C5.35 8 3.7 8 2 8 C2 9.65 2 11.3 2 13 C1.34 13 0.68 13 0 13 C0 11.02 0 9.04 0 7 C-1.98 7 -3.96 7 -6 7 C-6 6.67 -6 6.34 -6 6 C-4.02 6 -2.04 6 0 6 C0 4.02 0 2.04 0 0 Z " fill="#604026" transform="translate(135,178)"/>
<path d="M0 0 C0.66 0 1.32 0 2 0 C2 4.29 2 8.58 2 13 C1.67 13 1.34 13 1 13 C1 11.35 1 9.7 1 8 C-0.98 8 -2.96 8 -5 8 C-5 7.34 -5 6.68 -5 6 C-5.66 6 -6.32 6 -7 6 C-6.67 5.01 -6.34 4.02 -6 3 C-4.02 3 -2.04 3 0 3 C0 2.01 0 1.02 0 0 Z " fill="#A67953" transform="translate(133,178)"/>
<path d="M0 0 C2.64 0 5.28 0 8 0 C7.27734375 1.9453125 7.27734375 1.9453125 6 4 C3.94140625 4.6796875 3.94140625 4.6796875 1.5625 4.875 C0.78003906 4.95492187 -0.00242187 5.03484375 -0.80859375 5.1171875 C-3 5 -3 5 -6 3 C-4.02 3 -2.04 3 0 3 C0 2.01 0 1.02 0 0 Z " fill="#B8494D" transform="translate(62,158)"/>
<path d="M0 0 C0.8353125 0.37125 0.8353125 0.37125 1.6875 0.75 C-0.2925 1.74 -0.2925 1.74 -2.3125 2.75 C-2.3125 3.74 -2.3125 4.73 -2.3125 5.75 C-3.9625 6.08 -5.6125 6.41 -7.3125 6.75 C-7.3125 5.76 -7.3125 4.77 -7.3125 3.75 C-3.21493902 -0.34756098 -3.21493902 -0.34756098 0 0 Z " fill="#CE8E55" transform="translate(135.3125,175.25)"/>
<path d="M0 0 C3.14624993 -0.26218749 4.61837017 -0.24754367 7.3125 1.5 C8.1478125 2.2425 8.1478125 2.2425 9 3 C7.68 3 6.36 3 5 3 C4.67 3.66 4.34 4.32 4 5 C2.35 4.67 0.7 4.34 -1 4 C-0.67 2.68 -0.34 1.36 0 0 Z " fill="#3E403F" transform="translate(63,137)"/>
<path d="M0 0 C2.4375 0.625 2.4375 0.625 5 2 C5.8125 5.125 5.8125 5.125 6 8 C1.3125 4.38671875 1.3125 4.38671875 0 3 C0 2.01 0 1.02 0 0 Z " fill="#4C4C4C" transform="translate(305,161)"/>
<path d="M0 0 C1.32 0.33 2.64 0.66 4 1 C3.01 1.495 3.01 1.495 2 2 C2 3.32 2 4.64 2 6 C0.68 5.34 -0.64 4.68 -2 4 C-1.34 2.68 -0.68 1.36 0 0 Z " fill="#CFCFCF" transform="translate(292,119)"/>
<path d="M0 0 C0 1.65 0 3.3 0 5 C-2.475 4.01 -2.475 4.01 -5 3 C-5 2.34 -5 1.68 -5 1 C-3 0 -3 0 0 0 Z " fill="#A59F98" transform="translate(54,155)"/>
<path d="M0 0 C0.66 1.32 1.32 2.64 2 4 C0.02 4.99 0.02 4.99 -2 6 C-2.33 4.68 -2.66 3.36 -3 2 C-2.01 1.34 -1.02 0.68 0 0 Z " fill="#A71E1B" transform="translate(59,154)"/>
<path d="M0 0 C0.33 1.32 0.66 2.64 1 4 C-0.32 4.33 -1.64 4.66 -3 5 C-3 4.34 -3 3.68 -3 3 C-3.99 2.34 -4.98 1.68 -6 1 C-4.02 0.67 -2.04 0.34 0 0 Z " fill="#AE5E5F" transform="translate(74,154)"/>
<path d="M0 0 C1.32 0 2.64 0 4 0 C4 1.32 4 2.64 4 4 C2.35 3.67 0.7 3.34 -1 3 C-0.67 2.01 -0.34 1.02 0 0 Z " fill="#9C9C9C" transform="translate(50,139)"/>
</svg>
