<?xml version="1.0" encoding="UTF-8"?>
<svg version="1.1" xmlns="http://www.w3.org/2000/svg" width="185" height="204">
<path d="M0 0 C11.00160657 9.19861186 16.9945925 21.8355298 18.26171875 36.02734375 C19.30657126 55.25916031 10.3112907 69.74031881 -0.515625 84.89453125 C-3.38980797 88.94566436 -3.87616381 90.63197162 -3.86328125 95.52734375 C-3.86585937 96.50703125 -3.8684375 97.48671875 -3.87109375 98.49609375 C-3.90768178 101.02165429 -3.90768178 101.02165429 -2.73828125 103.02734375 C-2.43918907 107.22948577 -2.46007704 111.44082093 -2.42578125 115.65234375 C-2.38227539 117.39837891 -2.38227539 117.39837891 -2.33789062 119.1796875 C-2.28254209 126.69857366 -2.64907327 132.8526423 -8.1862793 138.50561523 C-10.29201643 140.31588005 -12.51136276 141.88442271 -14.859375 143.36328125 C-17.23624304 145.46836604 -17.38556384 146.73287208 -17.80078125 149.83984375 C-18.48357308 154.04116644 -19.58380059 157.30596807 -21.73828125 161.02734375 C-22.72828125 160.69734375 -23.71828125 160.36734375 -24.73828125 160.02734375 C-25.90625 157.0859375 -25.90625 157.0859375 -26.92578125 153.46484375 C-27.26996094 152.26730469 -27.61414063 151.06976563 -27.96875 149.8359375 C-28.22269531 148.90910156 -28.47664063 147.98226562 -28.73828125 147.02734375 C-30.38828125 146.69734375 -32.03828125 146.36734375 -33.73828125 146.02734375 C-33.84140625 147.20296875 -33.94453125 148.37859375 -34.05078125 149.58984375 C-34.56743083 153.85220278 -35.88911735 157.16821909 -37.73828125 161.02734375 C-40.73828125 160.02734375 -40.73828125 160.02734375 -41.65234375 158.20703125 C-41.88695312 157.44648438 -42.1215625 156.6859375 -42.36328125 155.90234375 C-42.74806641 154.68417969 -42.74806641 154.68417969 -43.140625 153.44140625 C-43.73828125 151.02734375 -43.73828125 151.02734375 -43.92578125 147.27734375 C-44.38883211 144.03260391 -44.38883211 144.03260391 -46.3984375 142.6953125 C-47.80686653 141.86605055 -49.22940423 141.06035293 -50.6640625 140.27734375 C-54.18539109 138.15526249 -57.00062092 135.17648316 -58.35888672 131.21923828 C-58.83675211 128.45844323 -58.86809936 125.8218557 -58.87109375 123.01953125 C-58.87238281 121.86839844 -58.87367187 120.71726563 -58.875 119.53125 C-58.87113281 118.33371094 -58.86726563 117.13617188 -58.86328125 115.90234375 C-58.86908203 114.09443359 -58.86908203 114.09443359 -58.875 112.25 C-58.87371094 111.10144531 -58.87242188 109.95289063 -58.87109375 108.76953125 C-58.86996582 107.71620605 -58.86883789 106.66288086 -58.86767578 105.57763672 C-58.73828125 103.02734375 -58.73828125 103.02734375 -57.73828125 101.02734375 C-56.49870627 93.0405368 -58.22158889 88.16024414 -62.8046875 81.640625 C-63.44277344 80.77824219 -64.08085938 79.91585937 -64.73828125 79.02734375 C-75.16351396 64.14513195 -81.5263192 49.78910983 -79.05078125 31.27734375 C-76.43516307 17.0807319 -69.35968473 5.68328565 -57.73828125 -2.97265625 C-39.66656975 -14.0531217 -16.91288552 -12.18403307 0 0 Z M-65.0078125 6.65625 C-70.95235861 14.80148586 -75.98043281 24.88901572 -76.73828125 35.02734375 C-76.84076172 36.34605469 -76.84076172 36.34605469 -76.9453125 37.69140625 C-77.62718829 55.62221415 -67.56142974 71.09955417 -57.50390625 85.1484375 C-55.64456938 88.18014386 -54.9998059 90.40692533 -54.48828125 93.90234375 C-54.33875 94.86914062 -54.18921875 95.8359375 -54.03515625 96.83203125 C-53.9371875 97.55648437 -53.83921875 98.2809375 -53.73828125 99.02734375 C-51.77931725 98.7188219 -49.82112412 98.40540195 -47.86328125 98.08984375 C-46.22746094 97.82880859 -46.22746094 97.82880859 -44.55859375 97.5625 C-41.80006579 97.17183216 -41.80006579 97.17183216 -39.73828125 96.02734375 C-37.34606901 77.12886704 -44.58380283 57.32656883 -51.73828125 40.02734375 C-51.19042969 40.16011719 -50.64257812 40.29289062 -50.078125 40.4296875 C-36.9222997 43.36033476 -24.05790011 43.16502473 -10.73828125 42.02734375 C-11.05579346 42.80335937 -11.37330566 43.579375 -11.70043945 44.37890625 C-12.89228044 47.29340634 -14.08307575 50.20833095 -15.27319336 53.12353516 C-16.03615532 54.99153433 -16.80029279 56.85905324 -17.56445312 58.7265625 C-18.53570485 61.10645082 -19.50190185 63.48840925 -20.46264648 65.87255859 C-21.20453354 67.70732694 -21.9566538 69.5381461 -22.73461914 71.35791016 C-24.81357522 76.39487352 -25.33381581 81.02691431 -25.55078125 86.40234375 C-25.60169922 87.20800781 -25.65261719 88.01367188 -25.70507812 88.84375 C-25.80680696 90.90246576 -25.78217168 92.96658346 -25.73828125 95.02734375 C-22.83300513 97.93261987 -19.527291 97.73998694 -15.61328125 98.15234375 C-14.85917969 98.23871094 -14.10507813 98.32507813 -13.328125 98.4140625 C-11.46570998 98.62623636 -9.60209194 98.82780138 -7.73828125 99.02734375 C-7.66351563 98.34929687 -7.58875 97.67125 -7.51171875 96.97265625 C-6.14013125 87.26396825 -1.8181445 80.90045139 3.82421875 73.08984375 C12.37832279 61.00457535 17.1538062 46.88442508 14.79296875 32.08984375 C12.14015697 19.96270419 6.36630134 6.89754176 -4.43164062 -0.06445312 C-23.69264408 -11.15036829 -49.10135027 -10.30812421 -65.0078125 6.65625 Z M-47.73828125 44.02734375 C-46.38036099 49.22079316 -44.97034226 54.37869742 -43.2734375 59.47265625 C-39.99179106 69.50485795 -37.96072918 78.92665273 -37.32006836 89.48779297 C-37.26729736 90.32971191 -37.21452637 91.17163086 -37.16015625 92.0390625 C-37.1250293 92.78631592 -37.08990234 93.53356934 -37.05371094 94.3034668 C-36.94961914 94.87234619 -36.84552734 95.44122559 -36.73828125 96.02734375 C-33.87651068 97.45822903 -31.80452352 96.62726072 -28.73828125 96.02734375 C-27.5443756 93.0008192 -27.5443756 93.0008192 -27.80078125 89.52734375 C-27.87379431 79.28349497 -24.57469286 70.40526405 -20.61328125 61.08984375 C-19.68775335 58.8958582 -18.76820126 56.69933941 -17.85546875 54.5 C-17.44925293 53.54359619 -17.04303711 52.58719238 -16.62451172 51.60180664 C-15.52128577 48.85076932 -15.52128577 48.85076932 -15.73828125 45.02734375 C-17.56939453 45.04474609 -17.56939453 45.04474609 -19.4375 45.0625 C-28.93349099 45.12434425 -38.28114791 44.97815069 -47.73828125 44.02734375 Z " fill="#3A3A3A" transform="translate(122.73828125,32.97265625)"/>
<path d="M0 0 C11.00160657 9.19861186 16.9945925 21.8355298 18.26171875 36.02734375 C19.30657126 55.25916031 10.3112907 69.74031881 -0.515625 84.89453125 C-3.53732694 89.15359093 -3.78701617 90.64402271 -3.55078125 95.77734375 C-3.5264492 99.83593014 -3.67501784 101.88621769 -5.36328125 105.65234375 C-11.88163876 112.17070126 -23.54637207 111.2077541 -32.23828125 111.21484375 C-33.02847656 111.22708984 -33.81867188 111.23933594 -34.6328125 111.25195312 C-41.8341637 111.26963238 -49.96187669 110.75349294 -55.73828125 106.02734375 C-57.57125358 102.3801029 -57.82744442 99.91897543 -57.42578125 95.90234375 C-57.28273832 88.8074143 -60.64622222 84.55782352 -64.73828125 79.02734375 C-75.16351396 64.14513195 -81.5263192 49.78910983 -79.05078125 31.27734375 C-76.43516307 17.0807319 -69.35968473 5.68328565 -57.73828125 -2.97265625 C-39.66656975 -14.0531217 -16.91288552 -12.18403307 0 0 Z M-65.0078125 6.65625 C-70.95235861 14.80148586 -75.98043281 24.88901572 -76.73828125 35.02734375 C-76.84076172 36.34605469 -76.84076172 36.34605469 -76.9453125 37.69140625 C-77.62718829 55.62221415 -67.56142974 71.09955417 -57.50390625 85.1484375 C-55.64456938 88.18014386 -54.9998059 90.40692533 -54.48828125 93.90234375 C-54.33875 94.86914062 -54.18921875 95.8359375 -54.03515625 96.83203125 C-53.9371875 97.55648437 -53.83921875 98.2809375 -53.73828125 99.02734375 C-51.77931725 98.7188219 -49.82112412 98.40540195 -47.86328125 98.08984375 C-46.22746094 97.82880859 -46.22746094 97.82880859 -44.55859375 97.5625 C-41.80006579 97.17183216 -41.80006579 97.17183216 -39.73828125 96.02734375 C-37.34606901 77.12886704 -44.58380283 57.32656883 -51.73828125 40.02734375 C-51.19042969 40.16011719 -50.64257812 40.29289062 -50.078125 40.4296875 C-36.9222997 43.36033476 -24.05790011 43.16502473 -10.73828125 42.02734375 C-11.05579346 42.80335937 -11.37330566 43.579375 -11.70043945 44.37890625 C-12.89228044 47.29340634 -14.08307575 50.20833095 -15.27319336 53.12353516 C-16.03615532 54.99153433 -16.80029279 56.85905324 -17.56445312 58.7265625 C-18.53570485 61.10645082 -19.50190185 63.48840925 -20.46264648 65.87255859 C-21.20453354 67.70732694 -21.9566538 69.5381461 -22.73461914 71.35791016 C-24.81357522 76.39487352 -25.33381581 81.02691431 -25.55078125 86.40234375 C-25.60169922 87.20800781 -25.65261719 88.01367188 -25.70507812 88.84375 C-25.80680696 90.90246576 -25.78217168 92.96658346 -25.73828125 95.02734375 C-22.83300513 97.93261987 -19.527291 97.73998694 -15.61328125 98.15234375 C-14.85917969 98.23871094 -14.10507813 98.32507813 -13.328125 98.4140625 C-11.46570998 98.62623636 -9.60209194 98.82780138 -7.73828125 99.02734375 C-7.66351563 98.34929687 -7.58875 97.67125 -7.51171875 96.97265625 C-6.14013125 87.26396825 -1.8181445 80.90045139 3.82421875 73.08984375 C12.37832279 61.00457535 17.1538062 46.88442508 14.79296875 32.08984375 C12.14015697 19.96270419 6.36630134 6.89754176 -4.43164062 -0.06445312 C-23.69264408 -11.15036829 -49.10135027 -10.30812421 -65.0078125 6.65625 Z M-47.73828125 44.02734375 C-46.38036099 49.22079316 -44.97034226 54.37869742 -43.2734375 59.47265625 C-39.99179106 69.50485795 -37.96072918 78.92665273 -37.32006836 89.48779297 C-37.26729736 90.32971191 -37.21452637 91.17163086 -37.16015625 92.0390625 C-37.1250293 92.78631592 -37.08990234 93.53356934 -37.05371094 94.3034668 C-36.94961914 94.87234619 -36.84552734 95.44122559 -36.73828125 96.02734375 C-33.87651068 97.45822903 -31.80452352 96.62726072 -28.73828125 96.02734375 C-27.5443756 93.0008192 -27.5443756 93.0008192 -27.80078125 89.52734375 C-27.87379431 79.28349497 -24.57469286 70.40526405 -20.61328125 61.08984375 C-19.68775335 58.8958582 -18.76820126 56.69933941 -17.85546875 54.5 C-17.44925293 53.54359619 -17.04303711 52.58719238 -16.62451172 51.60180664 C-15.52128577 48.85076932 -15.52128577 48.85076932 -15.73828125 45.02734375 C-17.56939453 45.04474609 -17.56939453 45.04474609 -19.4375 45.0625 C-28.93349099 45.12434425 -38.28114791 44.97815069 -47.73828125 44.02734375 Z " fill="#A7A7A8" transform="translate(122.73828125,32.97265625)"/>
<path d="M0 0 C11.00160657 9.19861186 16.9945925 21.8355298 18.26171875 36.02734375 C19.30657126 55.25916031 10.3112907 69.74031881 -0.515625 84.89453125 C-3.3232425 88.85184098 -3.91199871 90.8758725 -4.30078125 95.65234375 C-4.42646484 97.15667969 -4.42646484 97.15667969 -4.5546875 98.69140625 C-4.61527344 99.46226562 -4.67585938 100.233125 -4.73828125 101.02734375 C-5.06828125 101.02734375 -5.39828125 101.02734375 -5.73828125 101.02734375 C-7.15178622 92.82901494 -7.38422848 87.36533628 -2.5546875 80.41796875 C-1.65556641 79.23460938 -1.65556641 79.23460938 -0.73828125 78.02734375 C8.58020477 65.22207193 15.89216267 51.33178294 14.26171875 35.02734375 C12.29710576 22.71576902 7.06955363 10.10529279 -2.73828125 2.02734375 C-15.26275371 -5.91980742 -28.23899945 -7.71006374 -42.7890625 -5.51171875 C-53.07694189 -2.72234156 -61.66513324 3.29556442 -67.73828125 12.02734375 C-74.73440305 24.43379974 -78.07162655 37.61267939 -74.48828125 51.65234375 C-71.46423721 61.47013057 -66.66674325 69.63792243 -61.17578125 78.2578125 C-60.56524902 79.22122559 -60.56524902 79.22122559 -59.94238281 80.20410156 C-58.83549354 81.88014558 -57.62669443 83.48770026 -56.41015625 85.0859375 C-54.33196069 88.74220212 -54.48232312 90.77035232 -54.98828125 94.90234375 C-55.1171875 96.05476563 -55.24609375 97.2071875 -55.37890625 98.39453125 C-55.4975 99.26335937 -55.61609375 100.1321875 -55.73828125 101.02734375 C-56.06828125 101.02734375 -56.39828125 101.02734375 -56.73828125 101.02734375 C-56.72925781 100.36089844 -56.72023438 99.69445312 -56.7109375 99.0078125 C-56.98016924 90.63821705 -59.89512453 85.69415825 -64.73828125 79.02734375 C-75.15042798 64.12720274 -81.5283015 49.80393325 -79.05078125 31.27734375 C-76.43516307 17.0807319 -69.35968473 5.68328565 -57.73828125 -2.97265625 C-39.66656975 -14.0531217 -16.91288552 -12.18403307 0 0 Z " fill="#CACBCD" transform="translate(122.73828125,32.97265625)"/>
<path d="M0 0 C0.54785156 0.06058594 1.09570312 0.12117188 1.66015625 0.18359375 C14.79987452 1.57234446 27.80009034 2.15610931 41 2 C39.38895347 7.08386538 37.61755635 12.01474848 35.5546875 16.93359375 C30.27382415 29.6535948 26.00299411 41.07571433 27 55 C27.33 55.66 27.66 56.32 28 57 C27.01 57 26.02 57 25 57 C25 59.97 25 62.94 25 66 C24.67 66 24.34 66 24 66 C24 63.03 24 60.06 24 57 C21.69 57 19.38 57 17 57 C17 56.67 17 56.34 17 56 C18.98 56 20.96 56 23 56 C22.97679688 55.33355469 22.95359375 54.66710937 22.9296875 53.98046875 C22.91164063 53.05878906 22.89359375 52.13710937 22.875 51.1875 C22.85179688 50.29417969 22.82859375 49.40085938 22.8046875 48.48046875 C23.35948905 38.59390522 26.24062527 30.13877677 30.0625 21.0625 C30.97217961 18.86676563 31.87982193 16.67018581 32.78515625 14.47265625 C33.38662476 13.03805054 33.38662476 13.03805054 34.00024414 11.57446289 C34.85106865 9.38351186 35.50017043 7.29192613 36 5 C35.3090625 5.16113281 34.618125 5.32226562 33.90625 5.48828125 C30.71976504 6.04934245 27.73555374 6.16894751 24.5 6.1875 C22.84484375 6.20876953 22.84484375 6.20876953 21.15625 6.23046875 C15.3843723 6.07673467 9.6832109 4.94917366 4 4 C4.39324463 5.11689209 4.39324463 5.11689209 4.79443359 6.25634766 C6.00123304 9.7080823 7.18814066 13.1663608 8.375 16.625 C8.7875 17.79546875 9.2 18.9659375 9.625 20.171875 C13.74362777 32.26204039 15.11694026 44.31182591 16 57 C14.02 57 12.04 57 10 57 C10.99 56.505 10.99 56.505 12 56 C11.835 55.071875 11.67 54.14375 11.5 53.1875 C11.0383829 50.1335802 11.08843455 47.36961955 11.27734375 44.29296875 C11.31387308 36.16519315 8.54199079 28.77282917 6.0625 21.125 C5.35598621 18.89756259 4.65388059 16.66878789 3.95347595 14.43942261 C3.51951211 13.06340876 3.08124896 11.68874073 2.63795471 10.31570435 C1.54372519 6.89957181 0.61813613 3.53474151 0 0 Z " fill="#D4D5D7" transform="translate(71,73)"/>
<path d="M0 0 C3.3 0.33 6.6 0.66 10 1 C10 1.66 10 2.32 10 3 C10.9075 2.814375 11.815 2.62875 12.75 2.4375 C15.68314324 2.04265379 17.2644657 2.05308428 20 3 C20 4.65 20 6.3 20 8 C13.23537382 11.70443815 7.5406578 12.13001134 0 12 C0 8.04 0 4.08 0 0 Z " fill="#272727" transform="translate(96,130)"/>
<path d="M0 0 C0.97324219 0.00644531 1.94648437 0.01289063 2.94921875 0.01953125 C5.3125 0.1875 5.3125 0.1875 6.3125 1.1875 C6.38455511 2.87358966 6.39636068 4.56250659 6.375 6.25 C6.36597656 7.16910156 6.35695313 8.08820313 6.34765625 9.03515625 C6.33605469 9.74542969 6.32445313 10.45570313 6.3125 11.1875 C-6.64347484 10.23152516 -6.64347484 10.23152516 -9.6875 7.1875 C-9.72813832 5.52132885 -9.730221 3.85361905 -9.6875 2.1875 C-6.36599055 0.1914385 -3.84659894 -0.05649211 0 0 Z " fill="#272727" transform="translate(77.6875,130.8125)"/>
<path d="M0 0 C2 3 2 3 1.78125 5.33203125 C0.92355963 8.26104386 -0.24846649 10.90429321 -1.5 13.6875 C-4.76480607 21.91556616 -5.13080329 30.20815033 -5 39 C-4.67 39.66 -4.34 40.32 -4 41 C-4.99 41 -5.98 41 -7 41 C-7 43.97 -7 46.94 -7 50 C-7.33 50 -7.66 50 -8 50 C-8 47.03 -8 44.06 -8 41 C-10.31 41 -12.62 41 -15 41 C-15 40.67 -15 40.34 -15 40 C-13.02 40 -11.04 40 -9 40 C-9.03480469 39.00033203 -9.03480469 39.00033203 -9.0703125 37.98046875 C-9.34463691 23.97032927 -5.25918085 12.78234062 0 0 Z " fill="#D6D6D8" transform="translate(103,89)"/>
<path d="M0 0 C3.63 0 7.26 0 11 0 C10.53328373 5.41390868 9.75702189 9.20517932 7 14 C6.01 13.67 5.02 13.34 4 13 C2.83203125 10.05859375 2.83203125 10.05859375 1.8125 6.4375 C1.46832031 5.23996094 1.12414062 4.04242188 0.76953125 2.80859375 C0.51558594 1.88175781 0.26164062 0.95492187 0 0 Z " fill="#535454" transform="translate(94,180)"/>
<path d="M0 0 C2.64 0 5.28 0 8 0 C8 3.96 8 7.92 8 12 C5.36 12 2.72 12 0 12 C0 8.04 0 4.08 0 0 Z " fill="#232323" transform="translate(86,130)"/>
<path d="M0 0 C0.34615998 5.65394631 -0.56574762 9.03006806 -3 14 C-3.99 13.67 -4.98 13.34 -6 13 C-6.94921875 11.0390625 -6.94921875 11.0390625 -7.6875 8.625 C-7.93886719 7.83351562 -8.19023438 7.04203125 -8.44921875 6.2265625 C-9 4 -9 4 -9 1 C-6.04335481 -0.4783226 -3.25770263 -0.06032783 0 0 Z " fill="#333333" transform="translate(88,180)"/>
<path d="M0 0 C0.66 0 1.32 0 2 0 C2.33 2.64 2.66 5.28 3 8 C2.34 8 1.68 8 1 8 C1.45707588 11.00126731 1.45707588 11.00126731 3 14 C6.2945875 15.38103087 6.2945875 15.38103087 10.125 15.875 C11.40632813 16.09929687 12.68765625 16.32359375 14.0078125 16.5546875 C14.99523437 16.70164063 15.98265625 16.84859375 17 17 C16.505 12.05 16.505 12.05 16 7 C13.69 6.67 11.38 6.34 9 6 C9 5.67 9 5.34 9 5 C13.455 4.505 13.455 4.505 18 4 C18 8.62 18 13.24 18 18 C5.91721854 18.44205298 5.91721854 18.44205298 1 15 C-2 11.7 -2 11.7 -2 9 C-1.34 9 -0.68 9 0 9 C0 6.03 0 3.06 0 0 Z " fill="#9F9F9F" transform="translate(67,125)"/>
<path d="M0 0 C0.55945313 0.06058594 1.11890625 0.12117188 1.6953125 0.18359375 C9.11897335 0.95937824 16.55348409 1.49569705 24 2 C24 2.99 24 3.98 24 5 C21.43721301 5.05420701 18.87558517 5.09377007 16.3125 5.125 C15.59126953 5.14175781 14.87003906 5.15851563 14.12695312 5.17578125 C9.95123219 5.21391569 6.7505862 4.8789919 3 3 C3 3.66 3 4.32 3 5 C2.34 5 1.68 5 1 5 C0.67 3.35 0.34 1.7 0 0 Z " fill="#C8C9CB" transform="translate(71,73)"/>
<path d="M0 0 C4.01027794 2.89129224 6.42534618 5.75111405 8.9375 10 C9.56527344 11.03125 10.19304687 12.0625 10.83984375 13.125 C12 16 12 16 11.19140625 18.375 C10.79824219 18.91125 10.40507812 19.4475 10 20 C7.38710901 16.08066352 5.09744946 11.99490651 2.75390625 7.91015625 C1.28534323 5.4734537 -0.24171234 3.23146599 -2 1 C-1.34 0.67 -0.68 0.34 0 0 Z " fill="#D0D1D3" transform="translate(125,36)"/>
<path d="M0 0 C0.66 0.99 1.32 1.98 2 3 C0.953125 5.99609375 0.953125 5.99609375 -0.75 9.4375 C-1.30171875 10.57058594 -1.8534375 11.70367187 -2.421875 12.87109375 C-2.94265625 13.90363281 -3.4634375 14.93617187 -4 16 C-4.33515625 16.75410156 -4.6703125 17.50820313 -5.015625 18.28515625 C-6 20 -6 20 -9 22 C-8.03357792 14.31861067 -5.65510756 5.65510756 0 0 Z " fill="#D0D1D2" transform="translate(53,42)"/>
<path d="M0 0 C0.33 0 0.66 0 1 0 C1 3.96 1 7.92 1 12 C3.64 12 6.28 12 9 12 C9 8.04 9 4.08 9 0 C9.33 0 9.66 0 10 0 C10.03867188 1.26457031 10.03867188 1.26457031 10.078125 2.5546875 C10.13484375 3.65039062 10.1915625 4.74609375 10.25 5.875 C10.29640625 6.96554688 10.3428125 8.05609375 10.390625 9.1796875 C10.59171875 10.11039063 10.7928125 11.04109375 11 12 C12.32 12.66 13.64 13.32 15 14 C8.73 14 2.46 14 -4 14 C-2.68 13.67 -1.36 13.34 0 13 C0 8.71 0 4.42 0 0 Z " fill="#868686" transform="translate(85,130)"/>
<path d="M0 0 C3.95887519 2.63925013 4.02665745 4.40675015 5 9 C5.1301949 11.64295657 5.17182738 14.29175297 5.125 16.9375 C5.11146484 17.96327148 5.11146484 17.96327148 5.09765625 19.00976562 C5.07438958 20.67333287 5.03853167 22.33671631 5 24 C4.67 24 4.34 24 4 24 C2.17123868 16.01785939 0.5466488 8.18088206 0 0 Z " fill="#C0C0C2" transform="translate(135,53)"/>
<path d="M0 0 C0.33 0 0.66 0 1 0 C0.67 8.25 0.34 16.5 0 25 C-0.33 25 -0.66 25 -1 25 C-3.87178533 17.7360724 -3.60335167 9.43913036 -0.953125 2.1015625 C-0.63859375 1.40804687 -0.3240625 0.71453125 0 0 Z " fill="#BDBEC0" transform="translate(46,59)"/>
<path d="M0 0 C-1 2 -1 2 -2.8125 2.74609375 C-4.27008691 3.20679533 -5.72842334 3.66513229 -7.1875 4.12109375 C-7.785625 4.41113281 -8.38375 4.70117188 -9 5 C-9.33 5.99 -9.66 6.98 -10 8 C-10.66 7.67 -11.32 7.34 -12 7 C-12 5.35 -12 3.7 -12 2 C-8.09971775 -0.60018816 -4.52565431 -0.15085514 0 0 Z " fill="#3B3B3B" transform="translate(80,131)"/>
<path d="M0 0 C0.33 0 0.66 0 1 0 C1.02578125 0.84304687 1.0515625 1.68609375 1.078125 2.5546875 C1.13484375 3.65039062 1.1915625 4.74609375 1.25 5.875 C1.29640625 6.96554688 1.3428125 8.05609375 1.390625 9.1796875 C1.59171875 10.11039063 1.7928125 11.04109375 2 12 C3.32 12.66 4.64 13.32 6 14 C3.03 14 0.06 14 -3 14 C-2.01 13.67 -1.02 13.34 0 13 C0 8.71 0 4.42 0 0 Z " fill="#8D8D8D" transform="translate(94,130)"/>
<path d="M0 0 C0.66 0 1.32 0 2 0 C2.33 2.64 2.66 5.28 3 8 C2.34 8 1.68 8 1 8 C1 9.65 1 11.3 1 13 C0.34 13 -0.32 13 -1 13 C-1.33 11.68 -1.66 10.36 -2 9 C-1.34 9 -0.68 9 0 9 C0 6.03 0 3.06 0 0 Z " fill="#B1B1B1" transform="translate(67,125)"/>
<path d="M0 0 C2.04219706 1.69179328 2.91793306 2.63727666 3.51171875 5.26171875 C3.56972656 6.06222656 3.62773438 6.86273438 3.6875 7.6875 C3.75324219 8.49574219 3.81898437 9.30398437 3.88671875 10.13671875 C3.92410156 10.75160156 3.96148437 11.36648437 4 12 C1.95780294 10.30820672 1.08206694 9.36272334 0.48828125 6.73828125 C0.43027344 5.93777344 0.37226562 5.13726562 0.3125 4.3125 C0.24675781 3.50425781 0.18101563 2.69601563 0.11328125 1.86328125 C0.07589844 1.24839844 0.03851563 0.63351563 0 0 Z " fill="#CECFD1" transform="translate(77,89)"/>
<path d="M0 0 C1.52519276 0.08937803 3.04681929 0.24537146 4.5625 0.4375 C5.80193359 0.59025391 5.80193359 0.59025391 7.06640625 0.74609375 C7.70449219 0.82988281 8.34257813 0.91367188 9 1 C9 1.66 9 2.32 9 3 C4.545 3.495 4.545 3.495 0 4 C-0.33 3.01 -0.66 2.02 -1 1 C-0.67 0.67 -0.34 0.34 0 0 Z " fill="#2D2E2E" transform="translate(79,177)"/>
<path d="M0 0 C1.98 0 3.96 0 6 0 C5.34 1.98 4.68 3.96 4 6 C3.01 5.67 2.02 5.34 1 5 C0.67 3.35 0.34 1.7 0 0 Z " fill="#B5B5B5" transform="translate(97,188)"/>
<path d="M0 0 C1.98 0 3.96 0 6 0 C5.34 1.98 4.68 3.96 4 6 C3.01 5.67 2.02 5.34 1 5 C0.67 3.35 0.34 1.7 0 0 Z " fill="#B5B5B5" transform="translate(81,188)"/>
<path d="M0 0 C1.98 0 3.96 0 6 0 C6 1.32 6 2.64 6 4 C4.02 4 2.04 4 0 4 C0 2.68 0 1.36 0 0 Z " fill="#343434" transform="translate(97,184)"/>
<path d="M0 0 C0.99 0.495 0.99 0.495 2 1 C4.00800456 0.71887936 6.01014051 0.38932033 8 0 C7.67 1.32 7.34 2.64 7 4 C4.69 4 2.38 4 0 4 C0 2.68 0 1.36 0 0 Z " fill="#626262" transform="translate(80,184)"/>
<path d="M0 0 C4.92127034 -0.16682272 8.50343896 -0.24828052 13 2 C12.34 2.66 11.68 3.32 11 4 C11 3.34 11 2.68 11 2 C9.02 2.33 7.04 2.66 5 3 C5 2.34 5 1.68 5 1 C3.35 1 1.7 1 0 1 C0 0.67 0 0.34 0 0 Z " fill="#7B7B7B" transform="translate(101,130)"/>
<path d="M0 0 C3.3 0.33 6.6 0.66 10 1 C10 1.33 10 1.66 10 2 C3.25 3.125 3.25 3.125 1 2 C0.67 2.66 0.34 3.32 0 4 C0 2.68 0 1.36 0 0 Z " fill="#3C3C3C" transform="translate(96,130)"/>
<path d="M0 0 C2.64 0 5.28 0 8 0 C8 0.66 8 1.32 8 2 C5.36 2.33 2.72 2.66 0 3 C0 2.01 0 1.02 0 0 Z " fill="#313131" transform="translate(86,130)"/>
</svg>
