<?xml version="1.0" encoding="UTF-8"?>
<svg version="1.1" xmlns="http://www.w3.org/2000/svg" width="85" height="84">
<path d="M0 0 C4.4054149 3.25617623 6.18908263 6.68610617 7 12 C7.30969711 15.17338987 7.56042289 18.34083364 7.75390625 21.5234375 C7.73000361 23.941244 7.73000361 23.941244 9 25 C8.65908345 29.6023734 8.30111479 31.84893588 5 35 C5.22843552 37.36050038 5.90776314 38.8462719 7.125 40.875 C8.34009711 43.82595012 7.69349619 45.94861675 7 49 C5.125 48.875 5.125 48.875 3 48 C1.875 45.0625 1.875 45.0625 1 42 C0.34 41.34 -0.32 40.68 -1 40 C-1 39.01 -1 38.02 -1 37 C-1.94875 37.185625 -2.8975 37.37125 -3.875 37.5625 C-7 38 -7 38 -9 37 C-9 40.63 -9 44.26 -9 48 C-10.98 48.495 -10.98 48.495 -13 49 C-15.21305911 46.78694089 -14.45329198 41.78059633 -14.62109375 38.78515625 C-14.7322894 35.86415567 -14.7322894 35.86415567 -17 34 C-17.49014663 29.41445173 -17.37041649 24.79622107 -17.375 20.1875 C-17.39949219 18.90294922 -17.42398437 17.61839844 -17.44921875 16.29492188 C-17.45308594 15.05677734 -17.45695312 13.81863281 -17.4609375 12.54296875 C-17.46915527 11.40883545 -17.47737305 10.27470215 -17.48583984 9.10620117 C-16.89627996 5.3368693 -15.62979866 3.7109728 -13 1 C-8.79204289 -1.57152935 -4.60942815 -1.42761641 0 0 Z " fill="#7F2021" transform="translate(44,22)"/>
<path d="M0 0 C0.57975586 0.16298584 1.15951172 0.32597168 1.75683594 0.49389648 C5.22673123 1.27677556 8.712623 1.10312359 12.25 1.0625 C13.36761719 1.05573242 13.36761719 1.05573242 14.5078125 1.04882812 C16.3385764 1.03709246 18.16929873 1.0191585 20 1 C24.07877462 7.89715536 24.07877462 7.89715536 23.75 12.5 C23.5025 13.325 23.255 14.15 23 15 C21.125 14.875 21.125 14.875 19 14 C17.875 11.0625 17.875 11.0625 17 8 C16.34 7.34 15.68 6.68 15 6 C15 5.01 15 4.02 15 3 C13.576875 3.2784375 13.576875 3.2784375 12.125 3.5625 C9 4 9 4 7 3 C7 6.63 7 10.26 7 14 C5.68 14.33 4.36 14.66 3 15 C1.21005262 13.21005262 1.66150137 10.48790444 1.5 8.0625 C1.32264916 3.87832585 1.32264916 3.87832585 0 0 Z " fill="#BEBABC" transform="translate(28,56)"/>
<path d="M0 0 C0.33 0 0.66 0 1 0 C1.06058594 0.85464844 1.12117188 1.70929687 1.18359375 2.58984375 C1.30927734 4.24693359 1.30927734 4.24693359 1.4375 5.9375 C1.51871094 7.03964844 1.59992187 8.14179687 1.68359375 9.27734375 C1.70418084 11.91109903 1.70418084 11.91109903 3 13 C2.53558052 19.26966292 2.53558052 19.26966292 0.625 21.875 C-3.01188245 24.3928417 -6.59901157 24.16489964 -10.875 24.1875 C-12.08929688 24.20167969 -13.30359375 24.21585938 -14.5546875 24.23046875 C-17.84344421 24.01047255 -20.05365948 23.41715618 -23 22 C-23 20.02 -23 18.04 -23 16 C-22.67 16.66 -22.34 17.32 -22 18 C-13.82099054 20.9444434 -8.44835034 20.11208758 0 18 C0 12.06 0 6.12 0 0 Z " fill="#934949" transform="translate(50,34)"/>
<path d="M0 0 C1.98 0.66 3.96 1.32 6 2 C6 6.29 6 10.58 6 15 C4.68 14.67 3.36 14.34 2 14 C1.93941406 13.15695313 1.87882812 12.31390625 1.81640625 11.4453125 C1.73261719 10.34960938 1.64882813 9.25390625 1.5625 8.125 C1.48128906 7.03445312 1.40007813 5.94390625 1.31640625 4.8203125 C1.16998297 2.05271029 1.16998297 2.05271029 0 0 Z " fill="#BDB8BA" transform="translate(28,56)"/>
<path d="M0 0 C0.66 0.33 1.32 0.66 2 1 C1.51660156 1.64839844 1.03320312 2.29679687 0.53515625 2.96484375 C-1.46202957 6.91347831 -1.48387037 10.20042775 -1.5625 14.5625 C-1.75676011 22.98763291 -1.75676011 22.98763291 -4 27 C-4.11654436 23.4377769 -4.1873639 19.87604658 -4.25 16.3125 C-4.28351562 15.30509766 -4.31703125 14.29769531 -4.3515625 13.25976562 C-4.45112665 5.71778097 -4.45112665 5.71778097 -1.984375 1.79296875 C-1.32953125 1.20128906 -0.6746875 0.60960938 0 0 Z " fill="#7F3B3D" transform="translate(31,23)"/>
<path d="M0 0 C0.99 0.33 1.98 0.66 3 1 C4.33525717 1.07973476 5.67412083 1.10771338 7.01171875 1.09765625 C7.76904297 1.09443359 8.52636719 1.09121094 9.30664062 1.08789062 C10.48516602 1.07532227 10.48516602 1.07532227 11.6875 1.0625 C12.48478516 1.05798828 13.28207031 1.05347656 14.10351562 1.04882812 C16.06904257 1.0370585 18.03453085 1.01912348 20 1 C20 1.66 20 2.32 20 3 C17.0586446 4.4706777 14.39772595 4.17048999 11.125 4.1875 C9.27261719 4.20876953 9.27261719 4.20876953 7.3828125 4.23046875 C4.25913288 4.01765455 2.59938404 3.65237226 0 2 C0 1.34 0 0.68 0 0 Z " fill="#762B2C" transform="translate(28,54)"/>
<path d="M0 0 C0.33 0 0.66 0 1 0 C1.06058594 0.85464844 1.12117188 1.70929687 1.18359375 2.58984375 C1.26738281 3.69457031 1.35117187 4.79929687 1.4375 5.9375 C1.51871094 7.03964844 1.59992187 8.14179687 1.68359375 9.27734375 C1.70418084 11.91109903 1.70418084 11.91109903 3 13 C3.04063832 14.66617115 3.042721 16.33388095 3 18 C2.01 18 1.02 18 0 18 C0 12.06 0 6.12 0 0 Z " fill="#C09091" transform="translate(50,34)"/>
<path d="M0 0 C0.99 0.33 1.98 0.66 3 1 C3 3.31 3 5.62 3 8 C2.34 8 1.68 8 1 8 C0.67 8.66 0.34 9.32 0 10 C0 6.7 0 3.4 0 0 Z " fill="#918889" transform="translate(31,57)"/>
<path d="M0 0 C1.6875 2.375 1.6875 2.375 3 5 C2.67 5.66 2.34 6.32 2 7 C1.34 6.34 0.68 5.68 0 5 C-2.06874034 4.3574765 -2.06874034 4.3574765 -4 4 C-4 3.01 -4 2.02 -4 1 C-2 0 -2 0 0 0 Z " fill="#B6B2B1" transform="translate(48,57)"/>
</svg>
