<?xml version="1.0" encoding="UTF-8"?>
<svg version="1.1" xmlns="http://www.w3.org/2000/svg" width="1024" height="1024">
<path d="M0 0 C0.639375 0.24363281 1.27875 0.48726562 1.9375 0.73828125 C7.64862741 3.42812027 11.05537732 8.56915237 14 14 C15.9267478 19.53223995 16.2821551 24.40645624 16.24291992 30.23657227 C16.24481827 31.13503876 16.24671661 32.03350525 16.24867249 32.959198 C16.25235942 35.91169119 16.24170569 38.86393513 16.23046875 41.81640625 C16.22927565 43.87711051 16.22882406 45.93781531 16.2290802 47.9985199 C16.22751893 52.30983909 16.21925619 56.62107484 16.20581055 60.93237305 C16.18881069 66.45254285 16.18499677 71.97262115 16.18575573 77.49281406 C16.18548354 81.74534474 16.17999465 85.99785551 16.17275429 90.25037956 C16.1695775 92.2857034 16.16760253 94.32102949 16.16686058 96.35635567 C16.16468712 99.20188346 16.15592142 102.0473152 16.14526367 104.89282227 C16.14571686 105.72987198 16.14617004 106.56692169 16.14663696 107.42933655 C16.12313731 111.73063246 15.85555498 115.76370914 15 120 C15.59167969 119.94199219 16.18335938 119.88398438 16.79296875 119.82421875 C21.07226258 119.57988713 23.30774291 119.52867602 26.9375 122 C30.78526592 127.59675043 31.33104211 134.47458109 32.11328125 141.10571289 C32.20789642 141.87282593 32.3025116 142.63993896 32.3999939 143.43029785 C32.70886181 145.94386801 33.0106908 148.45822966 33.3125 150.97265625 C33.5285918 152.7413843 33.74515283 154.51005507 33.9621582 156.27867126 C34.53126656 160.92642695 35.09451918 165.5748731 35.65637207 170.22351074 C36.33495869 175.8298656 37.01990003 181.4354467 37.70445251 187.04107571 C38.23823976 191.41249405 38.77096628 195.78403063 39.30004883 200.15602112 C39.49550872 201.76686762 39.69106309 203.37770266 39.88671875 204.98852539 C39.97990891 205.7581363 40.07309906 206.52774721 40.16911316 207.32067966 C40.61429593 210.96698122 41.0773186 214.6092238 41.58398438 218.24752808 C41.67702347 218.91906386 41.77006256 219.59059965 41.86592102 220.28248501 C42.11684145 222.07458683 42.37395107 223.86581913 42.6315918 225.65696716 C43.23175759 231.10302926 43.16603916 236.52993199 43 242 C45.97 242 48.94 242 52 242 C53.3783621 244.75672421 53.13482398 246.98512816 53.14526367 250.0703125 C53.15164352 251.34503418 53.15802338 252.61975586 53.16459656 253.93310547 C53.166125 255.33040326 53.16723909 256.72770156 53.16796875 258.125 C53.17118063 259.55224644 53.17454465 260.97949254 53.17805481 262.40673828 C53.18404652 265.39942183 53.18589462 268.3920765 53.18530273 271.38476562 C53.185201 275.2251432 53.19886481 279.06533636 53.21607494 282.90567017 C53.22717552 285.85328019 53.22922256 288.80084533 53.22869301 291.74847412 C53.22987562 293.16469968 53.23431306 294.5809263 53.24202538 295.99713135 C53.25178755 297.97462599 53.24769279 299.95217452 53.24291992 301.9296875 C53.24434494 303.05616699 53.24576996 304.18264648 53.24723816 305.34326172 C53 308 53 308 51 310 C47.75382456 311.14190685 44.66670275 311.10317503 41.25 311.0625 C40.26515625 311.05347656 39.2803125 311.04445313 38.265625 311.03515625 C37.14414062 311.01775391 37.14414062 311.01775391 36 311 C36.16226074 311.57669434 36.32452148 312.15338867 36.49169922 312.74755859 C36.98416179 314.92981589 37.12910404 316.80815888 37.1328125 319.0390625 C37.13410156 319.78414063 37.13539063 320.52921875 37.13671875 321.296875 C37.13285156 322.06515625 37.12898437 322.8334375 37.125 323.625 C37.12886719 324.40101563 37.13273438 325.17703125 37.13671875 325.9765625 C37.12670133 331.74659734 37.12670133 331.74659734 36 334 C33.29904208 334.90031931 31.74767314 335.1271604 28.97692871 335.13371277 C28.16096725 335.13797775 27.3450058 335.14224274 26.50431824 335.14663696 C25.61279556 335.14618378 24.72127289 335.14573059 23.80273438 335.14526367 C22.86101883 335.14862228 21.91930328 335.1519809 20.9490509 335.15544128 C17.83060392 335.1649543 14.71221059 335.16689444 11.59375 335.16796875 C9.43046038 335.1711806 7.26717099 335.17454462 5.10388184 335.17805481 C0.56778459 335.18404661 -3.9682936 335.18589461 -8.50439453 335.18530273 C-14.32543114 335.185201 -20.14634608 335.19886484 -25.96735382 335.21607494 C-30.43508469 335.22717528 -34.90278593 335.22922256 -39.37052917 335.22869301 C-41.51719076 335.22987565 -43.66385304 335.23431324 -45.8105011 335.24202538 C-48.80799983 335.2517875 -51.80523164 335.2489624 -54.80273438 335.24291992 C-55.69425705 335.24853943 -56.58577972 335.25415894 -57.50431824 335.25994873 C-58.72826042 335.253657 -58.72826042 335.253657 -59.97692871 335.24723816 C-60.68557823 335.24778293 -61.39422775 335.24832769 -62.1243515 335.24888897 C-64 335 -64 335 -67 333 C-67.34057617 330.75341797 -67.34057617 330.75341797 -67.29296875 327.9921875 C-67.28330078 327.00605469 -67.27363281 326.01992188 -67.26367188 325.00390625 C-67.23853516 323.97136719 -67.21339844 322.93882812 -67.1875 321.875 C-67.17396484 320.83472656 -67.16042969 319.79445313 -67.14648438 318.72265625 C-67.11105228 316.14792373 -67.06165221 313.5742167 -67 311 C-67.81984375 311.03480469 -68.6396875 311.06960938 -69.484375 311.10546875 C-70.56203125 311.13253906 -71.6396875 311.15960938 -72.75 311.1875 C-73.81734375 311.22230469 -74.8846875 311.25710938 -75.984375 311.29296875 C-79.46047189 310.95526504 -80.5733976 310.47143556 -83 308 C-83.48774719 305.17831421 -83.48774719 305.17831421 -83.4699707 301.70849609 C-83.47289627 300.4106015 -83.47582184 299.11270691 -83.47883606 297.77548218 C-83.46172488 296.35812691 -83.44402598 294.94077863 -83.42578125 293.5234375 C-83.42085818 292.07280932 -83.41755876 290.62217479 -83.41581726 289.17153931 C-83.408178 286.13335853 -83.38761734 283.09564901 -83.35668945 280.05761719 C-83.31704402 276.1555481 -83.29906985 272.25378526 -83.28938007 268.3515377 C-83.27942696 264.63796249 -83.2595241 260.92446275 -83.23828125 257.2109375 C-83.2348855 256.49841198 -83.23148975 255.78588646 -83.2279911 255.05176926 C-83.21646397 253.04537891 -83.19693989 251.03903924 -83.17700195 249.03271484 C-83.16715775 247.88926605 -83.15731354 246.74581726 -83.14717102 245.56771851 C-83 243 -83 243 -82 242 C-78.99996555 241.85822143 -76.00242765 241.95771229 -73 242 C-73.02173782 240.72435181 -73.04347565 239.44870361 -73.06587219 238.13439941 C-73.06256563 232.9823716 -72.55788648 227.96041235 -71.94604492 222.84960938 C-71.83382095 221.87764114 -71.72159698 220.90567291 -71.60597229 219.9042511 C-71.23629781 216.71674853 -70.85883643 213.53023153 -70.48046875 210.34375 C-70.21842936 208.11375037 -69.95657626 205.88372885 -69.69490051 203.65368652 C-69.14623448 198.98987158 -68.59334737 194.32657921 -68.0378418 189.66357422 C-67.32841527 183.70327261 -66.63254001 177.74147572 -65.9402113 171.77916718 C-65.40372224 167.17659345 -64.8584924 162.57508581 -64.31081581 157.97383118 C-64.0506423 155.776674 -63.79350914 153.57915449 -63.53954124 151.38127136 C-63.18283896 148.30315117 -62.81397121 145.22671483 -62.44213867 142.15039062 C-62.34071564 141.25246292 -62.2392926 140.35453522 -62.13479614 139.42939758 C-60.39835653 125.39835653 -60.39835653 125.39835653 -56 121 C-53.6171875 120.5859375 -53.6171875 120.5859375 -50.875 120.375 C-49.50988281 120.26285156 -49.50988281 120.26285156 -48.1171875 120.1484375 C-47.41851562 120.09945312 -46.71984375 120.05046875 -46 120 C-46.00888245 118.78192657 -46.01776489 117.56385315 -46.0269165 116.30886841 C-46.1081644 104.80401029 -46.1680432 93.29921074 -46.20724869 81.79413033 C-46.22808255 75.87988408 -46.25632368 69.9658703 -46.30175781 64.05175781 C-46.345365 58.33941248 -46.36916868 52.62729011 -46.37950897 46.91479111 C-46.38687364 44.7403907 -46.40125495 42.56600187 -46.42292023 40.39169693 C-46.45215154 37.33524896 -46.45594773 34.27971081 -46.45410156 31.22314453 C-46.47567322 29.888489 -46.47567322 29.888489 -46.49768066 28.52687073 C-46.43798271 19.33387846 -43.38271273 11.48665967 -37.0625 4.7578125 C-26.28691162 -4.4259276 -12.75119501 -4.93247239 0 0 Z " fill="#2C2C28" transform="translate(527,20)"/>
<path d="M0 0 C0.95018005 0.00359528 1.90036011 0.00719055 2.8793335 0.01089478 C4.37184883 0.01067574 4.37184883 0.01067574 5.89451599 0.01045227 C9.20059348 0.01115186 12.5066154 0.01894637 15.81268311 0.02676392 C18.09811879 0.02862793 20.38355487 0.03005191 22.66899109 0.03105164 C28.69751073 0.03487809 34.72600644 0.04470947 40.7545166 0.05575562 C46.90085527 0.06596699 53.04719778 0.07054867 59.19354248 0.07559204 C71.26321447 0.08633162 83.33286868 0.10340957 95.40252686 0.12442017 C96.04621654 3.22432568 96.5300315 6.09272758 96.53533936 9.26113892 C96.53662842 10.00299438 96.53791748 10.74484985 96.53924561 11.50918579 C96.53537842 12.26908813 96.53151123 13.02899048 96.52752686 13.81192017 C96.53139404 14.58342407 96.53526123 15.35492798 96.53924561 16.14981079 C96.52925232 21.87096925 96.52925232 21.87096925 95.40252686 24.12442017 C92.70156894 25.02473947 91.15019999 25.25158056 88.37945557 25.25813293 C87.15551338 25.26453041 87.15551338 25.26453041 85.90684509 25.27105713 C85.01532242 25.27060394 84.12379974 25.27015076 83.20526123 25.26968384 C82.26354568 25.27304245 81.32183014 25.27640106 80.35157776 25.27986145 C77.23313078 25.28937447 74.11473745 25.29131461 70.99627686 25.29238892 C68.83298724 25.29560077 66.66969784 25.29896478 64.50640869 25.30247498 C59.97031144 25.30846678 55.43423325 25.31031477 50.89813232 25.3097229 C45.07709572 25.30962116 39.25618077 25.32328501 33.43517303 25.34049511 C28.96744217 25.35159545 24.49974093 25.35364273 20.03199768 25.35311317 C17.8853361 25.35429582 15.73867381 25.35873341 13.59202576 25.36644554 C10.59452703 25.37620767 7.59729521 25.37338257 4.59979248 25.36734009 C3.70826981 25.37295959 2.81674713 25.3785791 1.89820862 25.3843689 C0.67426643 25.37807716 0.67426643 25.37807716 -0.57440186 25.37165833 C-1.28305138 25.37220309 -1.9917009 25.37274786 -2.72182465 25.37330914 C-4.59747314 25.12442017 -4.59747314 25.12442017 -7.59747314 23.12442017 C-7.95391846 20.89370728 -7.95391846 20.89370728 -7.92559814 18.15176392 C-7.92044189 17.17014282 -7.91528564 16.18852173 -7.90997314 15.17715454 C-7.88934814 14.1491272 -7.86872314 13.12109985 -7.84747314 12.06192017 C-7.84231689 11.03002563 -7.83716064 9.9981311 -7.83184814 8.93496704 C-7.73798787 0.01237425 -7.73798787 0.01237425 0 0 Z " fill="#A4A4A5" transform="translate(467.59747314453125,329.8755798339844)"/>
<path d="M0 0 C32.67 0.33 65.34 0.66 99 1 C99 4.3 99 7.6 99 11 C66.33 11 33.66 11 0 11 C0 7.37 0 3.74 0 0 Z " fill="#919191" transform="translate(462,330)"/>
<path d="M0 0 C0.66 0 1.32 0 2 0 C2.25 5.625 2.25 5.625 0 9 C-0.58837246 10.71383721 -1.12719954 12.44519841 -1.625 14.1875 C-1.88539063 15.08855469 -2.14578125 15.98960938 -2.4140625 16.91796875 C-2.60742188 17.60503906 -2.80078125 18.29210937 -3 19 C0.3 19 3.6 19 7 19 C2.62670966 25.24755763 -2.3534375 30.73043573 -7.5925293 36.25048828 C-8.14593994 36.83556152 -8.69935059 37.42063477 -9.26953125 38.0234375 C-9.77073486 38.54856934 -10.27193848 39.07370117 -10.78833008 39.61474609 C-12.10818585 41.006161 -12.10818585 41.006161 -13 43 C-13.66 43 -14.32 43 -15 43 C-14.42567995 36.53889944 -12.31627583 31.05220459 -10 25 C-13.63 25 -17.26 25 -21 25 C-17.34043861 19.87661405 -13.55130964 15.46532389 -9.02734375 11.09765625 C-6.20254562 8.17488824 -3.8312646 4.97234569 -1.4453125 1.6875 C-0.96835937 1.130625 -0.49140625 0.57375 0 0 Z " fill="#F4F403" transform="translate(519,40)"/>
</svg>
